<?xml version="1.0" encoding="utf-8"?>
<!-- Generator: Adobe Illustrator 24.1.2, SVG Export Plug-In . SVG Version: 6.00 Build 0)  -->
<svg version="1.1" id="Warstwa_3" xmlns="http://www.w3.org/2000/svg" xmlns:xlink="http://www.w3.org/1999/xlink" x="0px" y="0px"
	 viewBox="0 0 430 430" style="enable-background:new 0 0 430 430;" xml:space="preserve">
<style type="text/css">
	.st0{fill:#000000;}
	.st1{fill:#000000;}
	.st2{fill:#000000;fill-opacity:0;}
	.st3{fill:none;}
</style>
<g>
	<g>
		<path class="st1" d="M135.38,387.82h-31.76c-1.61,0-3.15-0.64-4.28-1.78c-1.13-1.14-1.77-2.68-1.77-4.29l0.12-49.51
			c0.01-3.33,2.71-6.03,6.05-6.03c0,0,0.01,0,0.01,0c3.34,0.01,6.04,2.72,6.03,6.06l-0.1,43.45h19.67l0.1-43.48
			c0.01-3.33,2.71-6.03,6.05-6.03c0,0,0.01,0,0.01,0c3.34,0.01,6.04,2.72,6.03,6.06l-0.12,49.51
			C141.42,385.12,138.72,387.82,135.38,387.82z"/>
		<path class="st1" d="M99.56,138.32c-1.55,0-3.11-0.59-4.29-1.78c-2.36-2.37-2.35-6.2,0.02-8.55l0.19-0.19
			c2.37-2.36,6.2-2.35,8.55,0.02c2.36,2.37,2.35,6.2-0.02,8.55l-0.19,0.19C102.65,137.73,101.1,138.32,99.56,138.32z"/>
		<path class="st1" d="M70.58,192.48H45.4c-2.45,0-4.65-1.47-5.59-3.73c-0.94-2.26-0.42-4.86,1.31-6.59l33.42-33.42
			c2.36-2.36,6.19-2.36,8.55,0c2.36,2.36,2.36,6.19,0,8.55L60,180.38h10.58c3.34,0,6.05,2.71,6.05,6.05S73.92,192.48,70.58,192.48z"
			/>
		<path class="st1" d="M191.65,335.87H7.5c-2.45,0-4.65-1.47-5.59-3.73c-0.94-2.26-0.42-4.86,1.31-6.59l56.79-56.8H16.49
			c-2.45,0-4.65-1.47-5.59-3.73c-0.94-2.26-0.42-4.86,1.31-6.59l57.98-57.98c2.36-2.36,6.19-2.36,8.55,0c2.36,2.36,2.36,6.19,0,8.55
			l-47.66,47.66h43.53c2.45,0,4.65,1.47,5.59,3.73c0.94,2.26,0.42,4.86-1.31,6.59l-56.79,56.8h169.55c3.34,0,6.05,2.71,6.05,6.05
			S194.99,335.87,191.65,335.87z"/>
	</g>
	<g>
		<path class="st1" d="M326.38,387.82h-31.76c-1.61,0-3.15-0.64-4.28-1.78c-1.13-1.14-1.77-2.68-1.77-4.29l0.12-49.51
			c0.01-3.33,2.71-6.03,6.05-6.03c0,0,0.01,0,0.01,0c3.34,0.01,6.04,2.72,6.03,6.06l-0.1,43.45h19.67l0.1-43.48
			c0.01-3.33,2.71-6.03,6.05-6.03c0,0,0.01,0,0.01,0c3.34,0.01,6.04,2.72,6.03,6.06l-0.12,49.51
			C332.42,385.12,329.72,387.82,326.38,387.82z"/>
		<path class="st1" d="M332.18,140.06c-1.45,0-2.9-0.52-4.06-1.57l-0.01-0.01c-2.47-2.25-2.65-6.07-0.41-8.54
			c2.25-2.47,6.07-2.65,8.54-0.41c2.47,2.25,2.66,6.08,0.41,8.55C335.47,139.39,333.83,140.06,332.18,140.06z"/>
		<path class="st1" d="M384.6,192.48h-26.18c-3.34,0-6.05-2.71-6.05-6.05s2.71-6.05,6.05-6.05H370l-25.78-25.78
			c-1.13-1.1-1.84-2.64-1.84-4.34c0-3.34,2.71-6.05,6.05-6.05c1.67,0,3.19,0.68,4.29,1.78l36.16,36.16
			c1.73,1.73,2.25,4.33,1.31,6.59C389.25,191,387.05,192.48,384.6,192.48z"/>
		<path class="st1" d="M422.5,335.87H231.35c-3.34,0-6.05-2.71-6.05-6.05s2.71-6.05,6.05-6.05H407.9l-56.79-56.8
			c-1.73-1.73-2.25-4.33-1.31-6.59c0.94-2.26,3.14-3.73,5.59-3.73h43.53l-48.38-48.38c-2.36-2.36-2.36-6.19,0-8.55
			c2.36-2.36,6.19-2.36,8.55,0l58.7,58.7c1.73,1.73,2.25,4.33,1.31,6.59c-0.94,2.26-3.14,3.73-5.59,3.73h-43.53l56.79,56.8
			c1.73,1.73,2.25,4.33,1.31,6.59C427.15,334.39,424.95,335.87,422.5,335.87z"/>
		<path class="st1" d="M231.35,387.45h-39.7c-3.48,0-6.3-2.82-6.3-6.3V242.76c0-3.48,2.82-6.3,6.3-6.3s6.3,2.82,6.3,6.3v132.09h27.1
			V242.76c0-3.48,2.82-6.3,6.3-6.3s6.3,2.82,6.3,6.3v138.39C237.65,384.63,234.83,387.45,231.35,387.45z"/>
	</g>
	<path class="st0" d="M299.08,249.06H129.92c-36.24,0-65.72-29.48-65.72-65.72c0-21.86,11.06-42.43,29.11-54.57
		c0.08-24.2,19.79-43.86,44-43.86c1.87,0,3.75,0.12,5.63,0.36c19.47-27.22,50.65-43.35,84.25-43.35
		c49.49,0,91.63,34.58,101.44,82.71c22.08,11.12,36.17,33.81,36.17,58.7C364.8,219.58,335.32,249.06,299.08,249.06z M95.79,142.66
		c-11.88,10.01-19,24.93-19,40.68c0,29.29,23.83,53.12,53.12,53.12h169.16c29.29,0,53.12-23.83,53.12-53.12
		c0-21.04-12.45-40.12-31.71-48.62c-0.25-0.11-0.49-0.23-0.72-0.37c-11.72-4.92-24.79-5.47-36.88-1.55
		c-3.31,1.07-6.86-0.74-7.93-4.05c-1.07-3.31,0.74-6.86,4.05-7.93c11.5-3.72,23.71-4.18,35.33-1.43
		c-11.33-38.16-46.4-64.85-87.15-64.85c-30.71,0-59.13,15.35-76.04,41.06c-0.08,0.15-0.17,0.29-0.26,0.43
		c-2.43,3.76-4.51,7.86-6.43,11.74c-1.54,3.12-5.32,4.4-8.44,2.85c-3.12-1.54-4.4-5.32-2.85-8.44c0.75-1.51,1.52-3.05,2.33-4.61
		c-16.47,0.95-29.58,14.65-29.58,31.35c0,0.64,0.02,1.31,0.07,2.04c0.03,0.16,0.06,0.33,0.08,0.5c0.06,0.53,0.13,1.05,0.22,1.58
		c1.31,8,5.63,15.02,12.18,19.78c0.42,0.31,1.18,0.8,2.36,1.38c3.12,1.55,4.39,5.33,2.84,8.44c-1.55,3.12-5.33,4.39-8.44,2.84
		c-1.58-0.78-2.98-1.62-4.16-2.48C103.94,157.83,98.68,150.78,95.79,142.66z"/>
</g>
</svg>
