<?xml version="1.0" encoding="utf-8"?>
<!-- Generator: Adobe Illustrator 24.1.2, SVG Export Plug-In . SVG Version: 6.00 Build 0)  -->
<svg version="1.1" id="Warstwa_3" xmlns="http://www.w3.org/2000/svg" xmlns:xlink="http://www.w3.org/1999/xlink" x="0px" y="0px"
	 viewBox="0 0 430 430" style="enable-background:new 0 0 430 430;" xml:space="preserve">
<style type="text/css">
	.st0{fill:#000000;}
	.st1{fill:#000000;}
	.st2{fill:#000000;fill-opacity:0;}
	.st3{fill:none;}
</style>
<g>
	<path class="st1" d="M234.85,387.76h-39.7c-3.48,0-6.3-2.82-6.3-6.3v-72.26l-25.47-25.47c-2.46-2.46-2.46-6.45,0-8.91
		c2.46-2.46,6.45-2.46,8.91,0l16.57,16.57v-48.32c0-3.48,2.82-6.3,6.3-6.3s6.3,2.82,6.3,6.3v132.09h27.1v-83.35
		c-0.04-0.42-0.04-0.84,0-1.26v-47.49c0-3.48,2.82-6.3,6.3-6.3s6.3,2.82,6.3,6.3v32.88l35.32-35.33c2.46-2.46,6.45-2.46,8.91,0
		c2.46,2.46,2.46,6.45,0,8.91l-44.23,44.23v87.7C241.15,384.94,238.33,387.76,234.85,387.76z"/>
	<path class="st0" d="M299.58,249.37H130.42c-36.24,0-65.72-29.48-65.72-65.72c0-21.86,11.06-42.43,29.11-54.57
		c0.08-24.2,19.79-43.86,44-43.86c1.87,0,3.75,0.12,5.63,0.36c19.47-27.22,50.65-43.35,84.25-43.35
		c49.49,0,91.63,34.58,101.44,82.71c22.08,11.12,36.17,33.81,36.17,58.7C365.3,219.89,335.82,249.37,299.58,249.37z M96.29,142.97
		c-11.88,10.01-19,24.93-19,40.68c0,29.29,23.83,53.12,53.12,53.12h169.16c29.29,0,53.12-23.83,53.12-53.12
		c0-21.04-12.45-40.12-31.72-48.62c-0.25-0.11-0.49-0.24-0.72-0.38c-11.72-4.91-24.78-5.46-36.88-1.55
		c-3.31,1.07-6.86-0.74-7.93-4.05c-1.07-3.31,0.74-6.86,4.05-7.93c11.5-3.73,23.71-4.18,35.33-1.43
		c-11.33-38.16-46.4-64.85-87.15-64.85c-30.71,0-59.13,15.35-76.04,41.06c-0.08,0.15-0.17,0.29-0.26,0.44
		c-2.44,3.76-4.51,7.86-6.43,11.74c-1.54,3.12-5.32,4.4-8.44,2.85c-3.12-1.54-4.4-5.32-2.85-8.44c0.75-1.51,1.52-3.05,2.33-4.61
		c-16.47,0.95-29.58,14.65-29.58,31.35c0,0.64,0.02,1.31,0.07,2.04c0.03,0.16,0.06,0.33,0.08,0.5c0.06,0.53,0.13,1.06,0.22,1.58
		c1.31,7.99,5.63,15.02,12.18,19.78c0.42,0.31,1.18,0.8,2.36,1.38c3.12,1.55,4.39,5.33,2.84,8.44c-1.55,3.12-5.33,4.39-8.44,2.84
		c-1.58-0.78-2.98-1.62-4.16-2.48C104.44,158.15,99.18,151.09,96.29,142.97z"/>
</g>
</svg>
