<?xml version="1.0" encoding="utf-8"?>
<!-- Generator: Adobe Illustrator 24.1.2, SVG Export Plug-In . SVG Version: 6.00 Build 0)  -->
<svg version="1.1" id="Warstwa_3" xmlns="http://www.w3.org/2000/svg" xmlns:xlink="http://www.w3.org/1999/xlink" x="0px" y="0px"
	 viewBox="0 0 430 430" style="enable-background:new 0 0 430 430;" xml:space="preserve">
<style type="text/css">
	.st0{fill:#000000;}
	.st1{fill:#000000;}
	.st2{fill:#000000;}
	.st3{fill:none;}
	.st4{fill:none;stroke:#000000;stroke-width:12;stroke-linecap:round;stroke-linejoin:round;stroke-miterlimit:10;}
	.st5{fill:none;stroke:#000000;stroke-width:12;stroke-linecap:round;stroke-linejoin:round;stroke-miterlimit:10;}
	.st6{fill:none;stroke:#000000;stroke-width:16;stroke-linecap:round;stroke-linejoin:round;stroke-miterlimit:10;}
</style>
<g>
	<path class="st0" d="M261.7,207.67c-1.54,0-3.07-0.59-4.24-1.76c-2.34-2.34-2.34-6.14,0-8.49c15.66-15.66,43.24-32.39,73.66-32.39
		c26.63,0,51.67,10.37,70.5,29.21c2.34,2.34,2.34,6.14,0,8.49c-2.34,2.34-6.14,2.34-8.49,0c-16.57-16.57-38.59-25.69-62.02-25.69
		c-22.05,0-47.63,11.34-65.18,28.88C264.77,207.08,263.23,207.67,261.7,207.67z"/>
	<path class="st0" d="M32.52,204.17c-1.54,0-3.09-0.59-4.26-1.78c-2.33-2.35-2.31-6.15,0.04-8.49
		c18.79-18.62,43.71-28.87,70.17-28.87c22.8,0,44.26,7.49,62.05,21.67c2.59,2.06,3.02,5.84,0.95,8.43
		c-2.06,2.59-5.84,3.02-8.43,0.95c-15.65-12.46-34.52-19.05-54.57-19.05c-23.28,0-45.2,9.02-61.73,25.4
		C35.57,203.59,34.04,204.17,32.52,204.17z"/>
	<path class="st1" d="M191.02,270.73c-2.19,0-4.3-1.2-5.35-3.3l-0.02-0.04c-1.48-2.96-0.28-6.57,2.68-8.05
		c2.97-1.48,6.57-0.28,8.05,2.68c1.48,2.96,0.29,6.59-2.67,8.07C192.85,270.53,191.93,270.73,191.02,270.73z"/>
	<path class="st1" d="M191.16,270.71h-0.11c-3.31,0-6.02-2.69-6.02-6s2.67-6,5.98-6h0.14c3.31,0,6,2.69,6,6
		S194.48,270.71,191.16,270.71z"/>
	<path class="st1" d="M98.92,314.94c-27.68,0-50.2-22.52-50.2-50.2c0-3.31,2.69-6,6-6s6,2.69,6,6c0,21.06,17.14,38.2,38.2,38.2
		c3.31,0,6,2.69,6,6S102.23,314.94,98.92,314.94z"/>
	<path class="st1" d="M331.12,314.94c-27.68,0-50.2-22.52-50.2-50.2c0-3.31,2.69-6,6-6s6,2.69,6,6c0,21.06,17.14,38.2,38.2,38.2
		c3.31,0,6,2.69,6,6S334.43,314.94,331.12,314.94z"/>
	<path class="st1" d="M190.77,293.15c-0.43,0-0.87-0.05-1.31-0.14l-9.81-2.18c-3.23-0.72-5.27-3.92-4.56-7.16
		c0.72-3.24,3.93-5.27,7.16-4.56l9.81,2.18c3.23,0.72,5.27,3.92,4.56,7.16C196,291.25,193.52,293.15,190.77,293.15z"/>
	<path class="st0" d="M213.59,309.58c-2.07,0-4.09-1.08-5.2-3L185.57,267c-1.66-2.87-0.67-6.54,2.2-8.19
		c2.87-1.65,6.54-0.67,8.19,2.2l22.82,39.58c1.66,2.87,0.67,6.54-2.2,8.19C215.64,309.32,214.61,309.58,213.59,309.58z"/>
	<path class="st0" d="M237.41,310.05h-23.82c-3.31,0-6-2.69-6-6s2.69-6,6-6h23.82c3.31,0,6,2.69,6,6S240.72,310.05,237.41,310.05z"
		/>
	<path class="st1" d="M331.08,188.02c-6.85,0-13.48,0.91-19.8,2.61l-18.46-52.27c0-0.01-0.01-0.01-0.01-0.02l-7.19-20.37h16.24
		l11.81,31.78c0.87,2.35,3.12,3.91,5.62,3.91c0.02,0,0.03,0,0.05,0l29-0.22c1.59-0.01,3.12-0.66,4.24-1.8s1.74-2.67,1.72-4.27
		l-0.57-52.9c-0.04-3.29-2.71-5.94-6-5.94c-0.01,0-0.02,0-0.02,0l-48.1,0.19c-1.96,0.01-3.79,0.97-4.91,2.58
		c-1.12,1.61-1.37,3.67-0.69,5.51l3.4,9.14h-16.01l-4.6-13.04c-0.07-0.2-0.15-0.39-0.23-0.57c-0.07-0.16-0.16-0.31-0.25-0.46
		c-0.01-0.01-0.02-0.03-0.02-0.04c-1.13-1.91-3.23-3.03-5.42-2.93l-33.29,1.31c-8.64,0.34-12.89,4.29-14.93,7.55
		c-5.63,8.99-0.33,21.75,0.29,23.17c0.98,2.25,3.18,3.59,5.49,3.59c0.8,0,1.61-0.16,2.39-0.5c3.03-1.31,4.43-4.84,3.12-7.88
		c-1.42-3.31-2.76-9.42-1.12-12.02c0.74-1.17,2.5-1.82,5.23-1.92l28.9-1.13l13.85,39.22c-1.53,4.87-6.14,18.93-13.43,35.7
		c-7.83,5.89-54.22,39.19-92.18,32.21l-24.31-61.59h5.58c3.31,0,6-2.69,6-6s-2.69-6-6-6H142.2c-0.02,0-0.04,0-0.06,0h-24.91
		c-3.31,0-6,2.69-6,6s2.69,6,6,6h20.73l15.56,39.43l-11.86,14.98c-12.64-8.53-27.3-13.01-42.75-13.01
		c-42.3,0-76.72,34.42-76.72,76.72c0,42.3,34.42,76.72,76.72,76.72c33.3,0,62.44-21.27,72.78-52.4l17.76,3.94
		c0.43,0.1,0.86,0.14,1.3,0.14c16.07,0,29.15-13.08,29.15-29.15c0-0.75-0.04-1.5-0.09-2.24c16.62-10.34,32.49-29.59,47.2-57.31
		c3.72-7.02,7.33-14.5,10.71-22.22c0.01-0.01,0.01-0.03,0.02-0.04c0.01-0.01,0.01-0.02,0.02-0.04c3.9-8.87,7.07-17,9.48-23.6
		l12.74,36.07c-26.84,11.96-45.61,38.87-45.61,70.1c0,42.3,34.42,76.72,76.72,76.72c42.31,0,76.72-34.42,76.72-76.72
		C407.81,222.44,373.39,188.02,331.08,188.02z M341.79,100.56l0.44,40.92l-18.78,0.14l-15.21-40.92L341.79,100.56z M164.91,214.89
		c0.12,0.47,0.3,0.92,0.53,1.34l8.87,22.47l-2.96,0.73c-4.11-11.74-11.13-22.44-20.28-30.94l7.55-9.53L164.91,214.89z
		 M143.59,217.94c7.11,6.8,12.63,15.19,16.03,24.37l-13.4,3.29l-30.33,7.34L143.59,217.94z M98.91,329.47
		c-35.69,0-64.72-29.03-64.72-64.72c0-35.69,29.03-64.72,64.72-64.72c12.72,0,24.8,3.6,35.28,10.46L96.58,258
		c-2.28,1.39-3.71,3.88-3.68,6.7c0.05,3.65,2.55,6.7,6.1,7.46l47.33,11.27l13.58,3.01C150.84,312.06,126.59,329.47,98.91,329.47z
		 M191.37,281.14l-22.32-4.95c-0.02-0.01-0.05-0.02-0.07-0.02c-0.08-0.02-0.16-0.03-0.24-0.05l-19.72-4.38l-30.15-7.18l30.19-7.31
		l32.41-7.95c0,0,0,0,0,0l2.62-0.64l7.34-1.8c9.15,0.35,16.48,7.91,16.48,17.14C207.91,273.25,200.55,280.82,191.37,281.14z
		 M256.41,198.83c-12.88,24.27-26.38,41.37-40.21,50.96c-4.99-8.91-14.52-14.94-25.44-14.94c-0.03,0-0.06,0.01-0.09,0.01
		c-0.16,0-0.32,0.01-0.47,0.03c-0.07,0.01-0.13,0.01-0.2,0.02c-0.22,0.03-0.44,0.07-0.66,0.12l-3.26,0.8l-5.87-14.87
		c1.95,0.15,3.9,0.23,5.86,0.23c26.59,0,53.71-13.25,71.12-23.83C256.93,197.84,256.67,198.34,256.41,198.83z M331.08,329.47
		c-35.69,0-64.72-29.03-64.72-64.72c0-26.01,15.43-48.48,37.62-58.75l21.45,60.75c0.87,2.46,3.19,4,5.66,4c0.66,0,1.34-0.11,2-0.34
		c3.12-1.1,4.76-4.53,3.66-7.66l-21.45-60.77c5.06-1.27,10.35-1.96,15.8-1.96c35.69,0,64.72,29.03,64.72,64.72
		S366.77,329.47,331.08,329.47z"/>
</g>
</svg>
