<?xml version="1.0" encoding="utf-8"?>
<!-- Generator: Adobe Illustrator 24.1.2, SVG Export Plug-In . SVG Version: 6.00 Build 0)  -->
<svg version="1.1" id="Warstwa_3" xmlns="http://www.w3.org/2000/svg" xmlns:xlink="http://www.w3.org/1999/xlink" x="0px" y="0px"
	 viewBox="0 0 430 430" style="enable-background:new 0 0 430 430;" xml:space="preserve">
<style type="text/css">
	.st0{fill:#000000;}
	.st1{fill:#000000;}
	.st2{fill:none;}
	.st3{fill-opacity:0;}
</style>
<g>
	<path class="st1" d="M215.23,359.42c-0.71,0-1.42-0.12-2.09-0.36L80.27,314.33c-2.56-0.86-4.28-3.27-4.27-5.97
		c0-0.4,0.21-40.83-0.33-91.04c-0.54-50.77-0.36-96.83-0.35-97.29c0.01-1.7,0.71-3.32,1.91-4.48c0.76-1.18,1.92-2.1,3.37-2.56
		l133.2-42.11c1.25-0.39,2.59-0.39,3.83,0.02l131.84,42.98c0.93,0.16,1.82,0.52,2.61,1.09c1.64,1.17,2.61,3.06,2.62,5.08
		c0,0.54,0.14,54.61-0.37,103.58c-0.52,48.87-0.31,84.38-0.31,84.74c0.02,2.7-1.7,5.11-4.26,5.98l-132.43,44.73
		c-0.63,0.22-1.3,0.34-1.97,0.36c0,0-0.01,0-0.01,0c0,0-0.01,0-0.01,0c0,0-0.01,0-0.01,0C215.29,359.42,215.26,359.42,215.23,359.42
		z M88.56,303.89l120.41,40.54c0-18,0.01-59.85,0.01-87.13c-0.01-29.53,0-73.75,0.01-87.87L87.83,128.76
		c-0.03,15.72-0.03,50.78,0.38,88.42C88.64,257.75,88.59,291.95,88.56,303.89z M221.54,169.4l-0.03,64.64l0.01,22.81
		c0.01,29.5,0,69.98-0.01,87.56l119.96-40.52c-0.04-11.09-0.09-41.54,0.33-80.41c0.39-37.24,0.4-77.43,0.38-94.71l-38.59,13
		c-3.28,1.11-6.84-0.66-7.94-3.94c-1.11-3.28,0.66-6.84,3.94-7.94l28.81-9.71L215.65,83.43l-115.08,36.38l114.65,38.49l47.33-15.94
		c3.28-1.11,6.84,0.66,7.94,3.94c1.11,3.28-0.66,6.84-3.94,7.94L221.54,169.4z"/>
	<path class="st0" d="M283.7,241.83c-1.3,0-2.57-0.4-3.64-1.17l-19.5-13.91c-1.66-1.18-2.64-3.09-2.63-5.13
		c0,0,0.08-18.8,0.16-33.66c0.06-10.97,0.13-27.6,0.17-35.53l-128.4-43.61c-2.57-0.87-4.28-3.3-4.25-6.01
		c0.03-2.71,1.8-5.1,4.39-5.91l39.53-12.42c1.29-0.4,2.67-0.38,3.94,0.06l130.45,45.46c2.55,0.89,4.24,3.31,4.21,6.01
		c0,0.16-0.22,16.23-0.07,35.28c0.15,19.19-0.08,37.7-0.08,37.88c-0.02,1.23-0.39,2.43-1.09,3.45l-18,26.45
		c-0.95,1.39-2.42,2.35-4.08,2.64C284.44,241.79,284.07,241.83,283.7,241.83z M270.49,218.43l11.64,8.3l13.33-19.59
		c0.05-5.17,0.18-20.23,0.06-35.74c-0.1-13.14-0.03-24.88,0.02-31.03L171.3,97.08l-19.25,6.05l114.51,38.89
		c2.55,0.87,4.26,3.27,4.25,5.96c0,0-0.11,25.2-0.18,40.05C270.57,199.12,270.51,212.41,270.49,218.43z"/>
</g>
</svg>
