<?xml version="1.0" encoding="utf-8"?>
<!-- Generator: Adobe Illustrator 24.1.2, SVG Export Plug-In . SVG Version: 6.00 Build 0)  -->
<svg version="1.1" id="Warstwa_3" xmlns="http://www.w3.org/2000/svg" xmlns:xlink="http://www.w3.org/1999/xlink" x="0px" y="0px"
	 viewBox="0 0 430 430" style="enable-background:new 0 0 430 430;" xml:space="preserve">
<style type="text/css">
	.st0{fill:#000000;}
	.st1{fill:#000000;}
	.st2{fill:#000000;}
	.st3{fill:none;}
</style>
<g>
	<path class="st2" d="M179.86,181.95h-4.33v-15.12c0-3.31-2.69-6-6-6s-6,2.69-6,6v15.12h-4.33c-3.31,0-6,2.69-6,6s2.69,6,6,6h4.33
		v16.18c-6.93,2.48-11.92,9.09-11.92,16.87c0,9.88,8.04,17.92,17.92,17.92c3.31,0,6-2.69,6-6s-2.69-6-6-6
		c-3.26,0-5.92-2.66-5.92-5.92c0-3.27,2.66-5.93,5.92-5.93c3.31,0,6-2.69,6-6c0-0.08-0.01-0.16-0.01-0.23
		c0-0.08,0.01-0.16,0.01-0.23v-20.65h4.33c3.31,0,6-2.69,6-6S183.17,181.95,179.86,181.95z"/>
	<path class="st2" d="M401.81,257.9h-53.38c-3.31,0-6-2.69-6-6v-37.3c0-3.31,2.69-6,6-6h52.52c3.31,0,6,2.69,6,6s-2.69,6-6,6h-46.52
		v25.3h47.38c3.31,0,6,2.69,6,6S405.12,257.9,401.81,257.9z"/>
	<path class="st1" d="M406.81,213.32c-4.35-20.07-22.44-34.64-43-34.64h-45.81c-3.31,0-6,2.69-6,6v60.71h-8.09L258.28,85.8
		c-0.02-0.06-0.02-0.11-0.04-0.17c0,0,0,0,0,0c-3.08-10.65-14.24-16.81-24.89-13.74l-69.53,20.08c-3.96,1.14-7.38,3.43-9.94,6.57
		c-2,2.39-3.43,5.22-4.07,8.28c-0.7,3.04-0.67,6.2,0.09,9.28l3.45,38.49c0.1,11.43,6.13,18.24,16.18,18.24
		c10.05,0,16.08-6.81,16.18-18.24l2.49-27.81l36.93-10.67l36.96,129.28h-7.06c-3.31,0-6,2.69-6,6v20.69H28.19c-3.31,0-6,2.69-6,6
		v45.72c0,3.31,2.69,6,6,6h72.27c2.39,16.43,16.56,29.09,33.64,29.09s31.26-12.66,33.64-29.09h87.27h28.9
		c2.39,16.43,16.56,29.09,33.64,29.09s31.26-12.66,33.64-29.09h50.6c3.31,0,6-2.69,6-6V222.68
		C407.8,219.55,407.47,216.4,406.81,213.32z M173.73,153.78c-0.02,0.18-0.02,0.36-0.02,0.54c0,6.52-2.22,6.52-4.18,6.52
		c-1.96,0-4.18,0-4.18-6.52c0-0.18-0.01-0.36-0.02-0.54l-2.09-23.37c2,0.65,4.08,0.98,6.16,0.98c1.86,0,3.74-0.26,5.58-0.79
		l0.85-0.25L173.73,153.78z M176.97,117.53l-5.33,1.54c-2.07,0.6-4.25,0.35-6.16-0.71c-1.77-0.97-3.07-2.53-3.73-4.39l-0.33-3.72
		c0.02-0.38,0.08-0.77,0.18-1.16c0.02-0.08,0.04-0.15,0.06-0.23c0.01-0.05,0.03-0.1,0.05-0.14c0.15-0.44,0.33-0.86,0.55-1.27
		c0.03-0.06,0.07-0.12,0.1-0.19c0.06-0.1,0.12-0.19,0.17-0.28c1.38-2.13,3.92-3.81,6.99-3.81c4.54,0,7.96,3.69,8.1,7.08
		L176.97,117.53z M189.34,113.96l0.26-2.95c0.02-0.18,0.02-0.36,0.02-0.54c0-4.55-1.75-8.79-4.61-12.13l34.07-9.84
		c-0.4,2.74-0.26,5.6,0.56,8.43l2.19,7.65L189.34,113.96z M134.11,346.9c-12.13,0-22-9.87-22-22c0-0.27,0.01-0.54,0.02-0.8
		c0-0.1,0.01-0.19,0.01-0.29c0-0.02,0-0.05,0-0.07c0.61-11.59,10.23-20.83,21.97-20.83c12.13,0,22,9.87,22,22
		S146.24,346.9,134.11,346.9z M249.02,317.8h-81.67c-3.27-15.35-16.94-26.91-33.25-26.91s-29.98,11.55-33.25,26.91H34.19v-33.72
		h214.83V317.8z M231.17,93.62c-1.24-4.29,1.25-8.8,5.57-10.04c0.69-0.2,1.42-0.31,2.18-0.31c3.61,0,6.82,2.4,7.81,5.83l0.01,0.02
		c1.13,4.24-1.34,8.65-5.58,9.87l-7.82,2.26L231.17,93.62z M236.65,112.78l7.85-2.27c2.75-0.79,5.19-2.13,7.26-3.86l39.66,138.73
		h-16.86L236.65,112.78z M284.31,317.8h-23.29v-39.72v-20.69h8.93c0.03,0,0.06,0.01,0.08,0.01c0.03,0,0.07-0.01,0.1-0.01h29.02
		c0.11,0,0.21,0,0.32,0h12.52v33.97C298.21,293.64,287.21,304.24,284.31,317.8z M317.56,346.9c-12.13,0-22-9.87-22-22
		c0-0.32,0.01-0.64,0.02-0.96c0-0.05,0.01-0.09,0.01-0.14c0-0.01,0-0.03,0-0.04c0.59-11.6,10.22-20.86,21.97-20.86
		c11.76,0,21.39,9.27,21.97,20.89c0,0.01,0,0.01,0,0.02c0,0.02,0,0.04,0,0.06c0.02,0.34,0.03,0.69,0.03,1.03
		C339.56,337.03,329.69,346.9,317.56,346.9z M395.8,317.8h-44.99c-2.83-13.28-13.44-23.72-26.82-26.29v-40.12v-60.71h39.81
		c14.96,0,28.11,10.59,31.27,25.17c0.48,2.24,0.73,4.54,0.73,6.83V317.8z"/>
	<path class="st2" d="M357.16,286.08h-8.74c-3.31,0-6-2.69-6-6s2.69-6,6-6h8.74c3.31,0,6,2.69,6,6S360.48,286.08,357.16,286.08z"/>
	<path class="st2" d="M134.17,330.9h-0.13c-3.31,0-6-2.69-6-6s2.69-6,6-6h0.13c3.31,0,6,2.69,6,6S137.49,330.9,134.17,330.9z"/>
	<path class="st2" d="M317.63,330.9h-0.13c-3.31,0-6-2.69-6-6s2.69-6,6-6h0.13c3.31,0,6,2.69,6,6S320.94,330.9,317.63,330.9z"/>
</g>
</svg>
