<?xml version="1.0" encoding="utf-8"?>
<!-- Generator: Adobe Illustrator 24.1.2, SVG Export Plug-In . SVG Version: 6.00 Build 0)  -->
<svg version="1.1" id="Warstwa_3" xmlns="http://www.w3.org/2000/svg" xmlns:xlink="http://www.w3.org/1999/xlink" x="0px" y="0px"
	 viewBox="0 0 430 430" style="enable-background:new 0 0 430 430;" xml:space="preserve">
<style type="text/css">
	.st0{fill:#000000;}
	.st1{fill:#000000;}
	.st2{fill:none;stroke:#000000;stroke-width:12;stroke-linecap:round;stroke-linejoin:round;stroke-miterlimit:10;}
	.st3{fill:none;stroke:#000000;stroke-width:12;stroke-linecap:round;stroke-linejoin:round;stroke-miterlimit:10;}
	.st4{fill:#000000;}
</style>
<g>
	<path class="st1" d="M218.55,216.11c-0.87,0-1.73-0.19-2.53-0.56c-1.45-0.67-2.57-1.89-3.11-3.39L167.2,86.21
		c-1.13-3.11,0.47-6.54,3.57-7.68l74.07-27.19c1.5-0.55,3.15-0.48,4.6,0.19c1.45,0.67,2.57,1.89,3.11,3.39l45.71,125.95
		c1.13,3.11-0.47,6.54-3.57,7.68l-74.07,27.19C219.95,215.99,219.25,216.11,218.55,216.11z M180.52,87.73l41.62,114.67l62.8-23.06
		L243.32,64.68L180.52,87.73z"/>
	<path class="st0" d="M241.59,334.48c-2.45,0-4.74-1.51-5.63-3.93l-41.03-111.76c-0.55-1.49-0.48-3.14,0.19-4.59
		c0.67-1.44,1.88-2.56,3.38-3.11l113.91-41.82c1.49-0.55,3.14-0.48,4.59,0.19c1.44,0.67,2.56,1.88,3.11,3.38l41.09,111.92
		c0.55,1.5,0.48,3.15-0.19,4.59s-1.89,2.56-3.38,3.11l-113.97,41.66C242.97,334.36,242.27,334.48,241.59,334.48z M208.26,220.28
		l36.9,100.5l102.7-37.54L310.9,182.6L208.26,220.28z"/>
	<g>
		<path class="st0" d="M192.84,319.75c-2.45,0-4.75-1.51-5.64-3.94L99.7,76.45L58.14,93.72c-3.06,1.27-6.57-0.18-7.84-3.24
			c-1.27-3.06,0.18-6.57,3.24-7.84l47.34-19.68c1.51-0.63,3.21-0.61,4.71,0.05c1.5,0.66,2.66,1.9,3.23,3.44l89.66,245.25
			c1.14,3.11-0.46,6.56-3.57,7.7C194.22,319.63,193.52,319.75,192.84,319.75z"/>
		<path class="st0" d="M231.96,338c-2.45,0-4.75-1.51-5.64-3.94c-1.14-3.11,0.46-6.56,3.58-7.7l142.2-51.98
			c3.11-1.14,6.56,0.46,7.7,3.58c1.14,3.11-0.46,6.56-3.58,7.7l-142.2,51.98C233.34,337.88,232.64,338,231.96,338z"/>
		<path class="st0" d="M203.29,379.02c-14.92,0-28.96-9.2-34.37-24c-3.35-9.17-2.93-19.1,1.18-27.95
			c4.11-8.85,11.43-15.58,20.6-18.93c18.92-6.92,39.96,2.85,46.88,21.78c6.92,18.93-2.85,39.96-21.78,46.88
			C211.67,378.31,207.45,379.02,203.29,379.02z M203.23,317.92c-2.79,0-5.63,0.48-8.4,1.49c-6.16,2.25-11.07,6.77-13.84,12.71
			s-3.04,12.61-0.79,18.77l0,0c4.65,12.71,18.77,19.28,31.49,14.63c12.71-4.65,19.28-18.77,14.63-31.49
			C222.68,324.1,213.25,317.92,203.23,317.92z"/>
	</g>
</g>
</svg>
