<?xml version="1.0" encoding="utf-8"?>
<!-- Generator: Adobe Illustrator 24.1.2, SVG Export Plug-In . SVG Version: 6.00 Build 0)  -->
<svg version="1.1" id="Warstwa_3" xmlns="http://www.w3.org/2000/svg" xmlns:xlink="http://www.w3.org/1999/xlink" x="0px" y="0px"
	 viewBox="0 0 430 430" style="enable-background:new 0 0 430 430;" xml:space="preserve">
<style type="text/css">
	.st0{fill:#000000;}
	.st1{fill:#000000;}
	.st2{fill:none;stroke:#000000;stroke-width:12;stroke-linecap:round;stroke-linejoin:round;stroke-miterlimit:10;}
	.st3{fill:none;stroke:#000000;stroke-width:12;stroke-linecap:round;stroke-linejoin:round;stroke-miterlimit:10;}
	.st4{fill:#000000;}
</style>
<g>
	<g>
		<path class="st0" d="M287.24,304.96H161.53c-3.31,0-6-2.69-6-6s2.69-6,6-6h119.71V108.33H74.34v52.33c0,3.31-2.69,6-6,6
			s-6-2.69-6-6v-58.33c0-3.31,2.69-6,6-6h218.91c3.31,0,6,2.69,6,6v196.63C293.24,302.28,290.56,304.96,287.24,304.96z"/>
		<path class="st0" d="M104.11,304.96H68.34c-3.31,0-6-2.69-6-6v-68.8c0-3.31,2.69-6,6-6s6,2.69,6,6v62.8h29.78c3.31,0,6,2.69,6,6
			S107.43,304.96,104.11,304.96z"/>
		<path class="st0" d="M388.56,304.96h-21.88c-3.31,0-6-2.69-6-6s2.69-6,6-6h15.88v-61.39h-89.32v61.39h15.87c3.31,0,6,2.69,6,6
			s-2.69,6-6,6H287.3c-3.31,0-6.06-2.69-6.06-6v-73.39c0-3.31,2.69-6,6-6h101.32c3.31,0,6,2.69,6,6v73.39
			C394.56,302.27,391.87,304.96,388.56,304.96z"/>
		<path class="st0" d="M388.56,231.57H287.24c-3.31,0-6-2.69-6-6v-78.85c0-3.31,2.69-6,6-6h39.99c17.29,0,33.16,10.1,40.44,25.74
			L394,223.03c0.87,1.86,0.72,4.03-0.38,5.76C392.52,230.52,390.61,231.57,388.56,231.57z M293.24,219.57h85.91l-22.36-48.04
			c-5.32-11.43-16.92-18.81-29.56-18.81h-33.99V219.57z"/>
		<path class="st0" d="M132.82,333.67c-19.14,0-34.71-15.57-34.71-34.71s15.57-34.71,34.71-34.71s34.71,15.57,34.71,34.71
			S151.96,333.67,132.82,333.67z M132.82,276.25c-12.52,0-22.71,10.19-22.71,22.71s10.19,22.71,22.71,22.71s22.71-10.19,22.71-22.71
			S145.34,276.25,132.82,276.25z"/>
		<path class="st0" d="M338.08,333.67c-19.14,0-34.71-15.57-34.71-34.71s15.57-34.71,34.71-34.71s34.71,15.57,34.71,34.71
			S357.22,333.67,338.08,333.67z M338.08,276.25c-12.52,0-22.71,10.19-22.71,22.71s10.19,22.71,22.71,22.71s22.71-10.19,22.71-22.71
			S350.6,276.25,338.08,276.25z"/>
	</g>
	<g>
		<path class="st1" d="M233.97,201.42H41.44c-3.31,0-6-2.69-6-6s2.69-6,6-6h192.53c3.31,0,6,2.69,6,6S237.28,201.42,233.97,201.42z"
			/>
		<g>
			<path class="st1" d="M196.65,232.07c-1.73,0-3.45-0.75-4.64-2.19c-2.1-2.56-1.73-6.34,0.83-8.44l37.31-30.65
				c2.56-2.1,6.34-1.73,8.45,0.83c2.1,2.56,1.73,6.34-0.83,8.44l-37.31,30.65C199.34,231.63,197.99,232.07,196.65,232.07z"/>
			<path class="st1" d="M233.96,201.42c-1.34,0-2.69-0.45-3.8-1.36l-37.31-30.65c-2.56-2.1-2.93-5.88-0.83-8.44
				c2.1-2.56,5.88-2.93,8.45-0.83l37.31,30.65c2.56,2.1,2.93,5.88,0.83,8.44C237.42,200.68,235.7,201.42,233.96,201.42z"/>
		</g>
	</g>
</g>
</svg>
