<?xml version="1.0" encoding="utf-8"?>
<!-- Generator: Adobe Illustrator 26.0.2, SVG Export Plug-In . SVG Version: 6.00 Build 0)  -->
<svg version="1.1" id="outline" xmlns="http://www.w3.org/2000/svg" xmlns:xlink="http://www.w3.org/1999/xlink" x="0px" y="0px"
	 viewBox="0 0 500 500" style="enable-background:new 0 0 500 500;" xml:space="preserve">
<style type="text/css">
	.st0{fill:url(#SVGID_1_);}
	.st1{fill:url(#SVGID_00000023271943041903817640000012839612358046296217_);}
	.st2{fill:url(#SVGID_00000005967117746847123980000014421847131654011528_);}
	.st3{fill:url(#SVGID_00000162335655103462664800000008417660958522761624_);}
	.st4{fill:url(#SVGID_00000127754299478417342850000017265970531773384322_);}
	.st5{fill:url(#SVGID_00000070835793693904521460000001393978543826806459_);}
	.st6{fill:url(#SVGID_00000103952811190317349070000001590272437499742389_);}
	.st7{fill:url(#SVGID_00000011719931547751271000000001170631659939777964_);}
	.st8{fill:url(#SVGID_00000022533314362880517440000006434958432496917950_);}
	.st9{fill:url(#SVGID_00000119800199193704981480000009862003640802219408_);}
	.st10{fill:url(#SVGID_00000143594460980573385100000009286435053685214641_);}
	.st11{fill:url(#SVGID_00000016044107695071779120000009500962954714489776_);}
	.st12{fill:url(#SVGID_00000076586994795911335350000011777328729324369305_);}
	.st13{fill:url(#SVGID_00000112599191945512719450000010072540860956296320_);}
	.st14{fill:url(#SVGID_00000015336546522981271900000004581524017837135294_);}
	.st15{fill:url(#SVGID_00000016060809867610991220000004603789990197435808_);}
	.st16{fill:url(#SVGID_00000160170692594032195850000008075001537103822497_);}
	.st17{fill:url(#SVGID_00000171702057214777432480000006743343098505911685_);}
	.st18{fill:url(#SVGID_00000075145941691778397390000006496219605824684962_);}
	.st19{fill:url(#SVGID_00000083797389352471023130000010422489539507118222_);}
	.st20{fill:url(#SVGID_00000009548415902232170060000011478248403631100313_);}
	.st21{fill:url(#SVGID_00000084526940624737170970000002910739462078914217_);}
	.st22{fill:url(#SVGID_00000101083638434127153740000009972200893177218180_);}
	.st23{fill:url(#SVGID_00000145034763128289307920000011489240525534368662_);}
	.st24{fill:url(#SVGID_00000050655349181811348850000014416914892436742808_);}
	.st25{fill:url(#SVGID_00000067220964164253904730000015343242343689091461_);}
	.st26{fill:url(#SVGID_00000044895161157805146950000007876443256142878872_);}
	.st27{fill:url(#SVGID_00000071547660697056579450000006216426145981972385_);}
	.st28{fill:url(#SVGID_00000152958745943116387130000001415834504653338803_);}
	.st29{fill:url(#SVGID_00000170238538412864339670000010019735018792571778_);}
	.st30{fill:url(#SVGID_00000007394231315901708950000013569760778665192379_);}
	.st31{fill:url(#SVGID_00000101079715840726937650000010006947783048137146_);}
	.st32{fill:url(#SVGID_00000107570970883968225610000018146977005463571329_);}
	.st33{fill:url(#SVGID_00000159467469123028480170000015463044232803725993_);}
	.st34{fill:url(#SVGID_00000018215339653098148540000013502786175876021144_);}
	.st35{fill:url(#SVGID_00000023966924840314635240000003755119671085834376_);}
	.st36{fill:url(#SVGID_00000077317474818803072240000017042162416774762681_);}
	.st37{fill:url(#SVGID_00000055690255478210396820000014227930103516922532_);}
	.st38{fill:url(#SVGID_00000098906070095561825490000015275288611309515447_);}
	.st39{fill:url(#SVGID_00000057866863331101953160000002782920410768907185_);}
	.st40{fill:url(#SVGID_00000128460338206842748520000001014210108607658409_);}
	.st41{fill:url(#SVGID_00000110457369445218460460000002630335353249467270_);}
	.st42{fill:url(#SVGID_00000173861188003432370090000002115204996071213699_);}
	.st43{fill:url(#SVGID_00000065789746618792346160000000426571360105442439_);}
	.st44{fill:url(#SVGID_00000159466321227428286280000004361595459983328660_);}
	.st45{fill:url(#SVGID_00000081634633892500100050000009319921863591103422_);}
	.st46{fill:url(#SVGID_00000173146674133033286720000002739678603829588619_);}
	.st47{fill:url(#SVGID_00000011751664773334036840000017601804931100799127_);}
	.st48{fill:url(#SVGID_00000136371939866137149230000010645337869490435205_);}
	.st49{fill:url(#SVGID_00000145030591325116579600000004017375695129259684_);}
	.st50{fill:url(#SVGID_00000068646657585257231990000015225163348131667865_);}
	.st51{fill:url(#SVGID_00000001635498851881825130000011116888113215476881_);}
	.st52{fill:url(#SVGID_00000075163390592438992520000005065917753149238460_);}
	.st53{fill:url(#SVGID_00000114034306957824712470000007587034996121000123_);}
	.st54{fill:url(#SVGID_00000137132662154733533620000015019711991414786952_);}
	.st55{fill:url(#SVGID_00000040539765863051538330000017626044623111263127_);}
	.st56{fill:url(#SVGID_00000154411367522052205060000009406340057291928485_);}
	.st57{fill:url(#SVGID_00000155827095679347324760000002066299339470439069_);}
	.st58{fill:url(#SVGID_00000105395578292317040240000011646990944172090752_);}
	.st59{fill:url(#SVGID_00000039094795590429690420000011466569693813008034_);}
	.st60{fill:url(#SVGID_00000142869401823176421190000015680599853397031357_);}
	.st61{fill:url(#SVGID_00000000197647924358090610000013712154599729508747_);}
	.st62{fill:url(#SVGID_00000050630391266141609860000002992988728436947867_);}
	.st63{fill:url(#SVGID_00000030472787034807234880000000009537545481022615_);}
	.st64{fill:url(#SVGID_00000033346057561425269770000018323065982656603833_);}
	.st65{fill:url(#SVGID_00000139997209059387338010000003383277476790247350_);}
	.st66{fill:url(#SVGID_00000051354273888326377350000003620020521651634865_);}
	.st67{fill:url(#SVGID_00000023280963419176567890000002607502630093422750_);}
	.st68{fill:url(#SVGID_00000024706126153755616680000012700883414492223409_);}
	.st69{fill:url(#SVGID_00000034090170050089657490000014325004029735510406_);}
	.st70{fill:url(#SVGID_00000050633733322690495350000014319927044825735055_);}
	.st71{fill:url(#SVGID_00000107588790278726683450000002198098419767978378_);}
	.st72{fill:url(#SVGID_00000141414739217092143080000006787800425629645191_);}
	.st73{fill:url(#SVGID_00000060026442658372188800000018388542117932830607_);}
	.st74{fill:url(#SVGID_00000049930968416268436080000004813261060610767234_);}
	.st75{fill:url(#SVGID_00000019664982287325645900000012399408067671888018_);}
	.st76{fill:url(#SVGID_00000164510633524468637020000008539321358661189533_);}
	.st77{fill:url(#SVGID_00000144325262615547869980000011936333446377248412_);}
	.st78{fill:url(#SVGID_00000080901496635877339990000004780238945663745727_);}
	.st79{fill:url(#SVGID_00000083792333582580545400000014240729433077188258_);}
	.st80{fill:url(#SVGID_00000142863753758789994370000000627886099051081650_);}
</style>
<linearGradient id="SVGID_1_" gradientUnits="userSpaceOnUse" x1="102.84" y1="91.1655" x2="406.8492" y2="395.1747">
	<stop  offset="0" style="stop-color:#000000"/>
	<stop  offset="1" style="stop-color:#000000"/>
</linearGradient>
<path class="st0" d="M139.92,371.69c0,3.31-2.69,6-6,6c-27.68,0-50.2-22.52-50.2-50.2c0-3.31,2.69-6,6-6s6,2.69,6,6
	c0,21.06,17.14,38.2,38.2,38.2C137.23,365.69,139.92,368.37,139.92,371.69z M366.12,365.69c-21.06,0-38.2-17.14-38.2-38.2
	c0-3.31-2.69-6-6-6s-6,2.69-6,6c0,27.68,22.52,50.2,50.2,50.2c3.31,0,6-2.69,6-6S369.43,365.69,366.12,365.69z M442.81,327.49
	c0,42.3-34.42,76.72-76.72,76.72c-42.31,0-76.72-34.42-76.72-76.72c0-31.23,18.77-58.14,45.61-70.1l-3.67-10.39
	c-31.09,13.5-52.89,44.5-52.89,80.5c0,3.31-2.69,6-6,6s-6-2.69-6-6c0-41.22,25.14-76.67,60.89-91.84l-7.18-20.34l-71.76,93.04
	c4.1,5.02,6.56,11.43,6.56,18.4c0,8.61-3.76,16.36-9.71,21.7l7.12,12.35h20.09c3.31,0,6,2.69,6,6s-2.69,6-6,6h-23.82
	c-2.81,0-5.16-1.94-5.81-4.54l-7.96-13.8c-2.85,0.93-5.89,1.44-9.05,1.44c-6.94,0-13.32-2.44-18.33-6.5
	c-9.45,31.66-38.83,54.82-73.52,54.82c-42.3,0-76.72-34.42-76.72-76.72s34.42-76.72,76.72-76.72c15.81,0,30.52,4.81,42.74,13.04
	l6.69-8.45c-14.67-10.2-31.79-15.58-49.88-15.58c-23.28,0-45.2,9.02-61.73,25.4c-1.17,1.16-2.7,1.74-4.22,1.74
	c-1.54,0-3.09-0.59-4.26-1.78c-2.33-2.35-2.31-6.15,0.04-8.48c18.79-18.62,43.71-28.87,70.17-28.87c18.94,0,36.95,5.19,52.71,15.07
	l-13.24-33.52H111c-0.02,0-0.04,0-0.06,0c-24.23,0-43.97-19.7-44.01-43.94l-0.03-19.96c-0.02-11.77,4.55-22.84,12.87-31.18
	c8.32-8.33,19.38-12.92,31.15-12.92h226.42c0.74-6.21,3.51-11.97,8.01-16.46c5.29-5.28,12.31-8.19,19.79-8.19c0.01,0,0.01,0,0.02,0
	l19.34,0.01l0-2.88c0-3.31,2.69-6,6-6c0,0,0,0,0,0c3.31,0,6,2.69,6,6l-0.01,13.29l13.52,0.01c3.31,0,6,2.69,6,6c0,3.31-2.69,6-6,6
	c0,0,0,0,0,0l-13.52-0.01l0,8.2l0,8.2l13.52,0.01c3.31,0,6,2.69,6,6c0,3.31-2.69,6-6,6c0,0,0,0,0,0l-13.52-0.01l0,4.41c0,0,0,0,0,0
	l-0.01,8.88c0,3.31-2.69,6-6,6c0,0,0,0,0,0c-3.31,0-6-2.69-6-6l0-2.88l-19.34-0.01c-14.28-0.01-26.08-10.76-27.77-24.58H111
	c-8.65,0-16.69,3.34-22.74,9.4c-6.05,6.06-9.37,14.11-9.36,22.68l0.03,19.96c0.03,17.63,14.39,31.96,32.02,31.96
	c0.01,0,0.03,0,0.04,0H196c3.31,0,6,2.69,6,6s-2.69,6-6,6h-10.16l15.06,38.14c0,0,0,0.01,0,0.01l19.96,50.55
	c1.6-0.27,3.23-0.42,4.91-0.42c4.78,0,9.28,1.16,13.26,3.21l76.33-98.97l-13.42-38.01l-28.9,1.13c-2.74,0.11-4.5,0.76-5.23,1.93
	c-1.72,2.74-0.12,9.16,1.12,12c1.33,3.04-0.06,6.57-3.1,7.9c-0.78,0.34-1.6,0.5-2.4,0.5c-2.31,0-4.52-1.34-5.5-3.6
	c-0.62-1.42-5.92-14.19-0.29-23.17c2.04-3.26,6.29-7.21,14.93-7.55l33.32-1.31c2.37-0.09,4.63,1.23,5.66,3.44
	c0.09,0.19,0.17,0.38,0.24,0.58l16.01,45.34c0,0,0,0,0,0.01l10.81,30.62c8.74-2.51,17.97-3.86,27.51-3.86
	c26.63,0,51.67,10.37,70.5,29.21c2.34,2.34,2.34,6.14,0,8.48c-2.34,2.34-6.14,2.34-8.49,0c-16.57-16.57-38.59-25.69-62.02-25.69
	c-8.14,0-16.02,1.12-23.51,3.2l3.67,10.39c6.32-1.69,12.96-2.61,19.8-2.61C408.39,250.77,442.81,285.18,442.81,327.49z
	 M349.13,104.67l0,5.22c0,8.82,7.17,16.01,15.99,16.01l19.34,0.01l0.01-18.61l0.01-14.2c0,0,0,0,0,0s0,0,0,0l0-4.41l-19.34-0.01
	c0,0-0.01,0-0.01,0c-4.27,0-8.29,1.66-11.31,4.68C350.8,96.38,349.14,100.39,349.13,104.67z M186.05,271.27
	c9.63,8.94,16.97,20.3,21.03,33.12c0.84-0.7,1.71-1.35,2.62-1.95l-16.08-40.73L186.05,271.27z M197.1,321.45
	c0.21-1.16,0.49-2.3,0.84-3.42c-2.14-14.58-9.18-27.59-19.37-37.32l-32.25,40.74H197.1z M198.08,335.87
	c-0.26-0.79-0.49-1.6-0.68-2.41h-63.48c-2.3,0-4.4-1.32-5.4-3.39c-1-2.07-0.73-4.53,0.7-6.34l39.96-50.47
	c-10.15-6.62-22.26-10.49-35.26-10.49c-35.69,0-64.72,29.03-64.72,64.72c0,35.69,29.03,64.72,64.72,64.72
	C166.76,392.21,193.96,367.61,198.08,335.87z M238.98,337.66c2.46-2.97,3.93-6.77,3.93-10.92c0-9.46-7.69-17.15-17.15-17.15
	c-6.88,0-12.8,4.08-15.54,9.93c0.27,2.58,0.41,5.2,0.41,7.85c0,0.03,0,0.05,0,0.08c0,0.01,0,0.02,0,0.03c0,0,0,0.01,0,0.01
	c0,2.26-0.12,4.49-0.31,6.69c2.78,5.74,8.64,9.72,15.43,9.72c0.96,0,1.9-0.1,2.82-0.25l-7.02-12.17c-0.34-0.39-0.65-0.82-0.89-1.3
	l-0.02-0.04c-0.15-0.3-0.27-0.62-0.37-0.93c-1.25-2.78-0.21-6.1,2.48-7.65c2.87-1.65,6.54-0.67,8.19,2.2L238.98,337.66z
	 M430.81,327.49c0-35.69-29.03-64.72-64.72-64.72c-5.45,0-10.74,0.68-15.8,1.96l21.45,60.77c1.1,3.12-0.54,6.55-3.66,7.65
	c-0.66,0.23-1.33,0.34-2,0.34c-2.47,0-4.79-1.54-5.66-4l-21.45-60.75c-22.18,10.28-37.62,32.74-37.62,58.75
	c0,35.69,29.03,64.72,64.72,64.72S430.81,363.18,430.81,327.49z"/>
</svg>
