<?xml version="1.0" encoding="utf-8"?>
<!-- Generator: Adobe Illustrator 24.1.2, SVG Export Plug-In . SVG Version: 6.00 Build 0)  -->
<svg version="1.1" id="Warstwa_3" xmlns="http://www.w3.org/2000/svg" xmlns:xlink="http://www.w3.org/1999/xlink" x="0px" y="0px"
	 viewBox="0 0 430 430" style="enable-background:new 0 0 430 430;" xml:space="preserve">
<style type="text/css">
	.st0{fill:#000000;}
	.st1{fill:#000000;}
	.st2{fill:#000000;}
	.st3{fill:none;}
</style>
<g>
	<path class="st2" d="M380.11,365.11c0.04-0.06,0.07-0.12,0.11-0.19c0.07-0.11,0.13-0.21,0.19-0.32c0.03-0.05,0.05-0.11,0.08-0.16
		c0.06-0.12,0.12-0.25,0.18-0.38c0.01-0.04,0.03-0.07,0.04-0.11c0.06-0.15,0.11-0.29,0.16-0.44c0-0.01,0.01-0.03,0.01-0.04
		c0.13-0.45,0.21-0.93,0.23-1.42c0-0.08,0.01-0.17,0.01-0.25c0-0.01,0-0.01,0-0.02c0-0.08-0.01-0.16-0.01-0.25
		c0-0.11-0.01-0.22-0.02-0.33c-0.01-0.1-0.03-0.2-0.04-0.3c-0.01-0.09-0.02-0.19-0.04-0.28c-0.02-0.11-0.05-0.21-0.08-0.31
		c-0.02-0.09-0.04-0.17-0.07-0.26c-0.03-0.11-0.07-0.21-0.11-0.31c-0.03-0.08-0.06-0.16-0.09-0.24c-0.04-0.11-0.1-0.21-0.14-0.31
		c-0.03-0.07-0.07-0.15-0.1-0.22c-0.06-0.11-0.13-0.22-0.2-0.33c-0.04-0.06-0.07-0.12-0.11-0.17c-0.09-0.14-0.19-0.26-0.29-0.39
		c-0.02-0.03-0.04-0.06-0.06-0.08l-0.01-0.02c0,0-0.01-0.01-0.01-0.01l-28.58-35.04c-0.02-0.02-0.04-0.05-0.06-0.07l-26.93-33.02
		c-2.09-2.57-5.87-2.95-8.44-0.86c-2.57,2.09-2.95,5.87-0.86,8.44l18.99,23.28H96.13l18.99-23.28c2.09-2.57,1.71-6.35-0.86-8.44
		c-2.57-2.09-6.35-1.71-8.44,0.86l-26.93,33.02c-0.02,0.02-0.04,0.05-0.06,0.07l-28.58,35.04c0,0-0.01,0.01-0.01,0.01l-0.01,0.02
		c-0.02,0.03-0.04,0.06-0.06,0.08c-0.1,0.13-0.2,0.26-0.29,0.39c-0.04,0.06-0.07,0.12-0.11,0.17c-0.07,0.11-0.14,0.22-0.2,0.33
		c-0.04,0.07-0.07,0.15-0.1,0.22c-0.05,0.1-0.1,0.21-0.14,0.31c-0.03,0.08-0.06,0.16-0.09,0.24c-0.04,0.1-0.08,0.21-0.11,0.31
		c-0.03,0.08-0.04,0.17-0.07,0.26c-0.03,0.1-0.05,0.21-0.08,0.31c-0.02,0.09-0.03,0.19-0.04,0.28c-0.01,0.1-0.03,0.2-0.04,0.3
		c-0.01,0.11-0.01,0.22-0.02,0.33c0,0.08-0.01,0.16-0.01,0.25c0,0.01,0,0.01,0,0.02c0,0.08,0.01,0.17,0.01,0.25
		c0.02,0.49,0.1,0.97,0.23,1.42c0,0.01,0.01,0.03,0.01,0.04c0.05,0.15,0.1,0.3,0.16,0.44c0.01,0.04,0.03,0.07,0.04,0.11
		c0.05,0.13,0.11,0.25,0.18,0.38c0.03,0.05,0.05,0.11,0.08,0.16c0.06,0.11,0.12,0.21,0.19,0.32c0.04,0.06,0.07,0.12,0.11,0.19
		c0.07,0.11,0.15,0.21,0.23,0.32c0.04,0.05,0.07,0.1,0.12,0.15c0.47,0.58,1.05,1.06,1.7,1.43c0.01,0.01,0.02,0.01,0.03,0.02
		c0.27,0.15,0.56,0.28,0.86,0.39c0.04,0.01,0.08,0.03,0.12,0.04c0.28,0.1,0.57,0.17,0.87,0.22c0.05,0.01,0.09,0.01,0.14,0.02
		c0.3,0.05,0.6,0.08,0.92,0.08h320.24c0.31,0,0.62-0.03,0.92-0.08c0.05-0.01,0.09-0.01,0.14-0.02c0.3-0.05,0.59-0.13,0.87-0.22
		c0.04-0.01,0.08-0.03,0.12-0.04c0.3-0.11,0.59-0.24,0.86-0.39c0.01-0.01,0.02-0.01,0.03-0.02c0.65-0.37,1.23-0.85,1.7-1.43
		c0.04-0.05,0.08-0.1,0.12-0.15C379.96,365.32,380.04,365.22,380.11,365.11z M343.66,332.7l18.82,23.08H67.52l18.82-23.08H343.66z"
		/>
	<path class="st2" d="M188.04,226.16h-48.52c-3.31,0-6-2.69-6-6v-28.5c0-1.67,0.7-3.26,1.92-4.4c1.22-1.13,2.87-1.71,4.53-1.58
		l34.84,2.64c10.78,0.82,19.23,9.93,19.23,20.74v11.11C194.04,223.47,191.35,226.16,188.04,226.16z M145.52,214.16h36.52v-5.11
		c0-4.58-3.57-8.43-8.13-8.78l-28.38-2.15V214.16z"/>
	<path class="st2" d="M290.3,226.16h-48.52c-3.31,0-6-2.69-6-6v-11.11c0-10.81,8.45-19.92,19.23-20.74l34.84-2.64
		c1.66-0.13,3.31,0.45,4.53,1.58c1.23,1.14,1.92,2.73,1.92,4.4v28.5C296.3,223.47,293.62,226.16,290.3,226.16z M247.78,214.16h36.52
		v-16.03l-28.38,2.15c-4.56,0.35-8.14,4.2-8.14,8.78V214.16z"/>
	<path class="st1" d="M258.3,62.22h-86.6c-37.07,0-67.23,30.16-67.23,67.23v148.25c0,12.08,9.83,21.91,21.91,21.91h177.23
		c12.08,0,21.91-9.83,21.91-21.91V129.46C325.53,92.38,295.37,62.22,258.3,62.22z M171.7,74.22h86.6
		c30.45,0,55.23,24.78,55.23,55.23v113.23H116.47V129.46C116.47,99,141.25,74.22,171.7,74.22z M238.26,254.69v32.93h-46.51v-32.93
		H238.26z M116.47,277.71v-23.02h63.27v32.93h-53.36C120.92,287.62,116.47,283.17,116.47,277.71z M303.62,287.62h-53.36v-32.93
		h63.27v23.02C313.53,283.17,309.08,287.62,303.62,287.62z"/>
</g>
</svg>
