<?xml version="1.0" encoding="utf-8"?>
<!-- Generator: Adobe Illustrator 24.1.2, SVG Export Plug-In . SVG Version: 6.00 Build 0)  -->
<svg version="1.1" id="Warstwa_3" xmlns="http://www.w3.org/2000/svg" xmlns:xlink="http://www.w3.org/1999/xlink" x="0px" y="0px"
	 viewBox="0 0 430 430" style="enable-background:new 0 0 430 430;" xml:space="preserve">
<style type="text/css">
	.st0{fill:#000000;}
	.st1{fill:#000000;}
	.st2{fill:none;stroke:#000000;stroke-width:12;stroke-linecap:round;stroke-linejoin:round;stroke-miterlimit:10;}
	.st3{fill:none;stroke:#000000;stroke-width:12;stroke-linecap:round;stroke-linejoin:round;stroke-miterlimit:10;}
	.st4{fill:#000000;}
	.st5{fill:#FFFFFF;stroke:#000000;stroke-width:12;stroke-linecap:round;stroke-linejoin:round;stroke-miterlimit:10;}
</style>
<g>
	<g>
		<g>
			<path class="st4" d="M226.53,376.91c-3.05,0-5.67-2.32-5.97-5.43c-1.71-17.75-4.61-31.28-8.39-39.13
				c-0.74-1.54-3.8-6.37-16.32-18.15c-6.61-6.22-9.93-15.32-8.89-24.34l1.38-11.97c0.17-1.44,0.85-2.77,1.92-3.75l30.06-27.36
				c2.16-1.97,5.42-2.09,7.73-0.29c0.3,0.23,30.28,23.42,67.59,37.58c2.87,1.09,4.46,4.17,3.67,7.14l-8.66,32.8
				c-0.18,0.69-0.48,1.34-0.89,1.92l-26.09,37.12c-1.91,2.71-5.65,3.36-8.36,1.46c-2.71-1.91-3.36-5.65-1.46-8.36l25.47-36.24
				l7.02-26.6c-28.98-11.76-52.46-27.71-61.6-34.33l-24.74,22.52l-1.12,9.73c-0.61,5.27,1.33,10.59,5.19,14.22
				c15.49,14.58,18.06,19.92,18.9,21.68c4.45,9.23,7.66,23.76,9.53,43.19c0.32,3.3-2.1,6.23-5.4,6.55
				C226.92,376.9,226.72,376.91,226.53,376.91z"/>
			<path class="st4" d="M177.01,250.57c-0.98,0-1.97-0.24-2.87-0.73l-51.53-28.12c-1.6-0.87-2.72-2.43-3.04-4.23l-12.06-68.55
				c-0.33-1.89,0.26-3.82,1.58-5.2c0.2-0.21,20.67-22.17,11.9-33.72c-6.03-7.95-7.17-7.76-12.19-5.43c-0.82,0.38-1.7,0.57-2.62,0.56
				l-26.45-0.39c-3.31-0.05-5.96-2.77-5.91-6.09c0.05-3.31,2.75-5.95,6.09-5.91l25.14,0.37c12.75-5.3,19.34,1.52,25.5,9.63
				c12.78,16.83-4.45,39.64-10.73,46.97l11.05,62.83l45.34,24.74l12.93-11.2l-11.54-23.7l-18.97-13.83
				c-1.24-0.9-2.08-2.24-2.36-3.75c-1.1-5.93,0.06-11.52,3.38-16.19c7.33-10.32,22.61-12.92,24.33-13.18
				c1.58-0.24,3.21,0.16,4.49,1.12l21.2,15.82l10.59-20.95c0.98-1.95,2.95-3.21,5.13-3.29l40.4-1.53
				c2.01-6.42,4.12-15.22,3.68-20.02c-0.59-1.55-3.42-6.06-6.65-10.64l-23.77,2.02c-1.47,0.12-2.92-0.29-4.1-1.17l-20.15-15.03
				c-1.58-1.18-2.48-3.05-2.41-5.02c0.07-1.97,1.1-3.78,2.75-4.84l31.99-20.54l-0.72-1.48c-1.46-2.98-0.22-6.57,2.76-8.03
				c2.98-1.46,6.57-0.22,8.03,2.76l3.07,6.28c1.34,2.74,0.41,6.04-2.15,7.68l-29.19,18.74l11.38,8.49l24.89-2.12
				c2.09-0.17,4.1,0.74,5.34,2.42c10.22,13.89,10.67,17.53,10.81,18.73c1.25,10.45-4.84,27.71-5.54,29.64
				c-0.83,2.3-2.97,3.86-5.41,3.95l-41.01,1.56l-12.21,24.17c-0.8,1.58-2.26,2.73-3.98,3.13c-1.72,0.41-3.54,0.03-4.96-1.03
				l-24.76-18.48c-4.18,1.04-10.99,3.5-14.03,7.8c-1.04,1.47-1.55,3.04-1.56,4.84l18.02,13.14c0.79,0.58,1.43,1.34,1.86,2.22
				l14.21,29.19c1.19,2.44,0.59,5.38-1.46,7.16l-19.56,16.95C179.82,250.07,178.42,250.57,177.01,250.57z"/>
		</g>
	</g>
	<path class="st1" d="M398.42,165.02l-49.88-13.07l-4.34-16.66c-1.13-4.35-3.89-7.99-7.76-10.26c-2.59-1.52-5.46-2.28-8.38-2.3
		c-30.96-46.3-82.3-73.84-138.12-73.84C98.34,48.88,23.82,123.4,23.82,215s74.52,166.12,166.12,166.12
		c82.76,0,152.87-61.04,164.44-142.52l27.21,2.49c0.69,0.06,1.39,0.01,2.06-0.17c1.41-0.37,6.02-2.15,6.03-9.6
		c0-4.25-1.56-11.87-7.45-13.41l-17.73-4.64l-6.11-23.49l38.94-4.53c0.28-0.03,0.55-0.08,0.82-0.15c4.8-1.25,8.03-5.34,8.04-10.18
		C406.19,170.22,403.07,166.24,398.42,165.02z M189.94,369.12c-84.98,0-154.12-69.14-154.12-154.12S104.96,60.88,189.94,60.88
		c50.88,0,97.75,24.66,126.62,66.25c-1.21,1.12-2.26,2.41-3.12,3.87c-2.27,3.87-2.9,8.4-1.77,12.75l4.34,16.66l-37.18,35.73
		c-3.46,3.33-4.24,8.32-1.94,12.43c2.36,4.22,7.17,6.22,11.98,4.97c0.27-0.07,0.53-0.16,0.79-0.27l36.21-15.03l6.11,23.49
		l-13.21,12.7c-4.39,4.21-2.04,11.62,0.03,15.33c2.66,4.76,5.99,5.66,8.14,5.66c0.79,0,1.42-0.12,1.8-0.22
		c0.67-0.17,1.31-0.46,1.88-0.86l10.02-6.86C325.59,317.73,263.09,369.12,189.94,369.12z M350.15,178.66
		c-1.72,0.2-3.28,1.14-4.26,2.57s-1.29,3.22-0.86,4.9l8.74,33.57c0.55,2.1,2.19,3.74,4.29,4.29l16.99,4.45l-22.41-2.05
		c-1.4-0.13-2.79,0.23-3.94,1.02l-18.57,12.72l12.67-12.17c1.57-1.5,2.2-3.74,1.65-5.84l-8.74-33.57c-0.44-1.68-1.58-3.09-3.14-3.86
		c-0.84-0.42-1.75-0.63-2.67-0.63c-0.78,0-1.56,0.15-2.3,0.46l-34.13,14.17l33.36-32.06c1.57-1.5,2.2-3.74,1.65-5.84l-5.22-20.06
		c-0.32-1.24-0.14-2.54,0.51-3.65c0.65-1.11,1.69-1.9,2.94-2.22c1.24-0.32,2.54-0.14,3.65,0.51c1.11,0.65,1.9,1.69,2.22,2.94
		l5.22,20.06c0.55,2.1,2.19,3.74,4.29,4.29l44.76,11.73L350.15,178.66z"/>
</g>
</svg>
