<?xml version="1.0" encoding="utf-8"?>
<!-- Generator: Adobe Illustrator 24.1.2, SVG Export Plug-In . SVG Version: 6.00 Build 0)  -->
<svg version="1.1" id="Warstwa_3" xmlns="http://www.w3.org/2000/svg" xmlns:xlink="http://www.w3.org/1999/xlink" x="0px" y="0px"
	 viewBox="0 0 430 430" style="enable-background:new 0 0 430 430;" xml:space="preserve">
<style type="text/css">
	.st0{fill:#000000;}
	.st1{fill:#000000;}
	.st2{fill:#000000;}
	.st3{fill:none;}
</style>
<g>
	<path class="st2" d="M401.81,218.8h-53.38c-3.31,0-6-2.69-6-6v-37.3c0-3.31,2.69-6,6-6h52.52c3.31,0,6,2.69,6,6s-2.69,6-6,6h-46.52
		v25.3h47.38c3.31,0,6,2.69,6,6S405.12,218.8,401.81,218.8z"/>
	<path class="st1" d="M406.81,174.22c-4.35-20.07-22.44-34.64-43-34.64h-39.81V116.2c0-3.31-2.69-6-6-6H28.19c-3.31,0-6,2.69-6,6
		v168.5c0,3.31,2.69,6,6,6h72.28c2.39,16.43,16.56,29.09,33.64,29.09s31.26-12.66,33.64-29.09h116.17
		c2.39,16.43,16.56,29.09,33.64,29.09s31.26-12.66,33.64-29.09h50.6c3.31,0,6-2.69,6-6V183.58
		C407.8,180.45,407.47,177.31,406.81,174.22z M100.86,278.7H34.19V122.2h36.23v111.78c0,3.31,2.69,6,6,6s6-2.69,6-6V122.2h36.23
		v111.78c0,3.31,2.69,6,6,6s6-2.69,6-6V122.2h36.23v111.78c0,3.31,2.69,6,6,6s6-2.69,6-6V122.2h36.23v111.78c0,3.31,2.69,6,6,6
		s6-2.69,6-6V122.2h36.23v111.78c0,3.31,2.69,6,6,6s6-2.69,6-6V122.2h36.66v23.38v106.68c-13.78,2.28-24.78,12.88-27.67,26.44
		H167.36c-3.27-15.35-16.94-26.91-33.25-26.91S104.13,263.35,100.86,278.7z M134.11,307.8c-12.13,0-22-9.87-22-22
		c0-0.33,0.01-0.65,0.02-0.97c0-0.04,0.01-0.08,0.01-0.12c0-0.01,0-0.03,0-0.04c0.59-11.61,10.22-20.87,21.97-20.87
		c11.76,0,21.39,9.27,21.97,20.89c0,0.01,0,0.01,0,0.02c0,0.02,0,0.04,0,0.06c0.02,0.34,0.03,0.69,0.03,1.03
		C156.11,297.93,146.24,307.8,134.11,307.8z M317.57,307.8c-12.13,0-22-9.87-22-22s9.87-22,22-22c11.75,0,21.37,9.25,21.97,20.85
		c0,0.02,0,0.04,0,0.05c0,0.07,0.01,0.13,0.01,0.2c0.01,0.3,0.02,0.6,0.02,0.9C339.57,297.93,329.7,307.8,317.57,307.8z
		 M395.8,278.7h-44.99c-2.83-13.29-13.44-23.72-26.82-26.29V151.58h39.81c14.96,0,28.11,10.59,31.27,25.17
		c0.48,2.25,0.73,4.54,0.73,6.83V278.7z"/>
	<rect x="34.19" y="227.98" class="st2" width="277.8" height="12"/>
	<path class="st2" d="M357.16,246.98h-8.74c-3.31,0-6-2.69-6-6s2.69-6,6-6h8.74c3.31,0,6,2.69,6,6S360.48,246.98,357.16,246.98z"/>
	<path class="st2" d="M134.17,291.8h-0.13c-3.31,0-6-2.69-6-6s2.69-6,6-6h0.13c3.31,0,6,2.69,6,6S137.49,291.8,134.17,291.8z"/>
	<path class="st2" d="M317.63,291.8h-0.13c-3.31,0-6-2.69-6-6s2.69-6,6-6h0.13c3.31,0,6,2.69,6,6S320.94,291.8,317.63,291.8z"/>
</g>
</svg>
