<?xml version="1.0" encoding="utf-8"?>
<!-- Generator: Adobe Illustrator 24.1.2, SVG Export Plug-In . SVG Version: 6.00 Build 0)  -->
<svg version="1.1" id="Warstwa_3" xmlns="http://www.w3.org/2000/svg" xmlns:xlink="http://www.w3.org/1999/xlink" x="0px" y="0px"
	 viewBox="0 0 430 430" style="enable-background:new 0 0 430 430;" xml:space="preserve">
<style type="text/css">
	.st0{fill:#000000;}
	.st1{fill:#000000;}
	.st2{fill:none;}
	.st3{fill:#000000;fill-opacity:0;}
</style>
<g>
	<path class="st0" d="M271.66,92.37c-11.9,0-21.57-9.68-21.57-21.57c0-4.95-4.03-8.97-8.97-8.97s-8.97,4.03-8.97,8.97
		c0,11.9-9.68,21.57-21.57,21.57s-21.57-9.68-21.57-21.57c0-4.95-4.03-8.97-8.97-8.97s-8.97,4.03-8.97,8.97
		c0,11.9-9.68,21.57-21.57,21.57c-11.9,0-21.57-9.68-21.57-21.57c0-4.95-4.03-8.97-8.97-8.97s-8.97,4.03-8.97,8.97l0,0.56
		c0.01,3.48-2.8,6.31-6.28,6.32c-0.01,0-0.01,0-0.02,0c-3.47,0-6.29-2.81-6.3-6.28l0-0.6c0-11.9,9.68-21.57,21.57-21.57
		c11.9,0,21.57,9.68,21.57,21.57c0,4.95,4.03,8.97,8.97,8.97s8.97-4.03,8.97-8.97c0-11.9,9.68-21.57,21.57-21.57
		c11.9,0,21.57,9.68,21.57,21.57c0,4.95,4.03,8.97,8.97,8.97s8.97-4.03,8.97-8.97c0-11.9,9.68-21.57,21.57-21.57
		s21.57,9.68,21.57,21.57c0,4.95,4.03,8.97,8.97,8.97s8.97-4.03,8.97-8.97c0-0.38,0.01-0.75,0.03-1.13
		c0.18-3.47,3.13-6.13,6.62-5.97c3.47,0.18,6.15,3.14,5.97,6.62c-0.01,0.16-0.01,0.32-0.01,0.48
		C293.23,82.69,283.55,92.37,271.66,92.37z"/>
	<path class="st0" d="M127.75,380.78c-3.48,0-6.3-2.82-6.3-6.3v-80.43H93.87v80.43c0,3.48-2.82,6.3-6.3,6.3s-6.3-2.82-6.3-6.3
		v-86.73c0-3.48,2.82-6.3,6.3-6.3h40.19c3.48,0,6.3,2.82,6.3,6.3v86.73C134.05,377.96,131.23,380.78,127.75,380.78z"/>
	<path class="st1" d="M370.67,380.78H59.33c-3.48,0-6.3-2.82-6.3-6.3V263.29c0-0.3,0.02-0.6,0.06-0.89l22.24-155.67
		c0.44-3.1,3.1-5.41,6.24-5.41h44.48c3.31,0,6.05,2.55,6.28,5.85l10.13,141.91L210.55,181c1.8-1.8,4.51-2.34,6.87-1.37
		s3.89,3.27,3.89,5.82v62.63L288.38,181c1.8-1.8,4.52-2.34,6.87-1.37c2.35,0.97,3.89,3.27,3.89,5.82v62.63L366.22,181
		c1.8-1.8,4.51-2.34,6.87-1.37c2.35,0.97,3.89,3.27,3.89,5.82v189.03C376.97,377.96,374.15,380.78,370.67,380.78z M65.63,368.18
		h298.74V200.66l-67.08,67.08c-1.8,1.8-4.51,2.34-6.87,1.37c-2.35-0.97-3.89-3.27-3.89-5.82v-62.63l-67.08,67.08
		c-1.8,1.8-4.52,2.34-6.87,1.37c-2.35-0.97-3.89-3.27-3.89-5.82v-62.63l-67.08,67.08c-1.75,1.74-4.35,2.31-6.66,1.45
		c-2.31-0.86-3.91-2.99-4.08-5.45l-10.7-149.82H87.03l-21.4,149.82V368.18z"/>
	<path class="st0" d="M234.34,329.83h-80.06c-3.48,0-6.3-2.82-6.3-6.3V292c0-3.48,2.82-6.3,6.3-6.3h80.06c3.48,0,6.3,2.82,6.3,6.3
		v31.54C240.64,327.01,237.82,329.83,234.34,329.83z M160.58,317.23h67.46V298.3h-67.46V317.23z"/>
	<path class="st0" d="M341.09,329.83h-80.06c-3.48,0-6.3-2.82-6.3-6.3V292c0-3.48,2.82-6.3,6.3-6.3h80.06c3.48,0,6.3,2.82,6.3,6.3
		v31.54C347.39,327.01,344.57,329.83,341.09,329.83z M267.33,317.23h67.46V298.3h-67.46V317.23z"/>
</g>
</svg>
