<?xml version="1.0" encoding="utf-8"?>
<!-- Generator: Adobe Illustrator 24.1.2, SVG Export Plug-In . SVG Version: 6.00 Build 0)  -->
<svg version="1.1" id="Warstwa_1" xmlns="http://www.w3.org/2000/svg" xmlns:xlink="http://www.w3.org/1999/xlink" x="0px" y="0px"
	 viewBox="0 0 430 430" style="enable-background:new 0 0 430 430;" xml:space="preserve">
<style type="text/css">
	.st0{fill:#000000;}
	.st1{fill:#000000;}
	.st2{fill:#000000;}
</style>
<g>
	<g>
		<path class="st0" d="M117.61,94.53c-2.31-2.17-5.91-2.17-8.22,0l-72.09,67.79c-0.07,0.07-0.14,0.13-0.21,0.2l-14.32,13.47
			c-2.41,2.27-2.53,6.07-0.26,8.48c1.18,1.26,2.77,1.89,4.37,1.89c1.47,0,2.95-0.54,4.11-1.63l4.42-4.16v92.4c0,3.31,2.69,6,6,6
			h78.85c3.31,0,6-2.69,6-6s-2.69-6-6-6H47.4v-97.7l66.09-62.15l47.98,45.14c2.41,2.27,6.21,2.16,8.48-0.26
			c2.27-2.41,2.16-6.21-0.26-8.48L117.61,94.53z"/>
		<path class="st0" d="M407.24,175.99l-14.39-13.54c-0.05-0.05-0.1-0.1-0.15-0.14l-72.03-67.77c-2.31-2.17-5.91-2.17-8.22,0
			l-26.76,25.17c-2.41,2.27-2.53,6.07-0.26,8.48c2.27,2.41,6.07,2.53,8.48,0.26l22.65-21.3l66.03,62.13v97.72h-71.74
			c-3.31,0-6,2.69-6,6c0,3.31,2.69,6,6,6h77.74c3.31,0,6-2.69,6-6v-92.43l4.44,4.18c1.16,1.09,2.64,1.63,4.11,1.63
			c1.6,0,3.19-0.63,4.37-1.89C409.77,182.06,409.65,178.26,407.24,175.99z"/>
	</g>
	<path class="st1" d="M334.2,204.23l-38.41-36.14v-56.13c0-3.31-2.69-6-6-6h-33.62c-3.31,0-6,2.69-6,6v13.21L219.7,96.51
		c-2.31-2.17-5.91-2.17-8.22,0l-95.25,89.58c-0.09,0.08-0.17,0.16-0.26,0.24l-19.04,17.9c-2.41,2.27-2.53,6.07-0.26,8.48
		c1.18,1.26,2.77,1.89,4.37,1.89c1.47,0,2.95-0.54,4.11-1.63l9.1-8.56V331.1c0,3.31,2.69,6,6,6h190.59c3.31,0,6-2.69,6-6V204.38
		l9.14,8.59c2.41,2.27,6.21,2.15,8.48-0.26C336.73,210.3,336.61,206.51,334.2,204.23z M262.17,117.97h21.62v38.84l-21.62-20.34
		V117.97z M236.77,325.1H194.4v-80.05h42.38V325.1z M304.84,325.1h-56.07v-86.05c0-3.31-2.69-6-6-6H188.4c-3.31,0-6,2.69-6,6v86.05
		h-56.14V193.13l89.33-84.01l89.25,83.97V325.1z"/>
</g>
</svg>
