<?xml version="1.0" encoding="utf-8"?>
<!-- Generator: Adobe Illustrator 25.4.1, SVG Export Plug-In . SVG Version: 6.00 Build 0)  -->
<svg version="1.1" id="outline" xmlns="http://www.w3.org/2000/svg" xmlns:xlink="http://www.w3.org/1999/xlink" x="0px" y="0px"
	 viewBox="0 0 500 500" style="enable-background:new 0 0 500 500;" xml:space="preserve">
<style type="text/css">
	.st0{fill:#000000;}
	.st1{fill:#000000;}
	.st2{fill:#FFFFFF;}
	.st3{fill:#000000;}
</style>
<g>
	<path class="st1" d="M394.58,231.29c-2.87,0-5.41-2.07-5.91-5c-10.75-63.28-63-111.22-127.05-116.58
		c-36.65-3.06-72.12,6.52-92.56,25.01c-2.46,2.22-6.25,2.03-8.48-0.42c-2.22-2.46-2.03-6.25,0.42-8.48
		c22.82-20.65,61.76-31.4,101.62-28.07c69.51,5.81,126.21,57.84,137.88,126.52c0.56,3.27-1.64,6.37-4.91,6.92
		C395.25,231.26,394.92,231.29,394.58,231.29z"/>
	<path class="st1" d="M102.45,267.16c-1.19,0-2.39-0.35-3.42-1.07c-2.23-1.55-3.14-4.41-2.22-6.97l18.02-49.83L89.2,196.99
		c-1.84-0.88-3.1-2.64-3.36-4.66c-0.25-2.02,0.54-4.04,2.1-5.35l73.23-61.3c2.08-1.74,5.07-1.87,7.29-0.32
		c2.22,1.55,3.13,4.41,2.2,6.96l-17.65,48.79l25.53,12.27c1.83,0.88,3.09,2.63,3.35,4.64c0.26,2.02-0.52,4.02-2.07,5.34l-73.5,62.38
		C105.22,266.68,103.84,267.16,102.45,267.16z M102.79,190.2l22.13,10.63c2.78,1.33,4.09,4.55,3.04,7.45L115.77,242l49.26-41.81
		l-22.09-10.62c-2.78-1.33-4.09-4.55-3.04-7.45l11.92-32.96L102.79,190.2z"/>
</g>
<g>
	<path class="st1" d="M250.14,402.77c-4.28,0-8.57-0.18-12.87-0.54c-55.56-4.64-104.17-39.19-126.88-90.17
		c-1.35-3.03,0.01-6.57,3.04-7.92c3.02-1.35,6.57,0.01,7.92,3.04c20.93,46.97,65.73,78.81,116.92,83.09
		c27.55,2.3,54.88-3.44,79.03-16.61c17.74-9.68,33.51-23.35,45.6-39.53c1.98-2.66,5.74-3.2,8.4-1.22c2.65,1.98,3.2,5.74,1.22,8.4
		c-13.11,17.55-30.21,32.38-49.46,42.89C300.6,396.44,275.62,402.77,250.14,402.77z"/>
	<path class="st1" d="M333.72,385.98c-4.78,0-9.63-0.37-14.52-1.13c-2.56-0.4-4.58-2.4-5-4.96c-4.6-28.05,3.52-55,22.3-73.93
		c18.77-18.92,45.65-27.27,73.74-22.91c2.56,0.4,4.58,2.4,5,4.96c4.59,28.05-3.54,55-22.31,73.92l0,0
		C377.43,377.56,356.4,385.98,333.72,385.98z M325.44,373.56c22.62,2.3,43.92-4.89,58.98-20.07l0,0
		c15.05-15.18,22.07-36.53,19.58-59.14c-22.63-2.31-43.92,4.88-58.98,20.06C329.96,329.6,322.94,350.96,325.44,373.56z"/>
</g>
<g>
	<path class="st0" d="M252,331.06c-29.25,0-53.04-23.79-53.04-53.04c0-26.95,43.07-95.26,47.98-102.96c1.1-1.73,3.01-2.77,5.06-2.77
		c2.05,0,3.96,1.05,5.06,2.77c4.91,7.7,47.98,76.01,47.98,102.96C305.04,307.27,281.25,331.06,252,331.06z M252,189.63
		c-14.87,24.31-41.04,70.77-41.04,88.39c0,22.63,18.41,41.04,41.04,41.04c22.63,0,41.04-18.41,41.04-41.04
		C293.04,260.4,266.87,213.94,252,189.63z"/>
	<path class="st0" d="M251.44,307.51c-3.31,0-6-2.69-6-6s2.69-6,6-6c9.84,0,17.84-8,17.84-17.84c0-3.31,2.69-6,6-6s6,2.69,6,6
		C281.28,294.12,267.89,307.51,251.44,307.51z"/>
</g>
</svg>
