<?xml version="1.0" encoding="utf-8"?>
<!-- Generator: Adobe Illustrator 24.1.2, SVG Export Plug-In . SVG Version: 6.00 Build 0)  -->
<svg version="1.1" id="Warstwa_3" xmlns="http://www.w3.org/2000/svg" xmlns:xlink="http://www.w3.org/1999/xlink" x="0px" y="0px"
	 viewBox="0 0 430 430" style="enable-background:new 0 0 430 430;" xml:space="preserve">
<style type="text/css">
	.st0{fill:#000000;}
	.st1{fill:#000000;}
	.st2{fill:none;}
	.st3{fill:#000000;fill-opacity:0;}
</style>
<g>
	<path class="st1" d="M275.02,387.48H154.98c-11.66,0-21.14-9.48-21.14-21.14V94.12c0-11.66,9.48-21.14,21.14-21.14h15.8v-9.32
		c0-11.66,9.48-21.14,21.14-21.14h46.15c11.66,0,21.14,9.48,21.14,21.14v9.32h15.8c11.66,0,21.14,9.48,21.14,21.14v272.22
		C296.16,378,286.68,387.48,275.02,387.48z M154.98,85.58c-4.71,0-8.54,3.83-8.54,8.54v272.22c0,4.71,3.83,8.54,8.54,8.54h120.04
		c4.71,0,8.54-3.83,8.54-8.54V94.12c0-4.71-3.83-8.54-8.54-8.54H154.98z M183.38,72.98h63.23v-9.32c0-4.71-3.83-8.54-8.54-8.54
		h-46.15c-4.71,0-8.54,3.83-8.54,8.54V72.98z"/>
	<path class="st0" d="M202.16,309.24c-0.75,0-1.5-0.13-2.24-0.41c-2.7-1.03-4.36-3.75-4.02-6.62l5.35-45.71h-28.41
		c-2.2,0-4.25-1.15-5.39-3.04c-1.14-1.89-1.22-4.23-0.19-6.18l48.51-92.78c1.4-2.67,4.49-3.98,7.38-3.12
		c2.89,0.86,4.77,3.65,4.47,6.65l-5.84,60.25h35.06c2.35,0,4.5,1.31,5.59,3.39c1.09,2.08,0.92,4.59-0.42,6.52l-54.69,78.37
		C206.13,308.27,204.18,309.24,202.16,309.24z M183.25,243.9h25.09c1.8,0,3.51,0.77,4.71,2.11c1.2,1.34,1.76,3.13,1.55,4.92
		l-3.26,27.86l33.43-47.91h-29.92c-1.78,0-3.47-0.75-4.66-2.07c-1.19-1.32-1.78-3.07-1.61-4.84l3.39-35L183.25,243.9z"/>
</g>
</svg>
