<?xml version="1.0" encoding="utf-8"?>
<!-- Generator: Adobe Illustrator 25.4.1, SVG Export Plug-In . SVG Version: 6.00 Build 0)  -->
<svg version="1.1" id="outline" xmlns="http://www.w3.org/2000/svg" xmlns:xlink="http://www.w3.org/1999/xlink" x="0px" y="0px"
	 viewBox="0 0 500 500" style="enable-background:new 0 0 500 500;" xml:space="preserve">
<style type="text/css">
	.st0{fill:#000000;}
	.st1{fill:#000000;}
	.st2{fill:#FFFFFF;}
	.st3{fill:#000000;}
</style>
<g>
	<path class="st1" d="M324.33,389.66c-1.74,0-3.47-0.75-4.65-2.21c-2.1-2.57-1.71-6.35,0.85-8.44
		c25.69-20.97,40.66-51.99,41.06-85.09c-1.1-69.37-80.13-161.18-107.02-190.44c-5.43,30.29-25.23,59.42-46.91,88.97
		c-1.94,2.65-5.65,3.24-8.32,1.33c-20.83-14.86-38.04-25.37-39.94-26.52l6.22-10.26c1.79,1.09,16.89,10.3,35.85,23.59
		c22.27-30.65,41.61-60.73,42.53-90.89c0.07-2.4,1.57-4.52,3.8-5.4c2.23-0.88,4.77-0.34,6.46,1.36c0.29,0.3,29.74,30.16,58.91,70.25
		c39.09,53.73,59.4,99.68,60.4,136.62c0.02,0.22,0.04,0.45,0.04,0.67v2.14c0,0.27-0.02,0.54-0.05,0.81
		c-1.04,35.89-17.52,69.37-45.43,92.16C327.01,389.21,325.67,389.66,324.33,389.66z"/>
	<path class="st1" d="M175.68,389.66c-1.33,0-2.68-0.44-3.79-1.35c-14.16-11.55-25.78-26.36-33.6-42.82
		c-7.9-16.62-11.9-34.45-11.9-52.98c0-29.84,10.55-53.95,19.86-75.22c6.85-15.65,12.76-29.17,12.76-41.36
		c0-4.11-0.67-7.88-2.05-11.52c-0.89-2.17-0.46-4.77,1.3-6.53c2.34-2.34,6.14-2.35,8.48,0l0.01,0.01c0.59,0.59,1.06,1.31,1.36,2.09
		c1.95,5.08,2.9,10.3,2.9,15.95c0,14.7-6.69,29.99-13.77,46.17c-8.83,20.19-18.85,43.08-18.85,70.41c0,16.74,3.61,32.84,10.74,47.83
		c7.06,14.86,17.55,28.23,30.34,38.67c2.57,2.09,2.95,5.87,0.86,8.44C179.14,388.9,177.42,389.66,175.68,389.66z"/>
</g>
<g>
	<path class="st1" d="M247.71,437.3c-11.59,0-23.34-4.41-33.46-12.89c-15.77-13.22-23.36-33.36-19.35-51.29
		c5.31-23.71,22.66-44.13,39.44-63.88c12.45-14.65,24.21-28.5,31.13-43.26c0.89-1.9,2.72-3.2,4.81-3.42
		c2.09-0.22,4.14,0.67,5.41,2.35c22.42,29.71,40.4,82.85,29.57,122.83c-5.85,21.61-19.75,37.54-40.2,46.07
		C259.48,436.16,253.61,437.3,247.71,437.3z M271.57,280.05c-7.61,12.87-17.99,25.08-28.09,36.97
		c-15.84,18.64-32.21,37.92-36.87,58.73c-3.05,13.6,2.98,29.1,15.35,39.47c11.76,9.86,26.15,12.68,38.48,7.54
		c17.14-7.15,28.32-19.98,33.24-38.13C302.31,352.75,289.75,308.67,271.57,280.05z"/>
	<path class="st0" d="M197.48,443.04c-3.13,0-5.77-2.43-5.98-5.6c-0.22-3.31,2.28-6.17,5.59-6.39c30.28-2.03,42.77-46.54,42.9-46.99
		c0.87-3.19,4.17-5.08,7.36-4.21c3.2,0.87,5.08,4.16,4.22,7.35c-0.59,2.17-14.84,53.23-53.68,55.83
		C197.75,443.03,197.62,443.04,197.48,443.04z"/>
</g>
</svg>
