<svg width="430" height="430" viewBox="0 0 430 430" fill="none" xmlns="http://www.w3.org/2000/svg">
<rect width="430" height="430" fill="white"/>
<path d="M246.1 134.7C270.1 181.1 279.1 278 210.7 293.8C176 301.8 144.6 260.9 157.6 229.1C173 191.5 222.9 168.1 246.1 134.7Z" stroke="#000000" stroke-width="12" stroke-miterlimit="10" stroke-linecap="round" stroke-linejoin="round"/>
<path d="M200.9 248.1C200.9 248.1 179.2 295.1 143.6 291.5" stroke="#000000" stroke-width="12" stroke-miterlimit="10" stroke-linecap="round" stroke-linejoin="round"/>
<path d="M68.8 202.5C75.6 121.7 146.5 61.7 227.3 68.5C295.4 74.2 348.8 125.6 359.8 190" stroke="#000000" stroke-width="12" stroke-miterlimit="10" stroke-linecap="round" stroke-linejoin="round"/>
<path d="M361.3 227C354.5 307.8 283.6 367.8 202.8 361C134.6 355.3 81.3 303.9 70.3 239.5" stroke="#000000" stroke-width="12" stroke-miterlimit="10" stroke-linecap="round" stroke-linejoin="round"/>
<path d="M44 169L68.8 202.5L102.3 177.7" stroke="#000000" stroke-width="12" stroke-miterlimit="10" stroke-linecap="round" stroke-linejoin="round"/>
<path d="M386.1 260.5L361.3 227L327.8 251.8" stroke="#000000" stroke-width="12" stroke-miterlimit="10" stroke-linecap="round" stroke-linejoin="round"/>
</svg>
