<?xml version="1.0" encoding="utf-8"?>
<!-- Generator: Adobe Illustrator 24.1.2, SVG Export Plug-In . SVG Version: 6.00 Build 0)  -->
<svg version="1.1" id="Warstwa_3" xmlns="http://www.w3.org/2000/svg" xmlns:xlink="http://www.w3.org/1999/xlink" x="0px" y="0px"
	 viewBox="0 0 430 430" style="enable-background:new 0 0 430 430;" xml:space="preserve">
<style type="text/css">
	.st0{fill:#000000;}
	.st1{fill:#000000;}
	.st2{fill:none;stroke:#000000;stroke-width:12.25;stroke-miterlimit:14;}
	.st3{fill-opacity:0;}
	.st4{fill:#131432;}
	.st5{fill:none;}
</style>
<g>
	<path class="st1" d="M220.09,380.12h-10.18c-18.89,0-34.27-15.37-34.27-34.26V336c0-3.38,2.74-6.12,6.12-6.12h66.47
		c3.38,0,6.12,2.74,6.12,6.12v9.86C254.35,364.75,238.98,380.12,220.09,380.12z M187.88,342.11v3.75c0,12.14,9.88,22.03,22.03,22.03
		h10.18c12.14,0,22.02-9.88,22.02-22.03v-3.75H187.88z"/>
	<path class="st0" d="M242.42,316.86h-54.85c-10.93,0-19.83-8.89-19.83-19.83v-14.3c0-5.74-2.49-11.16-6.83-14.88
		c-17.26-14.76-57.4-54.89-57.4-108.66c0-69.47,40.63-109.31,111.48-109.31s111.48,39.84,111.48,109.31
		c0,53.77-40.14,93.9-57.4,108.66c-4.34,3.71-6.83,9.13-6.83,14.88v14.3C262.25,307.96,253.36,316.86,242.42,316.86z M215,62.12
		c-86.35,0-99.24,60.82-99.24,97.08c0,48.69,37.14,85.71,53.11,99.37c7.06,6.04,11.11,14.85,11.11,24.17v14.3
		c0,4.19,3.4,7.59,7.59,7.59h54.85c4.19,0,7.59-3.41,7.59-7.59v-14.3c0-9.32,4.05-18.14,11.11-24.17
		c15.97-13.66,53.12-50.68,53.12-99.37C314.24,122.94,301.35,62.12,215,62.12z"/>
	<path class="st1" d="M194.79,264.66c-2.84,0-5.39-1.99-5.99-4.89l-19.25-93.75c-0.58-2.82,0.89-5.66,3.52-6.83
		c2.63-1.17,5.72-0.33,7.42,1.99l14.69,20.15l15.17-17.73c1.16-1.36,2.86-2.14,4.65-2.14s3.49,0.78,4.65,2.14l15.17,17.73
		l14.68-20.14c1.7-2.33,4.78-3.16,7.42-1.99c2.63,1.16,4.1,4.01,3.52,6.83l-19.24,93.75c-0.68,3.31-3.91,5.44-7.22,4.76
		c-3.31-0.68-5.44-3.91-4.76-7.22l13.57-66.14l-2.64,3.62c-1.1,1.51-2.84,2.44-4.71,2.51c-1.88,0.06-3.67-0.71-4.89-2.14L215,176.98
		l-15.56,18.18c-1.22,1.42-3.02,2.2-4.89,2.14c-1.87-0.07-3.6-1-4.71-2.51l-2.64-3.62l13.58,66.14c0.68,3.31-1.45,6.54-4.76,7.22
		C195.61,264.62,195.19,264.66,194.79,264.66z"/>
</g>
</svg>
