<?xml version="1.0" encoding="utf-8"?>
<!-- Generator: Adobe Illustrator 26.3.1, SVG Export Plug-In . SVG Version: 6.00 Build 0)  -->
<svg version="1.1" id="Warstwa_1" xmlns="http://www.w3.org/2000/svg" xmlns:xlink="http://www.w3.org/1999/xlink" x="0px" y="0px"
	 viewBox="0 0 500 500" style="enable-background:new 0 0 500 500;" xml:space="preserve">
<style type="text/css">
	.st0{fill:#000000;}
	.st1{fill:#000000;}
	.st2{fill:#FFFFFF;}
</style>
<path class="st1" d="M343.4,376.43H156.6c-3.31,0-6-2.69-6-6V330.4c0-3.31,2.69-6,6-6H343.4c3.31,0,6,2.69,6,6v40.03
	C349.4,373.75,346.72,376.43,343.4,376.43z M162.6,364.43H337.4V336.4H162.6V364.43z"/>
<path class="st1" d="M316.72,416.12H183.28c-3.31,0-6-2.69-6-6v-39.69c0-3.31,2.69-6,6-6h133.43c3.31,0,6,2.69,6,6v39.69
	C322.72,413.43,320.03,416.12,316.72,416.12z M189.28,404.12h121.43v-27.69H189.28V404.12z"/>
<g>
	<path class="st0" d="M250,309.36c-41.36,0-73.76-36.33-73.76-82.72c0-3.17,0.31-6.46,0.93-9.78c0.76-9.24,3.16-19.2,5.48-28.84
		c4.14-17.15,8.41-34.89,3.35-48.01c-0.92-2.39-0.22-5.11,1.74-6.76c1.97-1.65,4.76-1.86,6.96-0.54c0.45,0.27,10,6.05,22.44,14.7
		c14.18-19.64,26.28-38.89,26.86-57.96c0.08-2.56,1.78-4.79,4.23-5.55c2.45-0.76,5.11,0.13,6.62,2.2
		c2.81,3.86,68.91,95.17,68.91,140.54C323.76,273.02,291.36,309.36,250,309.36z M200.22,150.45c0.72,12.9-2.63,26.81-5.9,40.38
		c-2.34,9.72-4.56,18.91-5.21,27.29c-0.02,0.22-0.05,0.45-0.09,0.67c-0.52,2.69-0.78,5.33-0.78,7.85
		c0,39.66,27.13,70.72,61.76,70.72s61.76-31.06,61.76-70.72c0-32.39-40.21-95.02-58.15-121.35c-5,18.38-17.12,36.07-30.26,53.98
		c-1.94,2.65-5.65,3.24-8.33,1.33C209.59,156.71,204.48,153.25,200.22,150.45z"/>
	<path class="st0" d="M250.05,309.37c-24.42,0-42.84-19.66-42.84-45.72c0-13.76,9.63-26.83,18.95-39.47
		c8.62-11.7,17.54-23.8,17.89-35.19c0.08-2.56,1.78-4.79,4.23-5.55c2.45-0.76,5.11,0.13,6.62,2.2c0.38,0.53,9.49,13.06,18.74,28.77
		c12.77,21.68,19.25,38.25,19.25,49.24C292.89,289.72,274.47,309.37,250.05,309.37z M252.85,203.79
		c-3.82,9.59-10.5,18.65-17.03,27.51c-8.54,11.59-16.61,22.53-16.61,32.35c0,19.54,12.97,33.72,30.84,33.72s30.84-14.18,30.84-33.72
		C280.89,249.31,264.52,221.42,252.85,203.79z"/>
</g>
</svg>
