<?xml version="1.0" encoding="utf-8"?>
<!-- Generator: Adobe Illustrator 24.1.2, SVG Export Plug-In . SVG Version: 6.00 Build 0)  -->
<svg version="1.1" id="Warstwa_3" xmlns="http://www.w3.org/2000/svg" xmlns:xlink="http://www.w3.org/1999/xlink" x="0px" y="0px"
	 viewBox="0 0 430 430" style="enable-background:new 0 0 430 430;" xml:space="preserve">
<style type="text/css">
	.st0{fill:#000000;}
	.st1{fill:#000000;}
	.st2{fill:none;stroke:#000000;stroke-width:12;stroke-linecap:round;stroke-linejoin:round;stroke-miterlimit:10;}
	.st3{fill:#000000;}
</style>
<g>
	<path class="st1" d="M141.74,131.14h-34.41c-3.31,0-6-2.69-6-6V81.4c0-3.31,2.69-6,6-6h34.41c3.31,0,6,2.69,6,6v43.74
		C147.74,128.46,145.05,131.14,141.74,131.14z M113.32,119.14h22.41V87.4h-22.41V119.14z"/>
	<path class="st0" d="M363.12,119.14h-34.44V81.4c0-3.31-2.69-6-6-6h-34.41c-3.31,0-6,2.69-6,6v37.74H66.88c-9.93,0-18,8.08-18,18
		v21c0,9.92,8.07,18,18,18h8.69V348.6c0,3.31,2.69,6,6,6h266.87c3.31,0,6-2.69,6-6V176.14h8.69c9.93,0,18-8.08,18-18v-21
		C381.12,127.22,373.04,119.14,363.12,119.14z M294.26,87.4h22.41v31.74h-22.41V87.4z M342.43,342.6H87.57V176.14h254.87V342.6z
		 M369.12,158.14c0,3.31-2.69,6-6,6H66.88c-3.31,0-6-2.69-6-6v-21c0-3.31,2.69-6,6-6h221.38h34.41h40.44c3.31,0,6,2.69,6,6V158.14z"
		/>
	<path class="st0" d="M302.02,300.89H127.98c-3.31,0-6-2.69-6-6v-81.34c0-3.31,2.69-6,6-6h174.04c3.31,0,6,2.69,6,6v81.34
		C308.02,298.21,305.33,300.89,302.02,300.89z M133.98,288.89h162.04v-69.34H133.98V288.89z"/>
	<path class="st1" d="M187.65,260.22h-32.31c-3.31,0-6-2.69-6-6s2.69-6,6-6h32.31c3.31,0,6,2.69,6,6S190.96,260.22,187.65,260.22z"
		/>
	<g>
		<path class="st1" d="M274,260.5h-32.31c-3.31,0-6-2.69-6-6s2.69-6,6-6H274c3.31,0,6,2.69,6,6S277.31,260.5,274,260.5z"/>
		<path class="st1" d="M257.84,276.02c-3.31,0-6-2.69-6-6v-32.31c0-3.31,2.69-6,6-6s6,2.69,6,6v32.31
			C263.84,273.33,261.16,276.02,257.84,276.02z"/>
	</g>
</g>
</svg>
