<?xml version="1.0" encoding="utf-8"?>
<!-- Generator: Adobe Illustrator 24.1.2, SVG Export Plug-In . SVG Version: 6.00 Build 0)  -->
<svg version="1.1" id="Warstwa_3" xmlns="http://www.w3.org/2000/svg" xmlns:xlink="http://www.w3.org/1999/xlink" x="0px" y="0px"
	 viewBox="0 0 430 430" style="enable-background:new 0 0 430 430;" xml:space="preserve">
<style type="text/css">
	.st0{fill:#000000;}
	.st1{fill:#000000;}
	.st2{fill:none;stroke:#000000;stroke-width:12;stroke-linecap:round;stroke-linejoin:round;stroke-miterlimit:10;}
	.st3{fill:#000000;}
</style>
<g>
	<path class="st0" d="M215,381.89c-92.02,0-166.89-74.87-166.89-166.89S122.98,48.11,215,48.11S381.89,122.97,381.89,215
		S307.02,381.89,215,381.89z M215,60.11c-85.41,0-154.89,69.48-154.89,154.89S129.59,369.89,215,369.89S369.89,300.41,369.89,215
		S300.41,60.11,215,60.11z"/>
	<path class="st0" d="M214.77,350.33c-74.62,0-135.33-60.71-135.33-135.33S140.15,79.67,214.77,79.67S350.11,140.38,350.11,215
		S289.4,350.33,214.77,350.33z M214.77,91.67c-68,0-123.33,55.33-123.33,123.33s55.33,123.33,123.33,123.33
		c68.01,0,123.33-55.33,123.33-123.33S282.78,91.67,214.77,91.67z"/>
	<path class="st0" d="M215.77,162.64c-3.31,0-6-2.69-6-6v-33.47c0-3.31,2.69-6,6-6s6,2.69,6,6v33.47
		C221.77,159.95,219.09,162.64,215.77,162.64z"/>
	<path class="st0" d="M184.55,167.9c-2.45,0-4.75-1.51-5.64-3.95l-7.79-21.39c-1.13-3.11,0.47-6.56,3.59-7.69
		c3.11-1.13,6.56,0.47,7.69,3.59l7.79,21.39c1.13,3.11-0.47,6.56-3.59,7.69C185.93,167.78,185.23,167.9,184.55,167.9z"/>
	<path class="st0" d="M157.69,183.28c-1.71,0-3.41-0.73-4.6-2.14l-19.66-23.43c-2.13-2.54-1.8-6.32,0.74-8.45
		c2.54-2.13,6.32-1.8,8.45,0.74l19.66,23.43c2.13,2.54,1.8,6.32-0.74,8.45C160.42,182.82,159.05,183.28,157.69,183.28z"/>
	<path class="st0" d="M272.26,183.7c-1.36,0-2.73-0.46-3.85-1.4c-2.54-2.13-2.87-5.91-0.74-8.45l20.27-24.15
		c2.13-2.54,5.92-2.87,8.45-0.74c2.54,2.13,2.87,5.91,0.74,8.45l-20.27,24.15C275.68,182.97,273.98,183.7,272.26,183.7z"/>
	<path class="st0" d="M245.52,168.12c-0.68,0-1.38-0.12-2.05-0.36c-3.11-1.13-4.72-4.58-3.59-7.69l7.87-21.61
		c1.13-3.11,4.58-4.72,7.69-3.59c3.11,1.13,4.72,4.58,3.59,7.69l-7.87,21.61C250.27,166.61,247.97,168.12,245.52,168.12z"/>
	<path class="st1" d="M221.77,268.89v-70.22c0-3.31-2.69-6-6-6s-6,2.69-6,6v70.22c-11.17,2.71-19.49,12.78-19.49,24.77
		c0,14.06,11.43,25.49,25.49,25.49s25.49-11.44,25.49-25.49C241.26,281.67,232.94,271.59,221.77,268.89z M215.77,307.15
		c-7.44,0-13.49-6.05-13.49-13.49s6.05-13.49,13.49-13.49s13.49,6.05,13.49,13.49S223.21,307.15,215.77,307.15z"/>
	<path class="st0" d="M159.27,255.09h-23.42v-10.07h11.97c3.31,0,6-2.69,6-6s-2.69-6-6-6h-11.97v-10.06h23.42c3.31,0,6-2.69,6-6
		s-2.69-6-6-6h-29.42c-3.31,0-6,2.69-6,6v44.13c0,3.31,2.69,6,6,6h29.42c3.31,0,6-2.69,6-6S162.59,255.09,159.27,255.09z"/>
	<path class="st0" d="M305.54,210.96h-30.26c-3.31,0-6,2.69-6,6v45.38c0,3.31,2.69,6,6,6s6-2.69,6-6v-16.69h12.47c3.31,0,6-2.69,6-6
		s-2.69-6-6-6h-12.47v-10.69h24.26c3.31,0,6-2.69,6-6S308.85,210.96,305.54,210.96z"/>
</g>
</svg>
