<?xml version="1.0" encoding="utf-8"?>
<!-- Generator: Adobe Illustrator 25.4.1, SVG Export Plug-In . SVG Version: 6.00 Build 0)  -->
<svg version="1.1" id="outline" xmlns="http://www.w3.org/2000/svg" xmlns:xlink="http://www.w3.org/1999/xlink" x="0px" y="0px"
	 viewBox="0 0 500 500" style="enable-background:new 0 0 500 500;" xml:space="preserve">
<style type="text/css">
	.st0{fill:#000000;}
	.st1{fill:#000000;}
	.st2{fill:#FFFFFF;}
	.st3{fill:#000000;}
</style>
<g>
	<path class="st0" d="M242.28,383.73c-0.56,0-1.12-0.08-1.67-0.24c-2.56-0.74-4.33-3.09-4.33-5.76v-60.34h-39.97
		c-2.16,0-4.16-1.16-5.22-3.04c-1.07-1.88-1.04-4.19,0.08-6.04l61.29-102.21c1.39-2.31,4.14-3.42,6.75-2.7
		c2.6,0.72,4.4,3.09,4.4,5.78v65.56h40.09c2.19,0,4.2,1.19,5.26,3.11c1.05,1.92,0.98,4.25-0.19,6.1l-61.41,96.99
		C246.23,382.71,244.3,383.73,242.28,383.73z M206.9,305.39h35.37c3.31,0,6,2.69,6,6v45.65l44.51-70.3H257.6c-3.31,0-6-2.69-6-6
		v-49.89L206.9,305.39z"/>
	<path class="st1" d="M250,417.96c-23.96,0-47.23-6.84-67.28-19.77c-19.52-12.59-35.1-30.31-45.04-51.25
		c-7.94-16.71-11.96-34.63-11.96-53.27c0-0.07,0-0.15,0-0.22c0.05-29.9,10.63-54.08,19.96-75.41c9.29-21.24,16.63-38.02,10.72-53.34
		c-0.92-2.39-0.22-5.11,1.74-6.76c1.96-1.65,4.76-1.87,6.96-0.54c0.17,0.1,16.18,9.79,36.1,23.76
		c22.41-30.84,41.88-61.09,42.81-91.46c0.07-2.4,1.57-4.52,3.8-5.4c2.23-0.88,4.77-0.34,6.46,1.36c0.3,0.3,30.24,30.67,59.74,71.33
		c39.01,53.77,59.27,99.75,60.25,136.72c0.02,0.21,0.03,0.43,0.04,0.65l0,1.94c0,0.07,0,0.14,0,0.22v0c0,0,0,0,0,0.01
		c0,0.27-0.02,0.54-0.05,0.8c-0.92,31.95-13.84,61.85-36.59,84.47C314.2,405.12,283.07,417.96,250,417.96z M137.71,293.88
		c0.03,16.77,3.67,32.88,10.8,47.91c18.52,38.98,58.35,64.17,101.49,64.17c61.29,0,111.48-49.63,112.28-110.8
		c-1.03-69.75-80.67-162.26-107.7-191.68c-5.44,30.49-25.37,59.8-47.19,89.53c-1.94,2.65-5.65,3.24-8.32,1.33
		c-11.04-7.89-21.2-14.63-28.54-19.36c0.46,15.13-6.31,30.6-13.86,47.85c-8.89,20.31-18.96,43.33-18.96,70.83
		C137.71,293.74,137.71,293.81,137.71,293.88z"/>
</g>
</svg>
