<?xml version="1.0" encoding="utf-8"?>
<!-- Generator: Adobe Illustrator 24.1.2, SVG Export Plug-In . SVG Version: 6.00 Build 0)  -->
<svg version="1.1" id="Warstwa_3" xmlns="http://www.w3.org/2000/svg" xmlns:xlink="http://www.w3.org/1999/xlink" x="0px" y="0px"
	 viewBox="0 0 430 430" style="enable-background:new 0 0 430 430;" xml:space="preserve">
<style type="text/css">
	.st0{fill:#000000;}
	.st1{fill:#000000;}
	.st2{fill:none;}
	.st3{fill:#000000;fill-opacity:0;}
</style>
<g>
	<path class="st0" d="M185.88,388.3c-0.75,0-1.5-0.13-2.24-0.41c-2.7-1.03-4.36-3.75-4.02-6.62l13.35-114.02H118.6
		c-2.2,0-4.25-1.15-5.39-3.04c-1.14-1.89-1.22-4.23-0.19-6.18L224.35,45.08c1.4-2.67,4.49-3.98,7.38-3.12
		c2.89,0.86,4.77,3.65,4.47,6.65l-14.27,147.23h89.46c2.35,0,4.5,1.31,5.59,3.39c1.09,2.08,0.92,4.59-0.42,6.52L191.05,385.6
		C189.85,387.33,187.9,388.3,185.88,388.3z M129,254.65h71.06c1.8,0,3.51,0.77,4.71,2.11c1.2,1.34,1.76,3.13,1.55,4.92l-11.26,96.17
		l104.26-149.41H215c-1.78,0-3.47-0.75-4.66-2.07c-1.19-1.32-1.78-3.07-1.61-4.84l11.82-121.97L129,254.65z"/>
</g>
</svg>
