<?xml version="1.0" encoding="utf-8"?>
<!-- Generator: Adobe Illustrator 26.3.1, SVG Export Plug-In . SVG Version: 6.00 Build 0)  -->
<svg version="1.1" id="Warstwa_1" xmlns="http://www.w3.org/2000/svg" xmlns:xlink="http://www.w3.org/1999/xlink" x="0px" y="0px"
	 viewBox="0 0 500 500" style="enable-background:new 0 0 500 500;" xml:space="preserve">
<style type="text/css">
	.st0{fill:#FFFFFF;}
	.st1{fill:#000000;}
	.st2{fill:#000000;}
</style>
<g>
	<g>
		<path class="st0" d="M394.4,361.65c0,27.46-18.97,47.96-42.36,47.96c-23.39,0-42.36-20.5-42.36-47.96c0-1.87,0.19-3.74,0.56-5.62
			c1.23-15.85,10.81-35.61,5.3-49.89c0,0,7.63,4.6,16.82,11.17c9.84-13.41,19.25-27.13,19.68-41.31
			C352.04,276,394.4,334.18,394.4,361.65z"/>
		<path class="st1" d="M352.04,415.61c-27.12,0-48.36-23.7-48.36-53.96c0-2.08,0.2-4.24,0.6-6.41c0.5-5.92,2.01-12.19,3.47-18.26
			c2.5-10.39,5.09-21.13,2.18-28.67c-0.92-2.39-0.22-5.11,1.74-6.76c1.97-1.65,4.76-1.86,6.96-0.54c0.26,0.16,5.39,3.26,12.33,8.01
			c8.08-11.35,14.75-22.45,15.08-33.19c0.08-2.56,1.78-4.79,4.23-5.55c2.45-0.76,5.11,0.13,6.62,2.2
			c1.78,2.44,43.51,60.09,43.51,89.18C400.4,391.91,379.16,415.61,352.04,415.61z M323.2,318.25c-0.29,7.06-2.05,14.37-3.78,21.54
			c-1.44,5.99-2.81,11.65-3.2,16.71c-0.02,0.22-0.05,0.45-0.09,0.67c-0.3,1.54-0.45,3.05-0.45,4.48c0,23.53,15.97,41.96,36.36,41.96
			s36.36-18.43,36.36-41.96c0-17.09-19.84-50.53-33.36-70.79c-3.75,10.22-10.55,20.07-17.84,30.01c-1.94,2.65-5.65,3.24-8.33,1.33
			C326.89,320.78,324.98,319.45,323.2,318.25z"/>
	</g>
	<g>
		<path class="st0" d="M329.05,384.79c0-14.93,22.53-30.19,23.03-46.56c0,0,23.03,31.63,23.03,46.56s-10.31,24.83-23.03,24.83
			C339.36,409.62,329.05,399.72,329.05,384.79z"/>
		<path class="st1" d="M352.07,415.62c-16.55,0-29.03-13.25-29.03-30.83c0-9.34,6.24-17.82,12.28-26.01
			c5.19-7.04,10.55-14.31,10.75-20.73c0.08-2.56,1.78-4.79,4.23-5.55c2.45-0.76,5.11,0.13,6.62,2.2
			c2.47,3.4,24.18,33.68,24.18,50.09C381.1,402.36,368.62,415.62,352.07,415.62z M354.18,352c-2.49,4.82-5.87,9.4-9.19,13.9
			c-4.89,6.63-9.94,13.49-9.94,18.89c0,11.09,7,18.83,17.03,18.83s17.03-7.74,17.03-18.83C369.1,377.68,361.53,363.53,354.18,352z"
			/>
	</g>
</g>
<g>
	<g>
		<path class="st0" d="M107.76,278.08c-16.83,22.3-30.21,72.59,4.44,87.05c17.59,7.34,37.8-11.41,33.78-29.35
			C141.23,314.55,117,297.76,107.76,278.08z"/>
		<path class="st1" d="M120.41,372.77c-3.57,0-7.13-0.69-10.52-2.11c-11.95-4.99-20.07-14.29-23.49-26.91
			c-6.13-22.63,3.96-52.59,16.57-69.29c1.27-1.68,3.32-2.57,5.41-2.35c2.09,0.22,3.92,1.52,4.81,3.42
			c3.62,7.71,9.91,15.12,16.57,22.96c9.36,11.01,19.03,22.4,22.07,35.98c2.45,10.92-1.94,22.66-11.45,30.64
			C134.37,370.15,127.36,372.77,120.41,372.77z M107.47,289.56c-8.33,14.94-13.63,35.74-9.48,51.06
			c2.45,9.03,8.01,15.42,16.53,18.97c5.76,2.4,12.55,1.03,18.16-3.68c5.97-5,8.89-12.39,7.45-18.82
			c-2.39-10.69-10.71-20.47-19.51-30.83C116.04,300.87,111.36,295.35,107.47,289.56z"/>
	</g>
	<path class="st2" d="M147.77,375.89c-0.13,0-0.27,0-0.41-0.01c-23.08-1.55-31.36-31.17-31.7-32.43c-0.87-3.2,1.03-6.49,4.22-7.36
		c3.19-0.87,6.49,1.02,7.36,4.22c0.05,0.17,1.75,6.21,5.46,12.19c4.46,7.19,9.66,11.03,15.46,11.41c3.31,0.22,5.81,3.08,5.59,6.39
		C153.54,373.47,150.9,375.89,147.77,375.89z"/>
</g>
<g>
	<g>
		<path class="st0" d="M329.54,187.58c4.71-6.97,7.46-15.38,7.46-24.43c0-24.13-19.56-43.69-43.69-43.69"/>
		<path class="st1" d="M329.53,193.58c-1.16,0-2.32-0.33-3.35-1.03c-2.75-1.85-3.47-5.58-1.61-8.33c4.21-6.23,6.43-13.52,6.43-21.07
			c0-20.78-16.91-37.69-37.69-37.69c-3.31,0-6-2.69-6-6s2.69-6,6-6c27.4,0,49.69,22.29,49.69,49.69c0,9.96-2.94,19.56-8.49,27.78
			C333.35,192.66,331.46,193.58,329.53,193.58z"/>
	</g>
	<path class="st1" d="M293.31,95.35c-3.31,0-6-2.69-6-6V66c0-3.31,2.69-6,6-6s6,2.69,6,6v23.35
		C299.31,92.67,296.62,95.35,293.31,95.35z"/>
	<path class="st1" d="M390.47,169.16h-23.35c-3.31,0-6-2.69-6-6s2.69-6,6-6h23.35c3.31,0,6,2.69,6,6S393.78,169.16,390.47,169.16z"
		/>
	<path class="st1" d="M345.5,116.97c-1.54,0-3.07-0.59-4.24-1.76c-2.34-2.34-2.34-6.14,0-8.49l27.96-27.96
		c2.34-2.34,6.14-2.34,8.48,0c2.34,2.34,2.34,6.14,0,8.49l-27.96,27.96C348.57,116.38,347.03,116.97,345.5,116.97z"/>
</g>
<g>
	<path class="st2" d="M262.02,212.96c-3.31,0-6-2.68-6-5.99v-0.01c0-3.31,2.69-6,6-6s6,2.69,6,6S265.33,212.96,262.02,212.96z"/>
	<path class="st2" d="M271.36,415.62h-44.35c-1.64,0-3.21-0.67-4.34-1.86c-1.13-1.19-1.73-2.78-1.65-4.42l9.04-195.94
		c0.13-3.2,2.76-5.76,6-5.76c3.31,0,6,2.68,6,5.99c0,0.09,0,0.2-0.01,0.29l-8.75,189.7h31.79l-8.75-189.7
		c-0.15-3.31,2.41-6.12,5.72-6.27c3.3-0.16,6.12,2.41,6.27,5.72l9.04,195.98c0.08,1.64-0.52,3.23-1.65,4.42
		C274.57,414.95,273,415.62,271.36,415.62z"/>
	<path class="st2" d="M236.36,212.96c-3.31,0-6-2.68-6-5.99v-0.01c0-3.31,2.69-6,6-6s6,2.69,6,6S239.67,212.96,236.36,212.96z"/>
	<path class="st2" d="M233.45,182.89c-1.71,0-3.42-0.73-4.6-2.15c-3.68-4.39-5.79-9.74-6.1-15.47c-0.03-0.51-0.05-1.01-0.05-1.5
		c0-2.2,0.27-4.37,0.79-6.46l19.81-95.34c0.58-2.78,3.03-4.78,5.87-4.78c2.84,0,5.3,2,5.87,4.78l19.82,95.34
		c0.53,2.09,0.79,4.26,0.79,6.46c0,0.34-0.01,0.68-0.02,1.01l-0.01,0.32c0,0.06,0,0.11-0.01,0.17c-0.32,5.73-2.44,11.08-6.13,15.47
		c-2.13,2.54-5.92,2.86-8.45,0.73s-2.86-5.92-0.73-8.45c1.99-2.37,3.14-5.26,3.33-8.35l0.01-0.3c0.01-0.2,0.01-0.4,0.01-0.6
		c0-1.24-0.15-2.45-0.45-3.61c-0.02-0.09-0.04-0.18-0.06-0.28l-13.97-67.21l-13.97,67.21c-0.02,0.09-0.04,0.18-0.06,0.28
		c-0.3,1.16-0.45,2.37-0.45,3.61c0,0.29,0.02,0.57,0.03,0.85c0.17,3.11,1.32,6.03,3.32,8.41c2.13,2.54,1.79,6.32-0.75,8.45
		C236.18,182.43,234.81,182.89,233.45,182.89z"/>
	<g>
		<path class="st2" d="M365.96,257.82c-0.62,0-1.26-0.1-1.88-0.3l-92.47-30.49c-2.09-0.59-4.11-1.46-6.02-2.56
			c-0.38-0.22-0.79-0.47-1.19-0.73c-4.88-3.19-8.46-7.7-10.42-13.1c-1.13-3.11,0.48-6.56,3.59-7.69c3.11-1.13,6.56,0.48,7.69,3.59
			c1.07,2.94,3.02,5.4,5.64,7.12c0.19,0.12,0.45,0.29,0.7,0.43c1.09,0.63,2.21,1.11,3.36,1.43c0.09,0.03,0.18,0.05,0.27,0.08
			l65.2,21.49l-51.22-45.7c-0.07-0.06-0.13-0.12-0.2-0.18c-0.85-0.83-1.82-1.57-2.89-2.19c-0.27-0.15-0.53-0.29-0.81-0.43
			c-4.26-2.16-9.33-2.05-13.54,0.3c-2.89,1.62-6.55,0.58-8.17-2.31c-1.62-2.89-0.59-6.55,2.3-8.17c7.71-4.31,17-4.5,24.87-0.52
			c0.45,0.23,0.84,0.44,1.24,0.66c0.03,0.02,0.06,0.03,0.09,0.05c1.9,1.1,3.64,2.42,5.18,3.9l72.66,64.83
			c2.12,1.89,2.62,5.01,1.2,7.48C370.06,256.72,368.06,257.82,365.96,257.82z"/>
		<path class="st2" d="M132.41,257.82c-2.1,0-4.1-1.1-5.2-3c-1.42-2.46-0.92-5.58,1.2-7.48l72.66-64.83
			c1.53-1.48,3.28-2.79,5.19-3.9c0.35-0.2,0.68-0.38,1.02-0.56l0.21-0.11c0.03-0.02,0.06-0.03,0.1-0.05
			c7.86-3.99,17.16-3.8,24.86,0.52c2.89,1.62,3.92,5.27,2.3,8.17c-1.62,2.89-5.28,3.92-8.17,2.3c-4.2-2.35-9.25-2.46-13.54-0.3
			l-0.18,0.09c-0.2,0.11-0.41,0.21-0.6,0.33c-1.08,0.63-2.07,1.38-2.92,2.21c-0.06,0.06-0.13,0.12-0.2,0.18l-51.22,45.7l65.2-21.49
			c0.09-0.03,0.18-0.06,0.27-0.08c1.15-0.32,2.28-0.8,3.34-1.42c0.03-0.02,0.06-0.03,0.09-0.05c0.22-0.12,0.42-0.26,0.63-0.39
			c1.46-0.96,2.72-2.15,3.74-3.55c0.82-1.11,1.45-2.3,1.91-3.57c1.13-3.12,4.57-4.72,7.69-3.59c3.11,1.13,4.72,4.57,3.59,7.69
			c-0.86,2.36-2.04,4.56-3.51,6.56c-1.85,2.55-4.16,4.75-6.85,6.5c-0.42,0.27-0.85,0.55-1.3,0.8c-1.89,1.1-3.9,1.95-5.97,2.54
			l-92.47,30.49C133.67,257.72,133.04,257.82,132.41,257.82z"/>
	</g>
	<path class="st2" d="M249.19,217.38c-14.8,0-26.84-12.04-26.84-26.84s12.04-26.84,26.84-26.84s26.84,12.04,26.84,26.84
		S263.98,217.38,249.19,217.38z M249.19,175.71c-8.18,0-14.84,6.66-14.84,14.84c0,8.18,6.66,14.84,14.84,14.84
		s14.84-6.66,14.84-14.84C264.02,182.36,257.37,175.71,249.19,175.71z"/>
</g>
<path class="st2" d="M409.31,415.62H89.07c-3.31,0-6-2.69-6-6s2.69-6,6-6h320.24c3.31,0,6,2.69,6,6S412.62,415.62,409.31,415.62z"/>
<path class="st1" d="M122.85,185C100.88,185,83,167.13,83,145.15c0-19.97,31.32-66.32,34.89-71.54c1.12-1.63,2.97-2.61,4.95-2.61
	s3.83,0.98,4.95,2.61c3.57,5.22,34.89,51.57,34.89,71.54C162.69,167.13,144.82,185,122.85,185z M122.85,87.84
	C110.48,106.93,95,134.4,95,145.15c0,15.35,12.49,27.85,27.85,27.85c15.35,0,27.84-12.49,27.84-27.85
	C150.69,134.4,135.21,106.93,122.85,87.84z"/>
<path class="st1" d="M129.12,167.51c-2.34,0-4.56-1.38-5.53-3.66c-1.29-3.05,0.14-6.57,3.19-7.86c5.52-2.33,9.08-7.71,9.08-13.7
	c0-3.31,2.69-6,6-6s6,2.69,6,6c0,10.82-6.44,20.54-16.41,24.75C130.69,167.36,129.89,167.51,129.12,167.51z"/>
</svg>
