<svg width="430" height="430" viewBox="0 0 430 430" fill="none" xmlns="http://www.w3.org/2000/svg">
<path d="M215.1 246.7C201.4 246.7 190.3 235.6 190.3 221.9C190.3 220 190.5 218.2 190.9 216.3L209.2 130.3C209.8 127.5 212.2 125.5 215.1 125.5C218 125.5 220.4 127.5 221 130.3L239.3 216.3C239.7 218.1 239.9 220 239.9 221.9C239.9 235.6 228.8 246.7 215.1 246.7ZM215.1 160.3L202.6 218.8V218.9C202.4 219.8 202.3 220.8 202.3 221.8C202.3 228.9 208.1 234.6 215.1 234.6C222.2 234.6 227.9 228.8 227.9 221.8C227.9 220.8 227.8 219.9 227.6 218.9V218.8L215.1 160.3Z" fill="#000000"/>
<path d="M204.4 360.2C202.9 360.2 201.3 359.6 200.2 358.4C197.9 356.1 197.9 352.3 200.2 349.9L216.5 333.6H199.5C197.2 333.6 195.1 332.3 194.1 330.2C193.1 328.1 193.3 325.7 194.7 323.9L215.2 297.4C217.2 294.8 221 294.3 223.6 296.3C226.2 298.3 226.7 302.1 224.7 304.7L211.7 321.5H231C233.4 321.5 235.6 323 236.5 325.2C237.4 327.4 236.9 330 235.2 331.7L208.7 358.2C207.4 359.6 205.9 360.2 204.4 360.2Z" fill="#000000"/>
<path d="M359.3 297.6C373.3 273.3 381.3 245.1 381.3 215.1C381.3 185.1 373.3 156.9 359.3 132.6C359.2 132.4 359.1 132.2 359 132C358.9 131.8 358.7 131.6 358.6 131.4C344.1 106.7 323.5 86 298.8 71.6C298.6 71.5 298.4 71.3 298.2 71.2C298 71.1 297.8 71 297.6 70.9C273.3 57 245.1 49 215.1 49C185.1 49 156.9 57 132.6 71C132.4 71.1 132.2 71.2 132 71.3C131.8 71.4 131.6 71.6 131.4 71.7C106.8 86.1 86.1 106.8 71.7 131.5C71.6 131.7 71.4 131.9 71.3 132.1C71.2 132.3 71.1 132.5 71 132.7C57 157 49 185.1 49 215.1C49 245.1 57 273.3 71 297.6C71.1 297.8 71.2 298 71.3 298.2C71.4 298.4 71.5 298.6 71.7 298.8C90.2 330.5 119 355.5 153.4 369.4C153.8 369.6 154.2 369.8 154.6 369.9C173.4 377.3 193.8 381.4 215.2 381.4C236.6 381.4 257 377.3 275.8 370C276.2 369.9 276.7 369.7 277.1 369.5C311.5 355.7 340.2 330.6 358.7 299C358.8 298.8 359 298.6 359.1 298.4C359.1 298 359.2 297.8 359.3 297.6ZM160.7 359.3C158.2 352.8 157 345.9 157 338.7C157 306.6 183.1 280.5 215.2 280.5C247.3 280.5 273.4 306.6 273.4 338.7C273.4 345.8 272.1 352.7 269.7 359.3C252.8 365.7 234.4 369.2 215.3 369.2C196 369.2 177.6 365.7 160.7 359.3ZM283.8 353C284.8 348.3 285.3 343.6 285.3 338.7C285.3 300 253.8 268.5 215.1 268.5C176.4 268.5 144.9 300 144.9 338.7C144.9 343.6 145.4 348.3 146.4 353C121.1 340.4 99.8 321 84.8 297.3L114.1 280.4C117 278.7 118 275.1 116.3 272.2C114.6 269.3 111 268.3 108.1 270L78.8 286.9C68.3 267.1 62.1 244.8 61.2 221.1H95C98.3 221.1 101 218.4 101 215.1C101 211.8 98.3 209.1 95 209.1H61.1C62 185.4 68.3 163.1 78.7 143.3L108 160.2C108.9 160.7 110 161 111 161C113.1 161 115.1 159.9 116.2 158C117.9 155.1 116.9 151.5 114 149.8L84.8 132.9C97.1 113.5 113.6 97 133 84.7L149.9 114C151 115.9 153 117 155.1 117C156.1 117 157.1 116.7 158.1 116.2C161 114.5 162 110.9 160.3 108L143.3 78.8C163.1 68.3 185.4 62.1 209.1 61.2V95C209.1 98.3 211.8 101 215.1 101C218.4 101 221.1 98.3 221.1 95V61.1C244.8 62 267.1 68.3 286.9 78.7L270 108.1C268.3 111 269.3 114.6 272.2 116.3C273.1 116.8 274.2 117.1 275.2 117.1C277.3 117.1 279.3 116 280.4 114.1L297.3 84.8C316.7 97.1 333.2 113.6 345.5 133L316.2 149.9C313.3 151.6 312.3 155.2 314 158.1C315.1 160 317.1 161.1 319.2 161.1C320.2 161.1 321.2 160.8 322.2 160.3L351.5 143.4C362 163.2 368.2 185.5 369.1 209.2H335.2C331.9 209.2 329.2 211.9 329.2 215.2C329.2 218.5 331.9 221.2 335.2 221.2H369.1C368.2 244.9 361.9 267.2 351.5 287L322.1 270C319.2 268.3 315.6 269.3 313.9 272.2C312.2 275.1 313.2 278.7 316.1 280.4L345.4 297.3C330.4 321 309.1 340.4 283.8 353Z" fill="#000000"/>
</svg>
