<?xml version="1.0" encoding="utf-8"?>
<!-- Generator: Adobe Illustrator 24.1.2, SVG Export Plug-In . SVG Version: 6.00 Build 0)  -->
<svg version="1.1" id="Warstwa_3" xmlns="http://www.w3.org/2000/svg" xmlns:xlink="http://www.w3.org/1999/xlink" x="0px" y="0px"
	 viewBox="0 0 430 430" style="enable-background:new 0 0 430 430;" xml:space="preserve">
<style type="text/css">
	.st0{fill:#000000;}
	.st1{fill:#000000;}
	.st2{fill:none;stroke:#000000;stroke-width:12;stroke-linecap:round;stroke-linejoin:round;stroke-miterlimit:10;}
	.st3{fill:#000000;}
</style>
<g>
	<path class="st1" d="M356.18,272.03c-13.74,0-24.91-11.18-24.91-24.91c0-11.6,16.53-38.29,19.84-43.52
		c1.1-1.74,3.01-2.79,5.07-2.79s3.97,1.05,5.07,2.79c3.31,5.23,19.84,31.92,19.84,43.52C381.09,260.86,369.91,272.03,356.18,272.03z
		 M356.18,218.4c-6.87,11.85-12.91,24.4-12.91,28.72c0,7.12,5.79,12.91,12.91,12.91s12.91-5.79,12.91-12.91
		C369.09,242.8,363.04,230.25,356.18,218.4z"/>
	<path class="st0" d="M375.15,123.95h-24.69c-0.1,0-0.19,0.01-0.29,0.01c-0.06,0-0.12,0-0.18,0.01c-0.3,0.02-0.6,0.07-0.89,0.13
		c-0.04,0.01-0.08,0.02-0.12,0.03c-0.32,0.08-0.62,0.18-0.92,0.31c0,0,0,0,0,0L252.26,166l-2.78-9.72
		c-2.88-10.07-12.21-17.11-22.69-17.11h-38.21v-27.52h10.57c3.31,0,6-2.69,6-6s-2.69-6-6-6h-33.18c-3.31,0-6,2.69-6,6s2.69,6,6,6
		h10.61v27.52h-50.56v-14.71c0-2.85-2.01-5.31-4.81-5.88l-58.16-11.79c-3.25-0.66-6.41,1.44-7.07,4.69l-5.81,28.62
		c-1.54,7.58-0.03,15.31,4.24,21.76s10.8,10.85,18.38,12.38l41.22,8.36v41.84c0,13.01,10.58,23.59,23.59,23.59h93.23
		c12.84,0,25.04-4.88,34.34-13.73c0.12-0.11,0.23-0.23,0.34-0.35l87.62-98.01h22c3.31,0,6-2.69,6-6S378.46,123.95,375.15,123.95z
		 M75.19,162.48c-4.44-0.9-8.26-3.48-10.77-7.25c-2.5-3.78-3.38-8.3-2.48-12.74l4.61-22.74l47.47,9.62v15.8v0.35v24.84L75.19,162.48
		z M256.75,225.77c-7.04,6.62-16.23,10.26-25.9,10.26h-93.23c-6.39,0-11.59-5.2-11.59-11.59v-46.75c0-0.01,0-0.02,0-0.04v-26.49
		h100.77c5.15,0,9.73,3.46,11.15,8.41l4.66,16.3c0.48,1.66,1.64,3.04,3.21,3.78c1.56,0.74,3.37,0.77,4.95,0.08l77.01-33.4
		L256.75,225.77z"/>
	<path class="st1" d="M375.09,330.36c-14.95,0-22.78-4.53-29.69-8.52c-6.41-3.71-11.95-6.91-23.68-6.91s-17.27,3.2-23.68,6.91
		c-6.91,3.99-14.74,8.52-29.69,8.52s-22.78-4.53-29.69-8.52c-6.41-3.71-11.95-6.91-23.68-6.91s-17.27,3.2-23.68,6.91
		c-6.91,3.99-14.74,8.52-29.69,8.52c-14.95,0-22.78-4.53-29.69-8.52c-6.41-3.71-11.95-6.91-23.68-6.91
		c-11.74,0-17.27,3.2-23.69,6.91c-6.91,3.99-14.74,8.52-29.69,8.52c-3.31,0-6-2.69-6-6s2.69-6,6-6c11.73,0,17.27-3.2,23.68-6.91
		c6.91-3.99,14.74-8.52,29.69-8.52c14.95,0,22.78,4.53,29.69,8.52c6.41,3.71,11.95,6.91,23.69,6.91c11.73,0,17.27-3.2,23.68-6.91
		c6.91-3.99,14.74-8.52,29.69-8.52s22.78,4.53,29.69,8.52c6.41,3.71,11.95,6.91,23.68,6.91c11.73,0,17.27-3.2,23.68-6.91
		c6.91-3.99,14.74-8.52,29.69-8.52s22.78,4.53,29.69,8.52c6.41,3.71,11.95,6.91,23.68,6.91c3.31,0,6,2.69,6,6
		S378.4,330.36,375.09,330.36z"/>
</g>
</svg>
