<?xml version="1.0" encoding="utf-8"?>
<!-- Generator: Adobe Illustrator 24.1.2, SVG Export Plug-In . SVG Version: 6.00 Build 0)  -->
<svg version="1.1" id="Warstwa_3" xmlns="http://www.w3.org/2000/svg" xmlns:xlink="http://www.w3.org/1999/xlink" x="0px" y="0px"
	 viewBox="0 0 430 430" style="enable-background:new 0 0 430 430;" xml:space="preserve">
<style type="text/css">
	.st0{fill:#000000;}
	.st1{fill:#000000;}
	.st2{fill:none;stroke:#000000;stroke-width:12;stroke-linecap:round;stroke-linejoin:round;stroke-miterlimit:10;}
	.st3{fill:#000000;}
</style>
<g>
	<path class="st0" d="M313.69,101.49l-38.7-27.07c-6.07-4.25-13.2-6.49-20.61-6.49h-25.8c-10.34,0-20.19,4.46-27.01,12.23
		l-15.19,17.29V87.03c0-3.31-2.69-6-6-6h-70.14c-3.31,0-6,2.69-6,6v269.88c0,13.35,10.86,24.2,24.2,24.2h173.12
		c13.35,0,24.2-10.86,24.2-24.2V210.84v-86.16C325.76,115.44,321.25,106.78,313.69,101.49z M210.58,88.08
		c4.55-5.18,11.11-8.15,18-8.15h25.8c4.94,0,9.68,1.5,13.73,4.32l38.7,27.07c4.35,3.05,6.95,8.04,6.95,13.35v74.63l-22.1-15.49
		v-40.95c0-9.5-4.65-18.43-12.44-23.87l-21.21-14.83c-3.7-2.59-8.04-3.95-12.55-3.95h-6.27c-6.28,0-12.27,2.7-16.42,7.41
		l-15.23,17.26l-18.12-12.7L210.58,88.08z M279.66,175.41l-62.24-43.61l14.34-16.24c1.88-2.13,4.59-3.35,7.43-3.35h6.27
		c2.04,0,4,0.62,5.68,1.79l21.21,14.83c4.58,3.2,7.32,8.45,7.32,14.04V175.41z M313.76,356.92c0,6.73-5.47,12.2-12.2,12.2H128.44
		c-6.73,0-12.2-5.47-12.2-12.2V93.03h58.14v20.14c0,1.96,0.95,3.79,2.56,4.91l136.83,95.87V356.92z"/>
	<path class="st1" d="M180.38,93.03h-70.14c-3.31,0-6-2.69-6-6V54.88c0-3.31,2.69-6,6-6h70.14c3.31,0,6,2.69,6,6v32.15
		C186.38,90.34,183.69,93.03,180.38,93.03z M116.24,81.03h58.14V60.88h-58.14V81.03z"/>
	<path class="st0" d="M285.76,228.32l-87.56-61.34c-0.02-0.04-0.04-0.07-0.06-0.1c-0.09-0.18-0.19-0.36-0.29-0.54
		c-0.03-0.05-0.05-0.09-0.08-0.14c-0.14-0.21-0.28-0.4-0.44-0.59c-0.03-0.04-0.07-0.08-0.11-0.12c-0.14-0.15-0.28-0.3-0.43-0.44
		c-0.04-0.04-0.09-0.08-0.13-0.12c-0.19-0.16-0.38-0.31-0.59-0.45c-0.03-0.02-0.07-0.04-0.1-0.06c-0.18-0.11-0.37-0.22-0.56-0.31
		c-0.06-0.03-0.12-0.06-0.18-0.09c-0.23-0.1-0.46-0.2-0.7-0.27c-0.01,0-0.03-0.01-0.05-0.01c-0.23-0.07-0.47-0.12-0.71-0.16
		c-0.07-0.01-0.14-0.02-0.2-0.03c-0.24-0.03-0.48-0.05-0.72-0.06c-0.02,0-0.04,0-0.06,0l-45.07-0.25c-1.55,0.01-3.13,0.62-4.26,1.75
		c-1.13,1.13-1.77,2.66-1.77,4.25V337.8c0,3.31,2.69,6,6,6h134.64c3.31,0,6-2.69,6-6V233.23
		C288.32,231.27,287.36,229.44,285.76,228.32z M153.68,175.26l33.07,0.19V331.8h-33.07V175.26z M276.32,331.8h-77.57V182.01
		l77.57,54.35V331.8z"/>
	<path class="st1" d="M236.69,306.98c-11.9,0-21.57-9.68-21.57-21.57c0-9.21,12.35-36.54,16.13-44.69c0.98-2.12,3.11-3.47,5.44-3.47
		s4.46,1.36,5.44,3.47c3.78,8.16,16.13,35.48,16.13,44.69C258.27,297.3,248.59,306.98,236.69,306.98z M236.69,258.01
		c-5.22,12.24-9.57,24.04-9.57,27.4c0,5.28,4.29,9.57,9.57,9.57s9.57-4.29,9.57-9.57C246.27,282.05,241.91,270.25,236.69,258.01z"/>
</g>
</svg>
