<?xml version="1.0" encoding="utf-8"?>
<!-- Generator: Adobe Illustrator 24.1.2, SVG Export Plug-In . SVG Version: 6.00 Build 0)  -->
<svg version="1.1" id="Warstwa_3" xmlns="http://www.w3.org/2000/svg" xmlns:xlink="http://www.w3.org/1999/xlink" x="0px" y="0px"
	 viewBox="0 0 430 430" style="enable-background:new 0 0 430 430;" xml:space="preserve">
<style type="text/css">
	.st0{fill:#000000;}
	.st1{fill:#000000;}
	.st2{fill:#000000;}
	.st3{fill:none;}
	.st4{fill:none;stroke:#000000;stroke-width:12;stroke-linecap:round;stroke-linejoin:round;stroke-miterlimit:10;}
	.st5{fill:none;stroke:#000000;stroke-width:12;stroke-linecap:round;stroke-linejoin:round;stroke-miterlimit:10;}
	.st6{fill:none;stroke:#000000;stroke-width:16;stroke-linecap:round;stroke-linejoin:round;stroke-miterlimit:10;}
</style>
<g>
	<path class="st1" d="M253.96,180.89H146c-11.36,0-20.6-9.24-20.6-20.6v-58.15c0-11.36,9.24-20.6,20.6-20.6h107.95
		c11.36,0,20.6,9.24,20.6,20.6v58.15C274.55,171.65,265.32,180.89,253.96,180.89z M146,93.55c-4.74,0-8.6,3.86-8.6,8.6v58.15
		c0,4.74,3.86,8.6,8.6,8.6h107.95c4.74,0,8.6-3.86,8.6-8.6v-58.15c0-4.74-3.86-8.6-8.6-8.6H146z"/>
	<path class="st0" d="M200.21,152.09c-1.54,0-3.07-0.59-4.24-1.76l-30.29-30.3c-2.34-2.34-2.34-6.14,0-8.49s6.14-2.34,8.49,0
		l30.29,30.3c2.34,2.34,2.34,6.14,0,8.49C203.28,151.51,201.74,152.09,200.21,152.09z"/>
	<path class="st1" d="M345.55,369.12h-40.26v-40.57V314.2c4.53,1.07,10.53,2.1,16.99,2.1c8.12,0,16.96-1.62,24.46-6.78
		c11.2-7.7,16.88-21.3,16.87-40.43c0-0.08,0-0.16,0-0.24l-2.44-61.94c-0.13-3.31-2.95-5.9-6.23-5.76c-3.31,0.13-5.89,2.92-5.76,6.23
		l2.44,61.82c-0.02,14.85-3.93,25.08-11.64,30.4c-10.93,7.55-27.31,4.25-34.69,2.18v-19.61V111.29
		c10.86,7.83,25.52,20.06,29.68,30.22c0.95,2.32,3.19,3.73,5.55,3.73c0.76,0,1.53-0.14,2.27-0.45c3.07-1.26,4.53-4.76,3.28-7.83
		c-6.9-16.85-32.18-34.57-40.79-40.23v-6.65c0-22.72-18.48-41.2-41.2-41.2H135.87c-22.72,0-41.2,18.48-41.2,41.2v279.04H54.42
		c-3.31,0-6,2.69-6,6s2.69,6,6,6h46.26h198.61h46.26c3.31,0,6-2.69,6-6S348.86,369.12,345.55,369.12z M293.29,322.55h-34.37v-34.37
		h34.37V322.55z M293.29,276.18h-40.37c-3.31,0-6,2.69-6,6v46.37c0,3.31,2.69,6,6,6h40.37v34.57H106.68V90.08
		c0-16.1,13.1-29.2,29.2-29.2h128.22c16.1,0,29.2,13.1,29.2,29.2V276.18z"/>
	<path class="st0" d="M345.74,214.1c-1.38,0-2.72-0.48-3.8-1.36c-1.23-1.01-2.01-2.46-2.17-4.05l-3.81-38.17l-13.34-18.57
		c-1.93-2.69-1.32-6.44,1.37-8.37l27.17-19.52c2.69-1.93,6.44-1.32,8.37,1.37l20.91,29.09c0.93,1.29,1.31,2.9,1.05,4.47
		c-0.26,1.57-1.13,2.97-2.42,3.9l-12.71,9.13l3.36,33.67c0.16,1.58-0.32,3.16-1.33,4.4c-1.01,1.23-2.46,2.01-4.05,2.17l-18.02,1.8
		C346.14,214.09,345.94,214.1,345.74,214.1z M347.81,168.4l3.3,33.13l6.08-0.61l-3.11-31.15c-0.21-2.13,0.73-4.22,2.47-5.47
		l10.65-7.65l-13.9-19.35l-17.43,12.52l10.81,15.05C347.44,165.92,347.82,167.16,347.81,168.4z"/>
	<path class="st0" d="M200.14,155.25c-2.3,0-4.61-0.88-6.36-2.64l-0.32-0.32c-3.52-3.51-3.52-9.21,0-12.73
		c3.51-3.51,9.21-3.51,12.73,0l0.32,0.32c3.52,3.51,3.52,9.21,0,12.73C204.75,154.37,202.45,155.25,200.14,155.25z"/>
</g>
</svg>
