<?xml version="1.0" encoding="utf-8"?>
<!-- Generator: Adobe Illustrator 24.1.2, SVG Export Plug-In . SVG Version: 6.00 Build 0)  -->
<svg version="1.1" id="Warstwa_3" xmlns="http://www.w3.org/2000/svg" xmlns:xlink="http://www.w3.org/1999/xlink" x="0px" y="0px"
	 viewBox="0 0 430 430" style="enable-background:new 0 0 430 430;" xml:space="preserve">
<style type="text/css">
	.st0{fill:#000000;}
	.st1{fill:#000000;}
	.st2{fill:none;stroke:#000000;stroke-width:12;stroke-linecap:round;stroke-linejoin:round;stroke-miterlimit:10;}
	.st3{fill:#000000;}
</style>
<g>
	<path class="st1" d="M241.98,330.78c-0.32,0-0.64-0.03-0.96-0.08c-3.27-0.53-5.49-3.61-4.97-6.88l7.2-44.53l-34.15-13.72
		c-3.07-1.23-4.57-4.73-3.33-7.8c1.24-3.08,4.73-4.57,7.8-3.33l38.6,15.5c2.6,1.04,4.13,3.76,3.69,6.53l-7.96,49.27
		C247.42,328.68,244.87,330.78,241.98,330.78z"/>
	<path class="st1" d="M336.06,295.25h-19.2c-3.31,0-6-2.69-6-6s2.69-6,6-6h19.2c3.31,0,6,2.69,6,6S339.37,295.25,336.06,295.25z"/>
	<path class="st1" d="M241.27,167.96c-2.07,0-4.09-1.08-5.2-3l-18.26-31.64c-6.64-11.51-17.38-19.74-30.21-23.18L119.5,91.92
		c-8.46-2.26-13.53-10.99-11.31-19.46l3.06-11.67c1.08-4.14,3.72-7.6,7.41-9.75c3.7-2.15,8.01-2.73,12.14-1.62l80.88,21.59
		c15.95,4.26,29.29,14.48,37.54,28.78l28.86,49.98c1.66,2.87,0.67,6.54-2.2,8.2c-2.87,1.66-6.54,0.67-8.2-2.2l-28.86-49.98
		c-6.65-11.52-17.39-19.75-30.24-23.19l-80.88-21.59c-1.02-0.27-2.09-0.13-3.01,0.4c-0.92,0.53-1.57,1.39-1.84,2.42L119.8,75.5
		c-0.55,2.1,0.71,4.26,2.8,4.82l68.09,18.22c15.94,4.27,29.26,14.48,37.5,28.77l18.26,31.64c1.66,2.87,0.67,6.54-2.2,8.2
		C243.32,167.7,242.29,167.96,241.27,167.96z"/>
	<path class="st1" d="M336.06,332.86h-19.2c-3.31,0-6-2.69-6-6s2.69-6,6-6h19.2c3.31,0,6,2.69,6,6S339.37,332.86,336.06,332.86z"/>
	<path class="st0" d="M353.01,230.29L336.92,174c-2.52-8.8-11.73-13.94-20.54-11.46l-20.85,5.87l-1.34-5.06
		c-3.16-11.89-15.4-19-27.29-15.84l-21.16,5.61c-5.76,1.53-10.58,5.21-13.58,10.37c-2.99,5.16-3.8,11.17-2.27,16.93l1.28,4.81
		l-14.53,3.77c-20.01,5.19-33.99,23.26-33.99,43.93v15.35c0,6.11,2.77,11.76,7.61,15.5c4.34,3.35,9.75,4.71,15.09,3.85v68.54
		c0,14.92,11.18,27.06,24.92,27.06h47.87c1.33,10.07,9.95,17.88,20.38,17.88h22.98c5.53,0,10.71-2.16,14.6-6.08
		c3.89-3.91,6.01-9.11,5.98-14.62l-0.02-102.73C351.58,252.59,356.23,241.55,353.01,230.29z M217.34,336.18v-71.55l33.68-8.74
		c6.49-1.69,13.25-0.3,18.56,3.81c5.3,4.1,8.35,10.3,8.35,17.01v74.55h-47.67C223.14,351.24,217.34,344.48,217.34,336.18z
		 M334.27,247.98c-2.51,0.78-4.23,3.1-4.23,5.73l0.02,106.72c0,0.01,0,0.03,0,0.04c0.02,2.3-0.87,4.47-2.49,6.11
		c-1.62,1.63-3.79,2.54-6.09,2.54h-22.98c-4.73,0-8.58-3.85-8.58-8.58V276.7c0-10.45-4.74-20.11-13-26.5
		c-5.96-4.61-13.1-7.02-20.42-7.02c-2.83,0-5.68,0.36-8.5,1.09l-43.85,11.38c-2.29,0.6-4.69,0.11-6.56-1.35
		c-1.88-1.45-2.95-3.64-2.95-6.01v-15.35c0-15.21,10.28-28.5,25-32.32l20.37-5.28c1.55-0.4,2.87-1.4,3.67-2.78s1.03-3.02,0.62-4.57
		l-2.83-10.64c-0.71-2.66-0.33-5.44,1.05-7.83c1.38-2.38,3.61-4.08,6.27-4.79l21.16-5.61c5.49-1.46,11.15,1.83,12.61,7.32
		l2.91,10.94c0.41,1.55,1.43,2.88,2.83,3.67c1.4,0.8,3.05,1,4.6,0.56l26.71-7.52c2.46-0.7,5.04,0.74,5.75,3.21l16.09,56.29
		C343.32,240.07,340.3,246.12,334.27,247.98z"/>
	<path class="st0" d="M106.15,247.11c-16.63,0-30.15-13.53-30.15-30.15c0-14.35,20.89-48.07,25.08-54.68
		c1.1-1.74,3.01-2.79,5.07-2.79s3.97,1.05,5.07,2.79c4.19,6.61,25.08,40.33,25.08,54.68C136.3,233.58,122.78,247.11,106.15,247.11z
		 M106.15,177C97.43,191.8,88,210.3,88,216.96c0,10.01,8.14,18.15,18.15,18.15s18.15-8.14,18.15-18.15
		C124.3,210.3,114.88,191.8,106.15,177z"/>
</g>
</svg>
