<svg width="430" height="430" viewBox="0 0 430 430" fill="none" xmlns="http://www.w3.org/2000/svg">
<rect width="430" height="430" fill="white"/>
<path d="M375.2 375.2H55" stroke="#000000" stroke-width="12" stroke-miterlimit="10" stroke-linecap="round" stroke-linejoin="round"/>
<path d="M320.9 300.9V251.6H288.1V311.1" stroke="#000000" stroke-width="12" stroke-miterlimit="10" stroke-linecap="round" stroke-linejoin="round"/>
<path d="M304.5 251.6V220.6" stroke="#000000" stroke-width="12" stroke-miterlimit="10" stroke-linecap="round" stroke-linejoin="round"/>
<path d="M85.8999 212.5V375.2" stroke="#000000" stroke-width="12" stroke-miterlimit="10" stroke-linecap="round" stroke-linejoin="round"/>
<path d="M250.5 375.2H348.4V292.4L269.5 316.9L250.5 375.2Z" stroke="#000000" stroke-width="12" stroke-miterlimit="10" stroke-linecap="round" stroke-linejoin="round"/>
<path d="M339.638 205.085L130.446 112.175L119 137.947L328.192 230.857L339.638 205.085Z" stroke="#000000" stroke-width="12" stroke-miterlimit="10" stroke-linecap="round" stroke-linejoin="round"/>
<path d="M142.7 84.4L85.8999 212.5C66.6999 132.7 122 55 122 55L142.7 84.4Z" stroke="#000000" stroke-width="12" stroke-miterlimit="10" stroke-linecap="round" stroke-linejoin="round"/>
<path d="M207.9 208L175.2 375.2" stroke="#000000" stroke-width="12" stroke-miterlimit="10" stroke-linecap="round" stroke-linejoin="round"/>
<path d="M250.1 375.2L217.4 208" stroke="#000000" stroke-width="12" stroke-miterlimit="10" stroke-linecap="round" stroke-linejoin="round"/>
<path d="M233.4 188.8C233.4 199.4 224.8 207.9 214.3 207.9H211.1C200.5 207.9 192 199.3 192 188.8V170.4" stroke="#000000" stroke-width="12" stroke-miterlimit="10" stroke-linecap="round" stroke-linejoin="round"/>
<path d="M243.9 343.5H181.4" stroke="#000000" stroke-width="12" stroke-miterlimit="10" stroke-linecap="round" stroke-linejoin="round"/>
<path d="M322.55 354.575H322.65" stroke="#000000" stroke-width="12" stroke-miterlimit="10" stroke-linecap="round" stroke-linejoin="round"/>
</svg>
