<svg width="430" height="430" viewBox="0 0 430 430" fill="none" xmlns="http://www.w3.org/2000/svg">
<rect width="430" height="430" fill="white"/>
<path d="M362 292.4H387.2V229.5H362" stroke="#000000" stroke-width="12" stroke-miterlimit="10" stroke-linecap="round" stroke-linejoin="round"/>
<path d="M72 264.3H59.2C49.7 264.3 42 256.6 42 247.1V72" stroke="#000000" stroke-width="12" stroke-miterlimit="10" stroke-linecap="round" stroke-linejoin="round"/>
<path d="M125.1 195.5H312.3C341.7 195.5 365.5 219.3 365.5 248.7V273.3C365.5 302.7 341.7 326.5 312.3 326.5H125.1C95.7 326.5 71.9 302.7 71.9 273.3V248.7C72 219.3 95.8 195.5 125.1 195.5Z" stroke="#000000" stroke-width="12" stroke-miterlimit="10" stroke-linecap="round" stroke-linejoin="round"/>
<path d="M205.4 195.5V167.1H305.8V195.5" stroke="#000000" stroke-width="12" stroke-miterlimit="10" stroke-linecap="round" stroke-linejoin="round"/>
<path d="M238.9 167.1V195.5" stroke="#000000" stroke-width="12" stroke-miterlimit="10" stroke-linecap="round" stroke-linejoin="round"/>
<path d="M272.4 167.1V195.5" stroke="#000000" stroke-width="12" stroke-miterlimit="10" stroke-linecap="round" stroke-linejoin="round"/>
<path d="M238 326.5V357.3H199.5V326.5" stroke="#000000" stroke-width="12" stroke-miterlimit="10" stroke-linecap="round" stroke-linejoin="round"/>
<path d="M160.9 326.5L148.9 357.4H126.4V326.5" stroke="#000000" stroke-width="12" stroke-miterlimit="10" stroke-linecap="round" stroke-linejoin="round"/>
<path d="M311 326.5V357.4H288.5L276.5 326.5" stroke="#000000" stroke-width="12" stroke-miterlimit="10" stroke-linecap="round" stroke-linejoin="round"/>
<path d="M200.2 271.4C200.2 261.2 218.7 231.9 218.7 231.9C218.7 231.9 237.2 261.2 237.2 271.4C237.2 281.6 228.9 289.9 218.7 289.9C208.5 290 200.2 281.7 200.2 271.4Z" stroke="#000000" stroke-width="12" stroke-miterlimit="10" stroke-linecap="round" stroke-linejoin="round"/>
<path d="M146.4 195.5V178.3" stroke="#000000" stroke-width="12" stroke-miterlimit="10" stroke-linecap="round" stroke-linejoin="round"/>
</svg>
