<?xml version="1.0" encoding="utf-8"?>
<!-- Generator: Adobe Illustrator 24.1.2, SVG Export Plug-In . SVG Version: 6.00 Build 0)  -->
<svg version="1.1" id="Warstwa_3" xmlns="http://www.w3.org/2000/svg" xmlns:xlink="http://www.w3.org/1999/xlink" x="0px" y="0px"
	 viewBox="0 0 430 430" style="enable-background:new 0 0 430 430;" xml:space="preserve">
<style type="text/css">
	.st0{fill:#000000;}
	.st1{fill:#000000;}
	.st2{fill:#000000;fill-opacity:0;}
	.st3{fill:none;}
</style>
<g>
	<path class="st1" d="M214.56,394.77c-1.46,0-2.93-0.05-4.41-0.15c-30.37-2.1-54.84-26.58-56.92-56.95
		c-1.78-26.03,13.08-50.43,36.98-60.74c0.2-0.09,0.35-0.37,0.35-0.66l0.03-217.1c0-13.2,10.74-23.94,23.94-23.94
		c13.2,0,23.94,10.74,23.94,23.94l-0.03,217.09c0,0.3,0.15,0.58,0.37,0.67c22.54,9.73,37.1,31.87,37.1,56.41
		c0,16.96-7.11,33.33-19.52,44.9C244.9,388.99,230.18,394.77,214.56,394.77z M214.53,47.83c-6.25,0-11.34,5.09-11.34,11.34v0
		l-0.03,217.1c0,5.34-3.13,10.15-7.97,12.23c-19,8.19-30.81,27.6-29.39,48.3c1.65,24.13,21.09,43.57,45.22,45.24
		c13.71,0.95,26.78-3.67,36.78-13c10-9.34,15.52-22.01,15.52-35.69c0-19.51-11.58-37.11-29.5-44.84c-4.85-2.09-7.98-6.9-7.98-12.24
		l0.03-217.09C225.86,52.92,220.78,47.83,214.53,47.83z M196.89,59.17h0.01H196.89z"/>
	<path class="st0" d="M214.41,346.95c-7.35,0-13.3-5.95-13.3-13.29v-0.01c0-7.35,5.95-13.3,13.3-13.3s13.3,5.95,13.3,13.3
		S221.76,346.95,214.41,346.95z"/>
	<path class="st0" d="M214.41,339.96C214.41,339.96,214.41,339.96,214.41,339.96c-3.48,0-6.3-2.82-6.3-6.3l0.03-137.56
		c0-3.48,2.82-6.3,6.3-6.3c0,0,0,0,0,0c3.48,0,6.3,2.82,6.3,6.3l-0.03,137.56C220.71,337.14,217.89,339.96,214.41,339.96z"/>
	<path class="st0" d="M270.61,223.34h-17c-3.48,0-6.3-2.82-6.3-6.3s2.82-6.3,6.3-6.3h17c3.48,0,6.3,2.82,6.3,6.3
		S274.09,223.34,270.61,223.34z M270.61,188.34h-17c-3.48,0-6.3-2.82-6.3-6.3s2.82-6.3,6.3-6.3h17c3.48,0,6.3,2.82,6.3,6.3
		S274.09,188.34,270.61,188.34z M270.61,153.34h-17c-3.48,0-6.3-2.82-6.3-6.3s2.82-6.3,6.3-6.3h17c3.48,0,6.3,2.82,6.3,6.3
		S274.09,153.34,270.61,153.34z M270.61,118.34h-17c-3.48,0-6.3-2.82-6.3-6.3s2.82-6.3,6.3-6.3h17c3.48,0,6.3,2.82,6.3,6.3
		S274.09,118.34,270.61,118.34z M270.61,83.34h-17c-3.48,0-6.3-2.82-6.3-6.3s2.82-6.3,6.3-6.3h17c3.48,0,6.3,2.82,6.3,6.3
		S274.09,83.34,270.61,83.34z"/>
</g>
</svg>
