<?xml version="1.0" encoding="utf-8"?>
<!-- Generator: Adobe Illustrator 24.1.2, SVG Export Plug-In . SVG Version: 6.00 Build 0)  -->
<svg version="1.1" id="Warstwa_3" xmlns="http://www.w3.org/2000/svg" xmlns:xlink="http://www.w3.org/1999/xlink" x="0px" y="0px"
	 viewBox="0 0 430 430" style="enable-background:new 0 0 430 430;" xml:space="preserve">
<style type="text/css">
	.st0{fill:#000000;}
	.st1{fill:#000000;}
	.st2{fill:#000000;}
	.st3{fill:none;}
	.st4{fill:none;stroke:#000000;stroke-width:12;stroke-linecap:round;stroke-linejoin:round;stroke-miterlimit:10;}
	.st5{fill:none;stroke:#000000;stroke-width:12;stroke-linecap:round;stroke-linejoin:round;stroke-miterlimit:10;}
	.st6{fill:none;stroke:#000000;stroke-width:16;stroke-linecap:round;stroke-linejoin:round;stroke-miterlimit:10;}
</style>
<g>
	<g>
		<path class="st0" d="M317.97,283.67c-1.22,0-2.45-0.37-3.52-1.14l-1.89-1.37c-2.68-1.95-3.28-5.7-1.34-8.38
			c1.94-2.68,5.7-3.28,8.38-1.34l1.89,1.37c2.68,1.95,3.28,5.7,1.34,8.38C321.66,282.81,319.83,283.67,317.97,283.67z"/>
		<path class="st0" d="M361.4,196.86h-16c-0.48-9.84-2.05-19.4-4.6-28.56l15.29-4.97c3.15-1.02,4.88-4.41,3.85-7.56
			c-1.02-3.15-4.41-4.87-7.56-3.85l-15.33,4.98c-3.46-9.09-7.91-17.69-13.22-25.68l13.14-9.55c2.68-1.95,3.27-5.7,1.33-8.38
			c-1.95-2.68-5.7-3.27-8.38-1.33l-13.18,9.57c-6.05-7.51-12.9-14.34-20.44-20.36l9.61-13.22c1.95-2.68,1.35-6.43-1.33-8.38
			c-2.68-1.95-6.43-1.35-8.38,1.33l-9.61,13.23c-8-5.26-16.6-9.67-25.69-13.1l5.05-15.55c1.02-3.15-0.7-6.54-3.85-7.56
			c-3.15-1.02-6.54,0.7-7.56,3.85l-5.05,15.55c-9.14-2.5-18.67-4.04-28.48-4.49V56.47c0-3.31-2.69-6-6-6s-6,2.69-6,6v16.38
			c-9.81,0.45-19.34,1.98-28.48,4.49l-5.05-15.55c-1.02-3.15-4.41-4.87-7.56-3.85c-3.15,1.02-4.88,4.41-3.85,7.56l5.06,15.57
			c-9.08,3.42-17.69,7.82-25.69,13.09L133.8,80.9c-1.95-2.68-5.7-3.28-8.38-1.33c-2.68,1.95-3.27,5.7-1.33,8.38l9.62,13.24
			c-7.54,6.01-14.4,12.84-20.44,20.34l-13.18-9.57c-2.68-1.95-6.43-1.35-8.38,1.33c-1.95,2.68-1.35,6.43,1.33,8.38l13.15,9.55
			c-5.31,7.99-9.76,16.59-13.23,25.68l-15.34-4.98c-3.15-1.02-6.54,0.7-7.56,3.85c-1.02,3.15,0.7,6.54,3.85,7.56l15.29,4.97
			c-2.55,9.16-4.11,18.72-4.58,28.56H68.6c-3.31,0-6,2.69-6,6s2.69,6,6,6h15.98c0.42,9.7,1.93,19.3,4.46,28.62l-15.13,4.92
			c-3.15,1.02-4.88,4.41-3.85,7.56c0.82,2.54,3.18,4.15,5.71,4.15c0.61,0,1.24-0.1,1.86-0.3l15.08-4.9
			c2.51,6.74,5.56,13.29,9.17,19.55l0.22,0.36c0.1,0.17,0.21,0.34,0.3,0.51c0.04,0.08,0.08,0.15,0.13,0.23
			c5.23,8.85,11.49,17.07,18.61,24.43c1.63,1.69,3.36,3.39,5.15,5.04c1.15,1.06,2.61,1.59,4.07,1.59c1.62,0,3.23-0.65,4.41-1.93
			c2.25-2.44,2.09-6.23-0.34-8.48c-1.62-1.49-3.18-3.02-4.66-4.55c-6.45-6.67-12.12-14.1-16.86-22.1c-0.18-0.33-0.37-0.63-0.55-0.94
			l-0.13-0.22c-3.12-5.4-5.78-11.04-7.99-16.84L177,221.91c6.07,12.3,17.93,21.25,32,23.26v51.7c0,3.31,2.69,6,6,6s6-2.69,6-6v-51.7
			c14.07-2.01,25.93-10.95,32-23.25l72.77,23.64c-2.33,6.12-5.18,12.05-8.52,17.73c-0.23,0.4-0.47,0.8-0.71,1.19l-0.32,0.54
			c-0.01,0.02-0.03,0.05-0.04,0.07c-4.49,7.34-9.85,14.27-15.95,20.58c-1.41,1.46-2.71,2.74-3.99,3.93
			c-2.43,2.26-2.56,6.05-0.3,8.48c2.26,2.42,6.05,2.56,8.48,0.3c1.44-1.34,2.89-2.77,4.45-4.38c6.73-6.97,12.66-14.62,17.62-22.76
			c0.03-0.04,0.05-0.08,0.08-0.13l0.27-0.44c0.27-0.45,0.53-0.89,0.79-1.32c3.84-6.53,7.08-13.38,9.71-20.44l15.06,4.89
			c0.62,0.2,1.24,0.3,1.86,0.3c2.53,0,4.88-1.61,5.71-4.15c1.02-3.15-0.7-6.54-3.85-7.56l-15.09-4.9
			c2.52-9.31,4.01-18.92,4.42-28.63h15.98c3.31,0,6-2.69,6-6S364.71,196.86,361.4,196.86z M215,84.7c23.86,0,46.09,7.09,64.71,19.27
			l-44.94,61.86c-5.91-3.13-12.64-4.92-19.78-4.92s-13.87,1.78-19.78,4.92l-44.94-61.85C168.91,91.79,191.14,84.7,215,84.7z
			 M172.66,203.25c0,2.47,0.22,4.89,0.63,7.24l-72.75,23.64c-2.69-10.02-4.08-20.41-4.08-30.89c0-37.21,17.23-70.46,44.13-92.21
			l44.94,61.85C177.6,180.59,172.66,191.35,172.66,203.25z M184.66,203.25c0-7.91,3.04-15.12,8.02-20.52l12.62,17.37l-20.43,6.64
			C184.73,205.59,184.66,204.43,184.66,203.25z M209,233c-8.76-1.76-16.16-7.31-20.42-14.85l20.42-6.64V233z M215,193.04
			l-12.62-17.37c3.85-1.77,8.12-2.76,12.62-2.76s8.78,0.99,12.62,2.76L215,193.04z M221,233v-21.49l20.42,6.63
			C237.15,225.69,229.76,231.23,221,233z M245.14,206.74l-20.43-6.64l12.62-17.37c4.97,5.41,8.02,12.61,8.02,20.52
			C245.34,204.43,245.27,205.59,245.14,206.74z M329.47,234.14l-72.76-23.64c0.41-2.36,0.63-4.77,0.63-7.24
			c0-11.9-4.94-22.66-12.87-30.36l44.94-61.86c26.9,21.75,44.14,55,44.14,92.21C333.55,213.73,332.16,224.12,329.47,234.14z"/>
		<path class="st0" d="M111.53,284.04c-1.86,0-3.69-0.86-4.86-2.48c-1.95-2.68-1.35-6.43,1.34-8.38l2.4-1.74
			c2.68-1.94,6.43-1.35,8.38,1.33c1.95,2.68,1.35,6.43-1.34,8.38l-2.4,1.74C113.98,283.67,112.75,284.04,111.53,284.04z"/>
	</g>
	<path class="st3" d="M50.06,289.83c5.98,4.48,13.39,7.13,21.43,7.13s15.45-2.65,21.43-7.13"/>
	<path class="st3" d="M125.46,289.83h-3.79c2.64,1.98,5.56,3.6,8.69,4.79c3.96,1.51,8.24,2.33,12.73,2.33
		c8.03,0,15.44-2.65,21.41-7.12"/>
	<path class="st3" d="M193.36,289.83c5.96,4.42,13.32,7.03,21.31,7.03c0.11,0,0.22,0,0.33,0c7.86-0.07,15.11-2.67,20.98-7.03"/>
	<path class="st3" d="M304.54,289.83h3.02c-2.23,1.66-4.65,3.06-7.24,4.16c-4.31,1.85-9.07,2.87-14.07,2.87
		c-7.98,0-15.35-2.61-21.3-7.03"/>
	<path class="st3" d="M336.54,289.83c5.95,4.42,13.32,7.03,21.3,7.03c7.98,0,15.35-2.61,21.3-7.03"/>
	<path class="st1" d="M406.23,367.44c-1.24-3.07-4.74-4.55-7.81-3.31c-3.55,1.44-7.31,2.17-11.17,2.17
		c-16.43,0-29.79-13.36-29.79-29.79c0-3.31-2.69-6-6-6s-6,2.69-6,6c0,16.43-13.36,29.79-29.79,29.79s-29.79-13.36-29.79-29.79
		c0-3.31-2.69-6-6-6s-6,2.69-6,6c0,16.43-13.36,29.79-29.79,29.79s-29.79-13.36-29.79-29.79c0-3.31-2.69-6-6-6s-6,2.69-6,6
		c0,16.43-13.36,29.79-29.79,29.79s-29.79-13.36-29.79-29.79c0-3.31-2.69-6-6-6c-1.24,0-2.4,0.38-3.36,1.03
		c-1.6,1.08-2.65,2.9-2.65,4.98c0,12.31-7.4,23.19-18.92,27.74c-0.69,0.28-1.31,0.5-1.92,0.68c-0.05,0.01-0.09,0.03-0.14,0.04
		c-0.22,0.07-0.44,0.13-0.64,0.19c-1.93,0.54-3.91,0.9-5.89,1.05c-0.04,0-0.09,0.01-0.13,0.01c-1.17,0.08-2.43,0.1-3.62,0.04
		c-0.05,0-0.1,0-0.15-0.01c-0.75-0.05-1.41-0.11-2.04-0.18c-0.04,0-0.08-0.01-0.11-0.01c-0.15-0.01-0.3-0.03-0.45-0.06
		c-0.09-0.02-0.18-0.03-0.28-0.04c-0.03,0-0.06-0.01-0.09-0.01c-0.12-0.02-0.23-0.03-0.34-0.05c-0.04-0.01-0.09-0.01-0.13-0.02
		c-0.19-0.03-0.38-0.06-0.57-0.11c-0.03-0.01-0.06-0.01-0.09-0.02c-0.42-0.09-0.85-0.17-1.27-0.28c-0.08-0.02-0.16-0.05-0.25-0.07
		c-0.08-0.02-0.16-0.04-0.24-0.06c-0.33-0.08-0.65-0.17-0.98-0.27c-0.02-0.01-0.04-0.01-0.06-0.02c-0.01,0-0.01,0-0.02,0
		c-0.43-0.13-0.86-0.26-1.28-0.41c-0.03-0.01-0.07-0.02-0.1-0.04c-0.42-0.14-0.84-0.3-1.24-0.47c-11.29-4.57-18.6-15.4-18.61-27.59
		c0-0.01,0-0.02,0-0.04c0-1.45-0.51-2.78-1.37-3.82c-1.1-1.33-2.77-2.18-4.63-2.18c-3.31,0-6,2.69-6,6c0,0.02,0,0.04,0,0.06
		c-0.03,16.4-13.38,29.74-29.79,29.74c-3.31,0-6,2.69-6,6s2.69,6,6,6c15.15,0,28.44-8.1,35.77-20.2
		c4.56,7.57,11.52,13.66,20.14,17.15c0.61,0.25,1.22,0.48,1.84,0.69c0.05,0.02,0.1,0.03,0.15,0.05c0.59,0.21,1.13,0.38,1.64,0.53
		c0.01,0,0.03,0.01,0.04,0.01c0,0,0.01,0,0.01,0c0.02,0.01,0.05,0.01,0.07,0.02c0.63,0.19,1.15,0.34,1.65,0.46
		c0.02,0.01,0.03,0.01,0.05,0.01c0.12,0.03,0.23,0.06,0.32,0.08c0.01,0,0.03,0.01,0.05,0.01c0.03,0.01,0.06,0.01,0.09,0.02
		c0.54,0.13,1.07,0.24,1.54,0.34c0.02,0,0.03,0.01,0.05,0.01c0.02,0,0.03,0.01,0.05,0.01c0.01,0,0.03,0,0.04,0.01
		c0.4,0.09,0.81,0.16,1.14,0.21c0,0,0.01,0,0.01,0c0,0,0.01,0,0.01,0c0.26,0.04,0.52,0.09,0.79,0.12c0.35,0.06,0.72,0.11,1.07,0.14
		c0.01,0,0.02,0,0.03,0c0,0,0,0,0,0c0,0,0.01,0,0.01,0c0.89,0.11,1.8,0.19,2.76,0.24c0,0,0,0,0,0c0,0,0,0,0,0c0.02,0,0.04,0,0.06,0
		c0.08,0,0.16,0.01,0.25,0.01c0.59,0.03,1.22,0.05,1.96,0.05c1.03,0,1.99-0.04,2.93-0.11c0,0,0.01,0,0.01,0c0,0,0.01,0,0.01,0
		c0.01,0,0.02,0,0.04,0c0.14-0.01,0.28-0.02,0.41-0.03c0,0,0.01,0,0.01,0c0,0,0,0,0.01,0c0.01,0,0.03,0,0.04,0
		c2.67-0.22,5.32-0.69,7.9-1.43c0.02,0,0.03-0.01,0.05-0.01c0.01,0,0.02-0.01,0.04-0.01c0.32-0.09,0.63-0.18,0.95-0.28
		c0,0,0,0,0.01,0c0.02-0.01,0.05-0.01,0.07-0.02c0.45-0.13,0.9-0.28,1.35-0.44c0.14-0.05,0.29-0.11,0.43-0.16
		c0.3-0.11,0.6-0.22,0.92-0.34c0.17-0.06,0.33-0.12,0.49-0.18c0.16-0.06,0.3-0.13,0.45-0.21c8.42-3.52,15.22-9.51,19.7-16.96
		c7.33,12.09,20.62,20.19,35.76,20.19c15.16,0,28.47-8.12,35.79-20.24c7.33,12.12,20.63,20.24,35.79,20.24
		c15.16,0,28.47-8.12,35.79-20.24c7.33,12.12,20.63,20.24,35.79,20.24c15.16,0,28.47-8.12,35.79-20.24
		c7.33,12.12,20.63,20.24,35.79,20.24c5.42,0,10.69-1.02,15.68-3.04C405.99,374.01,407.47,370.51,406.23,367.44z"/>
	<g>
		<path class="st1" d="M393.63,255.07c-3.31,0-6,2.69-6,6c0,9.53-4.4,18.25-12.07,23.94c-5.15,3.83-11.28,5.85-17.72,5.85
			s-12.57-2.02-17.73-5.85c-6.42-4.75-10.59-11.7-11.74-19.57c-0.21-1.44-0.32-2.91-0.32-4.37c0-3.31-2.69-6-6-6s-6,2.69-6,6
			c0,1.89-0.18,3.78-0.53,5.64c-0.02,0.08-0.04,0.17-0.05,0.25c-0.55,2.77-1.49,5.43-2.81,7.94c-2.07,3.95-5.06,7.45-8.68,10.13
			c-1.87,1.39-3.89,2.55-6.02,3.46c-3.69,1.58-7.62,2.38-11.7,2.38c-6.44,0-12.57-2.02-17.73-5.85
			c-7.67-5.69-12.06-14.41-12.06-23.94c0-3.31-2.69-6-6-6s-6,2.69-6,6c0,9.53-4.39,18.26-12.06,23.94
			c-5.07,3.77-11.11,5.79-17.4,5.85h-0.33c-6.44,0-12.58-2.02-17.73-5.85c-7.64-5.67-12.03-14.37-12.06-23.85v-0.09
			c0-3.31-2.69-6-6-6s-6,2.69-6,6c0,0,0,0.07,0,0.09c0,9.48-4.36,18.18-11.98,23.87c-5.18,3.88-11.34,5.92-17.81,5.92
			c-3.66,0-7.22-0.65-10.6-1.94c-2.57-0.98-5-2.32-7.24-3.99c-3.48-2.59-6.4-5.98-8.45-9.82c-1.6-2.97-2.67-6.19-3.18-9.58h0
			c-0.01-0.08-0.03-0.16-0.04-0.24c-0.19-1.37-0.29-2.79-0.29-4.22c0-3.31-2.69-6-6-6c0,0,0,0-0.01,0s0,0-0.01,0c-3.31,0-6,2.69-6,6
			c0,1.21-0.07,2.39-0.21,3.53c-0.94,8.05-5.22,15.46-11.75,20.34c-5.18,3.88-11.35,5.93-17.83,5.93c-6.49,0-12.65-2.05-17.84-5.94
			c-7.6-5.68-11.95-14.38-11.95-23.86c0-3.31-2.69-6-6-6s-6,2.69-6,6c0,13.11,6.27,25.63,16.76,33.47
			c7.27,5.45,15.93,8.33,25.03,8.33c9.1,0,17.76-2.88,25.02-8.32c4.36-3.26,8-7.34,10.76-11.93c2.78,4.62,6.49,8.72,10.79,11.92
			c3.12,2.34,6.53,4.22,10.15,5.6c4.74,1.81,9.74,2.72,14.87,2.72c9.09,0,17.74-2.88,25-8.31c4.4-3.29,8.05-7.4,10.81-12.02
			c2.79,4.63,6.46,8.75,10.88,12.03c7.24,5.37,15.85,8.21,24.88,8.21h0.38c8.9-0.08,17.38-2.92,24.5-8.21
			c4.44-3.29,8.12-7.42,10.91-12.07c2.79,4.65,6.47,8.78,10.91,12.07c7.23,5.37,15.84,8.21,24.88,8.21c5.72,0,11.25-1.13,16.41-3.35
			c2.99-1.27,5.84-2.91,8.47-4.86c4.37-3.24,8.1-7.35,10.9-11.98c2.78,4.61,6.47,8.67,10.93,11.98c7.23,5.37,15.84,8.21,24.88,8.21
			s17.64-2.84,24.87-8.21c10.59-7.86,16.92-20.41,16.92-33.58C399.63,257.75,396.95,255.07,393.63,255.07z"/>
	</g>
</g>
</svg>
