<?xml version="1.0" encoding="utf-8"?>
<!-- Generator: Adobe Illustrator 24.1.2, SVG Export Plug-In . SVG Version: 6.00 Build 0)  -->
<svg version="1.1" id="Warstwa_3" xmlns="http://www.w3.org/2000/svg" xmlns:xlink="http://www.w3.org/1999/xlink" x="0px" y="0px"
	 viewBox="0 0 430 430" style="enable-background:new 0 0 430 430;" xml:space="preserve">
<style type="text/css">
	.st0{fill:#000000;}
	.st1{fill:#000000;}
	.st2{fill:#000000;fill-opacity:0;}
	.st3{fill:none;}
</style>
<g>
	<path class="st1" d="M242.22,418.09h-54.53c-1.75,0-3.42-0.73-4.61-2.01s-1.8-3-1.67-4.75l16.35-224.65
		c0.14-1.94,1.17-3.71,2.79-4.79s3.65-1.35,5.49-0.73c5.74,1.92,12.09,1.92,17.82,0c1.85-0.62,3.87-0.35,5.49,0.73
		s2.65,2.84,2.79,4.79l16.35,224.65c0.13,1.75-0.48,3.46-1.67,4.75S243.97,418.09,242.22,418.09z M194.46,405.49h40.98l-15.33-210.6
		c-3.41,0.43-6.91,0.43-10.32,0L194.46,405.49z"/>
	<path class="st0" d="M214.96,181.2c-14.74,0-26.73-11.99-26.73-26.73s11.99-26.73,26.73-26.73s26.73,11.99,26.73,26.73
		S229.7,181.2,214.96,181.2z M214.96,140.34c-7.79,0-14.13,6.34-14.13,14.13s6.34,14.13,14.13,14.13s14.13-6.34,14.13-14.13
		S222.75,140.34,214.96,140.34z"/>
	<path class="st0" d="M329.37,232.15c-1.01,0-2.02-0.17-2.99-0.54l-91.83-34.42c-7.81-2.93-13.71-9.36-16.62-18.12l-0.66-1.98
		c-1.1-3.3,0.68-6.87,3.99-7.97c3.3-1.1,6.87,0.68,7.97,3.99l0.66,1.98c1.71,5.15,4.86,8.71,9.09,10.3l83.08,31.14l-67.95-57.04
		c-4.38-3.67-9.72-3.58-13.44-2.86l-2.13,0.42c-3.41,0.67-6.72-1.56-7.39-4.98s1.56-6.72,4.98-7.39l2.12-0.41
		c9.06-1.77,17.57,0.21,23.95,5.57l75.11,63.05c3.6,3.02,4.2,8.65,1.44,13.39C336.59,229.97,332.95,232.15,329.37,232.15z
		 M100.67,232.1c-3.58,0-7.23-2.17-9.4-5.85c-2.8-4.75-2.19-10.4,1.44-13.43l75.77-63.05c6.42-5.34,14.98-7.32,24.08-5.56l2.16,0.42
		c3.42,0.66,5.65,3.96,4.99,7.38c-0.66,3.42-3.96,5.65-7.38,4.99l-2.17-0.42c-5.41-1.05-10.12-0.05-13.63,2.87l-68.58,57.06
		l83.93-31.18c4.29-1.59,7.46-5.16,9.19-10.31l0.64-1.9c1.11-3.3,4.68-5.07,7.98-3.97c3.3,1.11,5.08,4.68,3.97,7.98l-0.63,1.89
		c-2.94,8.76-8.89,15.19-16.75,18.11l-92.64,34.42C102.69,231.92,101.68,232.1,100.67,232.1z M200.97,143.82
		c-1.75,0-3.49-0.72-4.73-2.14l-1.43-1.63c-6.09-6.93-8.67-15.28-7.27-23.49l16.58-96.66c0.79-4.63,5.35-7.99,10.84-7.99
		c5.49,0,10.04,3.36,10.84,7.99l16.58,96.66c1.41,8.22-1.17,16.56-7.26,23.49l-1.37,1.56c-2.3,2.61-6.28,2.87-8.89,0.58
		s-2.87-6.28-0.58-8.89l1.38-1.57c3.58-4.07,5.07-8.58,4.31-13.04l-15-87.44l-15,87.44c-0.76,4.46,0.73,8.97,4.31,13.04l1.43,1.63
		c2.3,2.61,2.04,6.59-0.57,8.89C203.93,143.3,202.45,143.82,200.97,143.82z"/>
</g>
</svg>
