<svg width="430" height="430" viewBox="0 0 430 430" fill="none" xmlns="http://www.w3.org/2000/svg">
<path d="M416.8 249.5L358 197.1C356.7 195.8 355.2 194.7 353.6 193.8C353.4 193.7 353.1 193.5 352.9 193.4L352.7 193.3C352.6 193.3 352.6 193.2 352.5 193.2C348.4 191.1 343.8 190.4 339.4 191C340.2 188.8 340.7 186.5 340.9 184.2C340.9 183.8 340.9 183.3 340.9 182.9C340.9 181 340.7 179.2 340.2 177.4L324.2 100.3C323.6 97.5 321.2 95.5 318.3 95.5C315.4 95.5 313 97.5 312.4 100.3L296.4 177.4C296 179.2 295.7 181 295.7 182.9C295.7 183.2 295.7 183.5 295.7 183.8V184V184.1C295.8 186.5 296.3 188.8 297.2 191C294.3 190.6 291.4 190.8 288.6 191.6C285.4 192.4 283.5 195.7 284.3 198.9C285.1 202.1 288.4 204 291.6 203.2C292.8 202.9 294.1 202.8 295.4 202.9C295.4 203.4 295.3 204 295.3 204.5C295.3 206 295.4 207.4 295.7 208.8C295.9 210 296.5 211 297.3 211.9C299.6 214.3 303.4 214.3 305.8 212C307.3 210.5 307.9 208.4 307.5 206.5C307.4 205.9 307.3 205.2 307.3 204.5C307.3 203.3 307.5 202.1 307.9 200.9C308.3 199.6 309 198.5 310 197.4C312 195 315 193.7 318.2 193.7C321.3 193.7 324.3 195.1 326.4 197.5C327.3 198.5 328 199.7 328.5 201C328.9 202.1 329.1 203.3 329.1 204.6C329.1 208 327.6 211.1 324.9 213.2C324.5 213.5 324.1 213.8 323.7 214C321.9 215.1 319.8 215.6 317.6 215.4C315.9 215.2 314.1 215.8 312.7 217.1C312.1 217.7 311.6 218.5 311.3 219.3C310.7 218.8 309.9 218.4 309.1 218.2C306.8 217.4 304 218.1 302.4 220.1C301.7 221 300.9 221.7 300 222.3L299.8 222.4C299.6 222.5 299.5 222.6 299.4 222.7C298.6 223.2 297.8 223.5 297 223.7C296.9 223.7 296.8 223.8 296.7 223.8L249.2 239.5L275 216.5C277.5 214.3 277.7 210.5 275.5 208C273.3 205.5 269.5 205.3 267 207.5L226 244C224.1 245.7 223.6 248.2 224.3 250.5C224 251.6 224.1 252.7 224.4 253.8C225.2 256.3 227.6 257.9 230.1 257.9C230.7 257.9 231.4 257.8 232 257.6L300.4 235C300.6 234.9 300.8 234.9 301 234.8L294.2 381.3C294.1 382.9 294.7 384.5 295.9 385.7C297 386.9 298.6 387.6 300.2 387.6H336.1C337.7 387.6 339.3 386.9 340.4 385.7C341.5 384.5 342.1 382.9 342.1 381.3L335.3 234.8C335.5 234.9 335.7 234.9 336 235L410.8 259.7C411.4 259.9 412.1 260 412.7 260C414.8 260 416.8 258.9 417.9 257C419.4 254.5 418.9 251.4 416.8 249.5ZM307.8 184.1C307.8 183.9 307.7 183.6 307.7 183.4V183.1C307.7 183 307.7 182.8 307.7 182.7C307.7 181.8 307.8 180.9 308 180.1C308 180 308 179.9 308.1 179.8L318.3 130.8L328.5 179.8C328.5 179.9 328.5 180 328.6 180.1C328.8 180.9 328.9 181.8 328.9 182.7C328.9 182.9 328.9 183.1 328.9 183.3C328.9 183.5 328.9 183.8 328.8 184C325.6 182.3 322 181.5 318.3 181.5C314.6 181.5 311 182.4 307.8 184.1ZM306.6 375.6L313.5 226.1C314.4 226.7 315.4 227.1 316.5 227.2C317.1 227.2 317.6 227.3 318.2 227.3C319.8 227.3 321.4 227.1 323 226.8L329.9 375.7H306.6V375.6ZM339.7 223.6C339.6 223.6 339.5 223.5 339.4 223.5C338.6 223.3 337.8 222.9 337 222.5L336.7 222.3C336.6 222.2 336.4 222.1 336.3 222.1C335.6 221.6 335 221.1 334.4 220.5C338.6 216.2 341 210.5 341 204.4C341 203.9 341 203.3 340.9 202.8C342.9 202.6 344.9 202.9 346.8 203.8L347 203.9C347.1 204 347.2 204 347.3 204.1C348.1 204.6 348.8 205.1 349.4 205.7C349.5 205.8 349.5 205.8 349.6 205.9L386.9 239.2L339.7 223.6Z" fill="#000000"/>
<path d="M203.7 244L162.5 207.3C160 205.1 156.2 205.3 154 207.8C151.8 210.3 152 214.1 154.5 216.3L180.3 239.3L132.8 223.6C132.7 223.6 132.6 223.5 132.5 223.5C131.7 223.3 130.9 222.9 130.1 222.5C129.9 222.4 129.8 222.3 129.6 222.2L129.5 222.1C128.6 221.5 127.8 220.7 127.1 219.9C125.5 217.8 122.8 217.1 120.4 218C119.6 218.2 118.9 218.6 118.2 219.1C117.9 218.3 117.4 217.6 116.8 216.9C115.5 215.6 113.7 215.1 112 215.2C109.8 215.3 107.7 214.8 105.8 213.8C105.4 213.6 105 213.3 104.6 213C101.9 210.9 100.4 207.8 100.4 204.5C100.4 203.3 100.6 202.1 101 200.9C101.5 199.6 102.1 198.4 103.1 197.4C105.1 195 108.1 193.7 111.3 193.7C114.4 193.7 117.4 195.1 119.5 197.5C120.4 198.5 121.1 199.7 121.5 201C121.9 202.1 122.1 203.3 122.1 204.6C122.1 205.2 122 205.8 121.9 206.4C121.4 208.4 122 210.5 123.6 212.1C126 214.4 129.8 214.4 132.1 212C132.9 211.2 133.5 210.1 133.7 208.9C134 207.5 134.1 206 134.1 204.6C134.1 204.1 134.1 203.5 134 203C135.3 202.9 136.6 202.9 137.8 203.3C141 204.1 144.3 202.2 145.1 199C145.9 195.8 144 192.5 140.8 191.7C138 190.9 135 190.8 132.2 191.1C133 188.9 133.5 186.6 133.7 184.2V184.1V183.9C133.7 183.6 133.7 183.3 133.7 183C133.7 181.1 133.5 179.3 133 177.5L117 100.4C116.4 97.6001 114 95.6001 111.1 95.6001C108.3 95.6001 105.8 97.6001 105.2 100.4L89.1999 177.5C88.7999 179.3 88.4999 181.1 88.4999 183C88.4999 183.4 88.4999 183.7 88.4999 184.1V184.2C88.5999 186.6 89.0999 188.9 89.9999 191.1C85.5999 190.5 80.9999 191.3 76.8999 193.3C76.7999 193.3 76.7999 193.4 76.6999 193.4L76.4999 193.5C76.2999 193.6 75.9999 193.8 75.7999 193.9C74.1999 194.9 72.6999 196 71.3999 197.2L12.9999 249.5C10.8999 251.4 10.3999 254.5 11.7999 257C12.8999 258.9 14.8999 260 16.9999 260C17.5999 260 18.2999 259.9 18.8999 259.7L93.5999 235C93.7999 234.9 93.9999 234.9 94.1999 234.8L87.3999 381.3C87.2999 382.9 87.8999 384.5 89.0999 385.7C90.1999 386.9 91.7999 387.6 93.3999 387.6H129.3C130.9 387.6 132.5 386.9 133.6 385.7C134.7 384.5 135.3 382.9 135.3 381.3L128.5 234.8C128.7 234.9 128.9 234.9 129.1 235L197.5 257.6C198.1 257.8 198.8 257.9 199.4 257.9C201.9 257.9 204.3 256.3 205.1 253.8C205.5 252.7 205.5 251.5 205.2 250.5C206.2 248.2 205.6 245.6 203.7 244ZM101.2 180.1C101.2 180 101.3 179.9 101.3 179.8L111.5 130.9L121.7 179.9C121.7 180 121.7 180.1 121.8 180.2C122 181.1 122.1 181.9 122.1 182.8C122.1 182.9 122.1 183 122.1 183.2V183.5C122.1 183.7 122.1 184 122 184.2C118.8 182.5 115.2 181.7 111.5 181.7C107.8 181.7 104.2 182.6 101 184.2C101 184 100.9 183.8 100.9 183.5C100.9 183.3 100.9 183.1 100.9 182.8C100.9 181.8 101 180.9 101.2 180.1ZM93.2999 222.1C93.1999 222.2 93.0999 222.2 92.8999 222.3L92.6999 222.5C91.8999 223 91.0999 223.3 90.2999 223.5C90.1999 223.5 90.0999 223.6 89.9999 223.6L42.4999 239.3L79.7999 206C79.8999 205.9 79.9999 205.9 79.9999 205.8C80.5999 205.2 81.2999 204.7 82.1999 204.2C82.2999 204.1 82.3999 204.1 82.4999 204L82.7999 203.9C84.6999 203 86.6999 202.6 88.6999 202.9C88.6999 203.4 88.5999 204 88.5999 204.5C88.5999 210.6 90.9999 216.3 95.1999 220.5C94.5999 221 93.9999 221.6 93.2999 222.1ZM99.7999 375.6L106.7 226.7C108.3 227 109.9 227.2 111.5 227.2C112.1 227.2 112.6 227.2 113.2 227.1C114.3 227 115.4 226.6 116.2 226L123.1 375.5H99.7999V375.6Z" fill="#000000"/>
<path d="M331 225.6L261.2 163.4C259.7 162 258 160.7 256.1 159.6C255.7 159.4 255.3 159.2 254.9 158.9C249.6 156.2 243.6 155.5 238 156.7C239.5 153.7 240.3 150.4 240.5 147C240.5 146.5 240.5 146 240.5 145.6C240.5 143.5 240.2 141.3 239.7 139.3L220.7 47.8C220.1 45 217.7 43 214.8 43C212 43 209.5 45 208.9 47.8L189.9 139.3C189.4 141.3 189.1 143.4 189.1 145.6C189.1 146.1 189.1 146.5 189.1 147C189.3 150.4 190.1 153.7 191.6 156.7C185.9 155.5 180 156.2 174.6 158.9C174.2 159.1 173.8 159.3 173.4 159.6C171.5 160.7 169.9 161.9 168.4 163.4L98.6 225.6C96.5 227.5 96 230.6 97.4 233.1C98.5 235 100.5 236.1 102.6 236.1C103.2 236.1 103.9 236 104.5 235.8L193.3 206.5C194.1 206.3 194.8 206 195.6 205.7L187.5 381.3C187.4 382.9 188 384.5 189.2 385.7C190.3 386.9 191.9 387.6 193.5 387.6H236.1C237.7 387.6 239.3 386.9 240.4 385.7C241.5 384.5 242.1 382.9 242.1 381.3L234 205.7C234.8 206 235.5 206.3 236.3 206.5L325.1 235.8C325.7 236 326.4 236.1 327 236.1C329.1 236.1 331.1 235 332.2 233.1C333.6 230.6 333.1 227.5 331 225.6ZM200.9 171.3C200.9 163.6 207.2 157.3 214.9 157.3C222.6 157.3 228.9 163.6 228.9 171.3C228.9 179 222.6 185.3 214.9 185.3C207.2 185.3 200.9 179 200.9 171.3ZM201.6 142.2C201.6 142.1 201.6 142 201.7 141.9L214.9 78.5L228.1 141.9C228.1 142 228.1 142.1 228.2 142.2C228.5 143.3 228.6 144.4 228.6 145.6C228.6 145.9 228.6 146.1 228.6 146.4C228.6 147.3 228.4 148.1 228.2 149C224.3 146.7 219.8 145.4 215 145.4C210.2 145.4 205.6 146.7 201.8 149C201.6 148.2 201.5 147.3 201.4 146.4C201.4 146.2 201.4 145.9 201.4 145.7C201.2 144.4 201.4 143.2 201.6 142.2ZM193.2 193.7C192.2 194.3 191.1 194.7 190 195C189.9 195 189.8 195.1 189.7 195.1L128.2 215.4L176.5 172.3C176.6 172.2 176.6 172.2 176.7 172.1C177.5 171.3 178.4 170.6 179.4 170.1C179.7 170 179.9 169.8 180.1 169.7C182.8 168.3 185.9 167.9 188.9 168.5C188.8 169.4 188.7 170.4 188.7 171.3C188.7 178.8 191.9 185.5 197 190.3C196.1 191.5 195 192.5 193.8 193.3C193.7 193.4 193.5 193.5 193.2 193.7ZM199.9 375.6L208.2 196.4C210.4 197 212.6 197.3 214.9 197.3C217.2 197.3 219.5 197 221.6 196.4L229.9 375.6H199.9ZM240 195.1C239.9 195.1 239.8 195 239.7 195C238.6 194.7 237.6 194.3 236.5 193.6C236.3 193.5 236.1 193.3 235.9 193.2C234.6 192.4 233.5 191.4 232.6 190.2C237.7 185.5 240.9 178.7 240.9 171.2C240.9 170.2 240.8 169.3 240.7 168.4C243.6 167.8 246.7 168.2 249.4 169.6C249.7 169.7 249.9 169.9 250.1 170C251.1 170.6 252.1 171.3 252.8 172.1C252.9 172.2 252.9 172.2 253 172.3L301.3 215.4L240 195.1Z" fill="#000000"/>
<path d="M375 387.6H54.7998C51.4998 387.6 48.7998 384.9 48.7998 381.6C48.7998 378.3 51.4998 375.6 54.7998 375.6H375C378.3 375.6 381 378.3 381 381.6C381 384.9 378.3 387.6 375 387.6Z" fill="#000000"/>
</svg>
