<?xml version="1.0" encoding="utf-8"?>
<!-- Generator: Adobe Illustrator 25.0.1, SVG Export Plug-In . SVG Version: 6.00 Build 0)  -->
<svg version="1.1" id="Layer_1" xmlns="http://www.w3.org/2000/svg" xmlns:xlink="http://www.w3.org/1999/xlink" x="0px" y="0px"
	 viewBox="0 0 430 430" style="enable-background:new 0 0 430 430;" xml:space="preserve">
<style type="text/css">
	.st0{fill:#000000;}
	.st1{fill:#000000;}
</style>
<g>
	<path class="st0" d="M104.4,310.1c-2.1,0-4.2-1.2-5.3-3.2c-1.6-2.9-0.4-6.6,2.5-8.1c20.7-11,33-28.3,33-46.3
		c0-18.9-13.4-36.8-35.8-47.7c-3-1.5-4.2-5-2.8-8c1.5-3,5-4.2,8-2.8c26.6,13,42.6,34.8,42.6,58.5c0,22.5-14.7,43.8-39.4,56.9
		C106.3,309.9,105.4,310.1,104.4,310.1z"/>
	<path class="st1" d="M375.3,337.6c-1,0-2.1-0.3-3-0.8c-6.1-3.6-11.6-6.9-16.5-9.8c-31.8-19.1-43.7-26.3-78.1-22.5
		c-3.3,0.4-6.3-2-6.6-5.3s2-6.3,5.3-6.6c38.5-4.2,53.2,4.7,85.6,24.2c1.5,0.9,3.1,1.8,4.7,2.8c-5.9-22.6-18.3-52.3-26.3-63.8
		c-1.4-2-1.4-4.7,0-6.8c1.3-1.9,3.6-5.3,6.5-9.6c6.8-9.9,17.5-25.5,26.2-38.7c-35,15.5-62.3,25.3-90.2,19.2
		c-3.2-0.7-5.3-3.9-4.6-7.1c0.7-3.2,3.9-5.3,7.1-4.6c28.6,6.3,58.9-7.5,100.9-26.6c2.4-1.1,5.2-0.5,6.9,1.4s2,4.8,0.7,7.1
		c-8.2,13.9-26.4,40.4-37.3,56.2c-1.6,2.4-3.1,4.5-4.3,6.2c10.6,17.5,25.5,55.9,28.8,78.4c0.3,2.3-0.7,4.5-2.6,5.8
		C377.7,337.2,376.5,337.6,375.3,337.6z"/>
	<path class="st1" d="M267.8,205.9c-0.1-1.2-0.1-7.2,5.8-15.9c-27.3-25.4-53.6-39.9-71.1-47.8c-9.1-4.1-19.8-0.6-24.9,7.9
		c-5.2,8.8-8.6,16.9-9.7,23.5c-0.6,3.3-3.7,5.5-6.9,4.9c-3.3-0.6-5.5-3.7-4.9-6.9c1.4-8.2,5.2-17.5,11.2-27.6
		c8.2-13.8,25.5-19.3,40.1-12.7c19.3,8.6,48.5,24.9,78.4,53.7c2.3,2.2,2.5,5.7,0.4,8.2c-6.2,7.5-6.4,12.1-6.4,12.2
		c0-0.2,0-0.3,0-0.3L267.8,205.9z"/>
	<path class="st0" d="M76.7,264.8c-0.1,0-0.2,0-0.3,0c-5.9-0.3-14.4-2.7-25.2-7.2c-3.1-1.3-4.5-4.8-3.2-7.8c1.3-3.1,4.8-4.5,7.8-3.2
		c9.3,3.9,16.8,6.1,21.1,6.3c3.3,0.1,5.9,3,5.7,6.3C82.5,262.3,79.9,264.8,76.7,264.8z"/>
	<path class="st0" d="M100.6,248.6c-5.2,0-9.4-4.2-9.4-9.4s4.2-9.4,9.4-9.4s9.4,4.2,9.4,9.4S105.7,248.6,100.6,248.6z M100.6,236.6
		c-1.4,0-2.6,1.2-2.6,2.6s1.2,2.6,2.6,2.6s2.6-1.2,2.6-2.6S102,236.6,100.6,236.6z"/>
	<path class="st1" d="M246.2,343.6c-31.2,0-68.5-14.8-70-15.5c-3.1-1.2-4.6-4.7-3.3-7.8s4.7-4.6,7.8-3.3
		c0.4,0.1,34.3,13.6,62.6,14.6c5.6-9.3-3.6-18.8-4-19.2c-2.3-2.4-2.3-6.2,0-8.5c2.4-2.3,6.2-2.3,8.5,0c6.6,6.6,15.7,23.1,3,37.6
		C249.6,342.8,248,343.6,246.2,343.6z"/>
	<path class="st1" d="M206,293.2c-9.5,0-21.8-2.4-37.8-9.1c-3.1-1.3-4.5-4.8-3.2-7.8s4.8-4.5,7.9-3.2c30.1,12.6,43,8,48,4.2
		c6.5-5,6-13,5.6-15.3c-0.7-4.9-3-8.3-4.9-9.1c-14.3-5.8-40,2.8-48.7,6.6c-3,1.3-6.6-0.1-7.9-3.1c-1.3-3,0.1-6.6,3.1-7.9
		c1.5-0.6,36.1-15.6,58-6.8c6.3,2.6,11,9.7,12.3,18.6c1.4,10.6-2.4,20.5-10.2,26.5C223.6,290.2,216.6,293.2,206,293.2z"/>
	<path class="st1" d="M54.5,197c-10.7,0-19.4-8.7-19.4-19.4s8.7-19.4,19.4-19.4s19.4,8.7,19.4,19.4S65.2,197,54.5,197z M54.5,170.3
		c-4.1,0-7.4,3.3-7.4,7.4c0,4.1,3.3,7.4,7.4,7.4c4.1,0,7.4-3.3,7.4-7.4C61.9,173.6,58.6,170.3,54.5,170.3z"/>
	<path class="st1" d="M101.5,144.8c-16.1,0-29.2-13.1-29.2-29.2s13.1-29.2,29.2-29.2s29.2,13.1,29.2,29.2S117.6,144.8,101.5,144.8z
		 M101.5,98.4c-9.5,0-17.2,7.7-17.2,17.2c0,9.5,7.7,17.2,17.2,17.2c9.5,0,17.2-7.7,17.2-17.2C118.7,106.1,110.9,98.4,101.5,98.4z"/>
	<path class="st0" d="M185.2,328.6c-33.8,0-64.7-7.7-89.5-22.4c-20.9-12.3-37.5-29.4-49.4-50.7c-1.4-2.5-0.9-5.5,1.2-7.4
		c7.3-6.6,14.6-14.9,22.3-23.8c7.3-8.4,14.8-17.1,23.3-25.2c14.5-14,37.8-32.5,72.1-32.5c39.4,0,84.6,15,118,39.1
		c18.3,13.2,28,29.4,28,46.9c0,24.3-12.1,50-35.1,52c-11.9,1-24.1,5.7-36.9,10.7C222.4,321.8,205,328.6,185.2,328.6z M59.2,253.7
		c10.6,17.5,25,31.7,42.6,42.2c22.9,13.6,51.8,20.7,83.4,20.7c17.5,0,33.8-6.3,49.6-12.5c13.7-5.3,26.6-10.3,40.2-11.5
		c17.6-1.5,24.2-25.4,24.2-40.1c0-13.5-8-26.4-23-37.2c-31.5-22.7-74-36.8-111-36.8c-23.1,0-42.8,9-63.7,29.2
		c-8,7.7-15.4,16.2-22.5,24.5C72.2,239.9,65.8,247.3,59.2,253.7z"/>
</g>
</svg>
