<svg width="430" height="430" viewBox="0 0 430 430" fill="none" xmlns="http://www.w3.org/2000/svg">
<rect width="430" height="430" fill="white"/>
<path d="M240.3 278.4H164.8" stroke="#000000" stroke-width="12" stroke-miterlimit="10" stroke-linecap="round" stroke-linejoin="round"/>
<path d="M232.4 187.5H172.7" stroke="#000000" stroke-width="12" stroke-miterlimit="10" stroke-linecap="round" stroke-linejoin="round"/>
<path d="M202.6 232.5V217.4" stroke="#000000" stroke-width="12" stroke-miterlimit="10" stroke-linecap="round" stroke-linejoin="round"/>
<path d="M236.4 232.9H168.8" stroke="#000000" stroke-width="12" stroke-miterlimit="10" stroke-linecap="round" stroke-linejoin="round"/>
<path d="M160.8 327.8L176.7 142.1H228.4L244.3 327.8" stroke="#000000" stroke-width="12" stroke-miterlimit="10" stroke-linecap="round" stroke-linejoin="round"/>
<path d="M102.5 381.1V380.9L121.7 327.8H160.8H244.3H283.4L301.4 377.6L301.8 378.7" stroke="#000000" stroke-width="12" stroke-miterlimit="10" stroke-linecap="round" stroke-linejoin="round"/>
<path d="M389.4 129.1L225.9 115.7" stroke="#000000" stroke-width="12" stroke-miterlimit="10" stroke-linecap="round" stroke-linejoin="round"/>
<path d="M225.9 75.7001L389.4 62.3" stroke="#000000" stroke-width="12" stroke-miterlimit="10" stroke-linecap="round" stroke-linejoin="round"/>
<path d="M202.6 115.5V100.4" stroke="#000000" stroke-width="12" stroke-miterlimit="10" stroke-linecap="round" stroke-linejoin="round"/>
<path d="M134.4 349.8C134.4 367 120.5 380.9 103.3 380.9C99.2001 380.9 95.2001 380.1 91.6001 378.6" stroke="#000000" stroke-width="12" stroke-miterlimit="10" stroke-linecap="round" stroke-linejoin="round"/>
<path d="M321.3 349.8C321.3 367 335.2 380.9 352.4 380.9C356.5 380.9 360.5 380.1 364.1 378.6" stroke="#000000" stroke-width="12" stroke-miterlimit="10" stroke-linecap="round" stroke-linejoin="round"/>
<path d="M196.7 349.8C196.7 367 182.8 380.9 165.6 380.9C148.4 380.9 134.4 367 134.4 349.8M196.8 349.8C196.8 367 210.7 380.9 227.9 380.9C245.1 380.9 259 367 259 349.8C259 367 273 380.9 290.2 380.9C307.4 380.9 321.3 367 321.3 349.8" stroke="#000000" stroke-width="12" stroke-miterlimit="10" stroke-linecap="round" stroke-linejoin="round"/>
<path d="M72.1001 349.8C72.1001 367 86.0001 380.9 103.2 380.9C107.3 380.9 111.3 380.1 114.9 378.6" stroke="#000000" stroke-width="12" stroke-miterlimit="10" stroke-linecap="round" stroke-linejoin="round"/>
<path d="M72.1 349.8C72.1 367 58.2 380.9 41 380.9" stroke="#000000" stroke-width="12" stroke-miterlimit="10" stroke-linecap="round" stroke-linejoin="round"/>
<path d="M241 142.1H164.1L158.2 115.5H246.9L241 142.1Z" stroke="#000000" stroke-width="12" stroke-miterlimit="10" stroke-linecap="round" stroke-linejoin="round"/>
<path d="M225.9 115.5H179.2V79.7001C179.2 77.4001 180.7 75.3001 182.9 74.7001L202.5 68.8L222.1 74.7001C224.3 75.4001 225.8 77.4001 225.8 79.7001V115.5H225.9Z" stroke="#000000" stroke-width="12" stroke-miterlimit="10" stroke-linecap="round" stroke-linejoin="round"/>
<path d="M202.6 49V68.8" stroke="#000000" stroke-width="12" stroke-miterlimit="10" stroke-linecap="round" stroke-linejoin="round"/>
</svg>
