<?xml version="1.0" encoding="utf-8"?>
<!-- Generator: Adobe Illustrator 24.1.2, SVG Export Plug-In . SVG Version: 6.00 Build 0)  -->
<svg version="1.1" id="Warstwa_3" xmlns="http://www.w3.org/2000/svg" xmlns:xlink="http://www.w3.org/1999/xlink" x="0px" y="0px"
	 viewBox="0 0 430 430" style="enable-background:new 0 0 430 430;" xml:space="preserve">
<style type="text/css">
	.st0{fill:#08A385;}
	.st1{fill:#000000;}
	.st2{fill:none;stroke:#08A385;stroke-width:12;stroke-linecap:round;stroke-linejoin:round;stroke-miterlimit:10;}
	.st3{fill:none;stroke:#000000;stroke-width:12;stroke-linecap:round;stroke-linejoin:round;stroke-miterlimit:10;}
</style>
<g>
	<path class="st1" d="M140.68,303.19c-0.74,0-1.49-0.14-2.21-0.43c-3.08-1.22-4.58-4.71-3.36-7.79c1.55-3.9,3.5-8.41,5.76-13.63
		c13.18-30.47,35-80.94,30.81-133.64c-20.54-5.34-38.23-14.33-51.36-26.12c-14.86-13.35-22.71-29.28-22.71-46.06
		c0-7.82,1.74-15.54,5.17-22.93c0.92-1.99,2.85-3.31,5.03-3.46c2.19-0.14,4.28,0.9,5.46,2.74c8.39,13.05,30.23,13.82,60.46,14.88
		l3.2,0.11c14.54,0.53,27.98,7.42,36.88,18.92l1.2,1.54l1.2-1.55c8.9-11.5,22.34-18.39,36.87-18.92l3.2-0.11
		c30.23-1.06,52.07-1.82,60.46-14.88c1.18-1.84,3.28-2.89,5.46-2.74c2.18,0.15,4.11,1.48,5.03,3.46c3.43,7.39,5.17,15.11,5.17,22.93
		c0,16.78-7.85,32.71-22.71,46.06c-13.13,11.79-30.81,20.78-51.36,26.12c-4.39,55.58,20.49,113.26,32.6,141.34
		c0.91,2.11,1.75,4.05,2.49,5.8c1.29,3.05-0.13,6.57-3.18,7.87c-3.05,1.3-6.57-0.13-7.87-3.18c-0.74-1.73-1.56-3.65-2.46-5.73
		c-12.82-29.72-39.5-91.55-33.13-151.53c0.27-2.54,2.12-4.64,4.61-5.21c41.27-9.55,69-34.28,69-61.52c0-3.01-0.33-6.01-1-8.97
		c-13.31,10.45-34.82,11.21-62.69,12.18l-3.19,0.11c-10.96,0.4-21.1,5.6-27.82,14.28l-5.94,7.66c-1.14,1.47-2.89,2.32-4.74,2.32
		s-3.6-0.86-4.74-2.32l-5.94-7.66c-6.72-8.68-16.86-13.88-27.83-14.28l-3.19-0.11c-27.87-0.98-49.38-1.73-62.69-12.18
		c-0.67,2.96-1,5.96-1,8.97c0,27.25,27.73,51.97,69,61.52c2.49,0.58,4.34,2.67,4.61,5.21c6.07,57.33-17.35,111.48-31.34,143.84
		c-2.22,5.13-4.14,9.57-5.62,13.3C145.33,301.76,143.07,303.19,140.68,303.19z"/>
	<path class="st0" d="M406.23,368.79c-1.24-3.07-4.74-4.55-7.81-3.31c-3.55,1.44-7.31,2.17-11.18,2.17
		c-16.43,0-29.79-13.36-29.79-29.79c0-3.31-2.69-6-6-6s-6,2.69-6,6c0,16.43-13.36,29.79-29.79,29.79s-29.79-13.36-29.79-29.79
		c0-3.31-2.69-6-6-6s-6,2.69-6,6c0,16.43-13.36,29.79-29.79,29.79c-16.43,0-29.79-13.36-29.79-29.79c0-3.31-2.69-6-6-6s-6,2.69-6,6
		c0,16.43-13.36,29.79-29.79,29.79s-29.79-13.36-29.79-29.79c0-3.31-2.69-6-6-6s-6,2.69-6,6c0,16.43-13.36,29.79-29.79,29.79
		c-0.94,0-1.87-0.04-2.8-0.13c-0.03,0-0.06,0-0.09-0.01c-0.31-0.03-0.62-0.07-0.93-0.11c-0.19-0.02-0.38-0.04-0.57-0.07
		c-0.22-0.03-0.43-0.07-0.65-0.11c-0.28-0.05-0.56-0.09-0.84-0.15c-0.15-0.03-0.3-0.07-0.45-0.1c-0.34-0.07-0.68-0.15-1.01-0.23
		c-0.1-0.03-0.2-0.06-0.3-0.08c-0.38-0.1-0.76-0.21-1.13-0.32c-0.06-0.02-0.13-0.04-0.19-0.06c-0.41-0.13-0.82-0.27-1.22-0.41
		c-0.03-0.01-0.06-0.02-0.08-0.03c-11.37-4.2-19.5-15.15-19.5-27.96c0-3.31-2.69-6-6-6s-6,2.69-6,6c0,16.43-13.36,29.79-29.79,29.79
		c-3.31,0-6,2.69-6,6s2.69,6,6,6c15.16,0,28.47-8.12,35.79-20.24c4.6,7.6,11.55,13.63,19.83,17.07c0.09,0.04,0.18,0.09,0.27,0.13
		c0.35,0.14,0.71,0.27,1.07,0.4c0.13,0.05,0.26,0.1,0.39,0.15c0.48,0.17,0.96,0.33,1.45,0.49c0.17,0.06,0.35,0.11,0.52,0.17
		c0.45,0.14,0.91,0.27,1.37,0.39c0.21,0.06,0.42,0.12,0.63,0.17c0.42,0.11,0.85,0.2,1.27,0.29c0.25,0.06,0.5,0.11,0.76,0.17
		c0.38,0.07,0.75,0.14,1.13,0.2c0.31,0.05,0.62,0.11,0.93,0.16c0.3,0.04,0.6,0.08,0.9,0.11c0.4,0.05,0.79,0.1,1.19,0.14
		c0.15,0.01,0.3,0.02,0.45,0.03c1.2,0.1,2.41,0.17,3.64,0.17c5.42,0,10.69-1.02,15.68-3.04c0.15-0.06,0.3-0.13,0.44-0.21
		c8.21-3.45,15.09-9.45,19.66-17c7.33,12.12,20.63,20.24,35.79,20.24c15.16,0,28.47-8.12,35.79-20.24
		c7.32,12.12,20.63,20.24,35.79,20.24c15.16,0,28.47-8.12,35.79-20.24c7.33,12.12,20.63,20.24,35.79,20.24
		c15.16,0,28.47-8.12,35.79-20.24c7.32,12.12,20.63,20.24,35.79,20.24c5.42,0,10.69-1.02,15.68-3.04
		C405.99,375.36,407.47,371.86,406.23,368.79z"/>
	<g>
		<path class="st0" d="M393.96,255.42c-3.31,0-6,2.69-6,6c0,16.43-13.36,29.79-29.79,29.79c-16.43,0-29.79-13.36-29.79-29.79
			c0-3.31-2.69-6-6-6s-6,2.69-6,6c0,16.43-13.36,29.79-29.79,29.79s-29.79-13.36-29.79-29.79c0-3.31-2.69-6-6-6s-6,2.69-6,6
			c0,16.43-13.36,29.79-29.79,29.79c-16.43,0-29.79-13.36-29.79-29.79c0-3.31-2.69-6-6-6s-6,2.69-6,6c0,0.02,0,0.04,0,0.06
			c0,0.01,0,0.02,0,0.03c0,16.43-13.36,29.79-29.79,29.79s-29.79-13.36-29.79-29.79c0-3.31-2.69-6-6-6c-1.24,0-2.4,0.38-3.36,1.03
			c-1.6,1.08-2.66,2.91-2.66,4.98c0,16.43-13.36,29.79-29.79,29.79c-16.43,0-29.79-13.36-29.79-29.79c0-3.31-2.69-6-6-6s-6,2.69-6,6
			c0,23.04,18.75,41.79,41.79,41.79c15.17,0,28.48-8.13,35.8-20.25c7.32,12.12,20.63,20.25,35.8,20.25
			c15.18,0,28.5-8.14,35.82-20.28c7.33,12.1,20.62,20.2,35.77,20.2c15.16,0,28.47-8.12,35.79-20.24
			c7.33,12.12,20.63,20.24,35.79,20.24c15.16,0,28.47-8.12,35.79-20.24c7.32,12.12,20.63,20.24,35.79,20.24
			c23.04,0,41.79-18.75,41.79-41.79C399.96,258.1,397.28,255.42,393.96,255.42z"/>
	</g>
</g>
</svg>
