<?xml version="1.0" encoding="utf-8"?>
<!-- Generator: Adobe Illustrator 24.1.2, SVG Export Plug-In . SVG Version: 6.00 Build 0)  -->
<svg version="1.1" id="Warstwa_3" xmlns="http://www.w3.org/2000/svg" xmlns:xlink="http://www.w3.org/1999/xlink" x="0px" y="0px"
	 viewBox="0 0 430 430" style="enable-background:new 0 0 430 430;" xml:space="preserve">
<style type="text/css">
	.st0{fill:#000000;}
	.st1{fill:#000000;}
	.st2{fill:#000000;}
	.st3{fill:none;}
</style>
<g>
	<path class="st0" d="M241.14,196.44c-3.31,0-6-2.69-6-6V93.09c0-3.31,2.69-6,6-6s6,2.69,6,6v97.35
		C247.14,193.75,244.45,196.44,241.14,196.44z"/>
	<path class="st0" d="M301.96,185.07c-3.31,0-6-2.69-6-6v-74.61c0-3.31,2.69-6,6-6s6,2.69,6,6v74.61
		C307.96,182.38,305.27,185.07,301.96,185.07z"/>
	<path class="st1" d="M323.73,102.42l-142.31-26.6c-0.03-0.01-0.06-0.01-0.09-0.01c-0.15-0.03-0.31-0.05-0.46-0.06
		c-0.06-0.01-0.11-0.01-0.17-0.01c-0.16-0.01-0.33-0.01-0.5-0.01c-0.05,0-0.09,0-0.14,0c-0.17,0.01-0.34,0.02-0.52,0.05
		c-0.04,0.01-0.08,0.01-0.12,0.01c-0.17,0.03-0.34,0.06-0.51,0.1c-0.04,0.01-0.08,0.02-0.12,0.03c-0.01,0-0.02,0-0.03,0.01
		l-55.1,14.79V54.73c0-3.31-2.69-6-6-6H72.22c-3.31,0-6,2.69-6,6v320.54c0,3.31,2.69,6,6,6h45.43c3.31,0,6-2.69,6-6V192.82
		l55.1,14.79c0.12,0.03,0.23,0.05,0.35,0.07c0.09,0.02,0.18,0.04,0.28,0.05c0.31,0.05,0.62,0.08,0.93,0.08
		c0.36,0,0.71-0.04,1.05-0.1c0.02,0,0.03,0,0.05,0l142.31-26.6c29.53-5.52,40.05-23.94,40.05-39.35S353.26,107.94,323.73,102.42z
		 M111.66,369.27H78.22V180.62l33.43,8.97V369.27z M111.66,177.17l-33.43-8.97v-52.87l33.43-8.97V177.17z M111.66,93.93l-33.43,8.97
		V60.73h33.43V93.93z M123.66,103.14l50.66-13.59v46.22h-50.66V103.14z M123.66,147.76h50.66v46.22l-50.66-13.59V147.76z
		 M321.52,169.31l-135.21,25.27V88.94l135.21,25.27c18.94,3.54,30.25,13.84,30.25,27.55S340.47,165.78,321.52,169.31z"/>
	<path class="st0" d="M323.54,356.11c-10.51,0-20.45-4.03-27.99-11.34c-2.38-2.31-2.44-6.1-0.13-8.48c2.31-2.38,6.1-2.44,8.48-0.13
		c5.29,5.13,12.27,7.95,19.64,7.95c15.57,0,28.24-12.67,28.24-28.24s-12.67-28.24-28.24-28.24l-151.12,0c-3.31,0-6-2.69-6-6
		s2.69-6,6-6l151.12,0c22.19,0,40.24,18.05,40.24,40.24S345.72,356.11,323.54,356.11z"/>
	<path class="st0" d="M301.32,248.73h-32.73c-3.31,0-6-2.69-6-6s2.69-6,6-6h32.73c3.31,0,6,2.69,6,6S304.63,248.73,301.32,248.73z"
		/>
	<path class="st0" d="M260.69,328.87h-78.21c-3.31,0-6-2.69-6-6s2.69-6,6-6h78.21c3.31,0,6,2.69,6,6S264,328.87,260.69,328.87z"/>
</g>
</svg>
