<?xml version="1.0" encoding="utf-8"?>
<!-- Generator: Adobe Illustrator 24.1.2, SVG Export Plug-In . SVG Version: 6.00 Build 0)  -->
<svg version="1.1" id="Warstwa_3" xmlns="http://www.w3.org/2000/svg" xmlns:xlink="http://www.w3.org/1999/xlink" x="0px" y="0px"
	 viewBox="0 0 430 430" style="enable-background:new 0 0 430 430;" xml:space="preserve">
<style type="text/css">
	.st0{fill:#000000;}
	.st1{fill:#000000;}
	.st2{fill:none;stroke:#000000;stroke-width:12;stroke-linecap:round;stroke-linejoin:round;stroke-miterlimit:10;}
	.st3{fill:none;stroke:#000000;stroke-width:12;stroke-linecap:round;stroke-linejoin:round;stroke-miterlimit:10;}
	.st4{fill:#000000;}
	.st5{fill:#FFFFFF;stroke:#000000;stroke-width:12;stroke-linecap:round;stroke-linejoin:round;stroke-miterlimit:10;}
</style>
<g>
	<path class="st1" d="M279.34,121.4c0-0.07-0.01-0.14-0.01-0.21c-0.02-0.25-0.05-0.51-0.09-0.75c0,0,0-0.01,0-0.01
		c-0.05-0.25-0.12-0.5-0.21-0.75c-0.02-0.06-0.04-0.12-0.07-0.18c-0.09-0.23-0.18-0.46-0.3-0.68c-0.01-0.01-0.01-0.02-0.02-0.03
		c-0.12-0.23-0.26-0.45-0.42-0.66c-0.04-0.05-0.07-0.1-0.11-0.15c-0.16-0.21-0.33-0.42-0.52-0.61l-66.72-66.72
		c-0.19-0.19-0.39-0.36-0.6-0.52c-0.05-0.04-0.11-0.08-0.16-0.12c-0.21-0.15-0.43-0.29-0.65-0.41c-0.02-0.01-0.04-0.02-0.05-0.03
		c-0.21-0.11-0.43-0.21-0.66-0.29c-0.06-0.02-0.13-0.05-0.19-0.07c-0.24-0.08-0.49-0.15-0.74-0.2c-0.01,0-0.02,0-0.02,0
		c-0.24-0.05-0.49-0.08-0.74-0.09c-0.07,0-0.14-0.01-0.21-0.01c-0.07,0-0.13-0.01-0.2-0.01H46.52c-3.31,0-6,2.69-6,6v320.24
		c0,3.31,2.69,6,6,6h226.84c3.31,0,6-2.69,6-6V121.6C279.35,121.53,279.35,121.46,279.34,121.4z M258.87,115.6h-46.23V69.37
		L258.87,115.6z M52.52,369.12V60.88h148.12v60.72c0,3.31,2.69,6,6,6h60.72v241.52H52.52z"/>
	<g>
		<path class="st1" d="M234.97,164.67H84.91c-3.31,0-6-2.69-6-6s2.69-6,6-6h150.06c3.31,0,6,2.69,6,6S238.28,164.67,234.97,164.67z"
			/>
		<path class="st1" d="M234.97,205.08H84.91c-3.31,0-6-2.69-6-6s2.69-6,6-6h150.06c3.31,0,6,2.69,6,6S238.28,205.08,234.97,205.08z"
			/>
		<path class="st1" d="M162.12,245.5H84.91c-3.31,0-6-2.69-6-6s2.69-6,6-6h77.22c3.31,0,6,2.69,6,6S165.44,245.5,162.12,245.5z"/>
		<path class="st1" d="M234.97,245.5h-40.98c-3.31,0-6-2.69-6-6s2.69-6,6-6h40.98c3.31,0,6,2.69,6,6S238.28,245.5,234.97,245.5z"/>
	</g>
	<path class="st0" d="M133.87,360.27c-2.57,0-5.19-0.79-7.57-2.36c-5.07-3.35-8.14-9.48-7.64-15.26c0.78-8.97,7.4-15.29,13.08-19.8
		c2.21-1.75,4.44-3.33,6.68-4.81c0.02-2.08,0-4.16-0.06-6.24c-4.91,0.82-10.04,0.11-14.54-2.05c-2.52,2.02-5.76,3.26-9.37,3.46
		c-6.33,0.36-11.94-2.56-14.63-7.64c-1.55-2.93-0.44-6.56,2.49-8.11s6.56-0.44,8.11,2.49c0.52,0.98,2.1,1.35,3.34,1.28
		c1.24-0.07,2.76-0.62,3.17-1.66c0.71-1.83,2.28-3.19,4.18-3.65c1.9-0.46,3.92,0.04,5.38,1.34c3.74,3.31,9.95,3.78,14.14,1.07
		c1.77-1.15,4.02-1.27,5.91-0.34c1.89,0.93,3.16,2.79,3.33,4.9c0.21,2.53,0.35,5.06,0.44,7.6c3.52-2.31,6.84-4.73,9.87-7.67
		c2.3-2.24,4.35-4.45,6.14-6.62c-0.39-1.75-0.56-3.53-0.47-5.27c0.34-7.25,3.79-15.39,9.21-21.78c1.37-1.61,3.48-2.38,5.56-2.03
		c2.08,0.35,3.83,1.76,4.6,3.73c3.62,9.23,0.06,18.92-5.27,27.04c1.19,1.75,2.77,3.2,4.43,3.88c7.24,2.95,32.67,3.34,42.65-0.16
		c3.13-1.1,6.55,0.55,7.65,3.68c1.1,3.13-0.55,6.55-3.68,7.65c-12.04,4.22-40.72,4.2-51.15-0.05c-2.81-1.14-5.38-3.01-7.52-5.33
		c-1.31,1.42-2.59,2.72-3.78,3.88c-5.51,5.35-11.57,9.12-17.44,12.76c-0.3,0.19-0.6,0.37-0.89,0.55c-0.31,6.48-1,12.94-2.06,19.34
		c-0.55,3.34-1.85,11.16-8.5,14.73C137.86,359.79,135.88,360.27,133.87,360.27z M137.5,333.65c-3.3,2.81-6.54,6.29-6.87,10.04
		c-0.12,1.4,0.9,3.28,2.29,4.2c0.08,0.05,0.78,0.51,1.09,0.35c0.66-0.35,1.6-1.7,2.33-6.11C136.8,339.31,137.19,336.49,137.5,333.65
		z"/>
	<g>
		<path class="st4" d="M355.98,122.74h-38.55c-3.31,0-6-2.69-6-6s2.69-6,6-6h38.55c3.31,0,6,2.69,6,6S359.29,122.74,355.98,122.74z"
			/>
		<path class="st1" d="M361.85,321.75c0.03-0.15,0.05-0.29,0.07-0.44c0.02-0.18,0.04-0.36,0.05-0.54c0-0.09,0.01-0.17,0.01-0.26
			v-0.07c0-0.02,0-0.05,0-0.07V116.74c0-3.31-2.69-6-6-6c-3.31,0-6,2.69-6,6v197.77h-26.55V116.74c0-3.31-2.69-6-6-6
			c-3.31,0-6,2.69-6,6v203.62c0,0.03,0,0.06,0,0.09v0.06c0,0.07,0.01,0.15,0.01,0.22c0.01,0.21,0.03,0.43,0.06,0.64
			c0.02,0.13,0.03,0.26,0.06,0.38c0.02,0.09,0.05,0.18,0.07,0.28c0.03,0.13,0.07,0.25,0.11,0.37c0.01,0.04,0.02,0.08,0.03,0.11
			l19.28,54.61c0.85,2.4,3.11,4,5.66,4s4.81-1.6,5.66-4l19.28-54.61c0.01-0.04,0.02-0.07,0.03-0.11c0.04-0.13,0.08-0.26,0.11-0.39
			C361.8,321.92,361.83,321.84,361.85,321.75z M336.7,357.1l-10.8-30.58h21.59L336.7,357.1z"/>
		<path class="st4" d="M365.62,110.74h-3.64v-9.9c0-13.94-11.34-25.27-25.27-25.27c-13.94,0-25.28,11.34-25.28,25.27v15.9
			c0,3.31,2.69,6,6,6h48.19c6.54,0,11.86,5.32,11.86,11.86v65.78c0,3.31,2.69,6,6,6s6-2.69,6-6V134.6
			C389.48,121.44,378.78,110.74,365.62,110.74z M336.7,87.57c7.32,0,13.27,5.96,13.27,13.27v9.9h-26.55v-9.9
			C323.43,93.52,329.38,87.57,336.7,87.57z"/>
	</g>
</g>
</svg>
