<?xml version="1.0" encoding="utf-8"?>
<!-- Generator: Adobe Illustrator 24.1.2, SVG Export Plug-In . SVG Version: 6.00 Build 0)  -->
<svg version="1.1" id="Warstwa_1" xmlns="http://www.w3.org/2000/svg" xmlns:xlink="http://www.w3.org/1999/xlink" x="0px" y="0px"
	 viewBox="0 0 430 430" style="enable-background:new 0 0 430 430;" xml:space="preserve">
<style type="text/css">
	.st0{fill:#000000;}
	.st1{fill:#000000;}
	.st2{fill-opacity:0;}
	.st3{fill:none;}
</style>
<g>
	<path class="st1" d="M298.36,327.32H160.88c-3.58,0-6.48-2.9-6.48-6.48s2.9-6.48,6.48-6.48h137.49c3.58,0,6.48,2.9,6.48,6.48
		S301.94,327.32,298.36,327.32z"/>
	<path class="st1" d="M298.36,275.52H160.88c-3.58,0-6.48-2.9-6.48-6.48s2.9-6.48,6.48-6.48h137.49c3.58,0,6.48,2.9,6.48,6.48
		S301.94,275.52,298.36,275.52z"/>
	<path class="st1" d="M298.36,223.72H160.88c-3.58,0-6.48-2.9-6.48-6.48s2.9-6.48,6.48-6.48h137.49c3.58,0,6.48,2.9,6.48,6.48
		S301.94,223.72,298.36,223.72z"/>
	<path class="st1" d="M298.36,171.92H160.88c-3.58,0-6.48-2.9-6.48-6.48s2.9-6.48,6.48-6.48h137.49c3.58,0,6.48,2.9,6.48,6.48
		S301.94,171.92,298.36,171.92z"/>
	<path class="st0" d="M338.82,400.77H124.47c-3.58,0-6.48-2.9-6.48-6.48V72.53c0-3.58,2.9-6.48,6.48-6.48h155
		c1.72,0,3.36,0.68,4.58,1.9l59.34,59.34c1.21,1.21,1.9,2.86,1.9,4.58V394.3C345.3,397.87,342.4,400.77,338.82,400.77z
		 M130.95,387.82h201.4V134.56L276.8,79.01H130.95V387.82z"/>
	<path class="st0" d="M328.23,136.22h-48.35c-3.58,0-6.48-2.9-6.48-6.48V74.36c0-3.58,2.9-6.48,6.48-6.48s6.48,2.9,6.48,6.48v48.91
		h41.88c3.58,0,6.48,2.9,6.48,6.48S331.8,136.22,328.23,136.22z"/>
	<path class="st0" d="M122.04,375.49c-0.04,0-0.09,0-0.13,0l-23.13-0.46c-3.52-0.07-6.35-2.95-6.35-6.47V50.35
		c0-3.58,2.9-6.48,6.48-6.48h210.44c3.58,0,6.48,2.9,6.48,6.48v49.95c0,3.58-2.9,6.48-6.48,6.48s-6.48-2.9-6.48-6.48V56.83H105.39
		V362.2l16.78,0.34c3.58,0.07,6.42,3.03,6.34,6.6C128.44,372.67,125.55,375.49,122.04,375.49z"/>
</g>
</svg>
