<?xml version="1.0" encoding="utf-8"?>
<!-- Generator: Adobe Illustrator 24.1.2, SVG Export Plug-In . SVG Version: 6.00 Build 0)  -->
<svg version="1.1" id="Warstwa_1" xmlns="http://www.w3.org/2000/svg" xmlns:xlink="http://www.w3.org/1999/xlink" x="0px" y="0px"
	 viewBox="0 0 430 430" style="enable-background:new 0 0 430 430;" xml:space="preserve">
<style type="text/css">
	.st0{fill:#000000;}
	.st1{fill:#000000;}
	.st2{fill:none;stroke:#000000;stroke-width:12;stroke-linecap:round;stroke-linejoin:round;stroke-miterlimit:10;}
	.st3{fill:#00A689;}
</style>
<g>
	<g>
		<path class="st0" d="M180.15,276.33c-2.68-1.95-6.43-1.35-8.38,1.33l-25.97,35.74c-4.02-1.61-8.41-2.51-13-2.51
			c-19.36,0-35.11,15.75-35.11,35.11c0,19.36,15.75,35.11,35.11,35.11s35.11-15.75,35.11-35.11c0-10.45-4.6-19.85-11.87-26.29
			l25.43-35.01C183.43,282.03,182.83,278.28,180.15,276.33z M132.81,369.12c-12.75,0-23.11-10.37-23.11-23.11
			c0-12.74,10.37-23.11,23.11-23.11c12.74,0,23.11,10.37,23.11,23.11C155.92,358.75,145.55,369.12,132.81,369.12z"/>
		<path class="st0" d="M250.37,83.99c0-19.36-15.75-35.11-35.11-35.11s-35.11,15.75-35.11,35.11c0,17.32,12.6,31.73,29.11,34.59
			v43.72c0,3.31,2.69,6,6,6s6-2.69,6-6v-43.72C237.77,115.73,250.37,101.31,250.37,83.99z M215.25,107.11
			c-12.74,0-23.11-10.37-23.11-23.11c0-12.74,10.37-23.11,23.11-23.11s23.11,10.37,23.11,23.11
			C238.37,96.74,228,107.11,215.25,107.11z"/>
		<path class="st0" d="M297.55,310.89c-4.55,0-8.89,0.88-12.88,2.46l-25.93-35.69c-1.95-2.68-5.7-3.27-8.38-1.33
			c-2.68,1.95-3.28,5.7-1.33,8.38l25.38,34.93c-7.33,6.44-11.96,15.87-11.96,26.37c0,19.36,15.75,35.11,35.11,35.11
			s35.11-15.75,35.11-35.11C332.67,326.65,316.92,310.89,297.55,310.89z M297.55,369.12c-12.75,0-23.11-10.37-23.11-23.11
			c0-8.24,4.33-15.48,10.84-19.57c0.36-0.16,0.71-0.35,1.05-0.6c0.04-0.03,0.08-0.06,0.12-0.09c3.3-1.82,7.09-2.85,11.11-2.85
			c12.74,0,23.11,10.37,23.11,23.11C320.67,358.75,310.3,369.12,297.55,369.12z"/>
		<path class="st0" d="M353.55,151.87c-19.36,0-35.11,15.75-35.11,35.11c0,0.4,0.02,0.8,0.03,1.2L275.9,202
			c-3.15,1.02-4.88,4.41-3.85,7.56c0.82,2.54,3.18,4.15,5.71,4.15c0.61,0,1.24-0.1,1.86-0.29l41.33-13.43
			c5.18,12.94,17.84,22.1,32.6,22.1c19.36,0,35.11-15.75,35.11-35.11C388.66,167.62,372.91,151.87,353.55,151.87z M353.55,210.09
			c-12.75,0-23.11-10.37-23.11-23.11c0-12.74,10.37-23.11,23.11-23.11c12.74,0,23.11,10.37,23.11,23.11
			C376.66,199.72,366.29,210.09,353.55,210.09z"/>
		<path class="st0" d="M109.12,199.84l41.78,13.58c0.62,0.2,1.24,0.29,1.86,0.29c2.53,0,4.88-1.61,5.71-4.15
			c1.02-3.15-0.7-6.54-3.85-7.56l-43.07-13.99c0.01-0.34,0.03-0.69,0.03-1.03c0-19.36-15.75-35.11-35.11-35.11
			s-35.11,15.75-35.11,35.11c0,19.36,15.75,35.11,35.11,35.11C91.28,222.09,103.97,212.86,109.12,199.84z M76.45,210.09
			c-12.74,0-23.11-10.37-23.11-23.11c0-12.74,10.37-23.11,23.11-23.11c12.75,0,23.11,10.37,23.11,23.11
			C99.57,199.72,89.2,210.09,76.45,210.09z"/>
	</g>
	<path class="st1" d="M215.25,299.74c-39.55,0-71.72-32.17-71.72-71.72s32.17-71.72,71.72-71.72s71.72,32.17,71.72,71.72
		S254.8,299.74,215.25,299.74z M215.25,168.3c-32.93,0-59.72,26.79-59.72,59.72s26.79,59.72,59.72,59.72s59.72-26.79,59.72-59.72
		S248.18,168.3,215.25,168.3z"/>
</g>
</svg>
