<?xml version="1.0" encoding="utf-8"?>
<!-- Generator: Adobe Illustrator 24.1.2, SVG Export Plug-In . SVG Version: 6.00 Build 0)  -->
<svg version="1.1" id="Warstwa_3" xmlns="http://www.w3.org/2000/svg" xmlns:xlink="http://www.w3.org/1999/xlink" x="0px" y="0px"
	 viewBox="0 0 430 430" style="enable-background:new 0 0 430 430;" xml:space="preserve">
<style type="text/css">
	.st0{fill:#000000;}
	.st1{fill:#000000;}
	.st2{fill:none;stroke:#000000;stroke-width:12;stroke-linecap:round;stroke-linejoin:round;stroke-miterlimit:10;}
	.st3{fill:#000000;}
</style>
<g>
	<path class="st3" d="M187.77,78.25c-8.98-2.48-9.25-3.44-9.02-5.57c0.18-1.67,1.81-3.42,3.79-4.06c4.33-1.4,9.92,1.01,12.48,5.38
		c1.67,2.86,5.35,3.83,8.21,2.15c2.86-1.67,3.83-5.35,2.15-8.21c-3.12-5.34-8.23-9.12-13.86-10.78v-5.83c0-3.31-2.69-6-6-6
		s-6,2.69-6,6v5.68c-0.23,0.06-0.45,0.11-0.68,0.18c-6.51,2.11-11.34,7.82-12.02,14.21c-1.39,13.11,10.6,16.42,17.76,18.4
		c8.73,2.41,10.03,3.57,9.96,6.31c-0.02,0.93-0.65,2.03-1.59,2.82c-1.13,0.93-2.75,1.56-4.68,1.8c-4.83,0.61-9.97-1.53-13.08-5.46
		c-2.06-2.6-5.83-3.03-8.43-0.97c-2.6,2.06-3.03,5.83-0.97,8.43c3.55,4.48,8.41,7.63,13.73,9.13v5.85c0,3.31,2.69,6,6,6s6-2.69,6-6
		v-5.36c3.49-0.7,6.6-2.12,9.08-4.17c3.67-3.03,5.83-7.32,5.94-11.77C206.84,83.52,195.37,80.35,187.77,78.25z"/>
	<path class="st0" d="M339.53,329.7c-3.04-5.69-8.12-9.85-14.3-11.72c-6.18-1.87-12.72-1.22-18.4,1.83
		c-0.14,0.08-0.28,0.16-0.41,0.24l-38.54,24.77l7.22-57.63h2.94c3.31,0,6-2.69,6-6v-30.81c0-3.31-2.69-6-6-6h-57.02
		c0.96-9.64,6.62-30.28,35.91-45.75c3.87,0.72,7.75,1.1,11.61,1.1c13.99,0,27.64-4.69,38.85-13.59
		c14.89-11.82,23.52-29.51,23.69-48.54c0.02-2.83-1.93-5.29-4.69-5.91c-18.57-4.16-37.76,0.23-52.65,12.05
		c-13.93,11.06-22.38,27.25-23.55,44.86c-14.71,7.97-24.22,17.22-30.36,26.13c-1.81-24.22-5.82-48.23-12.02-71.75
		c23.54-9.01,40.3-31.82,40.3-58.48c0-34.52-28.08-62.6-62.6-62.6s-62.6,28.08-62.6,62.6s28.08,62.6,62.6,62.6
		c3.66,0,7.24-0.33,10.73-0.94c6.72,25.53,10.8,51.67,12.17,78.01c-6.61-7.73-16.65-15.35-31.79-19.82
		c-6.01-15.56-18.19-27.77-33.86-33.8c-16.72-6.43-35.21-4.97-50.73,4c-2.45,1.42-3.58,4.35-2.71,7.04
		c5.51,17.06,18.26,30.54,34.98,36.96c6.88,2.65,14.06,3.96,21.22,3.96c9.42,0,18.77-2.28,27.33-6.76
		c21.75,6.3,30.6,20.19,34.07,28.61h-55.05c-3.31,0-6,2.69-6,6v30.81c0,3.31,2.69,6,6,6h2.94l4.93,39.43
		c-16.84,0.12-36.46,4.14-61,12.45c-2.43,0.83-4.07,3.11-4.07,5.68v42.22c0,3.31,2.69,6,6,6h6.66c21.05,0,42.19,2.14,62.83,6.35
		l35.91,7.33c4.63,0.95,9.32,1.41,13.98,1.41c11.91,0,23.7-3.04,34.2-8.95c0.12-0.07,0.25-0.14,0.36-0.22l80.25-52.96
		c2.81-1.61,4.88-4.3,5.71-7.44C341.36,335.51,340.98,332.38,339.53,329.7z M281.2,153.17c10.71-8.5,24.17-12.25,37.59-10.6
		c-1.45,13.44-8.15,25.7-18.86,34.2c-10.71,8.5-24.17,12.25-37.59,10.61C263.78,173.93,270.49,161.67,281.2,153.17z M134.91,84.53
		c0-27.9,22.7-50.6,50.6-50.6s50.6,22.7,50.6,50.6s-22.7,50.6-50.6,50.6S134.91,112.43,134.91,84.53z M128.61,207.38
		c-11.73-4.51-21.01-13.38-26.05-24.71c11.34-5.03,24.17-5.4,35.9-0.88c11.73,4.51,21.01,13.37,26.06,24.71
		C153.17,211.53,140.34,211.89,128.61,207.38z M157.85,275.19v-18.81h57.07c0,0,0.01,0,0.01,0c0,0,0.01,0,0.01,0h57.08v18.81h-2.16
		c-0.02,0-0.05,0-0.07,0H160.09c-0.02,0-0.05,0-0.07,0H157.85z M263,287.19l-5.9,47.16c-0.1-0.05-0.2-0.09-0.3-0.14
		c-0.28-0.14-0.56-0.28-0.84-0.41c-0.15-0.07-0.3-0.14-0.46-0.2c-0.27-0.12-0.54-0.23-0.81-0.33c-0.15-0.06-0.31-0.12-0.46-0.18
		c-0.3-0.11-0.6-0.21-0.9-0.31c-0.13-0.04-0.25-0.08-0.38-0.12c-0.43-0.13-0.86-0.25-1.29-0.36c-0.08-0.02-0.17-0.04-0.25-0.06
		c-0.36-0.08-0.72-0.16-1.08-0.23c-0.15-0.03-0.3-0.05-0.46-0.08c-0.3-0.05-0.6-0.1-0.91-0.14c-0.16-0.02-0.32-0.04-0.49-0.06
		c-0.31-0.04-0.63-0.06-0.95-0.09c-0.14-0.01-0.29-0.02-0.43-0.03c-0.46-0.03-0.92-0.04-1.38-0.04H201.5
		c-6.34,0-12.61-0.77-18.62-2.29c-1.14-0.29-2.29-0.54-3.46-0.78c-0.3-0.06-0.6-0.12-0.91-0.18c-1.01-0.2-2.04-0.38-3.07-0.54
		c-0.17-0.03-0.35-0.06-0.52-0.09c-1-0.15-2.01-0.29-3.03-0.41l-5.02-40.08H263z M328.89,335.53c-0.16,0.08-0.31,0.18-0.46,0.28
		l-80.26,52.96c-12.06,6.73-26.16,8.91-39.72,6.14l-35.91-7.33c-21.43-4.37-43.38-6.59-65.23-6.59h-0.66v-31.89
		c24.59-8.03,43.57-11.31,59.51-10.29c1.99,0.13,3.94,0.34,5.88,0.61c2.7,0.37,5.35,0.87,7.9,1.51c6.96,1.76,14.21,2.65,21.55,2.65
		h44.22c3.34,0,6.48,1.3,8.82,3.63c0.74,0.75,1.39,1.58,1.93,2.49c0.94,1.57,1.53,3.37,1.7,5.22c0.19,2.09,1.46,3.92,3.34,4.84
		c1.88,0.92,4.11,0.79,5.87-0.35l45.3-29.12c2.82-1.45,6.03-1.74,9.07-0.82c3.11,0.94,5.66,3.03,7.21,5.97
		C328.95,335.49,328.93,335.51,328.89,335.53z"/>
</g>
</svg>
