<?xml version="1.0" encoding="utf-8"?>
<!-- Generator: Adobe Illustrator 24.1.2, SVG Export Plug-In . SVG Version: 6.00 Build 0)  -->
<svg version="1.1" id="Warstwa_1" xmlns="http://www.w3.org/2000/svg" xmlns:xlink="http://www.w3.org/1999/xlink" x="0px" y="0px"
	 viewBox="0 0 430 430" style="enable-background:new 0 0 430 430;" xml:space="preserve">
<style type="text/css">
	.st0{fill:#000000;}
	.st1{fill:#000000;}
	.st2{fill:none;stroke:#000000;stroke-width:12;stroke-linecap:round;stroke-linejoin:round;stroke-miterlimit:10;}
	.st3{fill:#00A689;}
</style>
<g>
	<g>
		<path class="st0" d="M292.18,229.4c-3.31,0-6,2.69-6,6v28.61H185.42V235.4c0-3.31-2.69-6-6-6s-6,2.69-6,6v28.61h-29.63V235.4
			c0-3.31-2.69-6-6-6s-6,2.69-6,6v103.82c0,3.31,2.69,6,6,6h154.39c3.31,0,6-2.69,6-6V235.4
			C298.18,232.08,295.49,229.4,292.18,229.4z M173.42,333.22h-29.63v-22.61h29.63V333.22z M173.42,298.61h-29.63v-22.61h29.63
			V298.61z M286.18,333.22H185.42v-22.61h100.76V333.22z M286.18,298.61H185.42v-22.61h100.76V298.61z"/>
		<path class="st0" d="M334.36,121.43c0-0.07-0.01-0.14-0.01-0.21c-0.02-0.25-0.05-0.5-0.09-0.75c0-0.01,0-0.01,0-0.02
			c-0.05-0.25-0.12-0.5-0.2-0.74c-0.02-0.06-0.04-0.13-0.07-0.19c-0.09-0.23-0.18-0.45-0.29-0.67c-0.01-0.02-0.01-0.03-0.02-0.05
			c-0.12-0.23-0.26-0.44-0.41-0.66c-0.04-0.05-0.08-0.11-0.12-0.16c-0.16-0.21-0.33-0.41-0.52-0.6L265.93,50.7
			c0,0-0.01-0.01-0.01-0.01c-0.19-0.19-0.39-0.35-0.59-0.51c-0.05-0.04-0.11-0.08-0.17-0.12c-0.21-0.15-0.43-0.29-0.66-0.41
			c-0.01-0.01-0.03-0.01-0.04-0.02c-0.22-0.11-0.44-0.21-0.67-0.3c-0.06-0.02-0.12-0.04-0.18-0.07c-0.49-0.17-1-0.27-1.52-0.3
			c-0.06,0-0.13-0.01-0.19-0.01c-0.07,0-0.14-0.01-0.21-0.01H101.63c-3.31,0-6,2.69-6,6v320.12c0,3.31,2.69,6,6,6h226.75
			c3.31,0,6-2.69,6-6V121.63C334.37,121.57,334.37,121.5,334.36,121.43z M267.68,69.43l46.21,46.2h-46.21V69.43z M322.37,369.06
			H107.63V60.94h148.06v60.69c0,3.31,2.69,6,6,6h60.69V369.06z"/>
		<path class="st0" d="M137.79,177.01h45.73c3.31,0,6-2.69,6-6s-2.69-6-6-6h-45.73c-3.31,0-6,2.69-6,6S134.48,177.01,137.79,177.01z
			"/>
		<path class="st0" d="M208.98,171.01c0,3.31,2.69,6,6,6h77.19c3.31,0,6-2.69,6-6s-2.69-6-6-6h-77.19
			C211.67,165.01,208.98,167.69,208.98,171.01z"/>
	</g>
	<g>
		<path class="st1" d="M154.65,137.78v5c0,3.31,2.69,6,6,6s6-2.69,6-6v-4.52c3.12-0.68,5.91-1.99,8.16-3.84
			c3.48-2.87,5.53-6.95,5.63-11.17c0.3-12.22-10.9-15.31-17.58-17.16c-8.17-2.26-8.09-3.04-7.93-4.58c0.14-1.33,1.52-2.79,3.14-3.31
			c3.76-1.22,8.64,0.9,10.87,4.72c1.67,2.86,5.35,3.82,8.21,2.15c2.86-1.67,3.82-5.35,2.15-8.21c-2.86-4.9-7.51-8.41-12.66-10.02
			v-4.97c0-3.31-2.69-6-6-6s-6,2.69-6,6v4.84c-0.09,0.03-0.19,0.05-0.28,0.08c-6.16,2-10.73,7.41-11.37,13.46
			c-1.32,12.44,9.94,15.56,16.66,17.42c7.69,2.13,8.84,3.09,8.78,5.3c-0.02,0.71-0.53,1.6-1.28,2.22c-0.95,0.79-2.39,1.34-4.04,1.55
			c-4.26,0.54-8.81-1.35-11.56-4.83c-2.06-2.6-5.83-3.03-8.43-0.97c-2.6,2.06-3.03,5.83-0.97,8.43
			C145.4,133.43,149.81,136.34,154.65,137.78z"/>
		<path class="st1" d="M292.18,194.79H137.79c-3.31,0-6,2.69-6,6v34.61c0,3.31,2.69,6,6,6h154.39c3.31,0,6-2.69,6-6v-34.61
			C298.18,197.48,295.49,194.79,292.18,194.79z M173.42,229.4h-29.63v-22.61h29.63V229.4z M286.18,229.4H185.42v-22.61h100.76V229.4
			z"/>
	</g>
</g>
</svg>
