<?xml version="1.0" standalone="no"?>
<!DOCTYPE svg PUBLIC "-//W3C//DTD SVG 20010904//EN"
 "http://www.w3.org/TR/2001/REC-SVG-20010904/DTD/svg10.dtd">
<svg version="1.0" xmlns="http://www.w3.org/2000/svg"
 width="512.000000pt" height="512.000000pt" viewBox="0 0 512.000000 512.000000"
 preserveAspectRatio="xMidYMid meet">

<g transform="translate(0.000000,512.000000) scale(0.100000,-0.100000)"
fill="#000000" stroke="none">
<path d="M2463 3795 c-67 -18 -117 -50 -171 -109 -90 -97 -104 -186 -84 -508
8 -134 14 -165 35 -212 30 -66 101 -137 171 -173 67 -35 187 -43 269 -19 98
28 196 124 232 226 22 60 39 427 24 508 -41 219 -253 347 -476 287z m262 -44
c69 -32 137 -101 168 -169 26 -58 33 -192 19 -403 -7 -122 -13 -154 -34 -200
-121 -263 -494 -262 -613 3 -26 57 -28 74 -36 262 -5 121 -5 223 1 258 12 77
53 150 109 197 83 69 113 79 236 80 79 1 97 -2 150 -28z"/>
<path d="M1410 3511 c-78 -25 -138 -81 -173 -160 -18 -40 -19 -61 -15 -230 4
-177 6 -188 31 -238 86 -167 303 -203 437 -73 67 65 80 110 87 310 7 193 0
227 -57 299 -56 70 -105 94 -205 97 -44 2 -91 0 -105 -5z m200 -35 c44 -18
105 -80 123 -126 24 -58 28 -108 19 -265 -10 -169 -23 -207 -88 -265 -53 -46
-99 -63 -170 -63 -107 1 -193 64 -228 168 -12 35 -17 91 -19 219 -2 162 -1
173 21 215 53 98 139 145 252 136 31 -2 71 -11 90 -19z"/>
<path d="M3530 3511 c-82 -27 -159 -105 -181 -184 -17 -62 -5 -357 17 -422 34
-97 147 -175 254 -175 99 0 201 63 247 153 25 50 27 61 31 238 4 169 3 190
-15 230 -27 60 -77 115 -127 141 -45 23 -179 35 -226 19z m200 -35 c48 -20 93
-64 122 -117 22 -42 23 -53 21 -215 -2 -128 -7 -184 -19 -219 -35 -104 -121
-167 -228 -168 -71 0 -117 17 -170 63 -65 58 -78 96 -88 265 -4 83 -5 168 -2
190 17 109 87 189 189 216 41 11 133 3 175 -15z"/>
<path d="M2246 2499 c-70 -10 -169 -55 -226 -100 l-40 -33 -33 31 c-34 32 -90
64 -147 83 -50 17 -426 25 -529 11 -46 -6 -107 -22 -135 -35 -74 -34 -151
-113 -189 -193 -30 -64 -32 -76 -35 -198 -3 -127 -3 -131 21 -153 20 -19 46
-26 129 -37 59 -8 142 -28 193 -46 86 -31 97 -33 240 -33 155 -1 166 1 319 60
12 5 16 0 16 -20 0 -38 26 -73 63 -85 18 -6 75 -15 127 -20 55 -6 133 -23 185
-41 149 -52 248 -70 370 -69 61 1 124 4 140 8 25 6 40 0 88 -31 31 -21 57 -40
57 -42 0 -2 -25 -21 -56 -42 -55 -38 -55 -38 -48 -78 8 -52 40 -144 60 -174
14 -22 19 -23 80 -17 43 5 64 4 64 -3 0 -6 -10 -37 -22 -69 l-21 -57 52 -47
c28 -25 73 -58 99 -72 l48 -26 49 39 c28 22 53 40 57 40 4 0 16 -28 26 -62 16
-56 22 -64 48 -69 40 -9 131 -10 176 -3 36 6 39 10 55 63 9 31 20 60 24 65 4
5 27 -6 51 -25 24 -18 48 -36 54 -41 13 -9 143 73 182 115 l23 24 -21 54 c-31
82 -30 82 44 74 l65 -6 19 38 c21 41 47 119 57 169 5 28 2 33 -50 67 -30 21
-55 39 -55 41 0 3 80 63 108 82 6 4 -26 120 -46 171 l-22 53 23 5 c12 3 57 9
100 14 61 7 85 15 104 33 24 22 24 25 21 153 -3 121 -5 134 -34 196 -34 72
-113 158 -172 188 -83 40 -128 46 -382 46 -184 0 -258 -4 -295 -14 -58 -17
-109 -44 -146 -78 l-26 -24 -62 42 c-115 77 -145 82 -486 85 -165 1 -327 -2
-359 -7z m687 -34 c32 -8 79 -26 106 -40 66 -33 171 -138 199 -201 23 -49 23
-51 7 -107 -9 -31 -19 -57 -22 -57 -3 0 -28 18 -55 40 l-50 40 -51 -28 c-28
-15 -73 -47 -99 -72 l-49 -45 20 -59 c12 -33 21 -63 21 -68 0 -5 -29 -6 -68
-2 l-69 6 -21 -50 c-12 -28 -28 -75 -36 -103 -17 -67 -27 -71 -186 -71 -137 0
-214 13 -350 60 -50 18 -136 37 -210 47 -161 21 -164 23 -168 148 -7 176 29
309 110 407 51 63 158 131 236 151 93 25 646 27 735 4z m-1150 -9 c51 -12 157
-72 173 -97 3 -5 -13 -34 -35 -65 -65 -91 -84 -151 -90 -289 l-6 -120 -78 -27
c-172 -61 -318 -60 -500 1 -47 16 -130 35 -183 42 -125 15 -134 24 -134 122 0
151 27 237 101 321 49 56 114 95 183 112 74 18 493 18 569 0z m2109 3 c70 -15
114 -38 174 -92 86 -78 124 -182 124 -344 0 -95 -13 -109 -107 -118 -66 -7
-91 -11 -201 -36 -29 -6 -56 -9 -60 -5 -3 4 3 35 16 69 l22 62 -50 46 c-28 25
-72 58 -99 72 l-48 27 -53 -40 c-29 -22 -56 -37 -59 -34 -3 3 -13 31 -22 62
-14 51 -19 57 -50 65 -19 5 -70 7 -115 5 l-81 -4 -28 49 c-15 27 -40 64 -56
82 -16 18 -29 35 -29 39 0 15 115 80 163 92 67 16 485 18 559 3z m-381 -358
c10 -35 22 -68 27 -73 4 -4 34 12 66 37 32 25 60 45 63 45 7 0 106 -67 137
-93 l29 -24 -26 -72 c-15 -40 -27 -74 -27 -77 0 -2 36 -4 80 -4 l81 0 18 -42
c10 -24 24 -67 31 -96 14 -60 17 -55 -67 -109 -24 -16 -42 -32 -40 -38 2 -5
29 -28 60 -49 31 -22 57 -47 57 -55 0 -9 -13 -52 -28 -96 l-27 -80 -83 -3
c-45 -2 -82 -4 -82 -6 0 -2 12 -35 26 -72 l26 -69 -45 -40 c-24 -22 -62 -50
-83 -62 l-40 -22 -57 44 c-31 25 -60 45 -65 45 -4 0 -18 -34 -30 -75 l-22 -76
-102 3 -102 3 -19 65 c-10 36 -23 69 -27 74 -5 5 -35 -12 -69 -38 l-61 -47
-52 35 c-29 19 -66 45 -83 59 l-30 25 23 63 c12 35 22 69 22 76 0 8 -25 13
-77 15 l-78 3 -22 56 c-12 31 -25 74 -29 96 l-6 41 61 41 c34 23 61 45 61 49
0 4 -28 25 -61 46 -59 38 -61 41 -56 75 2 20 15 63 28 96 l24 60 78 3 c54 2
77 7 77 15 0 7 -9 41 -21 75 -25 74 -26 71 72 138 l69 47 60 -47 c34 -25 65
-44 69 -41 5 2 14 25 20 49 26 103 18 97 132 94 l102 -3 18 -64z"/>
<path d="M3343 1789 c-58 -11 -94 -31 -136 -78 -129 -143 -25 -389 167 -393
95 -2 166 34 215 109 116 175 -37 401 -246 362z m132 -38 c43 -19 100 -78 116
-118 16 -42 11 -131 -10 -171 -69 -135 -239 -162 -345 -56 -41 41 -59 90 -58
156 0 152 158 253 297 189z"/>
</g>
</svg>
