<?xml version="1.0" encoding="utf-8"?>
<!-- Generator: Adobe Illustrator 24.1.2, SVG Export Plug-In . SVG Version: 6.00 Build 0)  -->
<svg version="1.1" id="Warstwa_3" xmlns="http://www.w3.org/2000/svg" xmlns:xlink="http://www.w3.org/1999/xlink" x="0px" y="0px"
	 viewBox="0 0 430 430" style="enable-background:new 0 0 430 430;" xml:space="preserve">
<style type="text/css">
	.st0{fill:#000000;}
	.st1{fill:#000000;}
	.st2{fill:none;}
	.st3{fill-opacity:0;}
</style>
<g>
	<path class="st0" d="M172.71,263.59c-1.61,0-3.22-0.61-4.45-1.85c-2.46-2.46-2.46-6.45,0-8.91l9.96-9.96
		c-5.66-8.44-8.29-18.85-7.08-29.29c0.4-3.46,3.52-5.93,6.98-5.53c3.46,0.4,5.93,3.53,5.53,6.98c-1.21,10.51,3.27,21.39,11.44,27.71
		c2.4,1.86,6.19,4.17,10.59,4.59c3.55,0.34,6.97-0.71,9.15-2.78c6.48-6.17,3.81-12.73-3.84-26.22
		c-6.65-11.74-15.77-27.82-0.27-40.34c7.64-6.17,19.11-7.09,28.54-2.28c1.33,0.68,2.61,1.45,3.83,2.31l9.75-9.75
		c2.46-2.46,6.45-2.46,8.91,0c2.46,2.46,2.46,6.45,0,8.91l-9.89,9.89c5.84,8.73,8.05,20.17,5.21,30.98
		c-0.88,3.37-4.33,5.38-7.69,4.5c-3.37-0.88-5.38-4.33-4.5-7.69c2.87-10.94-2.12-23.2-11.35-27.91c-4.99-2.55-11.11-2.2-14.89,0.85
		c-6.19,5-4.69,10.2,3.32,24.32c6.69,11.8,15.85,27.96,1.57,41.56c-4.79,4.56-11.9,6.88-19.03,6.2c-5.86-0.56-11.78-3.04-17.12-7.17
		c-0.22-0.17-0.44-0.34-0.65-0.52l-9.56,9.56C175.94,262.97,174.33,263.59,172.71,263.59z"/>
	<path class="st1" d="M190.68,366.79c-1.61,0-3.22-0.61-4.45-1.85L65.05,243.77c-1.18-1.18-1.85-2.78-1.85-4.45s0.66-3.27,1.85-4.45
		L234.86,65.05c1.18-1.18,2.78-1.85,4.45-1.85c0.01,0,0.02,0,0.03,0l120.6,0.57c3.46,0.02,6.25,2.81,6.27,6.27l0.57,120.6
		c0.01,1.68-0.66,3.3-1.85,4.48L195.14,364.95C193.91,366.18,192.29,366.79,190.68,366.79z M78.42,239.32l112.26,112.26l163.5-163.5
		l-0.53-111.73l-111.73-0.53L78.42,239.32z"/>
	<path class="st0" d="M215,224.1c-0.59,0-1.19-0.06-1.78-0.18c-0.58-0.12-1.15-0.29-1.7-0.52c-0.55-0.22-1.08-0.51-1.57-0.83
		c-0.5-0.34-0.97-0.72-1.38-1.14c-1.7-1.69-2.67-4.03-2.67-6.43c0-0.59,0.06-1.19,0.18-1.78c0.12-0.58,0.29-1.15,0.52-1.7
		c0.22-0.55,0.51-1.08,0.83-1.57c0.34-0.5,0.72-0.97,1.14-1.38c0.41-0.42,0.88-0.8,1.38-1.14c0.49-0.32,1.02-0.61,1.57-0.83
		c0.55-0.23,1.12-0.41,1.7-0.52c1.18-0.24,2.38-0.24,3.56,0c0.58,0.11,1.15,0.29,1.7,0.52c0.55,0.22,1.08,0.51,1.57,0.83
		c0.5,0.34,0.96,0.72,1.38,1.14c0.42,0.41,0.8,0.88,1.14,1.38c0.32,0.49,0.61,1.02,0.83,1.57c0.23,0.55,0.41,1.12,0.52,1.7
		c0.12,0.59,0.18,1.19,0.18,1.78c0,2.4-0.97,4.74-2.67,6.43c-0.41,0.42-0.88,0.8-1.38,1.14c-0.49,0.32-1.02,0.61-1.57,0.83
		c-0.55,0.23-1.12,0.4-1.7,0.52C216.19,224.04,215.59,224.1,215,224.1z"/>
</g>
</svg>
