<?xml version="1.0" encoding="utf-8"?>
<!-- Generator: Adobe Illustrator 24.1.2, SVG Export Plug-In . SVG Version: 6.00 Build 0)  -->
<svg version="1.1" id="Warstwa_3" xmlns="http://www.w3.org/2000/svg" xmlns:xlink="http://www.w3.org/1999/xlink" x="0px" y="0px"
	 viewBox="0 0 430 430" style="enable-background:new 0 0 430 430;" xml:space="preserve">
<style type="text/css">
	.st0{fill:#000000;}
	.st1{fill:#000000;}
	.st2{fill:none;}
	.st3{fill-opacity:0;}
</style>
<g>
	<g>
		<g transform="matrix(1,0,0,1,0,0)">
			<path class="st0" d="M216.11,281.19c-0.16,0-0.33-0.01-0.49-0.02c-12.58-0.97-24.43-6.43-33.36-15.36
				c-15.98-15.98-19.6-39.72-10.87-59.21l-10-10c-2.46-2.46-2.46-6.45,0-8.91c2.46-2.46,6.45-2.46,8.91,0l7.82,7.82
				c1.27-1.61,2.65-3.16,4.14-4.65c1.48-1.48,3.03-2.86,4.65-4.14l-7.82-7.82c-2.46-2.46-2.46-6.45,0-8.91
				c2.46-2.46,6.45-2.46,8.91,0l9.98,9.98c6.75-3.04,14.13-4.64,21.75-4.64c14.16,0,27.47,5.51,37.48,15.52
				c8.93,8.93,14.39,20.78,15.36,33.36c0.27,3.47-2.33,6.5-5.8,6.77c-3.46,0.27-6.5-2.33-6.77-5.8c-0.74-9.59-4.9-18.62-11.71-25.43
				c-7.63-7.63-17.78-11.83-28.57-11.83c-4.13,0-8.16,0.61-11.99,1.8l25.62,25.62c2.46,2.46,2.46,6.45,0,8.91
				c-2.46,2.46-6.45,2.46-8.91,0l-28.56-28.56c-1.66,1.22-3.24,2.58-4.73,4.06c-1.49,1.49-2.85,3.08-4.06,4.73l28.56,28.56
				c2.46,2.46,2.46,6.45,0,8.91c-2.46,2.46-6.45,2.46-8.91,0l-25.6-25.6c-4.28,13.86-0.94,29.59,10.01,40.54
				c6.81,6.81,15.84,10.97,25.43,11.71c3.47,0.27,6.06,3.3,5.8,6.77C222.13,278.68,219.37,281.19,216.11,281.19z"/>
		</g>
		<path class="st1" d="M190.68,366.79c-1.61,0-3.22-0.61-4.45-1.85L65.05,243.77c-1.18-1.18-1.85-2.78-1.85-4.45
			s0.66-3.27,1.85-4.45L234.86,65.05c1.18-1.18,2.78-1.85,4.45-1.85c0.01,0,0.02,0,0.03,0l120.6,0.57c3.46,0.02,6.25,2.81,6.27,6.27
			l0.57,120.6c0.01,1.68-0.66,3.3-1.85,4.48L195.14,364.95C193.91,366.18,192.29,366.79,190.68,366.79z M78.42,239.32l112.26,112.26
			l163.5-163.5l-0.53-111.73l-111.73-0.53L78.42,239.32z"/>
		<path class="st0" d="M317.41,121.69c-2.4,0-4.74-0.97-6.44-2.66c-1.69-1.7-2.66-4.04-2.66-6.44c0-0.59,0.06-1.19,0.18-1.78
			c0.11-0.58,0.29-1.15,0.51-1.7c0.23-0.55,0.51-1.08,0.84-1.57c0.33-0.5,0.71-0.96,1.13-1.38c2.12-2.11,5.26-3.08,8.22-2.49
			c0.58,0.12,1.15,0.29,1.7,0.52c0.55,0.23,1.08,0.51,1.57,0.84c0.5,0.33,0.96,0.71,1.38,1.13c0.42,0.42,0.8,0.88,1.13,1.38
			c0.33,0.49,0.61,1.02,0.84,1.57s0.4,1.12,0.52,1.7c0.12,0.59,0.18,1.19,0.18,1.78c0,2.4-0.97,4.74-2.67,6.44
			c-0.42,0.42-0.88,0.8-1.38,1.13c-0.49,0.33-1.02,0.61-1.57,0.84c-0.55,0.22-1.12,0.4-1.7,0.51
			C318.6,121.63,318,121.69,317.41,121.69z"/>
	</g>
</g>
</svg>
