<?xml version="1.0" encoding="utf-8"?>
<!-- Generator: Adobe Illustrator 24.1.2, SVG Export Plug-In . SVG Version: 6.00 Build 0)  -->
<svg version="1.1" id="Warstwa_3" xmlns="http://www.w3.org/2000/svg" xmlns:xlink="http://www.w3.org/1999/xlink" x="0px" y="0px"
	 viewBox="0 0 430 430" style="enable-background:new 0 0 430 430;" xml:space="preserve">
<style type="text/css">
	.st0{fill:#000000;}
	.st1{fill:#000000;}
	.st2{fill:none;stroke:#000000;stroke-width:12.25;stroke-miterlimit:14;}
	.st3{fill-opacity:0;}
	.st4{fill:#131432;}
	.st5{fill:none;}
</style>
<g>
	<path class="st0" d="M226.03,268.52c-29.91,0-54.25-24.34-54.25-54.25s24.34-54.25,54.25-54.25s54.25,24.34,54.25,54.25
		S255.95,268.52,226.03,268.52z M226.03,172.27c-23.16,0-42,18.84-42,42s18.84,42,42,42s42-18.84,42-42S249.19,172.27,226.03,172.27
		z"/>
	<path class="st0" d="M178.05,216.97c-0.18,0-0.36-0.01-0.54-0.02L89,209.25c-3.37-0.29-5.86-3.26-5.57-6.63
		c0.29-3.37,3.26-5.86,6.63-5.57l88.51,7.7c3.37,0.29,5.86,3.26,5.57,6.63C183.87,214.56,181.19,216.97,178.05,216.97z"/>
	<path class="st1" d="M70.28,228.52c-13.99,0-25.38-11.38-25.38-25.38c0-13.99,11.38-25.38,25.38-25.38s25.38,11.38,25.38,25.38
		C95.66,217.14,84.27,228.52,70.28,228.52z M70.28,190.02c-7.24,0-13.13,5.89-13.13,13.13s5.89,13.13,13.13,13.13
		s13.13-5.89,13.13-13.13S77.52,190.02,70.28,190.02z"/>
	<path class="st0" d="M252.95,180.5c-1.18,0-2.37-0.34-3.42-1.05c-2.8-1.89-3.54-5.7-1.65-8.5l57.64-85.44
		c1.89-2.8,5.7-3.54,8.5-1.65c2.8,1.89,3.54,5.7,1.65,8.5l-57.64,85.44C256.85,179.55,254.91,180.5,252.95,180.5z"/>
	<path class="st1" d="M325.78,99.7c-18.35,0-33.28-14.93-33.28-33.28c0-18.35,14.93-33.28,33.28-33.28s33.28,14.93,33.28,33.28
		C359.06,84.77,344.13,99.7,325.78,99.7z M325.78,45.4c-11.6,0-21.03,9.43-21.03,21.03c0,11.6,9.43,21.03,21.03,21.03
		c11.59,0,21.03-9.43,21.03-21.03C346.81,54.83,337.38,45.4,325.78,45.4z"/>
	<path class="st0" d="M323.46,337.06c-1.75,0-3.49-0.75-4.7-2.2l-66.58-79.73c-2.17-2.6-1.82-6.46,0.78-8.63
		c2.6-2.17,6.46-1.82,8.63,0.78l66.58,79.73c2.17,2.6,1.82,6.46-0.78,8.63C326.23,336.59,324.84,337.06,323.46,337.06z"/>
	<path class="st1" d="M345.13,396.85c-22.03,0-39.96-17.93-39.96-39.96c0-22.03,17.93-39.96,39.96-39.96s39.96,17.93,39.96,39.96
		C385.09,378.93,367.17,396.85,345.13,396.85z M345.13,329.19c-15.28,0-27.71,12.43-27.71,27.71c0,15.28,12.43,27.71,27.71,27.71
		s27.71-12.43,27.71-27.71C372.84,341.62,360.41,329.19,345.13,329.19z"/>
	<path class="st0" d="M187.38,308.71c-0.82,0-1.65-0.17-2.45-0.52c-3.1-1.36-4.51-4.97-3.16-8.07l19.35-44.22
		c1.36-3.1,4.97-4.51,8.07-3.16c3.1,1.36,4.51,4.97,3.16,8.07l-19.35,44.22C191.99,307.34,189.74,308.71,187.38,308.71z"/>
	<path class="st1" d="M177.91,353.98c-16.4,0-29.75-13.35-29.75-29.75s13.35-29.75,29.75-29.75s29.75,13.35,29.75,29.75
		S194.31,353.98,177.91,353.98z M177.91,306.73c-9.65,0-17.5,7.85-17.5,17.5s7.85,17.5,17.5,17.5s17.5-7.85,17.5-17.5
		S187.56,306.73,177.91,306.73z"/>
</g>
</svg>
