<?xml version="1.0" encoding="utf-8"?>
<!-- Generator: Adobe Illustrator 24.1.2, SVG Export Plug-In . SVG Version: 6.00 Build 0)  -->
<svg version="1.1" id="Warstwa_1" xmlns="http://www.w3.org/2000/svg" xmlns:xlink="http://www.w3.org/1999/xlink" x="0px" y="0px"
	 viewBox="0 0 430 430" style="enable-background:new 0 0 430 430;" xml:space="preserve">
<style type="text/css">
	.st0{fill:#000000;}
	.st1{fill:#08A284;}
	.st2{fill:none;stroke:#08A284;stroke-width:12;stroke-linecap:round;stroke-linejoin:round;stroke-miterlimit:10;}
	.st3{fill:none;stroke:#000000;stroke-width:12;stroke-linecap:round;stroke-linejoin:round;stroke-miterlimit:10;}
	.st4{fill:#08A688;}
	.st5{fill:#000000;}
	.st6{fill:#000000;}
</style>
<g>
	<path class="st0" d="M326.69,215c4.54-4.49,8.75-9.01,12.59-13.51c22.72-26.62,30.23-50.33,21.16-66.76
		c-9.07-16.44-33.14-22.72-67.77-17.68c-7.22,1.05-14.75,2.58-22.51,4.53c-2.05-7.74-4.36-15.07-6.94-21.9
		C250.9,66.92,233.77,48.88,215,48.88s-35.9,18.04-48.23,50.78c-2.57,6.84-4.89,14.17-6.94,21.9c-7.75-1.94-15.29-3.48-22.51-4.53
		c-34.63-5.03-58.69,1.24-67.77,17.68c-9.07,16.44-1.56,40.15,21.16,66.76c3.84,4.5,8.06,9.02,12.59,13.51
		c-4.54,4.49-8.75,9.01-12.59,13.51C68,255.13,60.49,278.84,69.56,295.27c7.03,12.74,23.06,19.38,46.04,19.38
		c6.67,0,13.93-0.56,21.73-1.69c7.22-1.05,14.75-2.58,22.51-4.53c2.05,7.74,4.36,15.07,6.94,21.9
		c12.33,32.75,29.45,50.78,48.23,50.78s35.9-18.04,48.23-50.78c2.57-6.84,4.89-14.17,6.94-21.9c7.75,1.94,15.29,3.48,22.51,4.53
		c7.79,1.13,15.05,1.69,21.73,1.69c22.97,0,39.01-6.64,46.04-19.38c9.07-16.44,1.56-40.15-21.16-66.76
		C335.44,224.01,331.22,219.49,326.69,215z M294.4,128.92c7.32-1.06,14.08-1.59,20.21-1.59c18.05,0,30.55,4.55,35.32,13.19
		c6.39,11.58-0.82,30.96-19.78,53.17c-3.71,4.35-7.79,8.71-12.18,13.05c-11.31-10.25-24.25-20.31-38.4-29.87
		c-1.38-15.34-3.6-30.02-6.59-43.66C280.36,131.38,287.54,129.92,294.4,128.92z M241.22,262.51c-8.73,4.82-17.5,9.25-26.22,13.3
		c-8.72-4.04-17.49-8.48-26.22-13.3c-9.33-5.15-18.32-10.56-26.88-16.16c-0.77-10.2-1.16-20.69-1.16-31.34s0.4-21.14,1.16-31.34
		c8.56-5.6,17.55-11.02,26.88-16.16c8.73-4.82,17.5-9.25,26.22-13.3c8.72,4.04,17.49,8.48,26.22,13.3
		c9.33,5.15,18.32,10.56,26.88,16.16c0.77,10.2,1.16,20.69,1.16,31.34s-0.4,21.14-1.16,31.34
		C259.54,251.95,250.55,257.36,241.22,262.51z M266.66,261.49c-1.29,11.2-3.06,21.95-5.26,32.1c-10.35-3.09-21.05-6.91-31.92-11.42
		c5.85-2.89,11.71-5.93,17.55-9.15C253.74,269.3,260.3,265.45,266.66,261.49z M200.53,282.17c-10.87,4.51-21.57,8.33-31.92,11.42
		c-2.2-10.14-3.97-20.9-5.26-32.1c6.36,3.96,12.91,7.81,19.64,11.52C188.82,276.23,194.67,279.27,200.53,282.17z M149.34,237.76
		c-10.36-7.39-19.94-15.02-28.54-22.76c8.6-7.74,18.18-15.37,28.54-22.76c-0.39,7.48-0.6,15.08-0.6,22.76
		S148.94,230.28,149.34,237.76z M182.98,156.99c-6.72,3.71-13.28,7.56-19.64,11.52c1.29-11.2,3.06-21.95,5.26-32.1
		c10.35,3.09,21.05,6.91,31.92,11.42C194.67,150.73,188.82,153.77,182.98,156.99z M229.47,147.83c10.87-4.51,21.57-8.33,31.92-11.42
		c2.2,10.14,3.97,20.9,5.26,32.1c-6.36-3.96-12.91-7.81-19.64-11.52C241.18,153.77,235.33,150.73,229.47,147.83z M280.66,192.24
		c10.36,7.39,19.94,15.02,28.54,22.76c-8.6,7.74-18.18,15.37-28.54,22.76c0.39-7.48,0.6-15.08,0.6-22.76
		S281.06,199.72,280.66,192.24z M178,103.89c10.29-27.33,23.77-43.01,37-43.01s26.71,15.68,37,43.01c2.44,6.5,4.65,13.47,6.6,20.84
		c-14.08,4.17-28.75,9.66-43.6,16.29c-14.85-6.64-29.52-12.12-43.6-16.29C173.36,117.36,175.56,110.39,178,103.89z M99.85,193.7
		c-18.96-22.22-26.17-41.6-19.78-53.17c4.77-8.65,17.27-13.19,35.32-13.19c6.13,0,12.89,0.52,20.21,1.59
		c6.86,1,14.03,2.46,21.42,4.31c-2.99,13.64-5.21,28.32-6.59,43.66c-14.14,9.56-27.08,19.62-38.4,29.87
		C107.63,202.41,103.56,198.05,99.85,193.7z M135.6,301.08c-28.9,4.2-49.14-0.03-55.53-11.61c-6.39-11.58,0.82-30.96,19.78-53.17
		c3.71-4.35,7.79-8.71,12.18-13.05c11.31,10.25,24.25,20.31,38.4,29.87c1.38,15.34,3.6,30.02,6.59,43.66
		C149.64,298.62,142.46,300.08,135.6,301.08z M252,326.11c-10.29,27.33-23.77,43.01-37,43.01s-26.71-15.68-37-43.01
		c-2.44-6.5-4.65-13.47-6.6-20.84c14.08-4.17,28.75-9.66,43.6-16.29c14.85,6.64,29.52,12.12,43.6,16.29
		C256.64,312.64,254.44,319.61,252,326.11z M349.93,289.48c-6.39,11.58-26.63,15.81-55.53,11.61c-6.86-1-14.03-2.46-21.42-4.31
		c2.99-13.64,5.21-28.32,6.59-43.66c14.14-9.56,27.08-19.62,38.4-29.87c4.4,4.35,8.47,8.71,12.18,13.05
		C349.11,258.52,356.32,277.9,349.93,289.48z"/>
	<path class="st1" d="M215,247.69c-18.02,0-32.69-14.66-32.69-32.69s14.66-32.69,32.69-32.69s32.69,14.66,32.69,32.69
		S233.02,247.69,215,247.69z M215,194.31c-11.41,0-20.69,9.28-20.69,20.69s9.28,20.69,20.69,20.69s20.69-9.28,20.69-20.69
		S226.41,194.31,215,194.31z"/>
</g>
</svg>
