<?xml version="1.0" encoding="utf-8"?>
<!-- Generator: Adobe Illustrator 24.1.2, SVG Export Plug-In . SVG Version: 6.00 Build 0)  -->
<svg version="1.1" id="Warstwa_3" xmlns="http://www.w3.org/2000/svg" xmlns:xlink="http://www.w3.org/1999/xlink" x="0px" y="0px"
	 viewBox="0 0 430 430" style="enable-background:new 0 0 430 430;" xml:space="preserve">
<style type="text/css">
	.st0{fill:#000000;}
	.st1{fill:#000000;}
	.st2{fill:#000000;fill-opacity:0;}
	.st3{fill:none;}
</style>
<g>
	<path class="st0" d="M262.86,393.54c-29.85,0-54.13-24.28-54.13-54.13s24.28-54.13,54.13-54.13c3.48,0,6.3,2.82,6.3,6.3
		s-2.82,6.3-6.3,6.3c-22.9,0-41.53,18.63-41.53,41.53s18.63,41.53,41.53,41.53c4.58,0,9.08-0.74,13.38-2.2
		c3.3-1.12,6.87,0.64,7.99,3.93c1.12,3.29-0.64,6.87-3.94,7.99C274.69,392.58,268.82,393.54,262.86,393.54z M307.74,313.92
		c-3.48,0-6.3-2.82-6.3-6.3c0-19.73-16.05-35.78-35.77-35.78c-3.48,0-6.3-2.82-6.3-6.3s2.82-6.3,6.3-6.3
		c26.67,0,48.37,21.7,48.37,48.38C314.04,311.1,311.22,313.92,307.74,313.92z M122.26,313.92c-3.48,0-6.3-2.82-6.3-6.3
		c0-26.67,21.7-48.38,48.38-48.38c3.48,0,6.3,2.82,6.3,6.3s-2.82,6.3-6.3,6.3c-19.73,0-35.78,16.05-35.78,35.78
		C128.56,311.1,125.73,313.92,122.26,313.92z M368.53,274.12c-2.97,0-5.62-2.11-6.19-5.14c-0.98-5.23-3.44-9.98-7.06-13.77
		c-8.68,7.33-19.77,11.44-31.24,11.44c-3.48,0-6.3-2.82-6.3-6.3s2.82-6.3,6.3-6.3c9.67,0,18.98-3.96,25.7-10.89
		c0.18-0.26,0.37-0.52,0.59-0.75c6.04-6.61,9.37-15.18,9.37-24.13c0-12.53-6.39-23.94-17.08-30.51c-1.5-0.92-2.54-2.42-2.88-4.15
		c-0.34-1.72,0.05-3.51,1.09-4.93c4.48-6.15,6.85-13.42,6.85-21.04c0-11.4-5.51-22.22-14.74-28.94c-1.71-1.25-2.62-3.2-2.59-5.17
		c-1.64,1.09-3.76,1.4-5.74,0.65c-4.05-1.54-8.32-2.32-12.7-2.32c-19.73,0-35.77,16.05-35.77,35.77c0,3.48-2.82,6.3-6.3,6.3
		s-6.3-2.82-6.3-6.3c0-26.67,21.7-48.37,48.37-48.37c5.92,0,11.69,1.06,17.18,3.14c2.54,0.97,4.09,3.4,4.06,5.96
		c2.13-1.42,5.01-1.45,7.21,0.15c12.48,9.08,19.93,23.71,19.93,39.12c0,8.15-2.01,16.01-5.85,23.06
		c11.3,9.13,17.88,22.76,17.88,37.56c0,9.92-3.02,19.48-8.59,27.53c5.68,5.66,9.53,12.88,11.02,20.86c0.64,3.42-1.61,6.71-5.03,7.35
		C369.31,274.08,368.92,274.12,368.53,274.12z M151.03,235.89c-5.39,0-10.64-1.1-15.62-3.26c-3.19-1.39-4.65-5.1-3.27-8.29
		c1.39-3.19,5.1-4.66,8.29-3.27c3.38,1.47,6.95,2.21,10.6,2.21c6.94,0,13.44-2.68,18.29-7.26c-21.58-2.18-39.75-16.92-46.19-38.03
		c-1.02-3.33,0.86-6.85,4.19-7.86c3.33-1.02,6.85,0.86,7.86,4.19c5.36,17.58,21.33,29.39,39.73,29.39
		c13.82,0,26.69-6.85,34.44-18.31c1.95-2.88,5.86-3.64,8.75-1.69c2.88,1.95,3.64,5.86,1.69,8.75c-8.06,11.93-20.38,20.02-34.19,22.8
		C178.79,227.89,165.56,235.89,151.03,235.89z M215,86.9c-3.48,0-6.3-2.82-6.3-6.3c0-8.95,2.59-17.55,7.49-24.87
		c1.94-2.89,5.85-3.67,8.74-1.73c2.89,1.94,3.67,5.85,1.73,8.74c-3.51,5.24-5.36,11.42-5.36,17.86C221.3,84.08,218.48,86.9,215,86.9
		z"/>
	<path class="st0" d="M262.86,393.54c-29.85,0-54.13-24.28-54.13-54.13s24.28-54.13,54.13-54.13c3.48,0,6.3,2.82,6.3,6.3
		s-2.82,6.3-6.3,6.3c-22.9,0-41.53,18.63-41.53,41.53s18.63,41.53,41.53,41.53c16.04,0,30.81-9.4,37.62-23.94
		c1.12-2.4,3.63-3.83,6.26-3.6c1.21,0.11,2.3,0.16,3.35,0.16c20.72,0,37.59-16.86,37.59-37.59c0-3.7-0.54-7.37-1.61-10.9
		c-0.85-2.82,0.36-5.85,2.92-7.3c8.53-4.85,13.83-13.95,13.83-23.74c0-7.05-2.75-13.78-7.54-18.82
		c-8.68,7.33-19.77,11.43-31.23,11.43c-3.48,0-6.3-2.82-6.3-6.3s2.82-6.3,6.3-6.3c9.67,0,18.98-3.96,25.7-10.89
		c0.18-0.26,0.37-0.52,0.59-0.75c6.04-6.61,9.37-15.18,9.37-24.13c0-12.53-6.39-23.94-17.08-30.51c-1.5-0.92-2.54-2.42-2.88-4.15
		c-0.34-1.72,0.05-3.51,1.09-4.93c4.48-6.15,6.85-13.42,6.85-21.04c0-14.76-9.27-28.2-23.08-33.45c-0.1-0.04-0.2-0.08-0.29-0.12
		c-3.96-1.46-8.13-2.21-12.41-2.21c-19.73,0-35.77,16.05-35.77,35.77c0,3.48-2.82,6.3-6.3,6.3s-6.3-2.82-6.3-6.3
		c0-26.67,21.7-48.37,48.37-48.37c2.88,0,5.74,0.25,8.54,0.75c-2.13-15.3-15.28-27.13-31.15-27.17c-0.1,0-0.2,0.01-0.3,0.01
		c-3.22,0-5.92-2.43-6.26-5.64c-1.73-16.32-14.53-28.17-30.43-28.17c-17.38,0-30.99,13.85-30.99,31.54c0,3.48-2.82,6.3-6.3,6.3
		s-6.3-2.82-6.3-6.3c0-11.8,4.48-22.87,12.61-31.17c8.2-8.37,19.2-12.97,30.98-12.97c20.68,0,37.63,14.05,42.09,34.1
		c21.87,2.57,38.91,21.19,38.96,43.73c16.28,8.08,26.94,24.96,26.94,43.36c0,8.15-2.01,16.01-5.85,23.06
		c11.3,9.13,17.88,22.76,17.88,37.56c0,9.92-3.02,19.49-8.6,27.54c7.42,7.43,11.71,17.58,11.71,28.22
		c0,12.68-6.07,24.56-16.12,32.03c0.65,3.26,0.98,6.57,0.98,9.91c0,27.67-22.51,50.19-50.19,50.19c-0.06,0-0.12,0-0.18,0
		C300.36,382.92,282.33,393.54,262.86,393.54z M307.74,313.92c-3.48,0-6.3-2.82-6.3-6.3c0-19.73-16.05-35.78-35.77-35.78
		c-3.48,0-6.3-2.82-6.3-6.3s2.82-6.3,6.3-6.3c26.67,0,48.37,21.7,48.37,48.38C314.04,311.1,311.22,313.92,307.74,313.92z
		 M122.26,313.92c-3.48,0-6.3-2.82-6.3-6.3c0-26.67,21.7-48.38,48.38-48.38c3.48,0,6.3,2.82,6.3,6.3s-2.82,6.3-6.3,6.3
		c-19.73,0-35.78,16.05-35.78,35.78C128.56,311.1,125.73,313.92,122.26,313.92z M151.03,235.9c-5.31,0-10.61-1.09-15.63-3.27
		c-3.19-1.39-4.65-5.1-3.27-8.29c1.39-3.19,5.1-4.66,8.29-3.27c6.53,2.83,13.77,2.96,20.39,0.35c3.21-1.26,6.08-3.1,8.52-5.39
		c-21.58-2.18-39.76-16.91-46.21-38.03c-1.02-3.33,0.86-6.85,4.19-7.86c3.33-1.02,6.85,0.86,7.86,4.19
		c5.36,17.58,21.33,29.39,39.73,29.39c13.82,0,26.69-6.85,34.44-18.31c1.95-2.88,5.86-3.64,8.75-1.69c2.88,1.95,3.64,5.86,1.69,8.75
		c-8.06,11.93-20.38,20.02-34.19,22.8c-4.38,8.17-11.44,14.46-20.16,17.9C160.77,234.98,155.9,235.9,151.03,235.9z"/>
	<path class="st1" d="M167.15,393.54c-19.47,0-37.5-10.62-47.06-27.38c-0.06,0-0.12,0-0.18,0c-27.67,0-50.19-22.51-50.19-50.19
		c0-3.34,0.33-6.66,0.99-9.91c-10.05-7.47-16.12-19.35-16.12-32.03c0-10.64,4.29-20.79,11.71-28.22c-5.58-8.05-8.6-17.62-8.6-27.54
		c0-14.8,6.58-28.43,17.88-37.56c-3.84-7.05-5.85-14.91-5.85-23.06c0-18.4,10.65-35.28,26.94-43.36
		c0.05-22.54,17.09-41.16,38.96-43.73c4.46-20.05,21.41-34.1,42.09-34.1c11.78,0,22.78,4.61,30.98,12.97
		c8.13,8.3,12.61,19.37,12.61,31.17v11.23c4.16-2.56,8.98-3.94,13.9-3.94c3.48,0,6.3,2.82,6.3,6.3s-2.82,6.3-6.3,6.3
		c-3.22,0-6.25,1.07-8.74,3.09c-3.17,2.57-5.04,6.35-5.16,10.41v72.34c7.81,10.91,20.35,17.39,33.8,17.39
		c18.4,0,34.36-11.81,39.73-29.39c1.02-3.33,4.53-5.21,7.86-4.19c3.33,1.02,5.2,4.54,4.19,7.86c-6.44,21.12-24.63,35.86-46.21,38.03
		c2.43,2.3,5.31,4.13,8.52,5.39c6.62,2.61,13.86,2.49,20.39-0.35c3.19-1.39,6.9,0.08,8.29,3.27c1.39,3.19-0.08,6.9-3.27,8.29
		c-9.61,4.18-20.28,4.36-30.03,0.52c-8.72-3.44-15.78-9.73-20.16-17.9c-8.48-1.7-16.39-5.41-23.1-10.78v136.91
		c0,0.43-0.04,0.85-0.12,1.25C219.51,370.99,195.91,393.54,167.15,393.54z M123.82,353.37c2.43,0,4.66,1.4,5.7,3.63
		c6.81,14.54,21.58,23.94,37.62,23.94c22.9,0,41.53-18.63,41.53-41.53s-18.63-41.53-41.53-41.53c-3.48,0-6.3-2.82-6.3-6.3
		s2.82-6.3,6.3-6.3c16.68,0,31.62,7.58,41.56,19.48v-190.1c0-0.09-0.01-0.18-0.01-0.27c0-0.11,0-0.22,0-0.33
		c-0.1-4.09-1.96-7.9-5.16-10.48c-2.5-2.02-5.52-3.09-8.74-3.09c-3.48,0-6.3-2.82-6.3-6.3s2.82-6.3,6.3-6.3
		c4.92,0,9.75,1.38,13.91,3.94V80.6c0-17.69-13.61-31.54-30.99-31.54c-15.9,0-28.7,11.85-30.43,28.17c-0.34,3.2-3.04,5.64-6.26,5.64
		c-0.1,0-0.2,0-0.3-0.01c-15.87,0.04-29.02,11.87-31.15,27.17c2.8-0.5,5.65-0.75,8.54-0.75c26.67,0,48.37,21.7,48.37,48.37
		c0,3.48-2.82,6.3-6.3,6.3s-6.3-2.82-6.3-6.3c0-19.73-16.05-35.77-35.77-35.77c-4.27,0-8.44,0.74-12.4,2.21
		c-0.1,0.04-0.2,0.08-0.3,0.12c-13.8,5.24-23.08,18.69-23.08,33.45c0,7.62,2.37,14.89,6.85,21.04c1.04,1.42,1.43,3.21,1.09,4.93
		c-0.34,1.72-1.39,3.23-2.88,4.15c-10.7,6.57-17.08,17.98-17.08,30.51c0,8.96,3.33,17.53,9.37,24.13c0.22,0.24,0.41,0.49,0.59,0.75
		c6.72,6.93,16.03,10.89,25.7,10.89c3.48,0,6.3,2.82,6.3,6.3s-2.82,6.3-6.3,6.3c-11.46,0-22.55-4.11-31.23-11.43
		c-4.79,5.03-7.54,11.77-7.54,18.82c0,9.79,5.3,18.89,13.83,23.74c2.56,1.45,3.77,4.49,2.92,7.3c-1.07,3.53-1.61,7.2-1.61,10.9
		c0,20.72,16.86,37.59,37.59,37.59c1.05,0,2.15-0.05,3.35-0.16C123.45,353.38,123.64,353.37,123.82,353.37z"/>
</g>
</svg>
