<?xml version="1.0" encoding="utf-8"?>
<!-- Generator: Adobe Illustrator 24.1.2, SVG Export Plug-In . SVG Version: 6.00 Build 0)  -->
<svg version="1.1" id="Warstwa_3" xmlns="http://www.w3.org/2000/svg" xmlns:xlink="http://www.w3.org/1999/xlink" x="0px" y="0px"
	 viewBox="0 0 430 430" style="enable-background:new 0 0 430 430;" xml:space="preserve">
<style type="text/css">
	.st0{fill:#000000;}
	.st1{fill:#08A385;}
	.st2{fill:none;stroke:#000000;stroke-width:14;stroke-linecap:round;stroke-linejoin:round;stroke-miterlimit:10;}
	.st3{fill:none;stroke:#08A385;stroke-width:12;stroke-linecap:round;stroke-linejoin:round;stroke-miterlimit:10;}
	.st4{fill:#06A385;}
	.st5{fill:none;stroke:#000000;stroke-width:12;stroke-linecap:round;stroke-linejoin:round;stroke-miterlimit:10;}
	.st6{fill:#000000;}
	.st7{fill:#08A284;}
	.st8{fill:#08A688;}
	.st9{fill:#000000;}
</style>
<g>
	<path class="st7" d="M205.45,275.83h-87.49c-3.31,0-6-2.69-6-6s2.69-6,6-6h87.49c3.31,0,6,2.69,6,6S208.77,275.83,205.45,275.83z"
		/>
	<path class="st0" d="M223.24,390.77H100.2c-10.7,0-20.43-5.43-26.05-14.53c-5.62-9.1-6.11-20.24-1.32-29.8l58.11-115.81v-71.79
		c0-3.31,2.69-6,6-6s6,2.69,6,6v73.22c0,0.93-0.22,1.86-0.64,2.69L83.56,351.81c-2.91,5.81-2.61,12.59,0.8,18.12
		s9.34,8.83,15.84,8.83h123.04c6.51,0,12.44-3.3,15.85-8.84c3.41-5.53,3.7-12.3,0.79-18.11l-58.75-117.08
		c-0.42-0.83-0.64-1.76-0.64-2.69v-73.22c0-3.31,2.69-6,6-6s6,2.69,6,6v71.79l58.11,115.81c4.8,9.55,4.32,20.69-1.3,29.79
		C243.69,385.33,233.95,390.77,223.24,390.77z"/>
	<path class="st7" d="M127.92,367.12c-11.64,0-21.11-9.47-21.11-21.11s9.47-21.11,21.11-21.11s21.11,9.47,21.11,21.11
		S139.56,367.12,127.92,367.12z M127.92,336.9c-5.02,0-9.11,4.09-9.11,9.11s4.09,9.11,9.11,9.11c5.02,0,9.11-4.09,9.11-9.11
		S132.95,336.9,127.92,336.9z"/>
	<path class="st7" d="M182.85,334.51c-10.76,0-19.52-8.76-19.52-19.52c0-10.76,8.76-19.52,19.52-19.52
		c10.76,0,19.52,8.76,19.52,19.52C202.37,325.76,193.61,334.51,182.85,334.51z M182.85,307.47c-4.15,0-7.52,3.37-7.52,7.52
		c0,4.15,3.37,7.52,7.52,7.52c4.15,0,7.52-3.37,7.52-7.52C190.37,310.84,187,307.47,182.85,307.47z"/>
	<path class="st7" d="M342.13,326.29h-53.17c-3.31,0-6-2.69-6-6s2.69-6,6-6h53.17c3.31,0,6,2.69,6,6S345.45,326.29,342.13,326.29z"
		/>
	<path class="st0" d="M315.55,389.54c-17.97,0-32.58-14.62-32.58-32.58l0-189.73c0-1.63-1.32-2.95-2.95-2.95h-3.36
		c-3.31,0-6-2.69-6-6s2.69-6,6-6h3.36c8.24,0,14.95,6.71,14.95,14.95l0,189.73c0,11.35,9.23,20.58,20.58,20.58
		s20.58-9.23,20.58-20.59l0-189.73c0-8.24,6.71-14.95,14.95-14.95h3.35c3.31,0,6,2.69,6,6s-2.69,6-6,6h-3.35
		c-1.63,0-2.95,1.32-2.95,2.95l0,189.73C348.14,374.92,333.52,389.54,315.55,389.54z"/>
	<path class="st7" d="M128.04,129.57c-11.21,0-20.33-9.12-20.33-20.33s9.12-20.33,20.33-20.33s20.33,9.12,20.33,20.33
		S139.25,129.57,128.04,129.57z M128.04,100.9c-4.59,0-8.33,3.74-8.33,8.33s3.74,8.33,8.33,8.33c4.6,0,8.33-3.74,8.33-8.33
		S132.64,100.9,128.04,100.9z"/>
	<path class="st7" d="M215.93,105.51c-18.27,0-33.14-14.87-33.14-33.14c0-18.27,14.87-33.14,33.14-33.14
		c18.27,0,33.14,14.87,33.14,33.14C249.06,90.64,234.2,105.51,215.93,105.51z M215.93,51.23c-11.66,0-21.14,9.48-21.14,21.14
		s9.48,21.14,21.14,21.14s21.14-9.48,21.14-21.14S227.58,51.23,215.93,51.23z"/>
	<path class="st7" d="M315.78,131.36c-12.48,0-22.63-10.15-22.63-22.63s10.15-22.63,22.63-22.63s22.63,10.15,22.63,22.63
		S328.26,131.36,315.78,131.36z M315.78,98.09c-5.86,0-10.63,4.77-10.63,10.63c0,5.86,4.77,10.63,10.63,10.63
		c5.86,0,10.63-4.77,10.63-10.63C326.41,102.86,321.64,98.09,315.78,98.09z"/>
</g>
</svg>
