<?xml version="1.0" encoding="utf-8"?>
<!-- Generator: Adobe Illustrator 26.3.1, SVG Export Plug-In . SVG Version: 6.00 Build 0)  -->
<svg version="1.1" id="Warstwa_1" xmlns="http://www.w3.org/2000/svg" xmlns:xlink="http://www.w3.org/1999/xlink" x="0px" y="0px"
	 viewBox="0 0 500 500" style="enable-background:new 0 0 500 500;" xml:space="preserve">
<style type="text/css">
	.st0{fill:#000000;}
	.st1{fill:#000000;}
	.st2{fill:#FFFFFF;}
</style>
<path class="st0" d="M306.44,348.73c-7.09,0-14.23-0.78-21.31-2.36c-2.76-0.62-4.71-3.08-4.69-5.91
	c0.24-29.39,13.58-56.72,36.59-74.99c23-18.26,52.64-25.05,81.34-18.62c2.76,0.62,4.71,3.08,4.69,5.91
	c-0.26,29.39-13.6,56.72-36.6,74.98l0,0C349.14,341.48,328.05,348.73,306.44,348.73z M292.62,335.6
	c23.59,3.87,47.53-2.3,66.37-17.26c18.85-14.96,30.29-36.88,31.88-60.72c-23.58-3.87-47.53,2.29-66.38,17.26
	C305.64,289.83,294.2,311.75,292.62,335.6z M362.73,323.03L362.73,323.03L362.73,323.03z"/>
<path class="st1" d="M250,269.17c-51.08,0-92.65-41.56-92.65-92.65c0-51.08,41.56-92.65,92.65-92.65s92.65,41.56,92.65,92.65
	C342.65,227.61,301.08,269.17,250,269.17z M250,95.88c-44.47,0-80.65,36.18-80.65,80.65c0,44.47,36.18,80.65,80.65,80.65
	s80.65-36.18,80.65-80.65C330.65,132.06,294.47,95.88,250,95.88z"/>
<g>
	<polygon class="st2" points="255.26,171.22 255.26,118.15 212.81,192.45 244.65,192.45 244.65,234.9 287.19,171.22 	"/>
	<path class="st1" d="M244.65,240.9c-0.58,0-1.17-0.08-1.74-0.26c-2.53-0.77-4.26-3.1-4.26-5.74v-36.45h-25.84
		c-2.14,0-4.12-1.14-5.19-2.99c-1.07-1.85-1.08-4.13-0.02-5.99l42.46-74.3c1.35-2.36,4.12-3.52,6.75-2.82
		c2.63,0.7,4.46,3.08,4.46,5.8v47.07h25.92c2.21,0,4.25,1.22,5.29,3.17c1.04,1.95,0.93,4.32-0.3,6.16l-42.54,63.68
		C248.51,239.93,246.62,240.9,244.65,240.9z M223.15,186.45h21.5c3.31,0,6,2.69,6,6v22.67l25.31-37.9h-20.7c-3.31,0-6-2.69-6-6
		v-30.47L223.15,186.45z"/>
</g>
<path class="st0" d="M198.51,348.15c-16.58,0-32.77-5.56-46.06-16.11c-17.65-14.01-27.89-34.99-28.09-57.55
	c-0.02-2.83,1.93-5.29,4.69-5.91c22.02-4.93,44.77,0.28,62.43,14.29c17.66,14.02,27.9,35,28.09,57.56c0.02,2.83-1.93,5.29-4.69,5.91
	C209.43,347.55,203.95,348.15,198.51,348.15z M136.59,279.39c1.5,16.99,9.83,32.54,23.31,43.25s30.52,15.28,47.41,12.89
	c-1.49-16.99-9.82-32.54-23.31-43.25C170.52,281.56,153.48,276.99,136.59,279.39z"/>
<g>
	<path class="st0" d="M250,412.77c-3.31,0-6-2.69-6-6c0-32.46-26.12-55.32-34.13-61.56c-2.62-2.04-3.08-5.81-1.05-8.42
		c2.04-2.62,5.81-3.08,8.42-1.05c34.98,27.23,38.75,58.74,38.75,71.02C256,410.08,253.31,412.77,250,412.77z"/>
	<path class="st0" d="M250,412.77c-3.31,0-6-2.69-6-6c0-12.28,3.78-43.79,38.75-71.02c2.61-2.04,6.38-1.57,8.42,1.05
		c2.04,2.61,1.57,6.38-1.05,8.42c-8,6.23-34.13,29.09-34.13,61.56C256,410.08,253.31,412.77,250,412.77z"/>
</g>
<path class="st0" d="M250,416.12c-3.31,0-6-2.69-6-6v-4.07c0-3.31,2.69-6,6-6s6,2.69,6,6v4.07C256,413.43,253.31,416.12,250,416.12z
	"/>
<path class="st1" d="M410.12,416.12H89.88c-3.31,0-6-2.69-6-6s2.69-6,6-6h320.24c3.31,0,6,2.69,6,6S413.43,416.12,410.12,416.12z"/>
</svg>
