<?xml version="1.0" encoding="utf-8"?>
<!-- Generator: Adobe Illustrator 25.4.1, SVG Export Plug-In . SVG Version: 6.00 Build 0)  -->
<svg version="1.1" id="outline" xmlns="http://www.w3.org/2000/svg" xmlns:xlink="http://www.w3.org/1999/xlink" x="0px" y="0px"
	 viewBox="0 0 500 500" style="enable-background:new 0 0 500 500;" xml:space="preserve">
<style type="text/css">
	.st0{fill:#000000;}
	.st1{fill:#000000;}
	.st2{fill:#FFFFFF;}
	.st3{fill:#000000;}
</style>
<g>
	<path class="st0" d="M182.62,319.51c-0.73,0-1.45-0.13-2.12-0.39c-2.28-0.85-3.9-3.05-3.9-5.62c0-3.31,2.69-6,6-6
		c0.01,0,0.02,0,0.03,0c3.31,0,6,2.69,6,6S185.93,319.51,182.62,319.51z"/>
	<path class="st0" d="M134.36,197.41c-1.58,0-3.17-0.62-4.35-1.86c-1.08-1.14-1.63-2.59-1.65-4.04c-0.01-0.33,0.02-0.66,0.06-0.98
		c3.73-25.22,11.03-50.69,20.56-71.71c11.14-24.07,21.99-35.26,34.17-35.27c12.19,0.01,23.04,11.21,34.16,35.23
		c9.22,20.34,16.38,44.92,20.19,69.25c0.05,0.31,0.07,0.62,0.07,0.93c0,3.31-2.69,6-6,6c-3.05,0-5.57-2.28-5.95-5.22
		c-3.65-23.25-10.48-46.67-19.22-65.96c-11.36-24.54-19.45-28.22-23.25-28.23c-3.79,0-11.88,3.68-23.26,28.27
		c-9.03,19.92-15.98,44.15-19.56,68.22c-0.15,1.39-0.78,2.72-1.83,3.72C137.34,196.86,135.85,197.41,134.36,197.41z"/>
	<path class="st0" d="M183.2,169.06c-6.49,0-11.5-2.21-14.57-4.06c-2.84-1.71-3.75-5.4-2.03-8.24c1.71-2.84,5.4-3.75,8.24-2.03
		c1.76,1.06,4.65,2.33,8.37,2.33c0.01,0,0.02,0,0.03,0c3.68-0.01,6.53-1.25,8.28-2.29c2.84-1.7,6.53-0.77,8.23,2.07
		c1.7,2.84,0.77,6.53-2.07,8.23c-3.04,1.82-8,3.98-14.41,3.99C183.23,169.06,183.22,169.06,183.2,169.06z"/>
	<path class="st0" d="M183.2,210.82c-6.48,0-11.5-2.21-14.57-4.06c-2.84-1.71-3.75-5.4-2.03-8.24c1.71-2.83,5.4-3.75,8.24-2.03
		c1.76,1.06,4.64,2.33,8.37,2.33c0.01,0,0.02,0,0.03,0c3.68-0.01,6.53-1.25,8.28-2.29c2.84-1.7,6.53-0.77,8.23,2.07
		c1.7,2.84,0.77,6.53-2.07,8.23c-3.04,1.82-8,3.98-14.41,3.99C183.23,210.82,183.22,210.82,183.2,210.82z"/>
	<path class="st0" d="M183.2,252.58c-6.49,0-11.5-2.21-14.57-4.06c-2.84-1.71-3.75-5.4-2.03-8.24c1.71-2.83,5.4-3.75,8.24-2.03
		c1.76,1.06,4.65,2.33,8.37,2.33c0.01,0,0.02,0,0.03,0c3.68-0.01,6.53-1.25,8.28-2.29c2.85-1.7,6.53-0.77,8.23,2.08
		c1.7,2.85,0.77,6.53-2.08,8.23c-3.04,1.82-8.01,3.98-14.41,3.99C183.23,252.58,183.22,252.58,183.2,252.58z"/>
</g>
<g>
	<path class="st1" d="M201.31,321.05c-6.33,0-12.95-0.54-19.65-1.62c-2.4-0.39-4.33-2.18-4.89-4.55c-0.56-2.37,0.37-4.83,2.35-6.25
		c12.17-8.71,21.41-19.24,27.46-31.28c1.74-3.45,2.76-6.04,3.12-7c2.36-6.26,4.5-15.38,7.84-41.52c0.32-2.5,0.59-5.03,0.88-7.71
		c1.58-14.61,3.38-31.18,13.34-43.88c10.11-12.89,28.63-20.28,50.81-20.28c0.04,0,0.08,0,0.11,0c2.49,0,4.71,1.54,5.6,3.86
		c0.89,2.32,0.25,4.95-1.6,6.61c-5.63,5.04-10.1,10.81-13.27,17.13c-6.2,12.37-5.49,26.4-4.75,41.25c0.3,5.93,0.61,12.07,0.44,18.09
		c-0.07,2.32-0.15,4.42-0.26,6.43c-0.18,3.31-3,5.86-6.31,5.67c-3.31-0.18-5.85-3-5.67-6.31c0.1-1.91,0.18-3.91,0.25-6.13
		c0.16-5.54-0.13-11.18-0.43-17.14c-0.79-15.75-1.61-32.04,6-47.23c1.55-3.09,3.34-6.06,5.38-8.9c-9.31,1.74-20.04,5.68-26.86,14.36
		c-7.85,10-9.38,24.12-10.85,37.77c-0.28,2.62-0.58,5.33-0.91,7.94c-3.51,27.42-5.78,36.99-8.51,44.24
		c-0.53,1.41-1.71,4.33-3.63,8.15c-4.86,9.67-11.48,18.46-19.74,26.25c5.89,0.22,11.54-0.07,16.71-0.87
		c3.27-0.51,6.34,1.74,6.85,5.01c0.51,3.27-1.74,6.34-5.01,6.85C211.44,320.69,206.47,321.05,201.31,321.05z"/>
	<path class="st1" d="M162.42,321.34c-16.03,0-34.57-3.59-47.7-17.05c-15.34-15.73-18.01-38.92-18.6-59.54
		c-0.17-6.02,0.14-12.15,0.44-18.09c0.75-14.85,1.45-28.88-4.75-41.25c-3.17-6.33-7.63-12.09-13.27-17.13
		c-1.85-1.66-2.49-4.29-1.6-6.61c0.89-2.32,3.11-3.86,5.6-3.86c0.04,0,0.08,0,0.11,0c22.18,0,40.7,7.39,50.81,20.28
		c9.97,12.7,11.76,29.27,13.34,43.88c0.29,2.68,0.57,5.22,0.88,7.71c3.38,26.4,5.42,35.2,7.8,41.5c0.45,1.2,1.46,3.69,3.15,7
		c6.03,11.84,15.24,22.06,27.38,30.39c2.01,1.38,2.99,3.84,2.47,6.22c-0.52,2.38-2.43,4.21-4.83,4.64
		C177.88,320.43,170.46,321.34,162.42,321.34z M97.16,171.13c2.03,2.84,3.83,5.81,5.37,8.9c7.62,15.19,6.8,31.48,6.01,47.23
		c-0.3,5.96-0.58,11.6-0.43,17.15c0.52,18.3,2.73,38.72,15.19,51.5c11.73,12.02,30.19,13.93,44.2,13.26
		c-8.18-7.51-14.74-16.06-19.57-25.54c-1.94-3.81-3.14-6.77-3.68-8.19c-3.15-8.31-5.37-19.89-8.48-44.22
		c-0.33-2.61-0.63-5.32-0.91-7.94c-1.48-13.65-3.01-27.76-10.85-37.76C117.2,176.81,106.47,172.87,97.16,171.13z"/>
	<path class="st1" d="M207.76,349.4h-50.28c-3.31,0-6-2.69-6-6v-28.22c0-3.31,2.69-6,6-6s6,2.69,6,6v22.22h44.28c3.31,0,6,2.69,6,6
		S211.07,349.4,207.76,349.4z"/>
</g>
<g>
	<path class="st1" d="M298.26,416.12c-18.9,0-37.41-8.98-51.39-25.41c-17.9-21.05-23.45-49.35-14.14-72.1
		c12.52-30.59,40.7-54.25,67.96-77.14c20.5-17.21,39.87-33.47,52.92-52.26c1.2-1.73,3.22-2.71,5.31-2.57
		c2.1,0.13,3.97,1.36,4.94,3.23c18.2,35.11,32.29,96.34,20.21,147.78l0,0c-9.78,41.65-34.79,68.25-72.31,76.92
		C307.27,415.61,302.76,416.12,298.26,416.12z M357.4,204.13c-13.57,16.8-31.53,31.88-48.99,46.53
		c-26.14,21.95-53.17,44.64-64.57,72.49c-7.63,18.64-2.85,42.11,12.18,59.78c14.33,16.85,34.16,24.31,53.03,19.95
		c33.23-7.68,54.54-30.55,63.34-67.98C382.83,290.45,372.47,238.12,357.4,204.13z M378.23,336.28L378.23,336.28L378.23,336.28z"/>
	<path class="st0" d="M224.71,411.82c-1.97,0-3.96-0.1-6-0.31c-3.3-0.33-5.7-3.28-5.36-6.58c0.34-3.3,3.29-5.71,6.58-5.36
		c43.46,4.41,71.46-54.91,71.74-55.51c1.39-3.01,4.96-4.31,7.96-2.92c3.01,1.39,4.32,4.95,2.93,7.96
		C301.34,351.76,273.04,411.82,224.71,411.82z"/>
</g>
</svg>
