<?xml version="1.0" encoding="utf-8"?>
<!-- Generator: Adobe Illustrator 24.1.2, SVG Export Plug-In . SVG Version: 6.00 Build 0)  -->
<svg version="1.1" id="Warstwa_3" xmlns="http://www.w3.org/2000/svg" xmlns:xlink="http://www.w3.org/1999/xlink" x="0px" y="0px"
	 viewBox="0 0 430 430" style="enable-background:new 0 0 430 430;" xml:space="preserve">
<style type="text/css">
	.st0{fill:#000000;}
	.st1{fill:#000000;}
	.st2{fill:none;}
	.st3{fill-opacity:0;}
</style>
<g>
	<path class="st0" d="M62.5,388.92c-1.67,0-3.33-0.66-4.57-1.96c-2.39-2.52-2.29-6.51,0.24-8.91l25.5-24.18
		c0.66-0.63,1.45-1.1,2.31-1.39l34.75-11.82c3.29-1.12,6.87,0.64,7.99,3.94c1.12,3.29-0.64,6.87-3.94,7.99l-33.44,11.38l-24.5,23.23
		C65.62,388.35,64.06,388.92,62.5,388.92z M115.5,276.42H44.63c-3.48,0-6.3-2.82-6.3-6.3s2.82-6.3,6.3-6.3h70.88
		c3.48,0,6.3,2.82,6.3,6.3S118.98,276.42,115.5,276.42z M122.75,192.43c-0.7,0-1.41-0.12-2.11-0.36l-34.75-12.32
		c-0.83-0.29-1.59-0.76-2.23-1.37l-25.5-24.18c-2.52-2.39-2.63-6.38-0.24-8.91c2.39-2.52,6.38-2.63,8.91-0.24l24.53,23.26
		l33.49,11.87c3.28,1.16,5,4.76,3.83,8.04C127.77,190.81,125.34,192.43,122.75,192.43z"/>
	<path class="st0" d="M367.5,388.92c-1.56,0-3.12-0.57-4.33-1.73l-24.5-23.23l-33.44-11.38c-3.29-1.12-5.06-4.7-3.94-7.99
		s4.7-5.06,7.99-3.94l34.75,11.82c0.86,0.29,1.65,0.77,2.31,1.39l25.5,24.18c2.52,2.39,2.63,6.38,0.24,8.91
		C370.83,388.27,369.17,388.92,367.5,388.92z M385.38,276.42H314.5c-3.48,0-6.3-2.82-6.3-6.3s2.82-6.3,6.3-6.3h70.88
		c3.48,0,6.3,2.82,6.3,6.3S388.85,276.42,385.38,276.42z M307.25,192.43c-2.59,0-5.02-1.61-5.94-4.2c-1.16-3.28,0.55-6.88,3.83-8.04
		l33.49-11.87l24.53-23.26c2.52-2.39,6.51-2.29,8.91,0.24c2.39,2.52,2.29,6.51-0.24,8.91l-25.5,24.18c-0.64,0.61-1.4,1.07-2.23,1.37
		l-34.75,12.32C308.66,192.31,307.95,192.43,307.25,192.43z"/>
	<path class="st1" d="M256.5,152.92c-0.01,0-0.01,0-0.02,0c-3.48-0.01-6.29-2.84-6.28-6.32l0.15-44.5
		c0.02-6.32-2.42-12.27-6.88-16.74c-4.46-4.47-10.4-6.94-16.72-6.94h-21.5c-13.08,0-23.76,10.64-23.8,23.72l-0.15,42.88
		c-0.01,3.47-2.83,6.28-6.3,6.28c-0.01,0-0.01,0-0.02,0c-3.48-0.01-6.29-2.84-6.28-6.32l0.15-42.88c0.07-20,16.4-36.28,36.4-36.28
		h21.5c9.69,0,18.8,3.78,25.64,10.64c6.84,6.86,10.59,15.98,10.56,25.68l-0.15,44.5C262.79,150.12,259.97,152.92,256.5,152.92z"/>
	<path class="st1" d="M239,390.42h-46c-44.28,0-80.3-36.02-80.3-80.3v-89c0-44.28,36.02-80.3,80.3-80.3h46
		c44.28,0,80.3,36.02,80.3,80.3v89C319.3,354.4,283.28,390.42,239,390.42z M223.3,377.83H239c37.33,0,67.7-30.37,67.7-67.7v-89
		c0-37.33-30.37-67.7-67.7-67.7h-46c-37.33,0-67.7,30.37-67.7,67.7v89c0,37.33,30.37,67.7,67.7,67.7h17.7c0-0.07,0-0.13,0-0.2
		v-193.5c0-3.48,2.82-6.3,6.3-6.3s6.3,2.82,6.3,6.3v193.5C223.3,377.69,223.3,377.76,223.3,377.83z M235.51,77.93
		c-2.05,0-4.07-1-5.28-2.85c-1.91-2.91-1.09-6.81,1.81-8.72l0,0c8.89-5.84,18.75-15.34,18.66-19.33c-0.08-3.48,2.67-6.37,6.15-6.45
		c3.48-0.06,6.37,2.67,6.45,6.15c0.31,12.99-18.56,26.38-24.35,30.17C237.89,77.59,236.69,77.93,235.51,77.93z M196.49,77.93
		c-1.19,0-2.4-0.34-3.47-1.05c-4.11-2.73-24.56-17.05-23.3-31.55c0.3-3.47,3.35-6.03,6.82-5.73c3.47,0.3,6.03,3.36,5.73,6.82
		c-0.4,4.62,8.83,14.05,17.71,19.96c2.9,1.93,3.69,5.83,1.76,8.73C200.53,76.94,198.53,77.93,196.49,77.93z"/>
</g>
</svg>
