<?xml version="1.0" encoding="utf-8"?>
<!-- Generator: Adobe Illustrator 24.1.2, SVG Export Plug-In . SVG Version: 6.00 Build 0)  -->
<svg version="1.1" id="outline" xmlns="http://www.w3.org/2000/svg" xmlns:xlink="http://www.w3.org/1999/xlink" x="0px" y="0px"
	 viewBox="0 0 430 430" style="enable-background:new 0 0 430 430;" xml:space="preserve">
<style type="text/css">
	.st0{fill:#000000;}
	.st1{fill:#000000;}
	.st2{fill:none;stroke:#000000;stroke-width:12;stroke-linecap:round;stroke-linejoin:round;stroke-miterlimit:10;}
	.st3{fill-opacity:0;}
	.st4{fill:#000000;}
</style>
<g>
	<path class="st1" d="M174.97,347.66h-32.6c-3.31,0-6-2.69-6-6V254.3c0-3.31,2.69-6,6-6c3.31,0,6,2.69,6,6v81.36h20.6v-55.24
		c0-3.31,2.69-6,6-6s6,2.69,6,6v61.24C180.97,344.98,178.28,347.66,174.97,347.66z"/>
	<path class="st1" d="M142.37,385.08c-3.31,0-6-2.69-6-6v-37.42c0-3.31,2.69-6,6-6h145.26c3.31,0,6,2.69,6,6v37.28
		c0,3.31-2.69,6-6,6s-6-2.69-6-6v-31.28H148.37v31.42C148.37,382.4,145.68,385.08,142.37,385.08z"/>
	<path class="st1" d="M287.63,347.66h-32.6c-3.31,0-6-2.69-6-6v-60.98c0-3.31,2.69-6,6-6s6,2.69,6,6v54.98h20.6V254.3
		c0-3.31,2.69-6,6-6c3.31,0,6,2.69,6,6v87.36C293.63,344.98,290.94,347.66,287.63,347.66z"/>
	<path class="st0" d="M214.7,401.23c-21.2,0-41.87-4.13-61.42-12.26l-0.12-0.05c-4.02-1.67-8.1-3.01-12.2-4.01
		c-3.37-0.83-6.84-1.46-10.33-1.86l-27.53-3.17c-10.6-1.22-18.59-10.19-18.59-20.86v-27.76c0-36.46,21.83-68.85,55.62-82.52
		c4.2-1.71,8.57-3.09,12.98-4.12c6.63-1.56,13.5-2.36,20.4-2.36h7.94c3.31,0,6,2.69,6,6s-2.69,6-6,6h-7.94
		c-5.98,0-11.92,0.69-17.66,2.04c-3.82,0.89-7.58,2.09-11.21,3.56c-29.24,11.83-48.13,39.86-48.13,71.4v27.76
		c0,4.57,3.42,8.42,7.96,8.94l27.53,3.17c4,0.46,7.97,1.18,11.81,2.13c4.68,1.14,9.36,2.68,13.87,4.55l0.12,0.05
		c18.16,7.56,37.28,11.37,56.89,11.37c19.72,0,38.93-3.85,57.09-11.46c4.66-1.95,9.52-3.52,14.47-4.68
		c3.4-0.79,6.84-1.39,10.23-1.78l29.04-3.36c4.54-0.52,7.97-4.37,7.97-8.94v-27.76c0-31.54-18.89-59.57-48.12-71.4
		c-3.6-1.46-7.32-2.65-11.05-3.52c-5.8-1.38-11.79-2.08-17.83-2.08h-7.93c-3.31,0-6-2.69-6-6s2.69-6,6-6h7.93
		c6.97,0,13.9,0.81,20.58,2.4c4.31,1.01,8.63,2.38,12.81,4.08c33.78,13.67,55.61,46.06,55.61,82.52v27.76
		c0,10.67-7.99,19.64-18.59,20.86l-29.04,3.36c-2.94,0.34-5.93,0.86-8.88,1.54c-4.29,1-8.52,2.37-12.57,4.06
		C256.79,397.07,236.02,401.23,214.7,401.23z"/>
	<path class="st0" d="M215,287.82c-1.54,0-3.07-0.59-4.24-1.76l-33.87-33.87c-1.13-1.13-1.76-2.65-1.76-4.24v-18.93
		c0-3.31,2.69-6,6-6s6,2.69,6,6v16.45L215,273.34l27.88-27.87v-16.46c0-3.31,2.69-6,6-6s6,2.69,6,6v18.94
		c0,1.59-0.63,3.12-1.76,4.24l-33.88,33.87C218.07,287.24,216.54,287.82,215,287.82z"/>
	<path class="st0" d="M270.65,104.26c-2.19,0-4.29-1.2-5.35-3.28c-0.04-0.09-0.09-0.18-0.13-0.28c-1.43-2.94-0.25-6.49,2.67-7.98
		c2.95-1.5,6.57-0.32,8.07,2.63c0.04,0.09,0.09,0.18,0.13,0.28c1.43,2.94,0.25,6.49-2.67,7.98
		C272.49,104.05,271.56,104.26,270.65,104.26z"/>
	<path class="st0" d="M159.35,104.26c-0.91,0-1.84-0.21-2.71-0.65c-2.92-1.49-4.11-5.04-2.67-7.98c0.05-0.1,0.09-0.19,0.13-0.28
		c1.5-2.95,5.11-4.13,8.07-2.63c2.92,1.49,4.11,5.04,2.67,7.98c-0.05,0.1-0.09,0.19-0.13,0.28
		C163.65,103.06,161.54,104.26,159.35,104.26z"/>
	<path class="st0" d="M215,245.57c-13.4,0-26.3-4.02-37.28-11.62c-2.96-2.05-5.75-4.34-8.29-6.8c-12.3-11.88-19.4-27.83-19.99-44.92
		l-1.87-53.86c-0.11-3.31,2.48-6.09,5.79-6.2c3.29-0.12,6.09,2.48,6.2,5.79l1.87,53.86c0.48,13.96,6.28,26.99,16.33,36.7
		c2.08,2.01,4.37,3.88,6.79,5.57c8.96,6.2,19.5,9.48,30.45,9.48c10.95,0,21.49-3.28,30.47-9.5c14.09-9.75,22.51-25.15,23.11-42.25
		l1.87-53.86c0.12-3.31,2.91-5.92,6.2-5.79c3.31,0.11,5.9,2.89,5.79,6.2l-1.87,53.86c-0.72,20.63-11.29,39.96-28.27,51.71
		C241.3,241.55,228.4,245.57,215,245.57z"/>
	<path class="st1" d="M339.13,134.17H90.88c-3.31,0-6-2.69-6-6v-3.28c0-18.09,14.72-32.81,32.81-32.81h194.63
		c18.09,0,32.81,14.72,32.81,32.81v3.28C345.13,131.48,342.44,134.17,339.13,134.17z M97.05,122.17h235.9
		c-1.33-10.2-10.08-18.1-20.64-18.1H117.69C107.13,104.07,98.39,111.97,97.05,122.17z"/>
	<path class="st1" d="M283.56,104.26H146.44c-2.07,0-3.99-1.07-5.09-2.82c-1.1-1.75-1.21-3.95-0.31-5.81l22.13-45.42
		c6.44-13.23,18.76-21.44,32.14-21.44h39.37c13.38,0,25.69,8.22,32.14,21.44l22.13,45.42c0.91,1.86,0.79,4.05-0.31,5.81
		C287.55,103.19,285.63,104.26,283.56,104.26z M156.04,92.26h117.93l-17.93-36.79c-4.42-9.07-12.6-14.7-21.35-14.7h-39.37
		c-8.75,0-16.93,5.63-21.35,14.7L156.04,92.26z"/>
	<path class="st0" d="M194.25,314.58c-0.06,0-0.12,0-0.18,0c-1.92-0.06-3.69-1.03-4.77-2.61l-39.8-58.12
		c-1.87-2.73-1.17-6.47,1.56-8.34c2.73-1.87,6.47-1.17,8.34,1.56l35.15,51.33l15.71-20.25c2.03-2.62,5.8-3.1,8.42-1.06
		c2.62,2.03,3.09,5.8,1.06,8.42l-20.75,26.75C197.85,313.72,196.1,314.58,194.25,314.58z"/>
	<path class="st0" d="M235.94,314.58c-1.85,0-3.6-0.85-4.74-2.32l-20.75-26.75c-2.03-2.62-1.56-6.39,1.06-8.42
		c2.62-2.03,6.39-1.55,8.42,1.06l15.71,20.25l35.11-51.29c1.87-2.73,5.61-3.43,8.34-1.56c2.73,1.87,3.43,5.61,1.56,8.34
		l-39.76,58.08c-1.08,1.58-2.86,2.55-4.77,2.61C236.06,314.58,236,314.58,235.94,314.58z"/>
</g>
</svg>
