<?xml version="1.0" encoding="utf-8"?>
<!-- Generator: Adobe Illustrator 24.1.2, SVG Export Plug-In . SVG Version: 6.00 Build 0)  -->
<svg version="1.1" id="Warstwa_1" xmlns="http://www.w3.org/2000/svg" xmlns:xlink="http://www.w3.org/1999/xlink" x="0px" y="0px"
	 viewBox="0 0 430 430" style="enable-background:new 0 0 430 430;" xml:space="preserve">
<style type="text/css">
	.st0{fill:#000000;}
	.st1{fill:#000000;}
	.st2{fill:#000000;}
	.st3{fill:none;}
	.st4{fill:#08A385;}
	.st5{fill:none;stroke:#000000;stroke-width:12;stroke-linecap:round;stroke-linejoin:round;stroke-miterlimit:10;}
</style>
<g>
	<path class="st0" d="M381.12,213.65c0-0.11-0.01-0.22-0.02-0.33c-0.01-0.09-0.01-0.18-0.02-0.27c-0.01-0.09-0.03-0.17-0.04-0.26
		c-0.02-0.12-0.03-0.23-0.06-0.34c-0.01-0.06-0.03-0.13-0.05-0.19c-0.03-0.13-0.07-0.27-0.11-0.4c0-0.01-0.01-0.03-0.01-0.04
		c-0.02-0.05-0.04-0.09-0.05-0.14c-0.05-0.13-0.09-0.26-0.15-0.38c-0.03-0.07-0.07-0.14-0.1-0.21c-0.05-0.11-0.1-0.21-0.16-0.31
		c-0.04-0.08-0.09-0.16-0.14-0.24c-0.05-0.09-0.11-0.18-0.17-0.26c-0.06-0.08-0.12-0.16-0.18-0.24c-0.06-0.07-0.11-0.15-0.18-0.22
		c-0.07-0.08-0.14-0.16-0.21-0.23c-0.05-0.05-0.09-0.1-0.14-0.15c-0.02-0.02-0.04-0.03-0.06-0.05c-0.07-0.07-0.14-0.13-0.22-0.2
		c-0.07-0.07-0.15-0.13-0.23-0.19c-0.07-0.05-0.14-0.1-0.21-0.16c-0.09-0.06-0.18-0.13-0.27-0.19c-0.07-0.04-0.13-0.08-0.2-0.12
		c-0.1-0.06-0.2-0.12-0.3-0.17c-0.07-0.03-0.14-0.06-0.2-0.1c-0.11-0.05-0.21-0.1-0.32-0.14c-0.07-0.03-0.15-0.05-0.22-0.08
		c-0.11-0.04-0.21-0.08-0.32-0.11c-0.08-0.02-0.17-0.04-0.26-0.06c-0.1-0.02-0.2-0.05-0.3-0.07c-0.1-0.02-0.2-0.03-0.3-0.04
		c-0.09-0.01-0.19-0.03-0.28-0.04c-0.11-0.01-0.21-0.01-0.32-0.02c-0.08,0-0.15-0.01-0.23-0.01c-0.01,0-0.02,0-0.03,0
		c-0.01,0-0.04,0-0.06,0c0,0,0,0,0,0c-2.34,0.02-81.49,1.01-161.99,28.84c-3.13,1.08-4.79,4.5-3.71,7.63
		c1.08,3.13,4.5,4.79,7.63,3.71c45.87-15.86,91.3-22.8,121.62-25.83c-40.03,19.37-64.3,42.4-65.56,43.62
		c-2.39,2.3-2.46,6.09-0.17,8.48c1.18,1.23,2.75,1.84,4.33,1.84c1.5,0,2.99-0.56,4.16-1.67c0.35-0.34,34.47-32.73,87.79-52.18v38.4
		c-33.92,20.12-50.03,37.13-50.72,37.87c-2.26,2.42-2.14,6.22,0.28,8.48c1.16,1.08,2.63,1.62,4.1,1.62c1.6,0,3.2-0.64,4.38-1.9
		c0.15-0.16,13.65-14.43,41.95-32.03v100.52c0,3.31,2.69,6,6,6s6-2.69,6-6v-161.4C381.12,213.67,381.12,213.66,381.12,213.65z"/>
	<path class="st1" d="M380.66,372.78c-15.67-37.61-42.7-69.72-80.34-95.42c-29.86-20.39-66.44-36.81-108.7-48.79
		c-13.25-3.76-26.24-6.83-38.63-9.36c-0.26-0.07-0.53-0.13-0.8-0.16c-52.85-10.7-94.5-11.33-97.14-11.36c-0.01,0-0.02,0-0.03,0
		c-0.05,0-0.1,0-0.11,0c-0.06,0-0.11,0.01-0.17,0.01c-0.12,0-0.24,0.01-0.36,0.02c-0.1,0.01-0.19,0.02-0.28,0.03
		c-0.09,0.01-0.19,0.02-0.28,0.04c-0.11,0.02-0.22,0.05-0.32,0.07c-0.08,0.02-0.16,0.04-0.23,0.06c-0.11,0.03-0.22,0.07-0.33,0.11
		c-0.07,0.03-0.15,0.05-0.22,0.08c-0.1,0.04-0.21,0.09-0.31,0.13c-0.08,0.03-0.15,0.07-0.23,0.11c-0.09,0.05-0.18,0.1-0.27,0.15
		c-0.08,0.05-0.17,0.1-0.25,0.15c-0.07,0.05-0.15,0.1-0.22,0.15c-0.09,0.06-0.18,0.13-0.27,0.2c-0.06,0.05-0.12,0.1-0.17,0.15
		c-0.09,0.08-0.19,0.16-0.28,0.25c-0.02,0.02-0.04,0.04-0.06,0.05c-0.03,0.03-0.06,0.06-0.09,0.09c-0.09,0.09-0.17,0.18-0.26,0.28
		c-0.05,0.06-0.1,0.12-0.14,0.18c-0.07,0.09-0.14,0.19-0.21,0.28c-0.05,0.07-0.1,0.15-0.14,0.22c-0.06,0.09-0.11,0.18-0.16,0.27
		c-0.05,0.09-0.09,0.18-0.14,0.27c-0.03,0.06-0.06,0.11-0.09,0.17c-0.01,0.03-0.02,0.06-0.04,0.09c-0.04,0.09-0.08,0.19-0.11,0.29
		c-0.04,0.09-0.07,0.19-0.1,0.28c-0.03,0.08-0.05,0.17-0.07,0.26c-0.03,0.11-0.06,0.22-0.08,0.33c-0.02,0.07-0.03,0.15-0.04,0.22
		c-0.02,0.12-0.04,0.25-0.06,0.37c-0.01,0.07-0.01,0.13-0.02,0.2c-0.01,0.13-0.02,0.26-0.02,0.39c0,0.02,0,0.04,0,0.06v161.4
		c0,3.31,2.69,6,6,6h58.59c0.21,0.02,0.42,0.04,0.63,0.04c0.12,0,0.25,0,0.37-0.01c0.07,0,0.14-0.02,0.21-0.02h81.83
		c0.27,0.04,0.54,0.07,0.82,0.07c0.29,0,0.58-0.03,0.87-0.07h91.45c0,0,0.01,0,0.01,0c0.01,0,0.01,0,0.02,0h85.44
		c2.01,0,3.88-1,4.99-2.67S381.43,374.63,380.66,372.78z M201.99,369.08c-2.59-9.37-9.77-31.32-25.8-57.4
		c-16.54-26.91-45.62-62.7-93.6-90.47c16.99,1.43,40.5,4.2,66.9,9.53c57.12,27.89,90.56,65.9,108.57,92.93
		c12.99,19.5,20.05,36.24,23.36,45.41H201.99z M119.31,369.08c-2.59-13.78-13.49-50.39-58.43-87.3v-58.59
		c55.13,27.28,87.32,66,104.82,94.34c13.71,22.21,20.71,41.53,23.78,51.56H119.31z M60.88,297.62
		c33.35,30.16,43.26,59.02,46.12,71.47H60.88V297.62z M294.13,369.08c-2.75-8.48-10.11-27.98-25.76-51.58
		c-14.62-22.05-38.96-51.02-77.04-76.53c61.42,17.86,139.43,54.42,174.54,128.11H294.13z"/>
	<g>
		<path class="st0" d="M215,206.96c-29.63,0-53.73-24.1-53.73-53.73S185.37,99.5,215,99.5s53.73,24.1,53.73,53.73
			S244.63,206.96,215,206.96z M215,111.5c-23.01,0-41.73,18.72-41.73,41.73s18.72,41.73,41.73,41.73s41.73-18.72,41.73-41.73
			S238.01,111.5,215,111.5z"/>
		<path class="st0" d="M215,84.49c-3.31,0-6-2.69-6-6V54.85c0-3.31,2.69-6,6-6s6,2.69,6,6v23.65C221,81.81,218.31,84.49,215,84.49z"
			/>
		<path class="st0" d="M162.15,106.38c-1.54,0-3.07-0.59-4.24-1.76l-28.32-28.32c-2.34-2.34-2.34-6.14,0-8.48
			c2.34-2.34,6.14-2.34,8.49,0l28.32,28.32c2.34,2.34,2.34,6.14,0,8.48C165.22,105.8,163.69,106.38,162.15,106.38z"/>
		<path class="st0" d="M140.26,159.23h-23.65c-3.31,0-6-2.69-6-6s2.69-6,6-6h23.65c3.31,0,6,2.69,6,6S143.58,159.23,140.26,159.23z"
			/>
		<path class="st0" d="M313.39,159.23h-23.65c-3.31,0-6-2.69-6-6s2.69-6,6-6h23.65c3.31,0,6,2.69,6,6S316.7,159.23,313.39,159.23z"
			/>
		<path class="st0" d="M267.85,106.38c-1.54,0-3.07-0.59-4.24-1.76c-2.34-2.34-2.34-6.14,0-8.48l28.32-28.32
			c2.34-2.34,6.14-2.34,8.49,0c2.34,2.34,2.34,6.14,0,8.48l-28.32,28.32C270.92,105.8,269.38,106.38,267.85,106.38z"/>
	</g>
</g>
</svg>
