<?xml version="1.0" encoding="utf-8"?>
<!-- Generator: Adobe Illustrator 24.1.2, SVG Export Plug-In . SVG Version: 6.00 Build 0)  -->
<svg version="1.1" id="Warstwa_3" xmlns="http://www.w3.org/2000/svg" xmlns:xlink="http://www.w3.org/1999/xlink" x="0px" y="0px"
	 viewBox="0 0 430 430" style="enable-background:new 0 0 430 430;" xml:space="preserve">
<style type="text/css">
	.st0{fill:#000000;}
	.st1{fill:#000000;}
	.st2{fill:#000000;}
	.st3{fill:none;}
	.st4{fill:none;stroke:#000000;stroke-width:12;stroke-linecap:round;stroke-linejoin:round;stroke-miterlimit:10;}
	.st5{fill:none;stroke:#000000;stroke-width:12;stroke-linecap:round;stroke-linejoin:round;stroke-miterlimit:10;}
	.st6{fill:none;stroke:#000000;stroke-width:16;stroke-linecap:round;stroke-linejoin:round;stroke-miterlimit:10;}
</style>
<g>
	<path class="st0" d="M314.73,252.25H115.27c-3.31,0-6-2.69-6-6V183.2c0-19.38,15.76-35.14,35.14-35.14h10.34c3.31,0,6,2.69,6,6
		s-2.69,6-6,6h-10.34c-12.76,0-23.14,10.38-23.14,23.14v57.05h187.46V183.2c0-12.76-10.38-23.14-23.14-23.14h-10.34
		c-3.31,0-6-2.69-6-6s2.69-6,6-6h10.34c19.38,0,35.14,15.76,35.14,35.14v63.05C320.73,249.56,318.04,252.25,314.73,252.25z"/>
	<path class="st0" d="M215,222.49c-3.31,0-6-2.69-6-6v-39.86c0-3.31,2.69-6,6-6s6,2.69,6,6v39.86
		C221,219.8,218.31,222.49,215,222.49z"/>
	<path class="st0" d="M227.43,182.63h-24.86c-3.31,0-6-2.69-6-6s2.69-6,6-6h24.86c3.31,0,6,2.69,6,6S230.74,182.63,227.43,182.63z"
		/>
	<g>
		<path class="st1" d="M381.11,285.91c0-0.1-0.01-0.2-0.02-0.3c-0.01-0.14-0.03-0.29-0.05-0.43c0-0.03-0.01-0.06-0.01-0.09
			c-0.08-0.52-0.23-1.02-0.44-1.48l-15.13-39.54c0-0.01-0.01-0.02-0.02-0.04c-0.05-0.11-0.1-0.22-0.15-0.33
			c-0.04-0.09-0.09-0.19-0.13-0.28c-0.02-0.03-0.03-0.06-0.05-0.08c-1.17-2.14-3.51-3.33-5.88-3.08h-29.81c-0.02,0-0.04,0-0.06,0
			s-0.04,0-0.06,0h-45.63c-0.02,0-0.04,0-0.06,0s-0.04,0-0.06,0h-2.31V114.92c0-0.07-0.01-0.14-0.01-0.21
			c0-0.11-0.01-0.23-0.02-0.34c-0.01-0.12-0.03-0.24-0.05-0.36c-0.01-0.06-0.01-0.13-0.03-0.19l-0.02-0.11c0,0,0-0.01,0-0.01
			l-5.59-30.16h30.98c2,0,3.39,1.31,3.39,3.18v6.03c0,3.31,2.69,6,6,6s6-2.69,6-6v-6.03c0-8.51-6.76-15.18-15.39-15.18h-38.19h-0.07
			H161.73h-0.05h-38.2c-8.63,0-15.39,6.67-15.39,15.18v0.69c-7.22,1.99-12.55,8.6-12.55,16.45v19.25c0,9.42,7.66,17.07,17.07,17.07
			h3.13c9.42,0,17.07-7.66,17.07-17.07v-19.25c0-7.91-5.42-14.56-12.73-16.49v-0.64c0-1.87,1.4-3.18,3.39-3.18h30.99l-5.59,30.16
			c0,0,0,0.01,0,0.01l-0.02,0.11c-0.01,0.06-0.02,0.13-0.03,0.19c-0.02,0.12-0.04,0.24-0.05,0.36c-0.01,0.11-0.01,0.23-0.02,0.34
			c0,0.07-0.01,0.14-0.01,0.21v125.34h-2.32c-0.02,0-0.04,0-0.06,0s-0.04,0-0.06,0h-45.63c-0.02,0-0.04,0-0.06,0s-0.04,0-0.06,0
			H71.08c-2.69-0.43-5.39,1.03-6.47,3.62c-0.01,0.02-0.02,0.05-0.03,0.07c-0.01,0.03-0.03,0.06-0.04,0.09l-15.26,39.88
			c-0.02,0.04-0.03,0.09-0.04,0.13c-0.04,0.12-0.08,0.24-0.12,0.37c-0.02,0.08-0.04,0.16-0.06,0.24c-0.03,0.11-0.05,0.21-0.07,0.32
			c-0.02,0.1-0.03,0.21-0.05,0.31c-0.01,0.08-0.02,0.17-0.03,0.26c-0.01,0.13-0.02,0.25-0.02,0.38c0,0.05-0.01,0.09-0.01,0.14v39.81
			c0,0,0,0,0,0c0,0.45,0.06,0.91,0.16,1.36c0.08,0.35,0.19,0.68,0.32,1c0,0,0,0.01,0,0.01l11.44,26.57
			c0.98,2.27,3.19,3.63,5.51,3.63c0.79,0,1.6-0.16,2.37-0.49c3.04-1.31,4.45-4.84,3.14-7.88L64,331.88H366l-7.83,18.2
			c-1.31,3.04,0.1,6.57,3.14,7.88c0.77,0.33,1.58,0.49,2.37,0.49c2.32,0,4.54-1.36,5.51-3.63l11.44-26.57c0,0,0-0.01,0-0.01
			c0.14-0.32,0.24-0.65,0.32-1c0.11-0.45,0.16-0.91,0.16-1.36c0,0,0,0,0,0v-39.81C381.12,286.01,381.11,285.96,381.11,285.91z
			 M120.8,103.86v19.25c0,2.8-2.28,5.07-5.07,5.07h-3.13c-2.8,0-5.07-2.28-5.07-5.07v-19.25c0-2.8,2.28-5.07,5.07-5.07h3.13
			C118.53,98.79,120.8,101.07,120.8,103.86z M335.37,252.26h20.37l10.64,27.81h-31.01V252.26z M289.62,252.26h33.75v27.81h-33.75
			V252.26z M166.66,83.55h96.67l4.7,25.37H161.96L166.66,83.55z M160.75,120.92h108.5v89.57h-108.5V120.92z M277.62,252.26v27.81
			h-33.75v-27.81H277.62z M160.75,222.49h108.5v17.77h-31.32c-0.02,0-0.04,0-0.06,0s-0.04,0-0.06,0h-45.63c-0.02,0-0.04,0-0.06,0
			s-0.04,0-0.06,0h-31.32V222.49z M231.87,252.26v27.81h-33.75v-27.81H231.87z M152.38,252.26h33.75v27.81h-33.75V252.26z
			 M106.63,252.26h33.75v27.81h-33.75V252.26z M74.24,252.26h20.39v27.81H63.6L74.24,252.26z M369.12,319.88H60.88v-27.81h308.24
			V319.88z"/>
		<path class="st1" d="M314.26,140.19h3.13c9.42,0,17.08-7.66,17.08-17.07v-19.25c0-9.42-7.66-17.07-17.08-17.07h-3.13
			c-9.42,0-17.08,7.66-17.08,17.07v19.25C297.18,132.53,304.84,140.19,314.26,140.19z M309.18,103.86c0-2.8,2.28-5.07,5.08-5.07
			h3.13c2.8,0,5.08,2.28,5.08,5.07v19.25c0,2.8-2.28,5.07-5.08,5.07h-3.13c-2.8,0-5.08-2.28-5.08-5.07V103.86z"/>
	</g>
</g>
</svg>
