<?xml version="1.0" encoding="utf-8"?>
<!-- Generator: Adobe Illustrator 25.0.1, SVG Export Plug-In . SVG Version: 6.00 Build 0)  -->
<svg version="1.1" id="Layer_1" xmlns="http://www.w3.org/2000/svg" xmlns:xlink="http://www.w3.org/1999/xlink" x="0px" y="0px"
	 viewBox="0 0 430 430" style="enable-background:new 0 0 430 430;" xml:space="preserve">
<style type="text/css">
	.st0{fill:#000000;}
	.st1{fill:#000000;}
</style>
<g>
	<path class="st0" d="M147.6,155.1c-3.3,0-6-2.7-6-6v-47.5c0-3.3,2.7-6,6-6s6,2.7,6,6v47.5C153.6,152.4,151,155.1,147.6,155.1z"/>
	<path class="st0" d="M215,105.8c-3.3,0-6-2.7-6-6V60.9c0-3.3,2.7-6,6-6s6,2.7,6,6v38.9C221,103.1,218.3,105.8,215,105.8z"/>
	<path class="st0" d="M282.4,155.1c-3.3,0-6-2.7-6-6v-47.5c0-3.3,2.7-6,6-6s6,2.7,6,6v47.5C288.4,152.4,285.7,155.1,282.4,155.1z"/>
	<path class="st1" d="M215,192.4c-1,0-1.9-0.2-2.8-0.7c-0.1-0.1-0.3-0.2-0.4-0.2c-0.1,0-0.2-0.1-0.3-0.2c-2.8-1.8-3.5-5.6-1.6-8.3
		c0.9-1.4,2.3-2.2,3.8-2.5c2.5-0.7,5.2,0.3,6.6,2.6c1.8,2.8,0.9,6.5-1.9,8.3c-0.1,0.1-0.3,0.2-0.4,0.2
		C217,192.1,216,192.4,215,192.4z M218.1,191.5C218.1,191.5,218.1,191.5,218.1,191.5C218.1,191.5,218.1,191.5,218.1,191.5z
		 M218.1,191.5C218.1,191.5,218.1,191.5,218.1,191.5C218.1,191.5,218.1,191.5,218.1,191.5z M218.2,191.5
		C218.2,191.5,218.2,191.5,218.2,191.5C218.2,191.5,218.2,191.5,218.2,191.5z"/>
	<path class="st1" d="M236.2,162.8c-0.5,0-1-0.1-1.4-0.2c-3.2-0.8-5.2-4-4.4-7.3c1-4,1.5-8.1,1.5-12.3c0-15.2-6.5-29-16.9-36.2
		c-10.3,7.2-16.9,21.1-16.9,36.2c0,4.2,0.5,8.2,1.4,12.2c0.8,3.2-1.2,6.5-4.4,7.3c-3.2,0.8-6.5-1.2-7.3-4.4c-1.2-4.8-1.8-9.9-1.8-15
		c0-20.9,10.2-39.9,26-48.6c1.7-0.9,3.9-1,5.6-0.1c0.1,0,0.1,0.1,0.2,0.1c15.8,8.6,26,27.7,26,48.6c0,5.1-0.6,10.2-1.8,15.1
		C241.4,160.9,238.9,162.8,236.2,162.8z"/>
	<path class="st1" d="M214.8,223c-2.1,0-4-1.1-5.1-2.8c-0.7-1.2-1-2.5-0.9-3.9c0-1.6-0.1-10-0.1-14.5c0-2.8-0.1-4.9-0.1-5.4
		c0-2.1,0.1-5,0.3-7.8l0.1-1.1c0.1-0.7,0.1-1.3,0.2-1.9c0.7-5.6,2-10.4,4.2-14.6c3.7-7.2,10.1-13.5,19.7-19.3
		c1.3-0.8,2.6-1.6,4.4-2.5c14.8-8,31.3-10.1,46.5-5.8c2.5,0.7,4.2,2.9,4.4,5.4c0.4,6.2-0.2,12.4-1.6,18.3c-1.5,6.1-3.9,12-7.3,17.4
		c-1.7,2.8-5.4,3.7-8.3,2c-2.8-1.7-3.7-5.4-2-8.3c2.7-4.4,4.7-9.1,5.9-14c0.8-3.4,1.3-6.8,1.4-10.3c-11-2-22.6,0-33.2,5.8
		c-1.6,0.9-2.8,1.6-3.9,2.2c-7.7,4.6-12.5,9.2-15.2,14.5c-1.5,2.9-2.4,6.4-3,10.6c-0.1,0.5-0.1,1-0.2,1.5l-0.1,1.1
		c-0.2,2.5-0.2,5-0.3,7c0,0.5,0,2.5,0.1,5.2c0.1,5.9,0.1,9.6,0.1,11.9c0.4,0.7,0.7,1.4,0.9,2.2c0.6,3.3-1.6,6.4-4.8,7
		c-0.3,0.1-0.6,0.1-0.9,0.1l0,0c-0.1,0-0.2,0-0.4,0c0,0-0.1,0-0.1,0C215.3,223,215.1,223,214.8,223z M214.9,223
		C214.9,223,214.9,223,214.9,223C214.9,223,214.9,223,214.9,223z M214.9,223L214.9,223L214.9,223z"/>
	<path class="st1" d="M215.2,223c-0.2,0-0.5,0-0.7,0c-0.1,0-0.3,0-0.4-0.1c-0.3,0-0.6-0.1-1-0.1c-3.3-0.6-5.4-3.7-4.8-7
		c0.2-0.8,0.5-1.6,0.9-2.2c0-2.3,0.1-5.9,0.1-11.9c0-2.6,0.1-4.7,0.1-5.2c0-3.3-0.1-5.7-0.3-8c0,0,0-0.1,0-0.1c0-0.2,0-0.3,0-0.5
		c0-0.1,0-0.2,0-0.3l0-0.3c0-0.1,0-0.2,0-0.3c-0.5-4.2-1.5-7.7-3-10.7c-2.7-5.2-7.7-9.9-15.3-14.5c-1.1-0.7-2.4-1.4-3.8-2.2
		c-10.6-5.7-22.3-7.7-33.2-5.8c0.1,3.5,0.5,7,1.4,10.3c1.2,4.8,3.1,9.5,5.8,13.9c1.7,2.8,0.8,6.5-2,8.3c-2.8,1.7-6.5,0.8-8.3-2
		c-3.3-5.4-5.8-11.3-7.2-17.3c-1.4-5.9-2-12.1-1.6-18.3c0.2-2.5,1.9-4.7,4.4-5.4c15.2-4.3,31.7-2.2,46.5,5.8c1.6,0.9,3,1.7,4.3,2.4
		c9.6,5.8,16.1,12.1,19.8,19.3c2.1,4.2,3.5,9,4.2,14.6c0,0.3,0.1,0.6,0.1,0.9c0,0.4,0.1,0.7,0.1,1.1c0.2,2.6,0.4,5.4,0.4,9
		c0,0.5,0,2.7-0.1,5.4c-0.1,4.5-0.2,12.9-0.1,14.5c0.2,1.5-0.2,3-1.2,4.3C218.8,222.1,217.1,223,215.2,223z M215,223
		C215,223,215,223,215,223C215,223,215,223,215,223z M215,223L215,223z"/>
	<path class="st1" d="M215,256.8c-3.2,0-5.8-2.5-6-5.7c0-0.4,0-0.7,0-1c0-0.5,0-2,0-6.7l-0.1-5.7c-0.1-3.6-0.1-6.8-0.1-7.4
		c0-1.7,0-3.3,0.1-4.8c0-0.5,0-1,0.1-1.4c0-0.1,0-0.1,0-0.1c0.2-3.1,0.5-5.7,1-8.1c0.8-4.1,2-7.7,3.6-11
		c5.5-10.7,15.7-17.2,24.1-21.8c11.8-6.4,24.7-9,37.3-7.6c3.1,0.3,6.1,0.9,9.1,1.8c2.5,0.7,4.2,2.9,4.4,5.4
		c0.4,6.2-0.1,12.4-1.6,18.3c-1.5,6.2-4,12.1-7.4,17.6c-1.7,2.8-5.4,3.7-8.3,1.9c-2.8-1.7-3.7-5.4-1.9-8.3c2.8-4.4,4.8-9.2,6-14.2
		c0.8-3.4,1.3-6.8,1.4-10.3c-1-0.2-2-0.3-2.9-0.4c-10.1-1.1-20.8,1.1-30.3,6.2c-6.8,3.7-15.2,8.9-19.1,16.7c-1.1,2.2-2,4.8-2.5,7.8
		c-0.4,1.9-0.6,4-0.8,6.5c0,0.1,0,0.1,0,0.2c0,0.4,0,0.8-0.1,1.2c-0.1,1.4-0.1,2.9-0.1,4.4c0,0.6,0,3.6,0.1,7.2l0.1,5.8
		c0,2,0,3.5,0,4.6c0.3,0.5,0.5,1.2,0.6,1.8c0.5,3.3-1.7,6.4-4.9,6.9c-0.3,0-0.5,0.1-0.8,0.1C215.6,256.8,215.3,256.8,215,256.8z
		 M214.4,244.8c-2.6,0.3-4.8,2.2-5.3,4.7C209.6,247.1,211.7,245.2,214.4,244.8C214.3,244.8,214.4,244.8,214.4,244.8z"/>
	<path class="st1" d="M215,256.7c-0.3,0-0.5,0-0.8-0.1c-0.3,0-0.5-0.1-0.8-0.1c-3.3-0.5-5.5-3.6-5-6.9c0.1-0.6,0.3-1.2,0.5-1.7
		c0-1.2,0-2.7,0-4.7l0,0c0-2.7,0.1-5.6,0.1-8c0-2.5,0.1-4.5,0.1-5c0-1.6,0-3.6-0.2-5.7c0-0.3,0-0.6-0.1-1c-0.1-2.1-0.4-3.9-0.7-5.7
		c-0.6-3-1.4-5.6-2.5-7.9c-4-7.7-12.3-13-19.1-16.7c-9.5-5.1-20.2-7.3-30.3-6.2c-1,0.1-2,0.2-2.9,0.4c0.1,3.5,0.5,7,1.4,10.3
		c1.2,5,3.2,9.8,6,14.3c1.8,2.8,0.9,6.5-1.9,8.3c-2.8,1.8-6.5,0.9-8.3-1.9c-3.5-5.6-6-11.6-7.5-17.8c-1.4-5.9-2-12.1-1.6-18.3
		c0.2-2.5,1.9-4.7,4.4-5.4c3-0.8,6-1.4,9.1-1.8c12.5-1.4,25.7,1.3,37.4,7.6c8.4,4.5,18.6,11.1,24.1,21.8c1.7,3.3,2.9,7,3.7,11.2
		c0.4,2.2,0.7,4.5,0.8,7c0,0.3,0.1,0.8,0.1,1.2c0.1,2.3,0.2,4.5,0.2,6.2c0,0.5,0,2.2-0.1,5.3c0,2.4-0.1,5.3-0.1,7.9v0.1
		c-0.1,4.2,0,6.1,0,6.7c0,0.2,0,0.5,0,0.7C221,254,218.3,256.7,215,256.7z M220.7,248.9C220.7,248.9,220.7,248.9,220.7,248.9
		C220.7,248.9,220.7,248.9,220.7,248.9z M220.7,248.9C220.7,248.9,220.7,248.9,220.7,248.9C220.7,248.9,220.7,248.9,220.7,248.9z
		 M220.7,248.9C220.7,248.9,220.7,248.9,220.7,248.9C220.7,248.9,220.7,248.9,220.7,248.9z"/>
	<path class="st1" d="M214.9,375.1c-3.3,0-6-2.7-6-6V186.3c0-3.3,2.7-6,6-6c3.3,0,6,2.7,6,6v182.7
		C220.9,372.4,218.2,375.1,214.9,375.1z"/>
	<path class="st1" d="M214.8,290.8c-3,0-5.6-2.2-5.9-5.3c-0.1-0.5-0.1-1,0-1.4c0-1.7-0.1-9.8-0.1-14.2c0-2.9-0.1-5.2-0.1-5.7
		c0.1-8,0.5-17.1,4.8-25.5c5.5-10.7,15.8-17.3,24.1-21.8c14.8-8,31.3-10.1,46.5-5.8c2.5,0.7,4.2,2.9,4.4,5.4
		c0.4,6.2-0.2,12.4-1.6,18.3c-5.1,20.8-19.9,32.9-26.3,38l-3.8-4.7l3.8,4.7c-4.7,3.8-10.1,6.7-14.7,9c-9.3,4.7-18.7,7.4-30.3,8.8
		C215.3,290.8,215.1,290.8,214.8,290.8z M209.3,282.5c-0.2,0.4-0.3,0.9-0.4,1.3C209,283.3,209.1,282.9,209.3,282.5z M213.8,278.9
		L213.8,278.9L213.8,278.9z M213.8,278.9C213.8,278.9,213.8,278.9,213.8,278.9C213.8,278.9,213.8,278.9,213.8,278.9z M213.8,278.9
		C213.8,278.9,213.8,278.9,213.8,278.9C213.8,278.9,213.8,278.9,213.8,278.9z M213.8,278.9C213.8,278.9,213.8,278.9,213.8,278.9
		C213.8,278.9,213.8,278.9,213.8,278.9z M213.8,278.9C213.8,278.9,213.8,278.9,213.8,278.9C213.8,278.9,213.8,278.9,213.8,278.9z
		 M213.9,278.9C213.9,278.9,213.9,278.9,213.9,278.9C213.9,278.9,213.9,278.9,213.9,278.9z M213.9,278.9
		C213.9,278.9,213.9,278.9,213.9,278.9C213.9,278.9,213.9,278.9,213.9,278.9z M214,278.9C213.9,278.9,213.9,278.9,214,278.9
		C213.9,278.9,213.9,278.9,214,278.9z M214,278.9C214,278.9,214,278.9,214,278.9C214,278.9,214,278.9,214,278.9z M214,278.9
		C214,278.9,214,278.9,214,278.9C214,278.9,214,278.9,214,278.9z M214,278.9C214,278.9,214,278.9,214,278.9
		C214,278.9,214,278.9,214,278.9z M214,278.9C214,278.9,214,278.9,214,278.9C214,278.9,214,278.9,214,278.9z M214,278.9
		C214,278.9,214,278.9,214,278.9C214,278.9,214,278.9,214,278.9z M214,278.9C214,278.9,214,278.9,214,278.9
		C214,278.9,214,278.9,214,278.9z M214,278.9C214,278.9,214,278.9,214,278.9C214,278.9,214,278.9,214,278.9z M214,278.9
		C214,278.9,214,278.9,214,278.9C214,278.9,214,278.9,214,278.9z M214,278.9C214,278.9,214,278.9,214,278.9
		C214,278.9,214,278.9,214,278.9z M214.1,278.9C214.1,278.9,214.1,278.9,214.1,278.9C214.1,278.9,214.1,278.9,214.1,278.9z
		 M214.1,278.9C214.1,278.9,214.1,278.9,214.1,278.9C214.1,278.9,214.1,278.9,214.1,278.9z M214.1,278.9
		C214.1,278.9,214.1,278.9,214.1,278.9C214.1,278.9,214.1,278.9,214.1,278.9z M268.1,221c-8.4,0-16.9,2.2-24.9,6.5
		c-6.8,3.7-15.2,8.9-19.1,16.7c-3.1,6-3.4,13.6-3.5,20.1c0,0.5,0,2.7,0.1,5.4c0,2.5,0.1,5.4,0.1,8c7.2-1.4,13.4-3.5,19.6-6.6
		c4-2,8.7-4.5,12.5-7.6l0,0c5.9-4.8,18.1-14.7,22.2-31.5c0.8-3.4,1.3-6.8,1.4-10.3C273.7,221.2,270.9,221,268.1,221z"/>
	<path class="st1" d="M214.9,290.8c-0.2,0-0.5,0-0.7,0c-7.1-0.8-14-2.4-20.5-4.8c-1.2-0.4-5-1.8-9.5-4.1c-4.6-2.3-10-5.2-14.7-9
		l3.8-4.7l-3.8,4.7c-6.3-5.2-21.2-17.2-26.3-38c-1.4-5.9-2-12.1-1.6-18.3c0.2-2.5,1.9-4.7,4.4-5.4c15.2-4.3,31.7-2.2,46.5,5.8
		c0.4,0.2,0.9,0.5,1.3,0.7c6.3,3.3,16.7,8.9,22.8,21.1c2.3,4.7,3.7,9.7,4.2,15.1c0,0.1,0,0.3,0,0.4c0.1,3.3,0.1,6.6,0.2,9.8
		c0.1,6.9,0,14-0.1,20.9c0,1.7-0.8,3.3-2.1,4.4C217.8,290.3,216.4,290.8,214.9,290.8z M153.6,221.7c0.1,3.5,0.5,7,1.4,10.3
		c4.1,16.9,16.3,26.8,22.2,31.5h0c3.8,3.1,8.5,5.6,12.5,7.6c4,2,7.2,3.2,8.2,3.5c3.6,1.3,7.4,2.3,11.2,3.1c0.1-4.6,0.1-9.1,0-13.7
		c0-3.1-0.1-6.3-0.2-9.4c-0.4-3.8-1.4-7.4-3-10.7c-4.3-8.8-12-12.9-17.7-15.9c-0.5-0.3-1-0.5-1.4-0.8
		C176.2,221.7,164.5,219.7,153.6,221.7z"/>
</g>
</svg>
