<?xml version="1.0" encoding="utf-8"?>
<!-- Generator: Adobe Illustrator 25.4.1, SVG Export Plug-In . SVG Version: 6.00 Build 0)  -->
<svg version="1.1" id="outline" xmlns="http://www.w3.org/2000/svg" xmlns:xlink="http://www.w3.org/1999/xlink" x="0px" y="0px"
	 viewBox="0 0 500 500" style="enable-background:new 0 0 500 500;" xml:space="preserve">
<style type="text/css">
	.st0{fill:#000000;}
	.st1{fill:#000000;}
	.st2{fill:#FFFFFF;}
	.st3{fill:#000000;}
</style>
<g>
	<path class="st1" d="M263.34,242.66c-1.31,0-2.64-0.43-3.74-1.31c-2.59-2.07-3.01-5.85-0.94-8.43l53.37-66.72
		c1.59-1.99,4.27-2.76,6.67-1.91c2.4,0.84,4.01,3.11,4.01,5.66v53.03c0,3.31-2.69,6-6,6s-6-2.69-6-6v-35.93l-42.69,53.36
		C266.84,241.89,265.1,242.66,263.34,242.66z"/>
	<path class="st1" d="M330.06,242.66c-1.54,0-3.07-0.59-4.24-1.76l-9.1-9.1l-9.1,9.1c-2.34,2.34-6.14,2.34-8.49,0
		c-2.34-2.34-2.34-6.14,0-8.49l13.34-13.34c2.34-2.34,6.14-2.34,8.49,0l13.34,13.34c2.34,2.34,2.34,6.14,0,8.49
		C333.13,242.07,331.6,242.66,330.06,242.66z"/>
</g>
<g>
	<path class="st1" d="M383.43,242.66c-1.31,0-2.64-0.43-3.74-1.31c-2.59-2.07-3.01-5.85-0.94-8.43l53.37-66.72
		c1.59-1.99,4.27-2.76,6.67-1.91c2.4,0.84,4.01,3.11,4.01,5.66v53.37c0,3.31-2.69,6-6,6s-6-2.69-6-6v-36.27l-42.69,53.36
		C386.93,241.89,385.19,242.66,383.43,242.66z"/>
	<path class="st1" d="M450.15,242.66c-1.54,0-3.07-0.59-4.24-1.76l-9.1-9.1l-9.1,9.1c-2.34,2.34-6.14,2.34-8.49,0
		c-2.34-2.34-2.34-6.14,0-8.49l13.34-13.34c2.34-2.34,6.14-2.34,8.49,0l13.34,13.34c2.34,2.34,2.34,6.14,0,8.49
		C453.22,242.07,451.68,242.66,450.15,242.66z"/>
</g>
<g>
	<rect x="236.66" y="196.63" class="st2" width="26.69" height="82.26"/>
	<path class="st1" d="M263.34,284.89h-26.69c-3.31,0-6-2.69-6-6v-82.26c0-3.31,2.69-6,6-6h26.69c3.31,0,6,2.69,6,6v82.26
		C269.34,282.2,266.66,284.89,263.34,284.89z M242.66,272.89h14.69v-70.26h-14.69V272.89z"/>
</g>
<g>
	<rect x="356.75" y="196.63" class="st2" width="26.69" height="82.26"/>
	<path class="st1" d="M383.43,284.89h-26.69c-3.31,0-6-2.69-6-6v-82.26c0-3.31,2.69-6,6-6h26.69c3.31,0,6,2.69,6,6v82.26
		C389.43,282.2,386.75,284.89,383.43,284.89z M362.75,272.89h14.69v-70.26h-14.69V272.89z"/>
</g>
<g>
	<path class="st1" d="M134.14,284.89H63.19c-3.31,0-6-2.69-6-6s2.69-6,6-6h70.95c3.31,0,6,2.69,6,6S137.45,284.89,134.14,284.89z"/>
	<path class="st0" d="M423.81,349.4H114.19c-31.43,0-57-25.57-57-57l0-42.41c0-1.59,0.63-3.12,1.76-4.24
		c1.12-1.12,2.65-1.76,4.24-1.76h133.44c3.31,0,6,2.69,6,6v13.08c0,5.41,4.4,9.81,9.81,9.81h238.03c2,0,3.87,1,4.99,2.66
		c1.11,1.66,1.32,3.78,0.56,5.63l-26.66,64.51C428.42,347.94,426.23,349.4,423.81,349.4z M69.19,256l0,36.4c0,24.81,20.19,45,45,45
		h305.6l21.7-52.51H212.44c-12.03,0-21.81-9.78-21.81-21.81V256H69.19z"/>
	<g>
		<path class="st0" d="M169.94,256.04c-3.31,0-6-2.69-6-6v-80.09c0-3.31,2.69-6,6-6s6,2.69,6,6v80.09
			C175.94,253.35,173.25,256.04,169.94,256.04z"/>
		<path class="st0" d="M116.57,256.04c-3.31,0-6-2.69-6-6V156.6c0-3.31,2.69-6,6-6s6,2.69,6,6v93.44
			C122.57,253.35,119.88,256.04,116.57,256.04z"/>
	</g>
	<g>
		<path class="st1" d="M145.53,202.63h-4.54c-3.31,0-6-2.69-6-6s2.69-6,6-6h4.54c3.31,0,6,2.69,6,6S148.84,202.63,145.53,202.63z"/>
		<path class="st1" d="M145.53,229.11h-4.54c-3.31,0-6-2.69-6-6s2.69-6,6-6h4.54c3.31,0,6,2.69,6,6S148.84,229.11,145.53,229.11z"/>
	</g>
	<path class="st0" d="M169.94,175.94h-53.37c-3.31,0-6-2.69-6-6s2.69-6,6-6h53.37c3.31,0,6,2.69,6,6S173.25,175.94,169.94,175.94z"
		/>
	<path class="st0" d="M76.54,256c-0.25,0-0.5-0.02-0.75-0.05c-3.29-0.41-5.62-3.41-5.21-6.7l13.34-106.75
		c0.38-3,2.93-5.26,5.95-5.26h26.69c3.31,0,6,2.69,6,6v26.19c0,3.31-2.69,6-6,6s-6-2.69-6-6v-20.19H95.18L82.49,250.74
		C82.11,253.78,79.53,256,76.54,256z"/>
	<path class="st0" d="M116.57,149.25H63.19c-3.31,0-6-2.69-6-6s2.69-6,6-6h53.37c3.31,0,6,2.69,6,6S119.88,149.25,116.57,149.25z"/>
</g>
</svg>
