<?xml version="1.0" standalone="no"?>
<!DOCTYPE svg PUBLIC "-//W3C//DTD SVG 20010904//EN"
 "http://www.w3.org/TR/2001/REC-SVG-20010904/DTD/svg10.dtd">
<svg version="1.0" xmlns="http://www.w3.org/2000/svg"
 width="1913.000000pt" height="1764.000000pt" viewBox="0 0 1913.000000 1764.000000"
 preserveAspectRatio="xMidYMid meet">

<g transform="translate(0.000000,1764.000000) scale(0.100000,-0.100000)"
fill="#000000" stroke="none">
<path d="M11550 14745 c-215 -37 -361 -124 -498 -295 -105 -132 -156 -265
-168 -438 -7 -91 10 -588 26 -817 19 -254 108 -426 296 -577 159 -128 283
-170 494 -170 129 0 159 4 277 41 53 16 155 73 207 116 185 153 277 315 306
538 6 45 15 211 20 369 5 158 12 314 16 346 7 63 -10 242 -28 302 -55 180
-163 340 -298 442 -170 128 -418 182 -650 143z m410 -77 c119 -43 190 -88 285
-183 142 -142 212 -299 222 -500 6 -124 -23 -820 -38 -895 -42 -214 -199 -421
-390 -513 -124 -60 -204 -78 -339 -79 -135 0 -198 14 -337 79 -117 55 -257
193 -320 317 -72 141 -82 203 -92 561 -5 154 -12 323 -16 375 -7 100 6 253 30
347 27 105 93 211 188 305 97 96 185 152 292 186 95 30 107 31 290 27 136 -3
170 -7 225 -27z"/>
<path d="M9130 14095 c-189 -65 -333 -220 -388 -414 -27 -99 -14 -698 19 -849
18 -84 76 -186 142 -253 79 -80 127 -114 213 -150 316 -133 686 37 799 366 23
68 44 369 45 634 0 194 -2 220 -21 275 -57 158 -161 284 -291 351 -98 50 -137
58 -303 61 -134 2 -157 0 -215 -21z m318 -30 c45 -8 101 -24 124 -35 23 -11
45 -20 50 -20 4 0 38 -25 76 -55 78 -65 131 -134 175 -231 l32 -69 -3 -335
c-1 -239 -6 -359 -17 -420 -14 -84 -49 -171 -89 -221 -12 -14 -32 -40 -46 -59
-30 -40 -118 -106 -168 -127 -20 -8 -50 -21 -67 -28 -62 -26 -166 -35 -250
-21 -230 37 -406 204 -454 431 -24 116 -40 662 -22 750 26 127 88 236 176 309
27 22 57 47 67 55 44 37 213 87 303 90 17 0 67 -6 113 -14z"/>
<path d="M13850 14110 c-8 -5 -24 -10 -36 -10 -34 0 -176 -76 -221 -119 -82
-76 -144 -170 -182 -277 -19 -55 -21 -81 -21 -275 1 -265 22 -566 45 -634 42
-121 108 -212 211 -289 174 -129 395 -159 588 -77 86 36 134 70 213 150 66 67
124 169 142 253 18 84 31 296 33 543 1 200 -2 261 -14 306 -43 153 -152 293
-288 371 -92 52 -167 68 -317 68 -76 0 -145 -5 -153 -10z m255 -44 c81 -15
183 -51 213 -77 10 -8 40 -33 67 -55 88 -73 150 -182 176 -309 18 -88 2 -634
-22 -750 -48 -227 -224 -394 -454 -431 -84 -14 -188 -5 -250 21 -16 7 -47 20
-67 28 -50 21 -138 87 -168 127 -14 19 -34 45 -46 59 -40 50 -75 137 -89 221
-11 61 -16 181 -17 420 l-3 335 32 69 c44 97 97 166 175 231 38 30 72 55 76
55 5 0 27 9 51 21 41 20 155 45 216 48 17 0 66 -5 110 -13z"/>
<path d="M11115 11890 c-22 -5 -65 -9 -95 -10 -137 -1 -404 -115 -535 -228
l-75 -63 -80 68 c-137 117 -299 185 -485 203 -124 12 -878 13 -1000 1 -118
-12 -245 -49 -346 -103 -63 -33 -106 -67 -193 -153 -99 -98 -116 -121 -158
-205 -42 -87 -59 -134 -88 -245 -5 -22 -10 -147 -10 -278 l0 -238 48 -47 c56
-57 82 -65 272 -87 181 -20 216 -28 425 -98 99 -32 205 -63 235 -67 30 -4 93
-13 139 -20 96 -14 313 -9 431 10 41 6 162 40 267 74 106 35 195 61 198 58 3
-3 5 -26 5 -52 0 -34 8 -58 29 -92 58 -91 102 -105 421 -133 130 -12 207 -31
465 -117 115 -38 268 -81 340 -95 118 -24 152 -26 375 -26 198 -1 258 2 314
16 l69 17 113 -76 c119 -80 139 -97 130 -112 -3 -5 -57 -44 -121 -86 -63 -43
-115 -84 -115 -91 0 -8 5 -34 10 -57 50 -207 67 -256 120 -363 l35 -70 147 3
c80 2 149 -1 152 -6 3 -5 -13 -60 -36 -123 -59 -166 -59 -165 -1 -219 114
-107 274 -218 359 -250 24 -9 64 16 187 118 60 50 76 56 83 35 15 -48 23 -71
33 -108 21 -76 42 -140 50 -154 10 -16 171 -40 266 -40 105 0 254 24 268 43 7
9 21 47 31 84 10 37 22 77 27 90 5 13 9 31 9 41 0 10 8 28 18 39 17 21 18 20
117 -59 55 -44 109 -84 120 -88 19 -8 42 1 145 60 53 30 207 150 252 196 l47
48 -41 115 c-22 63 -41 129 -42 145 l-1 30 140 -3 c77 -2 145 1 150 5 16 12
74 138 99 218 38 116 70 259 63 279 -3 7 -58 49 -121 92 -64 43 -115 83 -113
88 2 6 46 40 98 76 52 36 105 73 118 82 23 16 23 18 11 85 -11 65 -15 82 -41
171 -12 43 -16 52 -58 152 -18 41 -35 80 -37 86 -8 17 45 30 171 44 260 29
282 35 340 103 l35 41 0 235 c0 130 -5 254 -10 276 -49 188 -98 287 -200 403
-42 48 -97 103 -121 123 -113 93 -295 163 -464 180 -122 12 -876 11 -1000 -1
-178 -18 -356 -89 -463 -187 -31 -29 -63 -52 -71 -53 -8 0 -37 20 -65 44 -119
101 -354 198 -526 218 -108 12 -1212 19 -1265 8z m1320 -73 c39 -9 88 -21 110
-27 22 -6 51 -14 64 -17 47 -11 213 -113 292 -179 115 -96 205 -205 264 -319
27 -53 49 -105 48 -114 -2 -29 -64 -235 -73 -245 -8 -8 -121 70 -183 125 -46
42 -65 45 -115 19 -133 -68 -372 -260 -372 -299 0 -14 31 -112 50 -156 27 -66
37 -103 31 -114 -6 -9 -45 -11 -152 -9 l-144 3 -35 -70 c-38 -75 -97 -246
-107 -311 -12 -79 0 -74 -253 -99 -158 -16 -343 -10 -475 15 -27 6 -84 17
-125 25 -77 14 -251 67 -282 85 -10 6 -24 10 -31 10 -8 0 -42 12 -78 26 -80
33 -164 48 -459 83 -196 23 -230 37 -267 111 -22 42 -23 56 -23 248 0 356 20
467 122 667 145 284 432 493 748 544 110 18 127 18 760 16 512 -2 627 -5 685
-18z m-2530 -21 c110 -20 160 -37 239 -79 70 -38 216 -152 216 -169 0 -6 -19
-33 -43 -61 -24 -29 -53 -65 -64 -82 -41 -61 -123 -214 -123 -230 0 -6 -12
-46 -26 -90 -25 -74 -27 -95 -31 -300 -2 -121 -6 -229 -8 -241 -4 -18 -35 -31
-192 -82 -104 -33 -222 -65 -263 -72 -41 -6 -94 -16 -117 -21 -55 -12 -238
-12 -300 1 -26 5 -82 14 -123 21 -71 11 -192 46 -375 109 -80 27 -196 48 -399
72 -78 9 -118 18 -140 33 -56 37 -57 48 -53 295 4 190 8 237 26 305 40 145
104 250 226 370 127 124 256 191 430 223 28 6 273 10 545 11 391 1 512 -2 575
-13z m4651 4 c182 -32 311 -99 449 -235 95 -94 166 -203 194 -295 7 -25 17
-56 22 -70 18 -50 28 -179 29 -350 0 -262 2 -259 -295 -289 -125 -13 -243 -35
-290 -56 -22 -9 -80 -19 -132 -22 -90 -6 -93 -5 -93 16 0 12 11 49 25 83 14
34 25 69 25 78 0 9 3 20 7 24 4 3 12 23 19 43 15 43 14 45 -56 112 -94 91
-319 241 -360 241 -13 0 -212 -148 -218 -162 -2 -4 -9 -8 -17 -8 -14 0 -23 20
-59 145 -41 141 -39 138 -131 153 -77 13 -308 10 -381 -4 -30 -6 -31 -4 -80
91 -27 53 -69 120 -94 149 -25 28 -60 70 -77 93 l-33 41 61 50 c109 89 210
135 369 167 82 16 1024 20 1116 5z m-889 -646 c56 -7 57 -8 82 -99 25 -93 64
-211 71 -218 14 -16 46 2 156 89 60 48 114 88 120 91 16 6 208 -106 234 -136
3 -4 33 -30 68 -60 34 -29 62 -60 62 -69 0 -15 -32 -115 -50 -157 -27 -62 -51
-148 -43 -156 5 -5 83 -10 173 -11 l165 -3 22 -42 c39 -74 113 -312 113 -363
0 -13 -39 -45 -130 -107 -96 -65 -130 -93 -130 -109 0 -16 32 -43 130 -110 86
-59 130 -95 130 -107 0 -62 -87 -331 -129 -396 -15 -23 -15 -23 -162 -16 -185
9 -209 2 -179 -53 5 -9 19 -46 30 -82 12 -36 24 -72 27 -80 3 -8 14 -36 23
-63 l17 -47 -64 -60 c-66 -62 -188 -149 -259 -186 l-41 -21 -130 99 c-84 63
-136 96 -146 93 -8 -4 -24 -37 -35 -78 -40 -140 -60 -204 -71 -225 -9 -17 -24
-21 -118 -27 -113 -8 -296 0 -323 15 -9 5 -22 32 -29 62 -8 29 -25 89 -38 133
-43 142 -45 144 -103 97 -19 -16 -75 -59 -124 -96 -74 -56 -93 -66 -115 -61
-39 10 -208 125 -278 189 -62 57 -72 79 -54 114 11 19 52 132 77 210 14 46 15
55 3 63 -8 6 -85 8 -173 7 -133 -3 -160 -1 -167 12 -29 54 -69 157 -89 230 -7
25 -16 56 -20 70 -5 14 -11 44 -13 68 -6 48 -9 45 186 180 43 29 77 58 77 65
0 7 -58 53 -130 103 l-130 89 0 42 c0 67 48 226 101 338 l24 50 165 3 c90 1
168 6 173 11 9 9 2 32 -62 211 -17 47 -31 93 -31 102 0 31 219 201 332 257 30
15 9 28 212 -128 75 -57 81 -60 98 -44 10 9 18 24 18 34 0 10 4 28 9 41 5 13
21 64 35 113 35 117 36 119 82 126 54 8 288 10 351 3z"/>
<path d="M13417 10324 c-204 -32 -372 -183 -436 -395 -16 -52 -13 -192 5 -263
33 -127 125 -249 238 -315 94 -55 155 -72 261 -72 154 -1 270 42 371 139 44
42 104 124 104 141 0 6 4 11 8 11 5 0 16 24 25 53 64 204 20 402 -122 546 -96
97 -166 133 -301 155 -59 10 -91 10 -153 0z m208 -66 c139 -37 273 -167 323
-313 23 -68 22 -192 -4 -300 -19 -80 -141 -220 -232 -265 -62 -32 -105 -42
-192 -47 -139 -9 -257 37 -360 140 -126 126 -164 290 -113 480 9 31 20 57 24
57 5 0 9 6 9 13 0 33 144 187 175 187 4 0 19 8 33 19 64 44 229 58 337 29z"/>
<path d="M3394 10235 c-105 -23 -157 -62 -208 -155 -24 -45 -28 -62 -28 -134
0 -78 2 -86 37 -142 20 -32 54 -72 76 -88 68 -52 98 -58 332 -66 8 0 10 -2111
1 -2134 -5 -13 -25 -16 -110 -16 -57 0 -123 -6 -146 -12 -54 -17 -127 -83
-162 -147 -23 -44 -28 -64 -28 -129 0 -89 25 -153 83 -210 59 -57 111 -75 239
-80 69 -3 118 -9 122 -16 4 -6 8 -337 8 -736 0 -399 -4 -730 -8 -736 -4 -7
-18 -14 -31 -15 -25 -4 -18 13 -195 -504 -25 -71 -82 -236 -126 -365 -45 -129
-86 -248 -91 -264 -5 -16 -14 -33 -21 -38 -7 -4 -167 -8 -354 -8 -316 0 -342
-1 -349 -17 -9 -23 -158 -452 -195 -563 -67 -201 -111 -326 -120 -342 -6 -10
-10 -25 -10 -33 0 -8 -4 -23 -10 -33 -5 -9 -25 -61 -43 -115 -31 -86 -33 -100
-20 -112 13 -13 301 -15 2236 -15 1225 0 2228 4 2236 9 11 7 9 20 -8 72 -12
35 -26 72 -31 81 -6 10 -10 25 -10 33 0 8 -4 23 -10 33 -5 9 -25 67 -45 127
-19 61 -40 118 -45 127 -6 10 -10 26 -10 36 0 10 -3 22 -7 26 -7 7 -33 76 -33
89 0 4 91 7 202 7 176 0 209 -3 262 -20 34 -11 75 -25 91 -30 35 -11 167 -36
243 -45 l52 -7 0 -257 c0 -187 3 -260 12 -269 18 -18 963 -17 975 1 4 6 10
129 13 272 l5 260 30 3 c199 20 500 134 585 222 8 8 33 31 55 49 38 33 56 54
115 131 96 126 185 382 216 625 3 28 11 127 17 220 l12 170 3740 3 c2057 1
3750 0 3763 -3 l22 -5 -2 -253 -3 -252 -3762 -3 -3763 -2 0 -30 0 -30 118 0
c64 0 123 -4 131 -9 14 -9 19 -149 6 -170 -4 -7 -53 -11 -131 -11 l-124 0 0
-30 0 -30 148 0 c81 0 152 4 159 8 8 5 13 46 15 122 l3 115 2995 0 2995 0 3
-115 c2 -76 7 -117 15 -122 7 -4 290 -8 629 -8 l618 0 5 22 c3 13 4 1121 3
2463 l-3 2440 -610 3 c-335 1 -620 0 -632 -3 -21 -5 -22 -11 -25 -118 l-3
-112 -232 -3 -233 -2 0 -30 0 -30 838 -2 837 -3 3 -249 c2 -193 -1 -251 -10
-257 -17 -11 -8379 -11 -8396 0 -9 6 -12 64 -10 257 l3 249 1603 3 1602 2 0
30 0 30 -997 2 -998 3 -3 112 c-3 107 -4 113 -25 118 -12 3 -296 4 -632 3
l-610 -3 -3 -927 c-1 -511 -6 -928 -10 -928 -5 0 -30 44 -57 98 -139 276 -279
435 -425 485 l-45 15 -3 916 c-1 504 1 916 5 917 5 0 43 2 86 5 177 10 291
124 292 289 0 106 -49 203 -128 249 -99 59 24 56 -2337 55 -1765 0 -2176 -3
-2226 -14z m4518 -78 c88 -52 139 -165 115 -257 -18 -67 -49 -114 -103 -151
l-49 -34 -2255 0 -2255 0 -42 29 c-99 67 -141 202 -94 300 24 49 101 123 135
131 11 2 32 6 46 8 14 3 1022 4 2240 3 l2215 -1 47 -28z m-267 -1424 l0 -917
-37 -8 c-94 -19 -188 -94 -291 -231 l-58 -77 -1792 2 -1792 3 -5 1068 c-3 587
-2 1071 2 1075 4 4 899 6 1990 5 l1983 -3 0 -917z m1807 206 c2 -68 0 -82 -14
-90 -18 -10 -1097 -13 -1122 -3 -13 5 -16 22 -16 83 0 43 3 81 7 84 3 4 262 7
574 7 l567 0 4 -81z m7266 -3 c2 -57 -1 -82 -10 -87 -18 -12 -1105 -11 -1126
0 -14 8 -16 22 -14 90 l4 81 571 -2 572 -3 3 -79z m-7748 -1316 l0 -580 35 0
35 0 2 578 3 577 400 0 400 0 0 -1575 0 -1575 -326 -3 -325 -2 -12 237 c-18
353 -5 491 70 708 28 80 127 235 202 315 110 117 109 115 92 133 -13 13 -34
15 -113 11 -54 -3 -118 -9 -143 -14 -25 -5 -76 -14 -115 -20 -97 -17 -235 -73
-330 -135 -72 -47 -193 -163 -236 -226 -22 -32 -29 -23 -40 53 -5 35 -13 81
-18 103 -5 22 -19 85 -31 140 -43 196 -137 498 -196 634 l-24 53 0 578 c0 317
3 580 7 583 3 4 154 7 335 7 l328 0 0 -580z m1750 -1000 l0 -1580 -402 2 -403
3 -3 1565 c-1 861 0 1571 3 1578 3 9 94 12 405 12 l400 0 0 -1580z m865 0 l0
-1575 -400 0 -400 0 -3 1565 c-1 861 0 1571 3 1578 3 10 89 12 402 10 l398 -3
0 -1575z m880 0 l0 -1575 -402 -3 -403 -2 0 1580 0 1580 403 -2 402 -3 0
-1575z m875 0 l0 -1580 -400 0 -400 0 0 1580 0 1580 400 0 400 0 0 -1580z
m895 0 l0 -1575 -410 0 -410 0 -3 1565 c-1 861 0 1571 3 1578 3 10 91 12 412
10 l408 -3 0 -1575z m870 0 l0 -1575 -402 -3 -403 -2 0 1580 0 1580 403 -2
402 -3 0 -1575z m870 0 l0 -1575 -400 0 -400 0 -3 1565 c-1 861 0 1571 3 1578
3 10 89 12 402 10 l398 -3 0 -1575z m740 0 l0 -1575 -332 -3 -333 -2 0 1580 0
1580 333 -2 332 -3 0 -1575z m-8930 1109 c146 -83 297 -305 433 -640 98 -240
111 -275 156 -419 48 -155 71 -235 87 -315 11 -50 21 -94 40 -170 5 -22 17
-88 27 -146 17 -99 17 -108 1 -145 -20 -48 -64 -204 -73 -259 -17 -101 -26
-168 -36 -270 -6 -60 -15 -128 -20 -150 -5 -22 -14 -87 -20 -145 -6 -58 -15
-125 -20 -150 -5 -25 -14 -79 -20 -120 -60 -377 -146 -591 -331 -824 -102
-130 -312 -326 -349 -326 -23 0 -178 120 -241 187 -199 211 -354 481 -390 678
-5 27 -13 70 -19 95 -16 71 -36 195 -55 325 -9 66 -21 139 -26 162 -5 23 -9
58 -9 77 0 20 -5 68 -11 108 -6 40 -14 102 -19 138 -22 170 -43 286 -61 343
-10 34 -24 79 -31 99 -8 28 -8 56 1 115 7 43 14 94 17 113 6 38 51 231 88 375
93 358 266 789 401 1000 79 124 188 238 259 274 76 37 143 34 221 -10z m-555
-287 c0 -4 -4 -12 -9 -18 -18 -19 -114 -210 -142 -283 -28 -73 -40 -100 -62
-148 l-10 -23 -1784 0 c-1299 0 -1797 3 -1831 11 -45 11 -104 47 -129 79 -30
37 -53 103 -53 149 0 108 81 213 178 232 51 9 3842 11 3842 1z m-250 -533 c0
-7 -13 -50 -29 -98 -57 -169 -101 -317 -116 -386 -30 -137 -37 -170 -46 -210
-5 -22 -14 -71 -20 -109 -10 -69 -24 -116 -34 -116 -2 0 -14 19 -26 42 -25 49
-132 158 -199 205 -105 72 -243 131 -355 153 -33 6 -78 16 -100 20 -61 13
-268 22 -284 11 -18 -12 -10 -23 73 -112 76 -82 164 -211 207 -305 15 -33 40
-105 56 -160 l28 -99 0 -510 c0 -280 4 -553 8 -605 9 -102 41 -271 62 -334 8
-22 12 -43 9 -48 -6 -9 -766 -11 -799 -2 -16 4 -30 33 -62 132 -23 70 -99 294
-168 497 -69 204 -138 404 -152 445 -14 41 -30 81 -35 88 -8 9 -154 12 -669
12 l-659 0 -2 736 c-2 404 1 742 5 750 7 12 238 14 1657 14 1221 0 1650 -3
1650 -11z m-866 -565 c60 -14 136 -36 169 -49 33 -14 64 -25 69 -25 20 0 158
-97 211 -149 136 -131 209 -295 256 -571 11 -62 19 -126 41 -325 15 -138 29
-236 60 -420 4 -27 13 -80 19 -118 9 -57 34 -163 70 -302 11 -43 68 -167 108
-235 11 -19 31 -53 44 -76 65 -112 165 -221 395 -433 8 -7 13 -16 10 -19 -28
-27 -577 -13 -651 17 -11 5 -51 19 -90 31 -38 13 -106 44 -150 69 -202 114
-317 263 -398 516 -87 277 -105 469 -87 950 11 288 10 348 -3 475 -28 259
-115 458 -274 630 -29 31 -51 59 -48 62 10 10 148 -6 249 -28z m3326 28 c0 -5
-12 -19 -26 -33 -95 -88 -219 -314 -252 -459 -46 -201 -51 -301 -30 -672 15
-275 -1 -542 -49 -788 -31 -164 -103 -328 -199 -457 -55 -73 -158 -171 -203
-195 -14 -7 -47 -25 -72 -39 -68 -40 -187 -75 -360 -109 -62 -12 -429 -16
-471 -5 -26 7 -40 35 -18 35 22 0 227 211 306 315 46 61 84 114 84 118 0 4 15
31 34 60 85 133 135 267 175 467 26 128 32 161 45 235 8 44 20 123 26 175 6
52 15 117 21 143 5 27 9 69 9 94 0 25 5 75 11 112 5 36 15 98 21 136 31 210
50 283 105 404 106 231 301 380 588 446 99 22 255 33 255 17z m-4488 -1016 c8
-7 20 -33 27 -57 7 -24 17 -52 22 -61 5 -10 9 -25 9 -33 0 -8 4 -23 10 -33 5
-9 16 -37 24 -62 8 -25 47 -137 86 -250 39 -113 89 -257 110 -320 22 -63 53
-153 69 -199 17 -47 28 -88 25 -93 -3 -4 -480 -8 -1060 -8 -906 0 -1055 2
-1060 14 -3 8 13 68 36 133 23 65 63 183 90 263 27 80 76 224 110 320 34 96
72 209 86 250 14 41 29 84 34 95 4 11 11 28 14 38 5 16 46 17 680 17 557 0
677 -2 688 -14z m11756 -965 c9 -5 12 -31 10 -92 l-3 -84 -564 -3 c-329 -1
-569 2 -574 7 -15 15 -11 162 5 172 17 11 1109 11 1126 0z m-12856 -225 c4 -6
15 -36 24 -66 10 -30 21 -59 26 -64 4 -6 8 -20 8 -32 0 -13 5 -26 10 -29 6 -3
10 -16 10 -29 0 -12 4 -26 9 -32 5 -5 16 -36 26 -69 10 -33 22 -64 27 -69 4
-6 8 -18 8 -28 0 -10 4 -26 10 -36 9 -16 54 -144 120 -342 16 -47 45 -131 64
-188 20 -56 36 -107 36 -112 0 -7 -375 -10 -1070 -10 -588 0 -1070 3 -1070 8
0 4 11 39 26 77 31 87 86 243 124 355 16 47 61 177 100 290 39 113 84 245 101
294 16 48 32 93 35 98 10 15 1367 -1 1376 -16z m778 6 c0 -10 -27 -96 -61
-192 -33 -96 -73 -213 -89 -260 -65 -194 -111 -326 -120 -342 -6 -10 -10 -26
-10 -36 0 -10 -4 -22 -8 -27 -5 -6 -21 -50 -37 -98 -15 -49 -31 -85 -35 -80
-8 9 -54 139 -207 593 -52 157 -108 321 -124 364 -15 44 -26 83 -23 88 3 4
165 8 360 8 333 0 354 -1 354 -18z m1438 1 c5 -10 26 -67 46 -128 53 -157 86
-247 97 -267 5 -10 9 -27 9 -37 0 -11 5 -23 10 -26 6 -3 10 -15 10 -26 0 -10
4 -27 10 -37 5 -9 16 -37 24 -62 8 -25 51 -150 95 -279 45 -129 81 -238 81
-243 0 -4 -481 -8 -1070 -8 -588 0 -1070 3 -1070 8 0 4 23 72 51 152 154 439
284 816 311 897 l20 63 356 3 c1082 8 1010 9 1020 -10z m223 -100 c64 -127
131 -213 224 -287 35 -28 63 -55 61 -61 -2 -6 -61 -11 -144 -13 l-142 -3 -15
38 c-27 64 -137 387 -143 416 l-4 28 53 -3 54 -3 56 -112z m1524 -514 c66 -6
157 -11 203 -10 l82 2 0 -246 0 -245 -437 2 -438 3 0 240 0 240 80 1 c77 2
307 23 313 29 2 2 20 1 40 -1 20 -2 91 -9 157 -15z"/>
<path d="M5599 9203 c-40 -48 -179 -296 -263 -468 -69 -144 -82 -172 -96 -220
-7 -22 -16 -50 -21 -63 -13 -33 -11 -169 2 -211 23 -71 52 -120 101 -170 89
-91 181 -131 303 -131 121 0 214 40 301 129 131 134 149 304 56 521 -72 168
-277 548 -331 613 -8 9 -19 17 -26 17 -7 0 -18 -8 -26 -17z m48 -90 c3 -10 14
-29 23 -43 10 -14 30 -47 45 -75 16 -27 39 -68 51 -90 27 -46 135 -264 157
-315 51 -117 61 -156 62 -240 0 -74 -4 -93 -29 -145 -36 -72 -73 -115 -137
-156 -184 -118 -421 -49 -525 152 -25 47 -28 65 -28 144 0 90 8 122 61 245 23
53 130 270 157 315 12 22 35 63 51 90 15 28 35 61 45 75 9 14 20 33 23 43 4 9
13 17 22 17 9 0 18 -8 22 -17z"/>
<path d="M7442 6498 c-20 -20 -13 -35 26 -53 20 -9 50 -23 66 -31 42 -20 222
-19 272 2 81 33 104 47 104 60 0 27 -30 26 -103 -1 -91 -34 -179 -35 -263 -4
-32 12 -63 25 -68 30 -13 12 -20 11 -34 -3z"/>
<path d="M7437 5713 c-28 -28 47 -70 166 -93 56 -11 78 -11 135 0 86 17 172
54 172 75 0 28 -29 28 -93 1 -88 -37 -213 -37 -289 -1 -52 25 -79 31 -91 18z"/>
<path d="M7437 4933 c-19 -18 -1 -37 61 -65 61 -28 76 -31 172 -31 97 1 111 3
173 32 51 23 68 36 65 49 -5 25 -31 26 -80 4 -106 -48 -210 -49 -315 -2 -48
21 -65 24 -76 13z"/>
</g>
</svg>
