<?xml version="1.0" standalone="no"?>
<!DOCTYPE svg PUBLIC "-//W3C//DTD SVG 20010904//EN"
 "http://www.w3.org/TR/2001/REC-SVG-20010904/DTD/svg10.dtd">
<svg version="1.0" xmlns="http://www.w3.org/2000/svg"
 width="512.000000pt" height="512.000000pt" viewBox="0 0 512.000000 512.000000"
 preserveAspectRatio="xMidYMid meet">

<g transform="translate(0.000000,512.000000) scale(0.100000,-0.100000)"
fill="#000000" stroke="none">
<path d="M1520 4197 c-48 -17 -80 -67 -80 -127 0 -81 57 -130 150 -130 l50 0
0 -489 0 -489 -66 -4 c-62 -4 -69 -7 -100 -41 -28 -30 -34 -45 -34 -81 0 -88
43 -130 143 -142 l57 -7 0 -330 c0 -278 -2 -332 -15 -341 -8 -6 -54 -128 -103
-271 l-89 -260 -160 -3 -160 -2 -26 -73 c-36 -98 -167 -479 -167 -483 0 -6
2036 -5 2042 1 2 3 -17 68 -44 146 l-48 140 103 -3 c56 -2 134 -12 172 -22 39
-10 80 -20 93 -22 21 -4 22 -8 22 -124 l0 -120 225 0 225 0 0 125 c0 124 0
125 23 125 35 0 137 28 192 54 62 29 148 112 180 176 57 113 67 181 74 505 6
254 10 308 25 350 20 55 80 147 120 184 14 14 26 28 26 33 0 12 -97 9 -167 -6
-108 -23 -241 -104 -258 -156 -12 -37 -20 -20 -38 76 -58 318 -239 682 -353
710 l-24 6 0 419 0 419 35 0 c140 0 187 194 61 251 -39 18 -89 19 -1046 18
-752 0 -1014 -3 -1040 -12z m2089 -33 c31 -22 53 -77 45 -112 -4 -15 -18 -39
-32 -54 l-26 -28 -1037 0 -1036 0 -26 26 c-15 14 -29 35 -33 46 -11 36 5 86
37 112 l31 26 1027 0 c933 0 1029 -1 1050 -16z m-129 -644 c0 -393 -1 -420
-17 -420 -31 0 -81 -37 -120 -90 l-37 -50 -818 0 -818 0 0 490 0 490 905 0
905 0 0 -420z m77 -466 c51 -39 71 -63 111 -134 74 -132 135 -291 182 -480 38
-151 41 -181 19 -249 -10 -34 -28 -133 -39 -219 -44 -335 -65 -422 -132 -537
-44 -75 -186 -225 -213 -225 -9 0 -54 37 -99 83 -81 81 -144 175 -173 260 -18
50 -46 219 -73 424 -11 89 -27 181 -36 205 -19 53 -14 99 31 273 66 262 161
472 256 568 49 49 63 57 95 57 24 0 49 -9 71 -26z m-269 -121 c-19 -38 -87
-182 -91 -195 -6 -17 -54 -18 -826 -18 -508 0 -829 4 -845 10 -30 11 -66 65
-66 98 0 38 29 83 63 97 26 12 183 14 900 15 478 0 867 -3 865 -7z m-143 -345
c-18 -57 -41 -143 -50 -193 -24 -127 -21 -124 -61 -76 -47 54 -105 93 -179
120 -62 22 -223 43 -231 30 -2 -4 15 -30 39 -56 52 -59 81 -105 104 -164 13
-36 18 -99 23 -344 7 -267 14 -351 36 -408 6 -16 -10 -17 -182 -17 l-189 0
-90 268 -90 267 -302 3 -303 2 0 335 0 335 754 0 754 0 -33 -102z m-345 -159
c96 -26 146 -56 203 -119 58 -64 85 -135 103 -275 33 -240 56 -384 75 -457 28
-105 95 -215 185 -304 41 -40 74 -76 74 -80 0 -14 -274 3 -325 22 -120 42
-204 122 -245 231 -45 120 -52 183 -54 473 -2 316 -6 337 -97 463 l-49 67 28
0 c15 0 61 -9 102 -21z m1490 17 c0 -2 -14 -20 -30 -41 -88 -111 -116 -232
-106 -460 8 -163 -4 -334 -30 -425 -50 -176 -158 -279 -329 -315 -79 -17 -265
-20 -265 -5 0 5 13 19 29 31 46 34 138 151 181 232 49 91 71 185 105 447 14
107 33 220 41 250 43 151 128 234 277 275 48 13 127 20 127 11z m-1951 -699
c46 -133 86 -248 88 -254 4 -10 -96 -13 -481 -13 -267 0 -486 2 -486 5 0 3 39
118 86 255 l87 250 311 0 311 0 84 -243z m-499 -552 l88 -250 -486 -3 c-267
-1 -486 -1 -488 1 -1 1 36 116 84 255 l87 252 314 -3 314 -2 87 -250z m265
238 c-3 -10 -40 -117 -82 -238 -42 -121 -77 -221 -78 -223 -2 -2 -36 97 -78
220 -41 123 -78 231 -82 241 -7 16 5 17 160 17 155 0 167 -1 160 -17z m745
-238 l88 -250 -486 -3 c-267 -1 -486 -1 -488 1 -1 1 36 116 84 255 l87 252
314 -3 314 -2 87 -250z m20 198 c33 -64 49 -85 99 -126 l34 -28 -73 3 -73 3
-28 83 c-16 46 -31 92 -34 103 -5 15 -1 19 19 19 21 0 31 -10 56 -57z m716
-227 l99 -5 3 -111 3 -110 -201 0 -200 0 0 109 0 108 93 9 c50 6 95 9 98 7 3
-1 50 -4 105 -7z"/>
<path d="M2527 3703 c-50 -79 -107 -191 -132 -258 -44 -114 -23 -197 63 -256
51 -34 153 -34 204 0 89 62 107 142 59 266 -35 90 -140 277 -158 282 -7 3 -23
-13 -36 -34z m91 -95 c105 -190 125 -265 88 -335 -34 -67 -117 -105 -185 -85
-115 35 -153 139 -97 267 35 79 127 245 136 245 4 0 30 -42 58 -92z"/>
<path d="M3385 2500 c-10 -16 53 -40 105 -40 52 0 115 24 105 40 -3 5 -21 2
-40 -6 -19 -8 -48 -14 -65 -14 -17 0 -46 6 -65 14 -19 8 -37 11 -40 6z"/>
<path d="M3380 2142 c0 -14 74 -42 110 -42 36 0 110 28 110 42 0 6 -9 7 -22 2
-31 -10 -136 -11 -170 0 -18 5 -28 4 -28 -2z"/>
<path d="M3385 1790 c-10 -16 53 -40 105 -40 52 0 115 24 105 40 -3 5 -21 2
-40 -6 -19 -8 -48 -14 -65 -14 -17 0 -46 6 -65 14 -19 8 -37 11 -40 6z"/>
</g>
</svg>
