<?xml version="1.0" encoding="utf-8"?>
<!-- Generator: Adobe Illustrator 24.1.2, SVG Export Plug-In . SVG Version: 6.00 Build 0)  -->
<svg version="1.1" id="Warstwa_3" xmlns="http://www.w3.org/2000/svg" xmlns:xlink="http://www.w3.org/1999/xlink" x="0px" y="0px"
	 viewBox="0 0 430 430" style="enable-background:new 0 0 430 430;" xml:space="preserve">
<style type="text/css">
	.st0{fill:#000000;}
	.st1{fill:#000000;}
	.st2{fill:#000000;}
	.st3{fill:none;}
</style>
<g>
	<path class="st2" d="M208.29,107.11h-76.22c-3.31,0-6,2.69-6,6v48.97c0,3.31,2.69,6,6,6s6-2.69,6-6v-42.97h37.42v51.81
		c0,3.31,2.69,6,6,6s6-2.69,6-6v-51.81h20.8c9.16,0,16.61,7.45,16.61,16.61v108.22h-92.83c-3.31,0-6,2.69-6,6s2.69,6,6,6h98.83
		c3.31,0,6-2.69,6-6V135.72C236.9,119.95,224.06,107.11,208.29,107.11z"/>
	<g>
		<path class="st1" d="M262.76,289.74h-7.5c-3.31,0-6-2.69-6-6s2.69-6,6-6h7.5c3.31,0,6,2.69,6,6S266.07,289.74,262.76,289.74z"/>
		<path class="st1" d="M219.37,289.74h-13.46c-3.31,0-6-2.69-6-6s2.69-6,6-6h13.46c3.31,0,6,2.69,6,6S222.68,289.74,219.37,289.74z
			 M170.03,289.74h-13.46c-3.31,0-6-2.69-6-6s2.69-6,6-6h13.46c3.31,0,6,2.69,6,6S173.34,289.74,170.03,289.74z M120.69,289.74
			h-13.46c-3.31,0-6-2.69-6-6s2.69-6,6-6h13.46c3.31,0,6,2.69,6,6S124,289.74,120.69,289.74z"/>
		<path class="st1" d="M71.35,289.74h-7.5c-3.31,0-6-2.69-6-6s2.69-6,6-6h7.5c3.31,0,6,2.69,6,6S74.66,289.74,71.35,289.74z"/>
	</g>
	<g>
		<path class="st2" d="M395.53,254.99l-6.01-6.78v-19.94c0-3.31-2.69-6-6-6s-6,2.69-6,6v19.5l-55.68,49.39
			c-1.19,1.06-1.91,2.54-2.01,4.13s0.44,3.15,1.5,4.34c7.82,8.82,18.72,13.32,29.67,13.32c9.36,0,18.75-3.29,26.28-9.97l15.86-14.06
			C404.81,284.58,405.88,266.66,395.53,254.99z M385.18,285.95l-15.86,14.06c-9.86,8.75-24.28,9.14-34.54,1.72l48.23-42.78l3.55,4
			C392.52,269.67,391.9,279.99,385.18,285.95z"/>
		<path class="st1" d="M407.26,151.11c-0.79-3.72-2.54-7.14-4.98-10.02c-0.02-0.02-0.03-0.04-0.05-0.06
			c-0.1-0.11-0.19-0.22-0.29-0.33c-2.96-3.41-6.89-6.03-11.53-7.37l-89.74-25.92c-6.24-1.8-12.62-0.96-17.96,1.85
			c-0.08,0.04-0.16,0.08-0.24,0.12c-0.46,0.25-0.91,0.51-1.35,0.79c-0.19,0.12-0.38,0.24-0.57,0.37c-0.22,0.15-0.44,0.3-0.66,0.46
			c-0.5,0.35-0.98,0.72-1.45,1.11c0,0-0.01,0-0.01,0.01c-3.67,3.03-6.47,7.11-7.85,11.88l-34.03,117.85
			c-4.12-47.98-44.48-85.76-93.51-85.76h-28.98c-34.58,0-62.72,28.13-62.72,62.72v26.58c-16.83,4.64-29.23,20.08-29.23,38.36
			c0,21.94,17.85,39.8,39.8,39.8h202.79c21.94,0,39.8-17.85,39.8-39.8c0-14.63-7.95-27.44-19.74-34.35l25.64-88.78l50.67,14.63
			l3.33,37.16c0.1,13.71,7.23,21.88,19.14,21.88s19.04-8.17,19.14-21.88l4.45-49.75C408.12,158.75,408.12,154.81,407.26,151.11z
			 M371.32,155.3c0.15-5.21,5.32-10.92,12.2-10.92c5.13,0,9.31,3.18,11.16,6.96c0.02,0.04,0.04,0.08,0.06,0.11
			c0.11,0.23,0.2,0.46,0.29,0.69c0.05,0.13,0.1,0.26,0.15,0.39c0.09,0.26,0.18,0.53,0.25,0.79c0,0.01,0.01,0.02,0.01,0.03
			c0.17,0.65,0.26,1.3,0.28,1.95l-0.46,5.1c-0.96,2.91-2.96,5.34-5.69,6.84c-2.87,1.58-6.16,1.96-9.27,1.06l-8.03-2.32L371.32,155.3
			z M305.55,134.1l-3.36,11.65l-11.62-3.36c-6.46-1.87-10.21-8.64-8.34-15.11c0.93-3.23,3.09-5.77,5.82-7.28
			c0.01,0,0.01-0.01,0.02-0.01c0.25-0.14,0.52-0.26,0.78-0.38c1.55-0.7,3.25-1.09,5.02-1.09c1.13,0,2.26,0.16,3.35,0.47
			C303.67,120.85,307.41,127.63,305.55,134.1z M63.34,218.8c0-27.96,22.75-50.72,50.72-50.72h28.98c43.12,0,78.56,33.51,81.64,75.86
			H63.34V218.8z M264.69,311.53H61.91c-15.33,0-27.8-12.47-27.8-27.8c0-15.33,12.47-27.8,27.8-27.8H230.9h33.8
			c3.7,0,7.24,0.73,10.47,2.05c0.13,0.06,0.25,0.11,0.38,0.15c9.95,4.24,16.94,14.11,16.94,25.59
			C292.49,299.06,280.02,311.53,264.69,311.53z M273.54,244.94c-2.85-0.65-5.8-1-8.85-1h-16.27l27.93-96.7
			c2.94,3.14,6.65,5.46,10.88,6.68l11.62,3.36L273.54,244.94z M313.71,149.08l3.36-11.65c1.24-4.3,1.23-8.68,0.18-12.73l49.52,14.3
			c-4.57,4.24-7.46,10.13-7.46,16.54c0,0.18,0.01,0.36,0.02,0.54l0.57,6.35L313.71,149.08z M390.66,212.12
			c0,10.16-4.47,10.16-7.14,10.16s-7.14,0-7.14-10.16c0-0.18-0.01-0.36-0.02-0.54l-2.93-32.78l3.55,1.02
			c2.21,0.64,4.47,0.96,6.71,0.96c3.41,0,6.78-0.74,9.95-2.17l-2.95,32.97C390.66,211.76,390.66,211.94,390.66,212.12z"/>
	</g>
	<path class="st2" d="M102.92,231.67c-3.31,0-6-2.69-6-6v-29.01c0-3.31,2.69-6,6-6s6,2.69,6,6v29.01
		C108.92,228.98,106.23,231.67,102.92,231.67z"/>
	<path class="st2" d="M130.92,231.67c-3.31,0-6-2.69-6-6v-29.01c0-3.31,2.69-6,6-6s6,2.69,6,6v29.01
		C136.92,228.98,134.23,231.67,130.92,231.67z"/>
</g>
</svg>
