<?xml version="1.0" encoding="utf-8"?>
<!-- Generator: Adobe Illustrator 24.1.2, SVG Export Plug-In . SVG Version: 6.00 Build 0)  -->
<svg version="1.1" id="Warstwa_3" xmlns="http://www.w3.org/2000/svg" xmlns:xlink="http://www.w3.org/1999/xlink" x="0px" y="0px"
	 viewBox="0 0 430 430" style="enable-background:new 0 0 430 430;" xml:space="preserve">
<style type="text/css">
	.st0{fill:#000000;}
	.st1{fill:#000000;}
	.st2{fill:#000000;}
	.st3{fill:none;}
</style>
<g>
	<path class="st2" d="M374.25,196.27H309V168.1c0-3.31-2.69-6-6-6h-29.31v-28.17c0-3.31-2.69-6-6-6h-71.25c-3.31,0-6,2.69-6,6v28.17
		H160.5c-3.31,0-6,2.69-6,6v34.17v34.16c0,3.31,2.69,6,6,6h65.25v28.17c0,3.31,2.69,6,6,6s6-2.69,6-6v-28.17h65.19
		c0.02,0,0.04,0,0.06,0h71.25c3.31,0,6-2.69,6-6v-34.17C380.25,198.95,377.56,196.27,374.25,196.27z M297,196.27h-59.25V174.1h29.94
		H297V196.27z M202.44,139.93h59.25v22.17h-28.79c-0.37-0.07-0.75-0.11-1.15-0.11s-0.78,0.04-1.15,0.11h-28.16V139.93z M166.5,174.1
		h29.94h29.31v22.17H166.5V174.1z M166.5,230.43v-22.16h59.25v22.16H166.5z M237.75,208.27H297v22.16h-59.25V208.27z M368.25,230.43
		H309v-22.17h59.25V230.43z"/>
	<path class="st2" d="M89.51,276.6H18.56c-3.31,0-6-2.69-6-6s2.69-6,6-6h70.95c3.31,0,6,2.69,6,6S92.82,276.6,89.51,276.6z"/>
	<path class="st1" d="M416.69,233.56c-1.05-1.92-3.07-3.11-5.26-3.11L303,230.43c0,0,0,0,0,0c-1.59,0-3.12,0.63-4.24,1.76
		c-1.13,1.13-1.76,2.65-1.76,4.24v18.36c0,5.41-4.4,9.81-9.81,9.81H176.31c-5.41,0-9.81-4.4-9.81-9.81v-18.36c0-3.31-2.69-6-6-6
		h-36.18v-81.18l25.64-37.64c1.25-1.84,1.38-4.22,0.35-6.18c-1.04-1.97-3.08-3.2-5.3-3.2H34.03c-2.22,0-4.26,1.23-5.3,3.2
		c-1.04,1.97-0.91,4.34,0.35,6.18l25.64,37.64v81.18H18.56c-3.31,0-6,2.69-6,6v34.1c0,31.56,25.68,57.24,57.24,57.24h287.37
		c2.05,0,3.96-1.05,5.06-2.78l54.26-85.33C417.67,237.82,417.75,235.47,416.69,233.56z M133.65,114.23l-18.49,27.15H63.87
		l-18.49-27.15H133.65z M66.71,153.38h45.61v77.05H66.71V153.38z M353.88,315.77H69.81c-24.95,0-45.24-20.29-45.24-45.24v-28.1
		H154.5v12.36c0,12.03,9.78,21.81,21.81,21.81h110.88c12.03,0,21.81-9.78,21.81-21.81v-12.36l91.52,0.01L353.88,315.77z"/>
	<g>
		<path class="st2" d="M91.78,181.99h-4.54c-3.31,0-6-2.69-6-6s2.69-6,6-6h4.54c3.31,0,6,2.69,6,6S95.1,181.99,91.78,181.99z"/>
		<path class="st2" d="M91.78,210.21h-4.54c-3.31,0-6-2.69-6-6s2.69-6,6-6h4.54c3.31,0,6,2.69,6,6S95.1,210.21,91.78,210.21z"/>
	</g>
</g>
</svg>
