<?xml version="1.0" encoding="utf-8"?>
<!-- Generator: Adobe Illustrator 24.1.2, SVG Export Plug-In . SVG Version: 6.00 Build 0)  -->
<svg version="1.1" id="Warstwa_1" xmlns="http://www.w3.org/2000/svg" xmlns:xlink="http://www.w3.org/1999/xlink" x="0px" y="0px"
	 viewBox="0 0 430 430" style="enable-background:new 0 0 430 430;" xml:space="preserve">
<style type="text/css">
	.st0{fill:#000000;}
	.st1{fill:#000000;}
	.st2{fill:none;stroke:#000000;stroke-width:12;stroke-linecap:round;stroke-linejoin:round;stroke-miterlimit:10;}
	.st3{fill:#00A689;}
</style>
<g>
	<path class="st1" d="M256.46,200.64c-2.34-2.34-6.14-2.34-8.48,0L221,227.62V81.49c0-3.31-2.69-6-6-6s-6,2.69-6,6v146.12
		l-26.98-26.98c-2.34-2.34-6.14-2.34-8.48,0c-2.34,2.34-2.34,6.14,0,8.49l37.22,37.22c0.28,0.28,0.59,0.53,0.93,0.76
		c0.02,0.01,0.04,0.03,0.07,0.04c0.31,0.2,0.63,0.37,0.97,0.51c0.03,0.01,0.05,0.02,0.08,0.03c0.33,0.13,0.68,0.24,1.04,0.31
		c0.02,0,0.04,0.01,0.06,0.01c0.36,0.07,0.73,0.11,1.1,0.11s0.75-0.04,1.1-0.11c0.02,0,0.04-0.01,0.06-0.01
		c0.36-0.07,0.71-0.18,1.04-0.31c0.03-0.01,0.05-0.02,0.08-0.03c0.34-0.14,0.67-0.31,0.97-0.51c0.02-0.01,0.04-0.03,0.07-0.04
		c0.33-0.22,0.64-0.47,0.93-0.76l37.22-37.22C258.81,206.78,258.81,202.98,256.46,200.64z"/>
	<path class="st0" d="M348.43,281.04H81.57c-3.31,0-6,2.69-6,6v34.78v26.69c0,3.31,2.69,6,6,6h59.2c3.31,0,6-2.69,6-6v-20.69h32.64
		v20.69c0,3.31,2.69,6,6,6h59.2c3.31,0,6-2.69,6-6v-20.69h32.64v20.69c0,3.31,2.69,6,6,6h59.2c3.31,0,6-2.69,6-6v-26.69v-34.78
		C354.43,283.72,351.75,281.04,348.43,281.04z M87.57,293.04h254.87v22.78H87.57V293.04z M134.76,342.51h-47.2v-14.69h47.2V342.51z
		 M238.6,342.51h-47.2v-14.69h47.2V342.51z M295.24,342.51v-14.69h47.2v14.69H295.24z"/>
</g>
</svg>
