<?xml version="1.0" encoding="utf-8"?>
<!-- Generator: Adobe Illustrator 25.4.1, SVG Export Plug-In . SVG Version: 6.00 Build 0)  -->
<svg version="1.1" id="outline" xmlns="http://www.w3.org/2000/svg" xmlns:xlink="http://www.w3.org/1999/xlink" x="0px" y="0px"
	 viewBox="0 0 500 500" style="enable-background:new 0 0 500 500;" xml:space="preserve">
<style type="text/css">
	.st0{fill:#000000;}
	.st1{fill:#000000;}
	.st2{fill:#FFFFFF;}
	.st3{fill:#000000;}
</style>
<g>
	<path class="st1" d="M273.35,284.89h-50.04c-3.31,0-6-2.69-6-6v-17.58c0-16.9,13.75-30.65,30.65-30.65h0.74
		c16.9,0,30.65,13.75,30.65,30.65v17.58C279.35,282.2,276.67,284.89,273.35,284.89z M229.32,272.89h38.04v-11.58
		c0-10.28-8.37-18.65-18.65-18.65h-0.74c-10.28,0-18.65,8.37-18.65,18.65V272.89z"/>
	<path class="st1" d="M348.41,284.89h-50.04c-3.31,0-6-2.69-6-6v-17.58c0-16.9,13.75-30.65,30.65-30.65h0.74
		c16.9,0,30.65,13.75,30.65,30.65v17.58C354.41,282.2,351.72,284.89,348.41,284.89z M304.37,272.89h38.04v-11.58
		c0-10.28-8.37-18.65-18.65-18.65h-0.74c-10.28,0-18.65,8.37-18.65,18.65V272.89z"/>
	<path class="st1" d="M423.47,284.89h-50.04c-3.31,0-6-2.69-6-6v-17.58c0-16.9,13.75-30.65,30.65-30.65h0.74
		c16.9,0,30.65,13.75,30.65,30.65v17.58C429.47,282.2,426.78,284.89,423.47,284.89z M379.43,272.89h38.04v-11.58
		c0-10.28-8.37-18.65-18.65-18.65h-0.74c-10.28,0-18.65,8.37-18.65,18.65V272.89z"/>
	<path class="st1" d="M134.14,284.89H63.19c-3.31,0-6-2.69-6-6s2.69-6,6-6h70.95c3.31,0,6,2.69,6,6S137.45,284.89,134.14,284.89z"/>
	<path class="st0" d="M423.81,349.4H114.2c-31.43,0-57-25.57-57-57l0-42.4c0-1.59,0.63-3.12,1.76-4.24
		c1.13-1.12,2.65-1.76,4.24-1.76h133.44c3.31,0,6,2.69,6,6v13.08c0,5.41,4.4,9.81,9.81,9.81h238.03c2,0,3.87,1,4.99,2.66
		c1.11,1.66,1.32,3.78,0.56,5.63l-26.66,64.51C428.43,347.94,426.24,349.4,423.81,349.4z M69.19,256l0,36.4c0,24.81,20.19,45,45,45
		h305.6l21.7-52.51H212.44c-12.03,0-21.81-9.78-21.81-21.81V256H69.19z"/>
	<g>
		<path class="st1" d="M158.87,184.37h-4.54c-3.31,0-6-2.69-6-6s2.69-6,6-6h4.54c3.31,0,6,2.69,6,6S162.19,184.37,158.87,184.37z"/>
		<path class="st1" d="M158.87,207.54h-4.54c-3.31,0-6-2.69-6-6s2.69-6,6-6h4.54c3.31,0,6,2.69,6,6S162.19,207.54,158.87,207.54z"/>
	</g>
	<path class="st1" d="M247.97,242.66c-3.31,0-6-2.69-6-6v-19.69c0-3.31,2.69-6,6-6s6,2.69,6,6v19.69
		C253.97,239.97,251.28,242.66,247.97,242.66z"/>
	<path class="st1" d="M323.39,241.38c-3.31,0-6-2.69-6-6v-18.41c0-3.31,2.69-6,6-6s6,2.69,6,6v18.41
		C329.39,238.69,326.71,241.38,323.39,241.38z"/>
	<path class="st1" d="M398.08,242.66c-3.31,0-6-2.69-6-6v-19.69c0-3.31,2.69-6,6-6s6,2.69,6,6v19.69
		C404.08,239.97,401.39,242.66,398.08,242.66z"/>
	<path class="st1" d="M398.08,222.97H247.97c-3.31,0-6-2.69-6-6s2.69-6,6-6h150.11c3.31,0,6,2.69,6,6S401.39,222.97,398.08,222.97z"
		/>
	<path class="st0" d="M183.29,229.31h-53.37c-3.31,0-6-2.69-6-6V156.6c0-3.31,2.69-6,6-6h53.37c3.31,0,6,2.69,6,6v66.72
		C189.29,226.63,186.6,229.31,183.29,229.31z M135.92,217.31h41.37V162.6h-41.37V217.31z"/>
	<path class="st0" d="M183.29,256H76.54c-3.31,0-6-2.69-6-6v-26.69c0-3.31,2.69-6,6-6h106.75c3.31,0,6,2.69,6,6V250
		C189.29,253.31,186.6,256,183.29,256z M82.54,244h94.75v-14.69H82.54V244z"/>
	<path class="st0" d="M103.23,229.11c-3.31,0-6-2.69-6-6V183.6c0-3.31,2.69-6,6-6s6,2.69,6,6v39.51
		C109.23,226.42,106.54,229.11,103.23,229.11z"/>
</g>
</svg>
