<?xml version="1.0" encoding="utf-8"?>
<!-- Generator: Adobe Illustrator 24.1.2, SVG Export Plug-In . SVG Version: 6.00 Build 0)  -->
<svg version="1.1" id="Warstwa_3" xmlns="http://www.w3.org/2000/svg" xmlns:xlink="http://www.w3.org/1999/xlink" x="0px" y="0px"
	 viewBox="0 0 430 430" style="enable-background:new 0 0 430 430;" xml:space="preserve">
<style type="text/css">
	.st0{fill:#000000;}
	.st1{fill:#000000;}
	.st2{fill:#000000;}
	.st3{fill:none;}
</style>
<g>
	<g>
		<g>
			<path class="st2" d="M172.74,165.15c-3.31,0-6-2.69-6-6v-37.04c0-3.31,2.69-6,6-6s6,2.69,6,6v37.04
				C178.74,162.46,176.06,165.15,172.74,165.15z"/>
			<path class="st2" d="M216.44,165.15c-3.31,0-6-2.69-6-6v-37.04c0-3.31,2.69-6,6-6s6,2.69,6,6v37.04
				C222.44,162.46,219.75,165.15,216.44,165.15z"/>
		</g>
		<path class="st2" d="M238.03,127.96h-86.88c-3.31,0-6-2.69-6-6s2.69-6,6-6h86.88c3.31,0,6,2.69,6,6S241.34,127.96,238.03,127.96z"
			/>
	</g>
	<path class="st2" d="M295.06,276.53H28.19c-3.31,0-6-2.69-6-6s2.69-6,6-6h266.87c3.31,0,6,2.69,6,6S298.37,276.53,295.06,276.53z"
		/>
	<path class="st1" d="M407.04,216.34c-1.11-1.99-3.27-3.18-5.53-3.07l-62.89,3.02c-5.47-15.28-15.63-30.46-28.42-42.25
		c-14.39-13.27-30.67-20.89-44.64-20.89H135.23h-0.22H99.64c-17.28,0-31.87,16.54-31.87,36.12c0,3.31,2.69,6,6,6h29.27l-24.1,33.47
		l-32.99,1.58c-2.12,0.1-4.03,1.32-5.02,3.19l-18.04,34.21c-0.89,1.68-0.92,3.69-0.1,5.4l18.04,37.5c1,2.08,3.1,3.4,5.41,3.4h246.23
		c31.91,0,61.5-14.27,77.22-37.23l37.07-54.16C408.04,220.77,408.16,218.33,407.04,216.34z M231.08,195.27v26.18l-80.81,3.88v-30.05
		H231.08z M243.08,195.27h70.29c5.15,6.66,9.52,14.02,12.64,21.62l-82.94,3.98V195.27z M99.64,165.15h35.37h0.22h130.33
		c11.71,0,25.21,7.17,36.92,18.12h-65.39c-0.01,0-0.01,0-0.02,0s-0.01,0-0.02,0h-92.77c-0.01,0-0.01,0-0.02,0s-0.01,0-0.02,0H80.48
		C82.86,173.22,90.92,165.15,99.64,165.15z M117.83,195.27h20.44v30.63l-44.01,2.11L117.83,195.27z M359.78,270.03
		c-13.51,19.74-39.31,32.01-67.31,32.01H50.01l-15.09-31.38l15.03-28.51l340.09-16.32L359.78,270.03z"/>
</g>
</svg>
