<?xml version="1.0" encoding="utf-8"?>
<!-- Generator: Adobe Illustrator 24.1.2, SVG Export Plug-In . SVG Version: 6.00 Build 0)  -->
<svg version="1.1" id="Warstwa_1" xmlns="http://www.w3.org/2000/svg" xmlns:xlink="http://www.w3.org/1999/xlink" x="0px" y="0px"
	 viewBox="0 0 430 430" style="enable-background:new 0 0 430 430;" xml:space="preserve">
<style type="text/css">
	.st0{fill:#000000;}
	.st1{fill:#000000;}
	.st2{fill-opacity:0;}
	.st3{fill:none;}
</style>
<g>
	<path class="st0" d="M215,388.99c-44.58,0-89.15-16.97-123.09-50.9c-67.87-67.87-67.87-178.3,0-246.17
		c67.87-67.87,178.31-67.87,246.18,0c67.87,67.87,67.87,178.3,0,246.17C304.15,372.02,259.58,388.99,215,388.99z M215,52.55
		c-41.62,0-83.24,15.84-114.92,47.53c-63.37,63.37-63.37,166.48,0,229.85c63.37,63.37,166.48,63.37,229.85,0l4.08,4.08l-4.08-4.08
		c63.37-63.37,63.37-166.48,0-229.85C298.24,68.39,256.62,52.55,215,52.55z"/>
	<path class="st1" d="M132.1,303.81c-1.49,0-2.96-0.57-4.07-1.68c-1.95-1.94-2.26-5-0.73-7.29l68.03-102.03
		c0.42-0.63,0.97-1.18,1.6-1.6l102.14-68.14c2.29-1.53,5.35-1.22,7.29,0.73c1.95,1.95,2.24,5.01,0.7,7.3l-68.4,101.65
		c-0.42,0.62-0.95,1.15-1.57,1.57l-101.77,68.52C134.34,303.49,133.22,303.81,132.1,303.81z M204.29,200.17l-51.18,76.76l76.6-51.57
		l51.46-76.48L204.29,200.17z M233.87,229.52L233.87,229.52L233.87,229.52z"/>
	<path class="st1" d="M233.87,229.52l68.4-101.65l-102.14,68.14l0,0L233.87,229.52L233.87,229.52z"/>
	<path class="st1" d="M233.86,235.3c-1.52,0-2.98-0.6-4.07-1.68l-33.74-33.51c-1.23-1.22-1.84-2.93-1.68-4.65
		c0.17-1.72,1.1-3.28,2.54-4.24l102.14-68.14c2.29-1.53,5.35-1.22,7.29,0.73c1.95,1.95,2.24,5.01,0.7,7.3l-68.4,101.65
		c-0.96,1.43-2.51,2.35-4.22,2.52C234.24,235.29,234.05,235.3,233.86,235.3z M209.21,196.89l23.77,23.61l48.19-71.62L209.21,196.89z
		"/>
</g>
</svg>
