<?xml version="1.0" encoding="utf-8"?>
<!-- Generator: Adobe Illustrator 24.1.2, SVG Export Plug-In . SVG Version: 6.00 Build 0)  -->
<svg version="1.1" id="Warstwa_1" xmlns="http://www.w3.org/2000/svg" xmlns:xlink="http://www.w3.org/1999/xlink" x="0px" y="0px"
	 viewBox="0 0 430 430" style="enable-background:new 0 0 430 430;" xml:space="preserve">
<style type="text/css">
	.st0{fill:#000000;}
	.st1{fill:#000000;}
	.st2{fill-opacity:0;}
	.st3{fill:none;}
</style>
<g>
	<g>
		<path class="st2" d="M267.73,302.95c39.45,6.31,66.59,19.48,66.59,34.7l0,0c0,21.36-53.42,38.67-119.32,38.67
			S95.68,359.01,95.68,337.65c0-15.22,27.14-28.39,66.59-34.7"/>
		<path class="st1" d="M215,382.55c-32.51,0-63.15-4.13-86.29-11.63c-25.68-8.32-39.26-19.83-39.26-33.27c0-6.87,3.8-17,21.9-26.24
			c12.35-6.31,29.62-11.36,49.94-14.61c3.4-0.54,6.6,1.77,7.14,5.17c0.54,3.4-1.77,6.6-5.17,7.14
			c-40.27,6.44-61.34,19.24-61.34,28.55c0,13.54,43.02,32.44,113.08,32.44s113.08-18.89,113.08-32.44c0-9.31-21.07-22.1-61.34-28.55
			c-3.4-0.54-5.71-3.74-5.17-7.14c0.54-3.4,3.74-5.71,7.14-5.17c20.31,3.25,37.58,8.3,49.94,14.61c18.1,9.24,21.9,19.37,21.9,26.24
			c0,13.44-13.58,24.95-39.26,33.27C278.15,378.42,247.51,382.55,215,382.55z"/>
	</g>
	<g>
		<path class="st2" d="M132.92,195.57c-3.13-5.46-5.91-11.14-7.91-17.11c-3.15-9.43-4.85-19.53-4.85-30.02
			c0-54.41,45.86-98.11,101.06-94.56c46.8,3.01,84.86,40.78,88.23,87.56c0.88,12.21-0.57,23.97-3.93,34.89
			c-2.09,6.79-5.13,13.25-8.66,19.41l-81.92,142.68L132.92,195.57z"/>
		<path class="st0" d="M214.94,344.67c-2.23,0-4.29-1.19-5.41-3.13l-82.02-142.86c0,0,0,0,0,0c-3.74-6.52-6.49-12.49-8.42-18.24
			c-3.43-10.28-5.17-21.04-5.17-32c0-27.8,11.64-54.65,31.92-73.67c20.58-19.3,47.49-28.92,75.78-27.1
			c50.01,3.22,90.44,43.35,94.04,93.34c0.91,12.67-0.5,25.18-4.19,37.17c-2.06,6.7-5.07,13.46-9.21,20.68l-81.92,142.69
			C219.23,343.47,217.17,344.67,214.94,344.67z M138.32,192.47l76.62,133.45l76.51-133.27c3.67-6.4,6.33-12.34,8.11-18.14
			c3.23-10.51,4.47-21.49,3.67-32.61c-3.16-43.81-38.58-78.97-82.41-81.79c-24.81-1.59-48.41,6.84-66.45,23.76
			c-18.04,16.92-27.98,39.86-27.98,64.58c0,9.61,1.52,19.04,4.53,28.04C132.58,181.44,135,186.67,138.32,192.47L138.32,192.47z"/>
	</g>
	<g>
		<path class="st2" d="M259.52,148.44c0,24.63-19.97,44.59-44.59,44.59s-44.59-19.97-44.59-44.59s19.97-44.59,44.59-44.59
			S259.52,123.82,259.52,148.44z"/>
		<path class="st1" d="M214.93,199.27c-28.02,0-50.83-22.8-50.83-50.83s22.8-50.82,50.83-50.82s50.83,22.8,50.83,50.82
			S242.96,199.27,214.93,199.27z M214.93,110.08c-21.15,0-38.36,17.21-38.36,38.36s17.21,38.36,38.36,38.36s38.36-17.21,38.36-38.36
			S236.08,110.08,214.93,110.08z"/>
	</g>
</g>
</svg>
