<?xml version="1.0" encoding="utf-8"?>
<!-- Generator: Adobe Illustrator 24.1.2, SVG Export Plug-In . SVG Version: 6.00 Build 0)  -->
<svg version="1.1" id="Warstwa_1" xmlns="http://www.w3.org/2000/svg" xmlns:xlink="http://www.w3.org/1999/xlink" x="0px" y="0px"
	 viewBox="0 0 430 430" style="enable-background:new 0 0 430 430;" xml:space="preserve">
<style type="text/css">
	.st0{fill:#000000;}
	.st1{fill:#000000;}
	.st2{fill-opacity:0;}
	.st3{fill:none;}
</style>
<g>
	<path class="st1" d="M377.57,382.75H52.43c-2.18,0-4.2-1.14-5.33-3s-1.21-4.18-0.2-6.11l46.87-89.97c1.07-2.06,3.2-3.35,5.53-3.35
		h54.85c3.44,0,6.23,2.79,6.23,6.23s-2.79,6.23-6.23,6.23h-51.07l-40.38,77.51h304.58l-40.38-77.51h-51.24
		c-3.44,0-6.23-2.79-6.23-6.23s2.79-6.23,6.23-6.23h55.02c2.32,0,4.45,1.29,5.53,3.35l46.88,89.97c1.01,1.93,0.93,4.25-0.2,6.11
		S379.74,382.75,377.57,382.75z"/>
	<path class="st0" d="M215.4,344.47c-2.23,0-4.29-1.19-5.41-3.13l-82.02-142.86c0,0,0,0,0,0c-3.74-6.52-6.49-12.49-8.42-18.24
		c-3.43-10.28-5.17-21.04-5.17-32c0-27.8,11.64-54.65,31.92-73.67c20.58-19.3,47.48-28.92,75.78-27.1
		c50.01,3.22,90.44,43.35,94.04,93.34c0.91,12.67-0.5,25.18-4.19,37.17c-2.06,6.7-5.07,13.46-9.21,20.68l-81.92,142.69
		C219.7,343.28,217.64,344.47,215.4,344.47z M138.79,192.27l76.62,133.45l76.51-133.27c3.67-6.4,6.33-12.34,8.11-18.14
		c3.23-10.51,4.47-21.49,3.67-32.61c-3.16-43.81-38.58-78.97-82.41-81.79c-24.81-1.6-48.41,6.84-66.45,23.75
		c-18.04,16.92-27.98,39.86-27.98,64.58c0,9.61,1.52,19.04,4.53,28.04C133.04,181.25,135.46,186.48,138.79,192.27L138.79,192.27z"/>
	<path class="st1" d="M215.39,199.07c-28.02,0-50.83-22.8-50.83-50.82s22.8-50.83,50.83-50.83s50.82,22.8,50.82,50.83
		S243.42,199.07,215.39,199.07z M215.39,109.89c-21.15,0-38.36,17.21-38.36,38.36s17.21,38.36,38.36,38.36s38.36-17.21,38.36-38.36
		S236.55,109.89,215.39,109.89z"/>
</g>
</svg>
