<?xml version="1.0" encoding="utf-8"?>
<!-- Generator: Adobe Illustrator 24.1.2, SVG Export Plug-In . SVG Version: 6.00 Build 0)  -->
<svg version="1.1" id="Warstwa_1" xmlns="http://www.w3.org/2000/svg" xmlns:xlink="http://www.w3.org/1999/xlink" x="0px" y="0px"
	 viewBox="0 0 430 430" style="enable-background:new 0 0 430 430;" xml:space="preserve">
<style type="text/css">
	.st0{fill:#000000;}
	.st1{fill:#000000;}
	.st2{fill-opacity:0;}
	.st3{fill:none;}
</style>
<g>
	<path class="st0" d="M215,389.46c-44.7,0-89.39-17.01-123.42-51.04c-68.05-68.05-68.05-178.78,0-246.83
		c68.05-68.05,178.78-68.05,246.84,0c68.05,68.05,68.05,178.78,0,246.83l0,0C304.39,372.44,259.7,389.46,215,389.46z M215,52.12
		c-41.74,0-83.46,15.88-115.23,47.65c-63.54,63.54-63.54,166.92,0,230.46c63.54,63.54,166.92,63.54,230.46,0
		c63.54-63.54,63.54-166.92,0-230.46C298.47,68,256.73,52.12,215,52.12z M334.33,334.32L334.33,334.32L334.33,334.32z"/>
	<path class="st1" d="M203.44,329.85c-0.32,0-0.64-0.03-0.97-0.08c-2.57-0.44-4.54-2.54-4.79-5.14l-8.61-87.11l-87.11-8.61
		c-2.6-0.26-4.7-2.22-5.14-4.79s0.91-5.12,3.27-6.22l187.99-87.09c2.2-1.02,4.81-0.56,6.53,1.16s2.18,4.32,1.16,6.53l-87.08,188
		C207.73,328.56,205.66,329.85,203.44,329.85z M124.23,219.48l70.7,6.99c2.75,0.27,4.92,2.44,5.19,5.19l6.99,70.71l71.53-154.41
		L124.23,219.48z"/>
</g>
</svg>
