<?xml version="1.0" encoding="utf-8"?>
<!-- Generator: Adobe Illustrator 24.1.2, SVG Export Plug-In . SVG Version: 6.00 Build 0)  -->
<svg version="1.1" id="Warstwa_1" xmlns="http://www.w3.org/2000/svg" xmlns:xlink="http://www.w3.org/1999/xlink" x="0px" y="0px"
	 viewBox="0 0 430 430" style="enable-background:new 0 0 430 430;" xml:space="preserve">
<style type="text/css">
	.st0{fill:#000000;}
	.st1{fill:#000000;}
	.st2{fill-opacity:0;}
	.st3{fill:none;}
</style>
<g>
	<path class="st1" d="M226.55,378.6c-0.36,0-0.72-0.03-1.09-0.09c-2.9-0.49-5.11-2.86-5.4-5.78l-14.64-148.15L57.28,209.93
		c-2.92-0.29-5.29-2.5-5.78-5.4s1.02-5.76,3.68-7L369.34,52.01c2.48-1.15,5.41-0.63,7.34,1.3c1.93,1.93,2.45,4.87,1.3,7.34
		L232.46,374.82C231.38,377.15,229.05,378.6,226.55,378.6z M82.34,199.32l129.68,12.81c3.09,0.31,5.54,2.75,5.84,5.84l12.82,129.69
		L358.7,71.29L82.34,199.32z"/>
</g>
</svg>
