<?xml version="1.0" encoding="utf-8"?>
<!-- Generator: Adobe Illustrator 24.1.2, SVG Export Plug-In . SVG Version: 6.00 Build 0)  -->
<svg version="1.1" id="Warstwa_1" xmlns="http://www.w3.org/2000/svg" xmlns:xlink="http://www.w3.org/1999/xlink" x="0px" y="0px"
	 viewBox="0 0 430 430" style="enable-background:new 0 0 430 430;" xml:space="preserve">
<style type="text/css">
	.st0{fill:#000000;}
	.st1{fill:#000000;}
	.st2{fill-opacity:0;}
	.st3{fill:none;}
</style>
<g>
	<path class="st0" d="M162.98,294.97c-2.13,0-4.18-1.17-5.21-3.2c-1.45-2.87-0.3-6.38,2.57-7.84l104.08-52.68
		c2.87-1.46,6.38-0.3,7.84,2.57s0.3,6.38-2.57,7.84L165.6,294.34C164.76,294.77,163.86,294.97,162.98,294.97z"/>
	<path class="st1" d="M119.11,365.5c-5.24,0-10.51-0.78-15.67-2.36c-28.14-8.6-44.03-38.49-35.43-66.63
		c8.6-28.14,38.49-44.03,66.63-35.42c13.63,4.17,24.82,13.39,31.51,25.98s8.08,27.02,3.91,40.65
		c-4.17,13.63-13.39,24.82-25.98,31.51C136.27,363.39,127.73,365.5,119.11,365.5z M119.06,270.43c-17.85,0-34.41,11.57-39.89,29.5
		c-6.72,21.99,5.7,45.34,27.68,52.06c10.65,3.26,21.93,2.17,31.76-3.06c9.83-5.23,17.04-13.97,20.3-24.62
		c3.26-10.65,2.17-21.93-3.06-31.76c-5.23-9.83-13.97-17.04-24.62-20.3C127.19,271.01,123.09,270.43,119.06,270.43z"/>
	<path class="st0" d="M267.05,199.37c-0.89,0-1.78-0.2-2.63-0.63l-104.09-52.68c-2.87-1.45-4.02-4.96-2.57-7.84
		c1.45-2.87,4.96-4.03,7.84-2.57l104.09,52.68c2.87,1.45,4.02,4.96,2.57,7.84C271.23,198.2,269.18,199.37,267.05,199.37z"/>
	<path class="st1" d="M119.1,171.24c-21.8,0-42.31-13.47-50.19-35.11c-4.87-13.39-4.24-27.88,1.78-40.8
		c6.02-12.92,16.72-22.72,30.11-27.59c27.65-10.06,58.33,4.24,68.39,31.89c10.06,27.65-4.24,58.33-31.89,68.39
		C131.29,170.2,125.14,171.24,119.1,171.24z M119,76.18c-4.73,0-9.53,0.81-14.22,2.52c-10.46,3.81-18.82,11.46-23.53,21.56
		c-4.71,10.09-5.2,21.41-1.39,31.88c7.86,21.6,31.84,32.78,53.44,24.92c21.6-7.86,32.78-31.83,24.92-53.44
		C152.06,86.71,136.04,76.18,119,76.18z"/>
	<path class="st1" d="M310.97,268.33c-13.66,0-27.33-5.2-37.73-15.6c-10.08-10.08-15.63-23.48-15.63-37.73
		c0-14.25,5.55-27.65,15.63-37.73c20.8-20.8,54.65-20.8,75.46,0c10.08,10.08,15.63,23.48,15.63,37.73
		c0,14.25-5.55,27.65-15.63,37.73l0,0l0,0C338.3,263.13,324.63,268.33,310.97,268.33z M310.97,173.31
		c-11.14,0-21.61,4.34-29.48,12.21c-7.87,7.87-12.21,18.34-12.21,29.48s4.34,21.61,12.21,29.48c7.87,7.87,18.34,12.21,29.48,12.21
		s21.61-4.34,29.48-12.21l0,0c7.87-7.87,12.21-18.34,12.21-29.48s-4.34-21.61-12.21-29.48
		C332.58,177.65,322.11,173.31,310.97,173.31z"/>
</g>
</svg>
