<?xml version="1.0" encoding="utf-8"?>
<!-- Generator: Adobe Illustrator 25.0.1, SVG Export Plug-In . SVG Version: 6.00 Build 0)  -->
<svg version="1.1" id="Layer_1" xmlns="http://www.w3.org/2000/svg" xmlns:xlink="http://www.w3.org/1999/xlink" x="0px" y="0px"
	 viewBox="0 0 430 430" style="enable-background:new 0 0 430 430;" xml:space="preserve">
<style type="text/css">
	.st0{fill:#000000;}
	.st1{fill:#000000;}
</style>
<g>
	<path class="st0" d="M391.1,221H245.5c-3.3,0-6-2.7-6-6s2.7-6,6-6h145.6c3.3,0,6,2.7,6,6S394.4,221,391.1,221z"/>
	<path class="st0" d="M245.5,221c-1.5,0-3.1-0.6-4.2-1.8c-2.3-2.3-2.3-6.1,0-8.5l53.4-53.4c2.3-2.3,6.1-2.3,8.5,0
		c2.3,2.3,2.3,6.1,0,8.5l-53.4,53.4C248.6,220.4,247.1,221,245.5,221z"/>
	<path class="st0" d="M298.9,274.4c-1.5,0-3.1-0.6-4.2-1.8l-53.4-53.4c-2.3-2.3-2.3-6.1,0-8.5c2.3-2.3,6.1-2.3,8.5,0l53.4,53.4
		c2.3,2.3,2.3,6.1,0,8.5C302,273.8,300.5,274.4,298.9,274.4z"/>
</g>
<g>
	<path class="st1" d="M184.5,221H38.9c-3.3,0-6-2.7-6-6s2.7-6,6-6h145.6c3.3,0,6,2.7,6,6S187.8,221,184.5,221z"/>
	<path class="st1" d="M184.5,221c-1.5,0-3.1-0.6-4.2-1.8l-53.4-53.4c-2.3-2.3-2.3-6.1,0-8.5c2.3-2.3,6.1-2.3,8.5,0l53.4,53.4
		c2.3,2.3,2.3,6.1,0,8.5C187.5,220.4,186,221,184.5,221z"/>
	<path class="st1" d="M131.1,274.4c-1.5,0-3.1-0.6-4.2-1.8c-2.3-2.3-2.3-6.1,0-8.5l53.4-53.4c2.3-2.3,6.1-2.3,8.5,0
		c2.3,2.3,2.3,6.1,0,8.5l-53.4,53.4C134.1,273.8,132.6,274.4,131.1,274.4z"/>
</g>
</svg>
