<?xml version="1.0" encoding="utf-8"?>
<!-- Generator: Adobe Illustrator 24.1.2, SVG Export Plug-In . SVG Version: 6.00 Build 0)  -->
<svg version="1.1" id="Warstwa_3" xmlns="http://www.w3.org/2000/svg" xmlns:xlink="http://www.w3.org/1999/xlink" x="0px" y="0px"
	 viewBox="0 0 430 430" style="enable-background:new 0 0 430 430;" xml:space="preserve">
<style type="text/css">
	.st0{fill:#000000;}
	.st1{fill:#000000;}
	.st2{fill:none;stroke:#000000;stroke-width:12.95;stroke-linecap:round;stroke-linejoin:round;stroke-miterlimit:14.8;}
	.st3{fill:none;}
</style>
<g>
	<path class="st0" d="M340.79,381.96h-66.61c-1.72,0-3.36-0.68-4.58-1.9c-1.21-1.21-1.9-2.86-1.9-4.58l0.03-240.46
		c0-3.58,2.9-6.47,6.48-6.47h66.6c1.72,0,3.36,0.68,4.58,1.9c1.21,1.21,1.9,2.86,1.9,4.58l-0.01,240.46
		C347.26,379.06,344.36,381.96,340.79,381.96z M280.65,369.01h53.66l0.01-227.51h-53.65L280.65,369.01z M248.29,381.96h-66.61
		c-1.72,0-3.36-0.68-4.58-1.9s-1.9-2.86-1.9-4.58l0.03-166.46c0-3.58,2.9-6.47,6.48-6.47h66.6c1.72,0,3.36,0.68,4.58,1.9
		c1.21,1.21,1.9,2.86,1.9,4.58l-0.01,166.46C254.76,379.06,251.86,381.96,248.29,381.96z M188.15,369.01h53.66l0.01-153.51h-53.65
		L188.15,369.01z M155.79,381.96H89.17c-1.72,0-3.36-0.68-4.58-1.9s-1.9-2.86-1.9-4.58l0.03-92.46c0-3.58,2.9-6.47,6.48-6.47h66.6
		c1.72,0,3.36,0.68,4.58,1.9s1.9,2.86,1.9,4.58l-0.01,92.46C162.26,379.06,159.36,381.96,155.79,381.96z M95.65,369.01h53.66
		l0.01-79.51H95.67L95.65,369.01z"/>
	<path class="st0" d="M374.07,381.96H55.93c-3.58,0-6.48-2.9-6.48-6.48V97.99c0-3.58,2.9-6.48,6.48-6.48s6.48,2.9,6.48,6.48v271.02
		h311.67c3.58,0,6.48,2.9,6.48,6.48S377.65,381.96,374.07,381.96z"/>
	<path class="st1" d="M84.09,224.25c-2.03,0-4.03-0.95-5.29-2.73c-2.07-2.92-1.37-6.96,1.54-9.03c0.26-0.19,26.27-18.59,39.46-27.39
		c20.66-13.78,41.79-27.56,62.23-40.89c10.42-6.79,20.84-13.59,31.24-20.41l105.45-69.16c2.99-1.96,7-1.13,8.97,1.86
		c1.96,2.99,1.13,7-1.86,8.97l-105.45,69.16c-10.41,6.83-20.84,13.63-31.27,20.43c-20.41,13.31-41.52,27.07-62.12,40.81
		c-13.04,8.7-38.91,27-39.17,27.19C86.69,223.86,85.38,224.25,84.09,224.25z"/>
	<path class="st1" d="M318.04,103.17c-0.23,0-0.45-0.01-0.68-0.04c-3.56-0.37-6.14-3.56-5.76-7.12l3.33-31.72l-31.77-3.34
		c-3.56-0.37-6.14-3.56-5.76-7.12s3.56-6.14,7.12-5.76l38.21,4.02c1.71,0.18,3.27,1.03,4.36,2.36c1.08,1.33,1.59,3.04,1.41,4.75
		l-4.01,38.16C324.12,100.7,321.31,103.17,318.04,103.17z"/>
</g>
</svg>
