<?xml version="1.0" encoding="utf-8"?>
<!-- Generator: Adobe Illustrator 24.1.2, SVG Export Plug-In . SVG Version: 6.00 Build 0)  -->
<svg version="1.1" id="Warstwa_3" xmlns="http://www.w3.org/2000/svg" xmlns:xlink="http://www.w3.org/1999/xlink" x="0px" y="0px"
	 viewBox="0 0 430 430" style="enable-background:new 0 0 430 430;" xml:space="preserve">
<style type="text/css">
	.st0{fill:#000000;}
	.st1{fill:#000000;}
	.st2{fill:none;stroke:#000000;stroke-width:12.95;stroke-linecap:round;stroke-linejoin:round;stroke-miterlimit:14.8;}
	.st3{fill:none;}
</style>
<g>
	<path class="st0" d="M340.79,364.85h-66.62c-1.72,0-3.37-0.68-4.58-1.9c-1.21-1.21-1.9-2.86-1.9-4.58l0.03-92.46
		c0-3.58,2.9-6.47,6.47-6.47h66.6c1.72,0,3.36,0.68,4.58,1.9c1.21,1.21,1.9,2.86,1.9,4.58l-0.01,92.46
		C347.26,361.95,344.36,364.85,340.79,364.85z M280.65,351.9h53.66l0.01-79.51h-53.65L280.65,351.9z M248.29,364.85h-66.62
		c-1.72,0-3.36-0.68-4.58-1.9c-1.21-1.21-1.9-2.86-1.9-4.58l0.03-166.46c0-3.58,2.9-6.47,6.47-6.47h66.6c1.72,0,3.36,0.68,4.58,1.9
		c1.21,1.21,1.9,2.86,1.9,4.58l-0.01,166.46C254.76,361.95,251.86,364.85,248.29,364.85z M188.15,351.9h53.66l0.01-153.51h-53.65
		L188.15,351.9z M155.79,364.85H89.17c-1.72,0-3.36-0.68-4.58-1.9c-1.21-1.21-1.9-2.86-1.9-4.58l0.03-240.23
		c0-3.58,2.9-6.47,6.47-6.47h66.6c1.72,0,3.36,0.68,4.58,1.9c1.21,1.21,1.9,2.86,1.9,4.58l-0.01,240.23
		C162.26,361.95,159.36,364.85,155.79,364.85z M95.65,351.9h53.67l0.01-227.28H95.67L95.65,351.9z"/>
	<path class="st0" d="M374.07,364.85H55.93c-3.58,0-6.47-2.9-6.47-6.48V80.88c0-3.58,2.9-6.48,6.47-6.48s6.47,2.9,6.47,6.48V351.9
		h311.67c3.58,0,6.47,2.9,6.47,6.48S377.65,364.85,374.07,364.85z"/>
	<path class="st1" d="M340.08,231.97c-0.66,0-1.34-0.1-2-0.32l-36.49-11.86c-3.4-1.1-5.26-4.76-4.16-8.16
		c1.11-3.4,4.76-5.26,8.16-4.16l30.34,9.86l9.87-30.38c1.11-3.4,4.76-5.26,8.16-4.16c3.4,1.11,5.26,4.76,4.16,8.16l-11.87,36.54
		C345.35,230.23,342.81,231.97,340.08,231.97z"/>
	<path class="st1" d="M339.85,229.8c-2.34,0-4.59-1.27-5.75-3.48c-28.25-54.21-75.05-95.3-139.09-122.13
		C144.17,82.89,99.44,78.1,87.78,78.1c-3.58,0-6.47-2.9-6.47-6.48s2.9-6.48,6.47-6.48c12.33,0,59.43,4.98,112.23,27.1
		c29.68,12.43,56.32,28.23,79.18,46.95c27.91,22.85,50.24,50.15,66.39,81.13c1.65,3.17,0.42,7.08-2.75,8.73
		C341.88,229.57,340.86,229.8,339.85,229.8z"/>
</g>
</svg>
