<?xml version="1.0" encoding="utf-8"?>
<!-- Generator: Adobe Illustrator 24.1.2, SVG Export Plug-In . SVG Version: 6.00 Build 0)  -->
<svg version="1.1" id="Warstwa_1" xmlns="http://www.w3.org/2000/svg" xmlns:xlink="http://www.w3.org/1999/xlink" x="0px" y="0px"
	 viewBox="0 0 430 430" style="enable-background:new 0 0 430 430;" xml:space="preserve">
<style type="text/css">
	.st0{fill:#000000;}
	.st1{fill:#000000;}
	.st2{fill:none;stroke:#000000;stroke-width:12;stroke-linecap:round;stroke-linejoin:round;stroke-miterlimit:10;}
	.st3{fill:#00A689;}
</style>
<g>
	<g>
		<path class="st1" d="M82.63,147.84c-3.31,0-6,2.69-6,6v121.83c0,3.31,2.69,6,6,6s6-2.69,6-6V153.84
			C88.63,150.53,85.94,147.84,82.63,147.84z"/>
		<path class="st1" d="M115.63,147.84c-3.31,0-6,2.69-6,6v121.83c0,3.31,2.69,6,6,6s6-2.69,6-6V153.84
			C121.63,150.53,118.95,147.84,115.63,147.84z"/>
		<path class="st1" d="M148.64,147.84c-3.31,0-6,2.69-6,6v121.83c0,3.31,2.69,6,6,6s6-2.69,6-6V153.84
			C154.64,150.53,151.95,147.84,148.64,147.84z"/>
		<path class="st1" d="M181.64,147.84c-3.31,0-6,2.69-6,6v121.83c0,3.31,2.69,6,6,6s6-2.69,6-6V153.84
			C187.64,150.53,184.96,147.84,181.64,147.84z"/>
		<path class="st1" d="M214.65,147.84c-3.31,0-6,2.69-6,6v121.83c0,3.31,2.69,6,6,6s6-2.69,6-6V153.84
			C220.65,150.53,217.96,147.84,214.65,147.84z"/>
		<path class="st1" d="M247.66,147.84c-3.31,0-6,2.69-6,6v121.83c0,3.31,2.69,6,6,6s6-2.69,6-6V153.84
			C253.66,150.53,250.97,147.84,247.66,147.84z"/>
		<path class="st1" d="M281.36,147.84c-3.31,0-6,2.69-6,6v121.83c0,3.31,2.69,6,6,6s6-2.69,6-6V153.84
			C287.36,150.53,284.67,147.84,281.36,147.84z"/>
		<path class="st1" d="M314.37,147.84c-3.31,0-6,2.69-6,6v121.83c0,3.31,2.69,6,6,6s6-2.69,6-6V153.84
			C320.37,150.53,317.68,147.84,314.37,147.84z"/>
		<path class="st1" d="M347.37,147.84c-3.31,0-6,2.69-6,6v121.83c0,3.31,2.69,6,6,6s6-2.69,6-6V153.84
			C353.37,150.53,350.69,147.84,347.37,147.84z"/>
	</g>
	<path class="st0" d="M381.12,275.67V153.84v-21.92c0,0,0-0.01,0-0.01v-8.82c0-3.31-2.69-6-6-6h-45.75c-3.31,0-6,2.69-6,6v2.82
		H106.63v-2.82c0-3.31-2.69-6-6-6H54.88c-3.31,0-6,2.69-6,6v8.82v21.93v121.83v21.93c0,0.08,0.01,0.16,0.01,0.24
		c0,0.08-0.01,0.16-0.01,0.24v8.82c0,3.31,2.69,6,6,6h45.75c3.31,0,6-2.69,6-6v-3.31h216.74v3.31c0,3.31,2.69,6,6,6h45.75
		c3.31,0,6-2.69,6-6v-8.82c0-0.08-0.01-0.17-0.01-0.25c0-0.08,0.01-0.16,0.01-0.24V275.67z M369.12,137.91v9.93H60.88v-9.93H369.12z
		 M60.88,159.84h308.24v109.83H60.88V159.84z M60.88,291.6v-9.93h308.24v9.93H60.88z"/>
</g>
</svg>
