<?xml version="1.0" encoding="utf-8"?>
<!-- Generator: Adobe Illustrator 24.1.2, SVG Export Plug-In . SVG Version: 6.00 Build 0)  -->
<svg version="1.1" id="Warstwa_3" xmlns="http://www.w3.org/2000/svg" xmlns:xlink="http://www.w3.org/1999/xlink" x="0px" y="0px"
	 viewBox="0 0 430 430" style="enable-background:new 0 0 430 430;" xml:space="preserve">
<style type="text/css">
	.st0{fill:#000000;}
	.st1{fill:#000000;}
	.st2{fill:none;stroke:#000000;stroke-width:12.95;stroke-linecap:round;stroke-linejoin:round;stroke-miterlimit:14.8;}
	.st3{fill:none;}
</style>
<g>
	<path class="st1" d="M341.25,299.06c-1.6,0-3.21-0.61-4.43-1.84l-107.44-108l-45.01,44.24c-2.45,2.4-6.37,2.39-8.8-0.04
		l-92.08-92.09c-2.44-2.44-2.44-6.4,0-8.84c2.44-2.44,6.4-2.44,8.84,0l87.71,87.71l45.02-44.25c2.45-2.41,6.38-2.39,8.81,0.05
		l111.82,112.4c2.43,2.45,2.42,6.4-0.02,8.84C344.44,298.46,342.85,299.06,341.25,299.06z"/>
	<path class="st1" d="M346.37,303.56h-35c-3.45,0-6.25-2.8-6.25-6.25s2.8-6.25,6.25-6.25h28.75v-28.7c0-3.45,2.8-6.25,6.25-6.25
		s6.25,2.8,6.25,6.25v34.94C352.62,300.76,349.82,303.56,346.37,303.56z"/>
	<path class="st0" d="M398.75,356H31.25c-3.45,0-6.25-2.8-6.25-6.25V80.25C25,76.8,27.8,74,31.25,74h367.5
		c3.45,0,6.25,2.8,6.25,6.25v269.5C405,353.2,402.2,356,398.75,356z M37.5,343.5h355v-257h-355V343.5z"/>
</g>
</svg>
