<?xml version="1.0" encoding="utf-8"?>
<!-- Generator: Adobe Illustrator 24.1.2, SVG Export Plug-In . SVG Version: 6.00 Build 0)  -->
<svg version="1.1" id="Warstwa_3" xmlns="http://www.w3.org/2000/svg" xmlns:xlink="http://www.w3.org/1999/xlink" x="0px" y="0px"
	 viewBox="0 0 430 430" style="enable-background:new 0 0 430 430;" xml:space="preserve">
<style type="text/css">
	.st0{fill:#000000;}
	.st1{fill:#000000;}
	.st2{fill:#000000;fill-opacity:0;}
	.st3{fill:none;}
</style>
<g>
	<path class="st1" d="M380,386.3H215c-94.46,0-171.3-76.84-171.3-171.3S120.54,43.7,215,43.7S386.3,120.54,386.3,215v165
		C386.3,383.48,383.48,386.3,380,386.3z M215,56.3c-87.51,0-158.7,71.19-158.7,158.7c0,87.51,71.19,158.7,158.7,158.7h158.7V215
		C373.7,127.49,302.51,56.3,215,56.3z"/>
	<path class="st0" d="M215.14,259.04c-3.46,0-6.28-2.8-6.3-6.26l-0.01-1.06c0-0.05,0.01-19.24-0.03-32.13l-0.03-9.49
		c-0.04-9.63-0.07-20.54-0.07-39.86c0-11.18,0.01-20.64,0.03-27.31c0.01-3.34,0.02-5.98,0.03-7.79c0.01-0.92,0.01-1.63,0.02-2.1
		c0.1-6.84,6.07-6.92,6.32-6.92c3.48,0,6.3,2.82,6.3,6.3c0,0.14,0,0.29-0.01,0.43c-0.04,1.66-0.09,15.21-0.09,37.39
		c0,19.29,0.04,30.19,0.08,39.81l0.03,9.5c0.04,12.91,0.03,32.13,0.03,32.13l0.01,1.02c0.02,3.48-2.78,6.32-6.26,6.34
		C215.16,259.04,215.15,259.04,215.14,259.04z M215.12,138.73C215.11,138.73,215.11,138.73,215.12,138.73
		C215.11,138.73,215.11,138.73,215.12,138.73z M221.39,132.96c-0.13,1.58-0.84,2.99-1.92,4.03
		C220.56,135.95,221.28,134.53,221.39,132.96z"/>
	<path class="st0" d="M227.63,294.03c0,6.33-5.13,11.47-11.47,11.47c-6.33,0-11.47-5.13-11.47-11.47c0-6.33,5.13-11.47,11.47-11.47
		C222.5,282.57,227.63,287.7,227.63,294.03z"/>
</g>
</svg>
