<?xml version="1.0" encoding="utf-8"?>
<!-- Generator: Adobe Illustrator 24.1.2, SVG Export Plug-In . SVG Version: 6.00 Build 0)  -->
<svg version="1.1" id="Warstwa_3" xmlns="http://www.w3.org/2000/svg" xmlns:xlink="http://www.w3.org/1999/xlink" x="0px" y="0px"
	 viewBox="0 0 430 430" style="enable-background:new 0 0 430 430;" xml:space="preserve">
<style type="text/css">
	.st0{fill:#000000;}
	.st1{fill:#000000;}
	.st2{fill:none;stroke:#000000;stroke-width:12.95;stroke-linecap:round;stroke-linejoin:round;stroke-miterlimit:14.8;}
	.st3{fill:none;}
</style>
<g>
	<path class="st1" d="M87.91,299.33c-1.6,0-3.2-0.61-4.42-1.83c-2.44-2.44-2.44-6.4,0-8.84l92.08-92.09
		c2.43-2.42,6.35-2.44,8.8-0.04l45.01,44.24l107.44-108c2.43-2.45,6.39-2.46,8.84-0.02c2.45,2.43,2.46,6.39,0.02,8.84l-111.82,112.4
		c-2.42,2.44-6.36,2.46-8.81,0.05l-45.02-44.25L92.33,297.5C91.11,298.72,89.51,299.33,87.91,299.33z"/>
	<path class="st1" d="M346.37,173.88c-3.45,0-6.25-2.8-6.25-6.25v-28.7h-28.75c-3.45,0-6.25-2.8-6.25-6.25s2.8-6.25,6.25-6.25h35
		c3.45,0,6.25,2.8,6.25,6.25v34.94C352.62,171.08,349.82,173.88,346.37,173.88z"/>
	<path class="st0" d="M398.75,356H31.25c-3.45,0-6.25-2.8-6.25-6.25V80.25C25,76.8,27.8,74,31.25,74h367.5
		c3.45,0,6.25,2.8,6.25,6.25v269.5C405,353.2,402.2,356,398.75,356z M37.5,343.5h355v-257h-355V343.5z"/>
</g>
</svg>
