<?xml version="1.0" encoding="utf-8"?>
<!-- Generator: Adobe Illustrator 24.1.2, SVG Export Plug-In . SVG Version: 6.00 Build 0)  -->
<svg version="1.1" id="Warstwa_1" xmlns="http://www.w3.org/2000/svg" xmlns:xlink="http://www.w3.org/1999/xlink" x="0px" y="0px"
	 viewBox="0 0 430 430" style="enable-background:new 0 0 430 430;" xml:space="preserve">
<style type="text/css">
	.st0{fill:#000000;}
	.st1{fill:#000000;}
	.st2{fill:none;}
	.st3{fill:#00A689;}
</style>
<g>
	<g>
		<path class="st1" d="M345.11,164.52H135.65c-3.31,0-6,2.69-6,6s2.69,6,6,6h209.46c3.31,0,6-2.69,6-6S348.43,164.52,345.11,164.52z
			"/>
		<path class="st1" d="M135.65,87.57h209.46c3.31,0,6-2.69,6-6s-2.69-6-6-6H135.65c-3.31,0-6,2.69-6,6S132.34,87.57,135.65,87.57z"
			/>
		<path class="st1" d="M345.11,253.48H135.65c-3.31,0-6,2.69-6,6s2.69,6,6,6h209.46c3.31,0,6-2.69,6-6S348.43,253.48,345.11,253.48z
			"/>
		<path class="st1" d="M345.11,342.43H135.65c-3.31,0-6,2.69-6,6s2.69,6,6,6h209.46c3.31,0,6-2.69,6-6S348.43,342.43,345.11,342.43z
			"/>
	</g>
	<g>
		<path class="st0" d="M84.89,93.07c6.35,0,11.5-5.15,11.5-11.5s-5.15-11.5-11.5-11.5h0c-6.35,0-11.5,5.15-11.5,11.5
			S78.54,93.07,84.89,93.07z"/>
		<path class="st0" d="M84.89,159.02L84.89,159.02c-6.35,0-11.5,5.15-11.5,11.5s5.15,11.5,11.5,11.5s11.5-5.15,11.5-11.5
			S91.24,159.02,84.89,159.02z"/>
		<path class="st0" d="M84.89,247.98L84.89,247.98c-6.35,0-11.5,5.15-11.5,11.5s5.15,11.5,11.5,11.5s11.5-5.15,11.5-11.5
			S91.24,247.98,84.89,247.98z"/>
		<path class="st0" d="M84.89,336.93L84.89,336.93c-6.35,0-11.5,5.15-11.5,11.5s5.15,11.5,11.5,11.5s11.5-5.15,11.5-11.5
			S91.24,336.93,84.89,336.93z"/>
	</g>
</g>
</svg>
