<?xml version="1.0" encoding="utf-8"?>
<!-- Generator: Adobe Illustrator 24.1.2, SVG Export Plug-In . SVG Version: 6.00 Build 0)  -->
<svg version="1.1" id="Warstwa_3" xmlns="http://www.w3.org/2000/svg" xmlns:xlink="http://www.w3.org/1999/xlink" x="0px" y="0px"
	 viewBox="0 0 430 430" style="enable-background:new 0 0 430 430;" xml:space="preserve">
<style type="text/css">
	.st0{fill:#000000;}
	.st1{fill:#dcf0d6;}
	.st2{fill:none;stroke:#dcf0d6;stroke-width:12.95;stroke-linecap:round;stroke-linejoin:round;stroke-miterlimit:14.8;}
	.st3{fill:none;}
</style>
<g>
	<path class="st0" d="M45.6,163.02c-1.01,0-2.04-0.17-3.05-0.54c-4.68-1.69-7.1-6.84-5.41-11.52C64.08,76.22,135.55,26,214.99,26
		c4.97,0,9,4.03,9,9s-4.03,9-9,9C143.11,44,78.44,89.44,54.06,157.07C52.74,160.74,49.28,163.02,45.6,163.02z"/>
	<path class="st0" d="M215.34,229.25c-1.84,0-3.66-0.56-5.19-1.64L43.92,168.35c-4.68-1.67-7.12-6.82-5.46-11.5
		c1.67-4.68,6.82-7.12,11.5-5.46l168.05,59.91c1.7,0.61,3.18,1.71,4.24,3.16l0.34,0.47c2.94,4.01,2.06,9.64-1.95,12.58
		C219.04,228.69,217.18,229.25,215.34,229.25z"/>
	<path class="st0" d="M214.99,404c-104.21,0-189-84.79-189-189c0-19.95,3.1-39.61,9.22-58.41c1.54-4.73,6.62-7.31,11.34-5.77
		c4.73,1.54,7.31,6.62,5.77,11.34c-5.53,17.01-8.34,34.79-8.34,52.85c0,94.29,76.71,171,171,171c18.21,0,36.15-2.86,53.33-8.49
		c3.1-1.1,6.68-0.46,9.22,1.96c3.6,3.43,3.74,9.12,0.31,12.72c-1.02,1.07-2.3,1.89-3.71,2.35C255.08,400.82,235.18,404,214.99,404z"
		/>
	<path class="st0" d="M330.31,360.55c-2.51,0-5-1.04-6.78-3.08L209.9,227.33L43.93,168.36c-4.68-1.66-7.13-6.81-5.47-11.49
		c1.66-4.68,6.81-7.13,11.49-5.47l168.19,59.76c1.45,0.52,2.75,1.4,3.77,2.56l115.17,131.91c3.27,3.74,2.88,9.43-0.86,12.7
		C334.52,359.82,332.41,360.55,330.31,360.55z"/>
	<path class="st0" d="M375.76,304.95c-1.36,0-2.75-0.31-4.05-0.97c-4.44-2.24-6.22-7.65-3.98-12.09
		c10.45-20.68,16.48-42.94,17.92-66.15c0.31-4.96,4.58-8.75,9.54-8.42c4.96,0.31,8.73,4.58,8.42,9.54
		c-1.6,25.67-8.26,50.28-19.82,73.15C382.22,303.14,379.05,304.95,375.76,304.95z"/>
	<path class="st0" d="M271.33,394.99c-3.88,0-7.46-2.53-8.62-6.44c-1.42-4.76,1.3-9.78,6.06-11.19
		c42.9-12.76,80.81-45.47,98.92-85.36c2.06-4.52,7.39-6.53,11.92-4.47c4.53,2.06,6.53,7.39,4.47,11.92
		c-20.21,44.5-62.43,80.97-110.18,95.17C273.04,394.87,272.18,394.99,271.33,394.99z"/>
	<path class="st0" d="M330.3,360.55c-2.51,0-5-1.04-6.78-3.08L208.35,225.56c-2.87-3.29-2.97-8.16-0.23-11.56l0.31-0.39
		c3.11-3.87,8.78-4.49,12.65-1.37c1.24,1,2.15,2.26,2.71,3.64l113.29,129.75c3.27,3.74,2.88,9.43-0.86,12.7
		C334.51,359.82,332.4,360.55,330.3,360.55z"/>
	<path class="st1" d="M215.13,228.64c-2.39,0-4.68-0.95-6.37-2.64c-1.69-1.69-2.64-3.99-2.63-6.38l0.42-181.54
		c-0.35-0.96-0.53-1.99-0.53-3.06c0-4.97,4.03-9,9-9c104.21,0,189,84.79,189,189c0,0.62-0.01,1.24-0.02,1.87
		c-0.01,0.5-0.02,1.01-0.02,1.51c0,3.34-1.82,6.26-4.52,7.81c-1.59,1.42-3.69,2.29-5.99,2.29L215.13,228.64
		C215.13,228.64,215.13,228.64,215.13,228.64z M224.53,44.28l-0.38,166.35l161.8-0.13C383.63,121.47,312.92,49.16,224.53,44.28z"/>
</g>
</svg>
