<?xml version="1.0" encoding="utf-8"?>
<!-- Generator: Adobe Illustrator 24.1.2, SVG Export Plug-In . SVG Version: 6.00 Build 0)  -->
<svg version="1.1" id="Warstwa_3" xmlns="http://www.w3.org/2000/svg" xmlns:xlink="http://www.w3.org/1999/xlink" x="0px" y="0px"
	 viewBox="0 0 430 430" style="enable-background:new 0 0 430 430;" xml:space="preserve">
<style type="text/css">
	.st0{fill:#000000;}
	.st1{fill:#000000;}
	.st2{fill:none;stroke:#000000;stroke-width:12;stroke-linecap:round;stroke-linejoin:round;stroke-miterlimit:10;}
	.st3{fill:none;stroke:#000000;stroke-width:12;stroke-linecap:round;stroke-linejoin:round;stroke-miterlimit:10;}
	.st4{fill:#000000;}
</style>
<g>
	<path class="st1" d="M210.41,143.05h-82.17c-3.31,0-6-2.69-6-6V54.88c0-3.31,2.69-6,6-6h82.17c3.31,0,6,2.69,6,6v82.17
		C216.41,140.37,213.73,143.05,210.41,143.05z M134.24,131.05h70.17V60.88h-70.17V131.05z"/>
	<path class="st0" d="M210.41,262.09h-82.17c-3.31,0-6-2.69-6-6v-82.17c0-3.31,2.69-6,6-6h82.17c3.31,0,6,2.69,6,6v82.17
		C216.41,259.4,213.73,262.09,210.41,262.09z M134.24,250.09h70.17v-70.17h-70.17V250.09z"/>
	<path class="st0" d="M210.41,381.12h-82.17c-3.31,0-6-2.69-6-6v-82.17c0-3.31,2.69-6,6-6h82.17c3.31,0,6,2.69,6,6v82.17
		C216.41,378.43,213.73,381.12,210.41,381.12z M134.24,369.12h70.17v-70.17h-70.17V369.12z"/>
	<path class="st0" d="M301.76,341.09H210.7c-3.31,0-6-2.69-6-6s2.69-6,6-6h85.06V103.25h-54.38c-3.31,0-6-2.69-6-6s2.69-6,6-6h60.38
		c3.31,0,6,2.69,6,6v237.84C307.76,338.4,305.07,341.09,301.76,341.09z"/>
	<g>
		<path class="st0" d="M241.39,103.25c-1.73,0-3.45-0.75-4.64-2.19c-2.1-2.56-1.73-6.34,0.83-8.44l26.69-21.92
			c2.56-2.1,6.34-1.73,8.44,0.83c2.1,2.56,1.73,6.34-0.83,8.44l-26.69,21.92C244.08,102.8,242.73,103.25,241.39,103.25z"/>
		<path class="st0" d="M268.07,125.17c-1.34,0-2.69-0.45-3.8-1.36l-26.69-21.92c-2.56-2.1-2.93-5.88-0.83-8.44
			c2.1-2.56,5.88-2.93,8.44-0.83l26.69,21.92c2.56,2.1,2.93,5.88,0.83,8.44C271.52,124.42,269.8,125.17,268.07,125.17z"/>
	</g>
</g>
</svg>
