<?xml version="1.0" encoding="utf-8"?>
<!-- Generator: Adobe Illustrator 24.1.2, SVG Export Plug-In . SVG Version: 6.00 Build 0)  -->
<svg version="1.1" id="Warstwa_3" xmlns="http://www.w3.org/2000/svg" xmlns:xlink="http://www.w3.org/1999/xlink" x="0px" y="0px"
	 viewBox="0 0 430 430" style="enable-background:new 0 0 430 430;" xml:space="preserve">
<style type="text/css">
	.st0{fill:#000000;}
	.st1{fill:#000000;}
	.st2{fill:#000000;}
	.st3{fill:none;stroke:#000000;stroke-width:12;stroke-linecap:round;stroke-linejoin:round;stroke-miterlimit:10;}
</style>
<g>
	<path class="st1" d="M103.08,311.5c-3.31,0-6-2.69-6-6v-46.68c0-3.31,2.69-6,6-6s6,2.69,6,6v46.68
		C109.08,308.82,106.39,311.5,103.08,311.5z"/>
	<path class="st1" d="M326.92,311.5c-3.31,0-6-2.69-6-6v-46.68c0-3.31,2.69-6,6-6s6,2.69,6,6v46.68
		C332.92,308.82,330.24,311.5,326.92,311.5z"/>
	<path class="st1" d="M326.92,195.21c-3.31,0-6-2.69-6-6v-53.12c0-22.27-18.12-40.4-40.4-40.4h-16.77c-3.31,0-6-2.69-6-6s2.69-6,6-6
		h16.77c28.89,0,52.4,23.5,52.4,52.4v53.12C332.92,192.52,330.24,195.21,326.92,195.21z"/>
	<path class="st1" d="M103.08,195.21c-3.31,0-6-2.69-6-6v-53.12c0-28.89,23.5-52.4,52.4-52.4h17.47c3.31,0,6,2.69,6,6s-2.69,6-6,6
		h-17.47c-22.27,0-40.4,18.12-40.4,40.4v53.12C109.08,192.52,106.39,195.21,103.08,195.21z"/>
	<path class="st0" d="M251.76,130.5h-72.81c-9.92,0-18-8.07-18-18V66.88c0-9.93,8.08-18,18-18h72.81c9.92,0,18,8.07,18,18v45.62
		C269.76,122.42,261.68,130.5,251.76,130.5z M178.95,60.88c-3.31,0-6,2.69-6,6v45.62c0,3.31,2.69,6,6,6h72.81c3.31,0,6-2.69,6-6
		V66.88c0-3.31-2.69-6-6-6H178.95z"/>
	<path class="st0" d="M363.33,264.82h-72.81c-9.92,0-18-8.07-18-18v-45.62c0-9.93,8.08-18,18-18h72.81c9.92,0,18,8.07,18,18v45.62
		C381.33,256.75,373.26,264.82,363.33,264.82z M290.52,195.21c-3.31,0-6,2.69-6,6v45.62c0,3.31,2.69,6,6,6h72.81c3.31,0,6-2.69,6-6
		v-45.62c0-3.31-2.69-6-6-6H290.52z"/>
	<path class="st0" d="M363.33,381.12h-72.81c-9.92,0-18-8.07-18-18V317.5c0-9.93,8.08-18,18-18h72.81c9.92,0,18,8.07,18,18v45.62
		C381.33,373.04,373.26,381.12,363.33,381.12z M290.52,311.5c-3.31,0-6,2.69-6,6v45.62c0,3.31,2.69,6,6,6h72.81c3.31,0,6-2.69,6-6
		V317.5c0-3.31-2.69-6-6-6H290.52z"/>
	<path class="st0" d="M139.48,264.82H66.67c-9.92,0-18-8.07-18-18v-45.62c0-9.93,8.08-18,18-18h72.81c9.92,0,18,8.07,18,18v45.62
		C157.48,256.75,149.41,264.82,139.48,264.82z M66.67,195.21c-3.31,0-6,2.69-6,6v45.62c0,3.31,2.69,6,6,6h72.81c3.31,0,6-2.69,6-6
		v-45.62c0-3.31-2.69-6-6-6H66.67z"/>
	<path class="st0" d="M139.48,381.12H66.67c-9.92,0-18-8.07-18-18V317.5c0-9.93,8.08-18,18-18h72.81c9.92,0,18,8.07,18,18v45.62
		C157.48,373.04,149.41,381.12,139.48,381.12z M66.67,311.5c-3.31,0-6,2.69-6,6v45.62c0,3.31,2.69,6,6,6h72.81c3.31,0,6-2.69,6-6
		V317.5c0-3.31-2.69-6-6-6H66.67z"/>
</g>
</svg>
