<?xml version="1.0" encoding="utf-8"?>
<!-- Generator: Adobe Illustrator 24.1.2, SVG Export Plug-In . SVG Version: 6.00 Build 0)  -->
<svg version="1.1" id="Warstwa_3" xmlns="http://www.w3.org/2000/svg" xmlns:xlink="http://www.w3.org/1999/xlink" x="0px" y="0px"
	 viewBox="0 0 430 430" style="enable-background:new 0 0 430 430;" xml:space="preserve">
<style type="text/css">
	.st0{fill:#000000;}
	.st1{fill:#000000;}
	.st2{fill:none;stroke:#000000;stroke-width:12.25;stroke-miterlimit:14;}
	.st3{fill-opacity:0;}
	.st4{fill:#131432;}
	.st5{fill:none;}
</style>
<g>
	<path class="st0" d="M197.56,347.44H78.61c-3.59,0-6.49-2.91-6.49-6.49v-119c0-0.72,0.12-1.43,0.35-2.11l45.6-132.9
		c0.9-2.62,3.37-4.39,6.14-4.39h57.39c1.95,0,3.8,0.88,5.04,2.4c1.23,1.52,1.72,3.51,1.32,5.42l-26.03,125.08h35.63
		c3.59,0,6.49,2.91,6.49,6.49v119C204.05,344.54,201.15,347.44,197.56,347.44z M85.11,334.46h105.96V228.44h-37.12
		c-1.95,0-3.8-0.88-5.04-2.4c-1.23-1.52-1.72-3.51-1.32-5.42l26.03-125.08h-44.77L85.11,223.03V334.46z"/>
	<path class="st0" d="M351.39,347.44H232.44c-3.59,0-6.49-2.91-6.49-6.49v-119c0-0.72,0.12-1.43,0.35-2.11l45.6-132.9
		c0.9-2.62,3.37-4.39,6.14-4.39h57.39c1.95,0,3.8,0.88,5.04,2.4c1.23,1.52,1.72,3.51,1.32,5.42l-26.03,125.08h35.63
		c3.59,0,6.49,2.91,6.49,6.49v119C357.88,344.54,354.97,347.44,351.39,347.44z M238.93,334.46h105.96V228.44h-37.13
		c-1.95,0-3.8-0.88-5.04-2.4c-1.23-1.52-1.72-3.51-1.32-5.42l26.03-125.08h-44.77l-43.75,127.49V334.46z"/>
</g>
</svg>
