<?xml version="1.0" encoding="utf-8"?>
<!-- Generator: Adobe Illustrator 25.0.1, SVG Export Plug-In . SVG Version: 6.00 Build 0)  -->
<svg version="1.1" id="Layer_1" xmlns="http://www.w3.org/2000/svg" xmlns:xlink="http://www.w3.org/1999/xlink" x="0px" y="0px"
	 viewBox="0 0 430 430" style="enable-background:new 0 0 430 430;" xml:space="preserve">
<style type="text/css">
	.st0{fill:#000000;}
	.st1{fill:#000000;}
</style>
<path class="st0" d="M194.2,380.6c-3.3,0-6-2.7-6-6V155.8c0-3.3,2.7-6,6-6s6,2.7,6,6v218.9C200.2,377.9,197.5,380.6,194.2,380.6z"/>
<path class="st0" d="M194.2,87.1c-3.3,0-6-2.7-6-6V54.4c0-3.3,2.7-6,6-6s6,2.7,6,6v26.7C200.2,84.4,197.5,87.1,194.2,87.1z"/>
<path class="st0" d="M214.2,381.6h-40c-3.3,0-6-2.7-6-6s2.7-6,6-6h40c3.3,0,6,2.7,6,6S217.6,381.6,214.2,381.6z"/>
<path class="st1" d="M295.2,161.7H93.6c-3.3,0-6-2.7-6-6V81.1c0-3.3,2.7-6,6-6h201.6c1.5,0,2.9,0.6,4,1.6l41.3,37.3
	c1.3,1.1,2,2.8,2,4.4c0,1.7-0.7,3.3-2,4.4l-41.3,37.3C298.1,161.2,296.6,161.7,295.2,161.7z M99.6,149.7h193.3l34.6-31.3l-34.6-31.3
	H99.6V149.7z"/>
<path class="st1" d="M259.2,124.4h-132c-3.3,0-6-2.7-6-6s2.7-6,6-6h132c3.3,0,6,2.7,6,6S262.5,124.4,259.2,124.4z"/>
</svg>
