<?xml version="1.0" encoding="utf-8"?>
<!-- Generator: Adobe Illustrator 25.0.1, SVG Export Plug-In . SVG Version: 6.00 Build 0)  -->
<svg version="1.1" id="Layer_1" xmlns="http://www.w3.org/2000/svg" xmlns:xlink="http://www.w3.org/1999/xlink" x="0px" y="0px"
	 viewBox="0 0 430 430" style="enable-background:new 0 0 430 430;" xml:space="preserve">
<style type="text/css">
	.st0{fill:#000000;}
	.st1{fill:#000000;}
</style>
<path class="st0" d="M215,380.6c-3.3,0-6-2.7-6-6V267.9c0-3.3,2.7-6,6-6c3.3,0,6,2.7,6,6v106.8C221,377.9,218.3,380.6,215,380.6z"/>
<path class="st0" d="M215,199.2c-3.3,0-6-2.7-6-6v-37.4c0-3.3,2.7-6,6-6s6,2.7,6,6v37.4C221,196.5,218.3,199.2,215,199.2z"/>
<path class="st0" d="M215,87.1c-3.3,0-6-2.7-6-6V54.4c0-3.3,2.7-6,6-6s6,2.7,6,6v26.7C221,84.4,218.3,87.1,215,87.1z"/>
<path class="st1" d="M315.9,161.7H114.4c-3.3,0-6-2.7-6-6V81.1c0-3.3,2.7-6,6-6h201.6c1.5,0,2.9,0.6,4,1.6l41.3,37.3
	c1.3,1.1,2,2.8,2,4.4c0,1.7-0.7,3.3-2,4.4l-41.3,37.3C318.8,161.2,317.4,161.7,315.9,161.7z M120.4,149.7h193.3l34.6-31.3
	l-34.6-31.3H120.4V149.7z"/>
<path class="st1" d="M315.6,273.9H114.1c-1.5,0-2.9-0.6-4-1.6L68.8,235c-1.3-1.1-2-2.8-2-4.4c0-1.7,0.7-3.3,2-4.4l41.3-37.3
	c1.1-1,2.5-1.6,4-1.6h201.6c3.3,0,6,2.7,6,6v74.7C321.6,271.2,319,273.9,315.6,273.9z M116.4,261.9h193.3v-62.7H116.4l-34.6,31.3
	L116.4,261.9z"/>
<path class="st0" d="M235,381.6h-40c-3.3,0-6-2.7-6-6s2.7-6,6-6h40c3.3,0,6,2.7,6,6S238.3,381.6,235,381.6z"/>
<path class="st1" d="M279.9,124.4h-132c-3.3,0-6-2.7-6-6s2.7-6,6-6h132c3.3,0,6,2.7,6,6S283.3,124.4,279.9,124.4z"/>
<path class="st1" d="M279.9,236.5H211c-3.3,0-6-2.7-6-6s2.7-6,6-6h68.9c3.3,0,6,2.7,6,6S283.3,236.5,279.9,236.5z"/>
<path class="st1" d="M181,236.5h-32c-3.3,0-6-2.7-6-6s2.7-6,6-6h32c3.3,0,6,2.7,6,6S184.3,236.5,181,236.5z"/>
</svg>
