<?xml version="1.0" encoding="utf-8"?>
<!-- Generator: Adobe Illustrator 25.0.1, SVG Export Plug-In . SVG Version: 6.00 Build 0)  -->
<svg version="1.1" id="Layer_1" xmlns="http://www.w3.org/2000/svg" xmlns:xlink="http://www.w3.org/1999/xlink" x="0px" y="0px"
	 viewBox="0 0 430 430" style="enable-background:new 0 0 430 430;" xml:space="preserve">
<style type="text/css">
	.st0{fill:#000000;}
	.st1{fill:#000000;}
</style>
<g>
	<path class="st0" d="M297.4,151c-1,0-2-0.3-3-0.8l-16.7-9.6c-8.8-5.1-11.9-16.5-6.8-25.3l13-22.6c5.1-8.8,16.5-11.9,25.3-6.8
		l5.8,3.4c4.3,2.5,7.4,6.5,8.6,11.3c1.3,4.8,0.6,9.8-1.9,14.1L302.6,148C301.5,149.9,299.5,151,297.4,151z M300,95.4
		c-2.3,0-4.5,1.2-5.7,3.3l-13,22.6c-1.8,3.1-0.7,7.1,2.4,8.9l11.5,6.6l16.3-28.2c0.9-1.5,1.1-3.3,0.7-5c-0.5-1.7-1.5-3.1-3-4
		l-5.8-3.4C302.3,95.7,301.2,95.4,300,95.4z"/>
	<path class="st1" d="M351.1,214.6H305c-1.3,0-2.6-0.4-3.7-1.3l-37.4-29.3c-2.6-2-3.1-5.8-1-8.4c2-2.6,5.8-3.1,8.4-1l35.8,28h44
		c9.2,0,13-7.8,14.5-13.6l-52.1-1.3c-1.4,0-2.8-0.6-3.9-1.6c-8.2-7.5-39.8-28.3-51.5-35.9l-47.9,55.1c-2.2,2.5-6,2.8-8.5,0.6
		c-2.5-2.2-2.8-6-0.6-8.5l51.4-59c2-2.3,5.3-2.7,7.8-1.1c1.8,1.2,42.5,27.5,55.7,38.5l56.9,1.4c1.6,0,3.2,0.7,4.3,1.9
		c1.1,1.2,1.7,2.8,1.6,4.4C378.1,194.3,371.5,214.6,351.1,214.6z"/>
	<path class="st1" d="M243.1,230c-1.4,0-2.7-0.5-3.9-1.4c-2.5-2.1-2.9-5.9-0.7-8.5l32.4-38.5c2.1-2.5,5.9-2.9,8.5-0.7
		c2.5,2.1,2.9,5.9,0.7,8.5l-32.4,38.5C246.5,229.3,244.8,230,243.1,230z"/>
	<path class="st1" d="M159.2,211.9c-5.5,0-11.7-1.6-18-6c-1.4-1-2.3-2.4-2.5-4.1c-0.2-1.6,0.3-3.3,1.3-4.6l48-58.6
		c1.1-1.4,2.8-2.2,4.6-2.2H257c3.3,0,6,2.7,6,6s-2.7,6-6,6h-61.5L154,199c7.2,2.3,12.7-0.8,14.1-1.7l27.4-29.8
		c1.2-1.3,2.9-2,4.6-1.9l27.8,1c3.3,0.1,5.9,2.9,5.8,6.2c-0.1,3.3-2.9,5.9-6.2,5.8l-25.1-0.9l-26,28.2c-0.2,0.3-0.5,0.5-0.8,0.7
		C172.5,209.1,166.5,211.9,159.2,211.9z"/>
	<path class="st1" d="M181.2,198.3c-1.2,0-2.4-0.4-3.4-1.1l-0.2-0.1c0,0-0.1-0.1-0.1-0.1l-18.1-13.5c-2.7-2-3.2-5.7-1.2-8.4
		c2-2.7,5.7-3.2,8.4-1.2l18.1,13.5c2.7,1.9,3.4,5.7,1.5,8.4C184.9,197.4,183,198.3,181.2,198.3z"/>
	<path class="st1" d="M346.3,214.1c-3.3,0-6-2.7-6-6V183c0-3.3,2.7-6,6-6s6,2.7,6,6v25.1C352.3,211.5,349.6,214.1,346.3,214.1z"/>
	<path class="st0" d="M361.2,346.6H57.3c-3.3,0-6-2.7-6-6s2.7-6,6-6h303.8c3.3,0,6,2.7,6,6S364.5,346.6,361.2,346.6z"/>
	<path class="st0" d="M255.1,343.3c-3.3,0-6-2.7-6-6v-57l-36.9-21.7c-2.9-1.7-3.8-5.4-2.1-8.2c1.7-2.9,5.4-3.8,8.2-2.1l39.9,23.5
		c1.8,1.1,3,3,3,5.2v60.5C261.1,340.6,258.4,343.3,255.1,343.3z"/>
	<path class="st0" d="M288.2,323.1h-32.6c-3.3,0-6-2.7-6-6s2.7-6,6-6h32.6c3.3,0,6,2.7,6,6S291.5,323.1,288.2,323.1z"/>
	<path class="st0" d="M302.6,342.3c-1.8,0-3.5-0.8-4.7-2.3l-14.4-18.2c-0.8-1.1-1.3-2.4-1.3-3.7v-38.9c0-18-11.7-24.7-12.2-25
		c-0.2-0.1-0.4-0.2-0.6-0.4l-27.6-19.5l-46.7,48.5c-1.7,1.9-15.1,15.3-46.5,15.8c-30.5,0.5-68.9,0-69.3,0c-1.6,0-3.1-0.7-4.2-1.8
		c-1.1-1.1-1.7-2.7-1.7-4.3c0-0.4,1.1-38.1,45-37.6c25.6,0.3,36.5,0.2,40.9,0.1l41.5-57.2c1.9-2.7,5.6-3.3,8.3-1.4l34.4,24.3
		c0.6,0.3,1.3,0.7,1.8,1.2c0.1,0.1,0.2,0.2,0.2,0.2l30.5,21.6c2.8,1.7,18.1,11.7,18.1,35.3V316l13.1,16.6c2.1,2.6,1.6,6.4-1,8.4
		C305.2,341.9,303.9,342.3,302.6,342.3z M86.4,286.7c12.5,0.1,39.5,0.3,62-0.1c27.2-0.4,37.7-11.8,37.8-11.9
		c0.1-0.1,0.1-0.1,0.2-0.2l45.5-47.2L207,209.7l-39.7,54.7c-1,1.4-2.6,2.3-4.4,2.5c-0.6,0.1-7.1,0.5-44.7,0c-0.3,0-0.5,0-0.8,0
		C95.5,266.9,88.6,279.1,86.4,286.7z"/>
	<path class="st0" d="M118.3,297.2c-3.3,0-6-2.7-6-6v-30.2c0-3.3,2.7-6,6-6s6,2.7,6,6v30.2C124.3,294.5,121.6,297.2,118.3,297.2z"/>
</g>
</svg>
