<?xml version="1.0" encoding="utf-8"?>
<!-- Generator: Adobe Illustrator 24.1.2, SVG Export Plug-In . SVG Version: 6.00 Build 0)  -->
<svg version="1.1" id="Warstwa_1" xmlns="http://www.w3.org/2000/svg" xmlns:xlink="http://www.w3.org/1999/xlink" x="0px" y="0px"
	 viewBox="0 0 430 430" style="enable-background:new 0 0 430 430;" xml:space="preserve">
<style type="text/css">
	.st0{fill:#000000;}
	.st1{fill:#000000;}
	.st2{fill-opacity:0;}
	.st3{fill:none;}
</style>
<g>
	<g>
		<path class="st1" d="M195.42,211.65C195.42,211.65,195.42,211.65,195.42,211.65c-3.48,0-6.3-2.82-6.3-6.3l0.03-70.63
			c0.01-15.61-6.08-30.3-17.13-41.34c-11.04-11.04-25.71-17.12-41.31-17.12c-0.01,0-0.02,0-0.04,0l-10.9,0.01
			c-32.27,0.02-58.56,22.95-58.61,51.12l-0.1,57.37c-0.01,3.47-2.83,6.29-6.3,6.29c0,0-0.01,0-0.01,0
			c-3.48-0.01-6.29-2.83-6.29-6.31l0.1-57.37c0.06-35.1,32-63.67,71.2-63.7l10.9-0.01c0.01,0,0.03,0,0.04,0
			c18.96,0,36.8,7.39,50.22,20.81c13.43,13.43,20.83,31.28,20.82,50.26l-0.03,70.63C201.72,208.83,198.9,211.65,195.42,211.65z"/>
		<path class="st0" d="M335.6,366.35H209.94c-25.31,0-45.9-20.59-45.91-45.9L164,246.23c0-6.63-0.01-39.76,0.02-40.5
			c0.16-3.63,3.12-6.57,6.74-6.7c0.75-0.02,36.41-0.03,40.47-0.03h122.85c0.4,0,39.69,0,40.53,0.02c3.73,0.11,6.75,3.08,6.9,6.76
			c0.03,0.82,0.02,36.49,0.02,40.55l-0.03,74.11l0,0C381.5,345.76,360.9,366.35,335.6,366.35z M176.6,211.62
			c-0.01,6.75-0.01,19.19,0,34.61l0.03,74.22c0.01,18.36,14.95,33.3,33.31,33.3H335.6c18.36,0,33.31-14.94,33.31-33.3l6.3,0l-6.3,0
			l0.03-74.11c0-15.49,0-27.98,0-34.72c-6.7-0.01-19.24-0.01-34.85-0.01H211.23C195.78,211.61,183.35,211.61,176.6,211.62z"/>
		<path class="st1" d="M272.3,319.05c-20.22,0-36.67-16.45-36.67-36.67s16.45-36.67,36.67-36.67s36.67,16.45,36.67,36.67
			S292.52,319.05,272.3,319.05z M272.3,258.31c-13.27,0-24.07,10.8-24.07,24.07c0,13.27,10.8,24.07,24.07,24.07
			c13.27,0,24.07-10.8,24.07-24.07C296.37,269.11,285.57,258.31,272.3,258.31z"/>
	</g>
</g>
</svg>
