<?xml version="1.0" standalone="no"?>
<!DOCTYPE svg PUBLIC "-//W3C//DTD SVG 20010904//EN"
 "http://www.w3.org/TR/2001/REC-SVG-20010904/DTD/svg10.dtd">
<svg version="1.0" xmlns="http://www.w3.org/2000/svg"
 width="512.000000pt" height="512.000000pt" viewBox="0 0 512.000000 512.000000"
 preserveAspectRatio="xMidYMid meet">

<g transform="translate(0.000000,512.000000) scale(0.100000,-0.100000)"
fill="#000000" stroke="none">
<path d="M2415 4208 c-305 -26 -638 -171 -865 -375 -78 -70 -193 -205 -257
-300 -189 -285 -276 -627 -244 -966 28 -307 121 -549 305 -792 222 -294 537
-488 929 -572 114 -25 448 -25 556 0 77 17 98 28 87 45 -4 7 -25 5 -59 -4 -28
-7 -109 -19 -180 -26 -448 -42 -919 140 -1213 469 -159 178 -237 305 -315 517
-58 158 -74 268 -74 501 1 193 3 219 28 323 192 807 997 1306 1792 1111 551
-135 971 -558 1102 -1111 25 -104 27 -130 28 -323 0 -233 -10 -303 -67 -477
l-32 -98 -158 0 c-153 0 -158 1 -158 20 0 55 -72 132 -141 150 -56 15 -110 4
-159 -32 -42 -29 -87 -108 -75 -128 4 -6 -63 -11 -177 -12 -155 -3 -183 -5
-183 -18 0 -10 12 -16 38 -18 l37 -3 0 -474 c0 -442 1 -478 19 -525 26 -68 73
-124 124 -149 41 -20 60 -21 325 -21 304 0 316 2 385 54 19 14 47 50 63 78
l29 53 3 493 c3 459 4 493 20 491 43 -4 54 1 49 22 -3 11 6 53 19 92 68 197
95 420 76 625 -32 343 -156 626 -386 884 -97 109 -158 163 -274 242 -214 145
-464 233 -727 256 -132 11 -129 11 -270 -2z m1453 -2605 c-3 -478 -3 -489 -25
-528 -27 -50 -58 -80 -105 -100 -31 -12 -87 -15 -315 -15 -311 0 -312 0 -368
74 -54 71 -54 74 -55 584 l0 472 435 0 436 0 -3 -487z"/>
<path d="M3270 1534 c0 -295 1 -315 18 -312 16 3 17 27 20 316 2 307 2 312
-18 312 -20 0 -20 -6 -20 -316z"/>
<path d="M3570 1535 c0 -296 1 -316 18 -313 16 3 17 26 17 313 0 287 -1 310
-17 313 -17 3 -18 -17 -18 -313z"/>
<path d="M2547 3804 c-4 -4 -7 -259 -7 -566 0 -449 3 -558 13 -558 16 0 561
545 565 565 9 40 -43 -5 -278 -240 l-255 -255 -5 527 c-5 505 -8 552 -33 527z"/>
</g>
</svg>
