<?xml version="1.0" encoding="utf-8"?>
<!-- Generator: Adobe Illustrator 25.4.1, SVG Export Plug-In . SVG Version: 6.00 Build 0)  -->
<svg version="1.1" id="outline" xmlns="http://www.w3.org/2000/svg" xmlns:xlink="http://www.w3.org/1999/xlink" x="0px" y="0px"
	 viewBox="0 0 500 500" style="enable-background:new 0 0 500 500;" xml:space="preserve">
<style type="text/css">
	.st0{fill:#000000;}
	.st1{fill:#000000;}
	.st2{fill:#FFFFFF;}
	.st3{fill:#000000;}
</style>
<path class="st0" d="M213.68,414.01c-1.54,0-3.07-0.59-4.24-1.76L88.26,291.08c-1.13-1.12-1.76-2.65-1.76-4.24s0.63-3.12,1.76-4.24
	l169.81-169.81c1.13-1.13,2.7-1.75,4.27-1.76l120.6,0.57c3.29,0.02,5.96,2.68,5.97,5.97l0.57,120.6c0.01,1.6-0.62,3.14-1.76,4.27
	L217.92,412.26C216.75,413.43,215.21,414.01,213.68,414.01z M100.99,286.84l112.69,112.69l163.8-163.8l-0.53-112.15l-112.15-0.53
	L100.99,286.84z"/>
<path class="st3" d="M340.4,169.11c-0.58,0-1.17-0.06-1.75-0.17c-0.58-0.12-1.15-0.29-1.69-0.52c-0.54-0.22-1.06-0.5-1.55-0.82
	c-0.5-0.33-0.96-0.71-1.37-1.12c-0.42-0.42-0.79-0.88-1.12-1.37c-0.32-0.49-0.6-1.01-0.83-1.55c-0.22-0.55-0.4-1.11-0.51-1.69
	c-0.12-0.58-0.18-1.17-0.18-1.76c0-0.58,0.06-1.17,0.18-1.75c0.11-0.58,0.29-1.15,0.51-1.69c0.23-0.54,0.51-1.06,0.83-1.55
	c0.33-0.49,0.7-0.95,1.12-1.37c0.41-0.41,0.87-0.79,1.37-1.12c0.49-0.32,1.01-0.6,1.55-0.83c0.54-0.22,1.11-0.39,1.69-0.51
	c2.92-0.59,6.03,0.37,8.12,2.46c0.41,0.42,0.79,0.88,1.12,1.37c0.32,0.49,0.6,1.01,0.82,1.55c0.23,0.54,0.4,1.11,0.52,1.69
	c0.11,0.58,0.17,1.17,0.17,1.75c0,0.59-0.06,1.18-0.17,1.76c-0.12,0.58-0.29,1.14-0.52,1.69c-0.22,0.54-0.5,1.06-0.82,1.55
	c-0.33,0.49-0.71,0.95-1.12,1.37C345.09,168.15,342.77,169.11,340.4,169.11z"/>
<g>
	<path class="st1" d="M247.21,283.65c-0.27,0-0.54,0-0.81-0.01c-8.95-0.21-17.43-3.88-23.88-10.33l0,0
		c-13.39-13.39-13.8-34.77-0.92-47.66c12.89-12.89,34.27-12.48,47.66,0.92c6.45,6.45,10.12,14.93,10.33,23.88
		c0.21,9.05-3.13,17.5-9.41,23.78C264.09,280.32,255.96,283.65,247.21,283.65z M244.59,228.24c-5.33,0-10.56,1.95-14.5,5.9
		c-8.21,8.21-7.8,21.98,0.92,30.69h0c4.26,4.26,9.82,6.68,15.67,6.82c5.72,0.14,11.08-1.96,15.01-5.9c3.94-3.94,6.03-9.27,5.9-15.01
		c-0.14-5.85-2.56-11.42-6.82-15.67C256.25,230.53,250.36,228.24,244.59,228.24z"/>
	<path class="st1" d="M200.43,329.75c-9.17,0-17.8-3.57-24.29-10.06c-13.39-13.39-13.39-35.18,0-48.58
		c5.79-5.79,13.47-9.33,21.62-9.96c3.29-0.26,6.19,2.22,6.44,5.52c0.25,3.3-2.22,6.19-5.52,6.44c-5.3,0.41-10.3,2.71-14.06,6.48
		c-8.71,8.71-8.71,22.89,0,31.61c4.22,4.22,9.83,6.54,15.8,6.54c5.97,0,11.58-2.32,15.8-6.54c3.77-3.77,6.07-8.76,6.48-14.06
		c0.26-3.3,3.15-5.78,6.44-5.52c3.3,0.25,5.78,3.14,5.52,6.44c-0.63,8.15-4.17,15.83-9.96,21.62
		C218.24,326.18,209.61,329.75,200.43,329.75z"/>
	<path class="st1" d="M314.61,258.83c-0.68,0-1.37-0.12-2.04-0.36c-2.19-0.79-3.72-2.78-3.94-5.09l-3.23-35.1
		c-0.12-0.81-0.49-1.96-1.5-2.97c-1.01-1.01-2.34-1.56-3.76-1.56c-1.42,0-2.76,0.55-3.76,1.56c-2.07,2.07-2.07,5.45,0,7.53
		c2.34,2.34,2.34,6.14,0,8.48c-2.34,2.34-6.14,2.34-8.49,0c-6.75-6.75-6.75-17.74,0-24.5c3.27-3.27,7.62-5.08,12.25-5.08
		c4.63,0,8.98,1.8,12.25,5.08c2.71,2.71,4.42,6.16,4.92,9.97c0.01,0.08,0.02,0.16,0.03,0.24l2.07,22.51l10.24-10.24
		c2.34-2.34,6.14-2.34,8.49,0c2.34,2.34,2.34,6.14,0,8.49l-19.28,19.28C317.71,258.22,316.17,258.83,314.61,258.83z"/>
</g>
</svg>
