<?xml version="1.0" encoding="utf-8"?>
<!-- Generator: Adobe Illustrator 25.4.1, SVG Export Plug-In . SVG Version: 6.00 Build 0)  -->
<svg version="1.1" id="outline" xmlns="http://www.w3.org/2000/svg" xmlns:xlink="http://www.w3.org/1999/xlink" x="0px" y="0px"
	 viewBox="0 0 500 500" style="enable-background:new 0 0 500 500;" xml:space="preserve">
<style type="text/css">
	.st0{fill:#000000;}
	.st1{fill:#000000;}
	.st2{fill:#FFFFFF;}
	.st3{fill:#000000;}
</style>
<path class="st1" d="M317.06,389.43c-20.86,0-37.83-17.66-37.83-39.36s16.97-39.36,37.83-39.36s37.83,17.66,37.83,39.36
	S337.92,389.43,317.06,389.43z M317.06,322.72c-14.24,0-25.83,12.27-25.83,27.36c0,15.08,11.59,27.36,25.83,27.36
	c14.24,0,25.83-12.27,25.83-27.36C342.89,334.99,331.3,322.72,317.06,322.72z"/>
<path class="st1" d="M243.41,389.43c-21.7,0-39.36-17.66-39.36-39.36s17.66-39.36,39.36-39.36c9.38,0,18.47,3.36,25.59,9.45
	c2.52,2.16,2.81,5.94,0.65,8.46c-2.16,2.52-5.94,2.81-8.46,0.65c-4.94-4.24-11.26-6.57-17.78-6.57c-15.09,0-27.36,12.27-27.36,27.36
	c0,15.08,12.27,27.36,27.36,27.36c6.52,0,12.84-2.33,17.78-6.57c2.52-2.16,6.31-1.86,8.46,0.65c2.16,2.52,1.86,6.3-0.65,8.46
	C261.88,386.08,252.79,389.43,243.41,389.43z"/>
<path class="st1" d="M410.12,416.08h-40.08c-2.33,0-4.44-1.35-5.43-3.45s-0.67-4.59,0.82-6.38l33.16-39.89
	c1.39-1.86,2.13-4.06,2.13-6.38c0-5.87-4.77-10.64-10.64-10.64c-5.86,0-10.63,4.77-10.63,10.64c0,3.31-2.69,6-6,6s-6-2.69-6-6
	c0-12.48,10.15-22.64,22.63-22.64c12.48,0,22.64,10.16,22.64,22.64c0,5.02-1.61,9.77-4.66,13.76c-0.05,0.06-0.1,0.13-0.15,0.19
	l-25.07,30.16h27.29c3.31,0,6,2.69,6,6S413.44,416.08,410.12,416.08z"/>
<g>
	<path class="st0" d="M304.43,183.53c-6.18,0-11.8-2.19-15.78-6.25c-9.45-9.63-7.32-27.09,4.74-38.94
		c12.06-11.84,29.57-13.64,39.02-4.01c9.45,9.63,7.32,27.1-4.74,38.94c-5.62,5.52-12.59,9.07-19.64,10.02
		C306.81,183.45,305.61,183.53,304.43,183.53z M316.71,140.07c-4.75,0-10.39,2.41-14.91,6.84c-7.22,7.08-9.32,17.14-4.58,21.97
		c2.83,2.89,6.99,2.81,9.22,2.52c4.43-0.59,9.1-3.03,12.83-6.69l0,0c7.22-7.08,9.32-17.14,4.58-21.97
		C322.07,140.93,319.55,140.07,316.71,140.07z"/>
	<path class="st0" d="M256.86,147.4c-3.22,0-6.37-0.73-9.29-2.2c-11.09-5.56-15.1-20.1-8.93-32.4c6.17-12.3,20.21-17.78,31.31-12.22
		c5.52,2.77,9.45,7.76,11.07,14.06c1.54,6,0.78,12.51-2.14,18.33c-2.92,5.82-7.68,10.32-13.42,12.67
		C262.62,146.82,259.71,147.4,256.86,147.4z M260.6,110.39c-4.3,0-8.82,2.94-11.25,7.79c-3.2,6.39-1.59,13.69,3.58,16.29
		c2.37,1.19,5.19,1.22,7.95,0.08c3.05-1.25,5.62-3.72,7.24-6.95l0,0c1.62-3.23,2.06-6.77,1.24-9.96c-0.74-2.89-2.46-5.14-4.82-6.33
		C263.31,110.68,261.97,110.39,260.6,110.39z"/>
	<path class="st0" d="M203.2,128.89c-0.06,0-0.12,0-0.18,0c-5.6-0.05-10.79-2.55-14.62-7.03c-3.63-4.24-5.59-9.81-5.54-15.66
		c0.05-5.86,2.12-11.38,5.83-15.56c3.91-4.41,9.17-6.82,14.75-6.76c11.23,0.1,20.28,10.29,20.16,22.7l0,0
		C223.49,118.92,214.35,128.89,203.2,128.89z M203.27,95.88c-2.06,0-4.04,0.96-5.6,2.72c-1.78,2.01-2.78,4.75-2.81,7.71
		c-0.03,2.96,0.92,5.71,2.66,7.76c1.54,1.8,3.54,2.81,5.61,2.83c4.65,0.07,8.42-4.63,8.47-10.43c0.05-5.79-3.66-10.54-8.28-10.58
		C203.31,95.88,203.29,95.88,203.27,95.88z M217.61,106.52L217.61,106.52L217.61,106.52z"/>
	<path class="st0" d="M151.73,138.55c-3.95,0-7.8-1.36-11.09-3.97c-3.92-3.1-6.58-7.63-7.49-12.75l0,0
		c-1.93-10.85,4.63-21.12,14.63-22.89c9.99-1.78,19.69,5.6,21.62,16.45c0.91,5.12-0.03,10.29-2.64,14.56
		c-2.75,4.49-7.01,7.45-11.99,8.34C153.75,138.46,152.74,138.55,151.73,138.55z M150.78,110.67c-0.3,0-0.61,0.03-0.91,0.08
		c-3.48,0.62-5.68,4.65-4.91,8.98c0,0,0,0,0,0c0.4,2.23,1.5,4.16,3.12,5.44c1.41,1.11,3.04,1.57,4.58,1.3
		c1.55-0.28,2.92-1.27,3.86-2.8c1.08-1.76,1.45-3.95,1.06-6.18C156.87,113.54,153.93,110.67,150.78,110.67z"/>
	<path class="st0" d="M129.14,415.88c-3.93,0-7.89-0.52-11.79-1.56c-11.68-3.13-21.44-10.62-27.48-21.09
		c-6.04-10.47-7.65-22.67-4.52-34.34l44.42-165.79c8.11-30.27,45.67-46.6,83.71-36.41c18.16,4.87,33.81,15,44.06,28.53
		c10.6,13.98,14.23,29.91,10.22,44.85c-2.17,8.08-6.39,15.29-12.57,21.42c-10.35,10.36-20.22,18.3-28.92,25.29
		c-27.08,21.77-44.97,36.16-52.17,98.2c0,0,0,0.01,0,0.01c-0.24,2.45-0.68,4.91-1.33,7.32c-3.13,11.68-10.62,21.44-21.09,27.48
		C144.72,413.82,136.98,415.88,129.14,415.88z M190.54,165.63c-23.86,0-44.14,11.76-49.18,30.58L96.94,361.99
		c-2.3,8.58-1.12,17.55,3.32,25.24c4.44,7.69,11.61,13.2,20.2,15.5c8.58,2.3,17.55,1.12,25.24-3.32c7.69-4.44,13.2-11.61,15.5-20.2
		c0.48-1.8,0.81-3.64,0.98-5.46c0.01-0.09,0.02-0.17,0.03-0.26c7.77-66.82,29.3-84.14,56.55-106.05
		c8.88-7.14,18.06-14.52,27.96-24.43c0.01-0.01,0.01-0.01,0.02-0.02c4.65-4.62,7.83-10.01,9.44-16.02
		c3.02-11.28,0.11-23.54-8.19-34.5c-8.65-11.42-22-20-37.6-24.18C203.66,166.48,196.97,165.63,190.54,165.63z M168.15,374.29
		L168.15,374.29L168.15,374.29z"/>
</g>
</svg>
