<?xml version="1.0" encoding="utf-8"?>
<!-- Generator: Adobe Illustrator 24.1.2, SVG Export Plug-In . SVG Version: 6.00 Build 0)  -->
<svg version="1.1" id="Warstwa_3" xmlns="http://www.w3.org/2000/svg" xmlns:xlink="http://www.w3.org/1999/xlink" x="0px" y="0px"
	 viewBox="0 0 430 430" style="enable-background:new 0 0 430 430;" xml:space="preserve">
<style type="text/css">
	.st0{fill:#000000;}
	.st1{fill:#000000;}
	.st2{fill:#000000;}
	.st3{fill:none;}
</style>
<g>
	<g>
		<path class="st1" d="M357.42,282.97v-113.7c0-15.42-12.55-27.97-27.97-27.97c-15.42,0-27.97,12.55-27.97,27.97v113.7
			c-11.64,8.77-18.5,22.39-18.5,37.1c0,25.62,20.85,46.47,46.47,46.47c25.63,0,46.47-20.85,46.47-46.47
			C375.92,305.36,369.05,291.74,357.42,282.97z M329.44,354.54c-19.01,0-34.47-15.46-34.47-34.47c0-11.74,5.89-22.56,15.76-28.95
			c0.01-0.01,0.03-0.02,0.04-0.03c0.1-0.07,0.2-0.14,0.3-0.21c0.07-0.05,0.13-0.1,0.2-0.15c0.07-0.06,0.14-0.12,0.2-0.18
			c0.08-0.07,0.17-0.14,0.24-0.22c0.03-0.03,0.06-0.06,0.09-0.09c0.38-0.39,0.7-0.82,0.95-1.29c0.06-0.11,0.12-0.23,0.17-0.35
			c0.02-0.05,0.05-0.11,0.08-0.16c0.07-0.16,0.13-0.32,0.18-0.48c0.01-0.02,0.01-0.04,0.02-0.06c0.04-0.13,0.07-0.26,0.1-0.39
			c0.01-0.06,0.03-0.12,0.05-0.18c0.02-0.09,0.03-0.19,0.05-0.29c0.02-0.1,0.04-0.2,0.05-0.3c0.01-0.07,0.01-0.15,0.01-0.22
			c0.01-0.13,0.02-0.26,0.02-0.39c0-0.01,0-0.03,0-0.04v-116.8c0-8.81,7.17-15.97,15.97-15.97s15.97,7.17,15.97,15.97v116.8
			c0,0.01,0,0.03,0,0.04c0,0.13,0.01,0.26,0.02,0.39c0.01,0.07,0.01,0.15,0.01,0.22c0.01,0.1,0.03,0.2,0.05,0.3
			c0.02,0.1,0.03,0.2,0.05,0.29c0.01,0.06,0.03,0.12,0.05,0.18c0.03,0.13,0.06,0.26,0.1,0.39c0.01,0.02,0.01,0.04,0.02,0.06
			c0.05,0.16,0.11,0.33,0.18,0.48c0.02,0.05,0.05,0.11,0.08,0.16c0.06,0.12,0.11,0.24,0.17,0.35c0.25,0.47,0.57,0.9,0.95,1.29
			c0.03,0.03,0.06,0.06,0.09,0.09c0.08,0.08,0.16,0.15,0.24,0.22c0.07,0.06,0.13,0.12,0.2,0.18c0.06,0.05,0.13,0.1,0.2,0.15
			c0.1,0.07,0.19,0.15,0.3,0.21c0.01,0.01,0.03,0.02,0.04,0.03c9.87,6.39,15.76,17.21,15.76,28.95
			C363.92,339.07,348.45,354.54,329.44,354.54z"/>
		<path class="st0" d="M336.94,306.14v-48.09c0-4.14-3.36-7.5-7.5-7.5s-7.5,3.36-7.5,7.5v48.04c-4.5,2.59-7.55,7.44-7.55,13
			c0,8.28,6.72,15,15,15h0.09c8.28,0,14.95-6.72,14.95-15C344.44,313.56,341.42,308.74,336.94,306.14z"/>
	</g>
	<path class="st0" d="M84.2,125.7c-17.71,0-32.12-14.41-32.12-32.12c0-17.71,14.41-32.12,32.12-32.12s32.12,14.41,32.12,32.12
		C116.32,111.29,101.91,125.7,84.2,125.7z M84.2,77.46c-8.89,0-16.12,7.23-16.12,16.12s7.23,16.12,16.12,16.12
		c8.89,0,16.12-7.23,16.12-16.12S93.09,77.46,84.2,77.46z"/>
	<path class="st0" d="M206.63,266.05c-46.29,0-83.96-45.89-83.96-102.29s37.66-102.29,83.96-102.29c19.13,0,37.84,8.02,52.66,22.57
		c3.15,3.1,3.2,8.16,0.1,11.31c-3.1,3.15-8.16,3.2-11.31,0.1c-11.99-11.77-26.32-17.99-41.46-17.99
		c-37.47,0-67.96,38.71-67.96,86.29s30.49,86.29,67.96,86.29c15.13,0,29.47-6.22,41.46-17.99c3.15-3.09,8.22-3.05,11.31,0.1
		c3.09,3.15,3.05,8.22-0.1,11.31C244.47,258.03,225.76,266.05,206.63,266.05z"/>
</g>
</svg>
