<?xml version="1.0" encoding="utf-8"?>
<!-- Generator: Adobe Illustrator 25.4.1, SVG Export Plug-In . SVG Version: 6.00 Build 0)  -->
<svg version="1.1" id="outline" xmlns="http://www.w3.org/2000/svg" xmlns:xlink="http://www.w3.org/1999/xlink" x="0px" y="0px"
	 viewBox="0 0 500 500" style="enable-background:new 0 0 500 500;" xml:space="preserve">
<style type="text/css">
	.st0{fill:#000000;}
	.st1{fill:#000000;}
	.st2{fill:#FFFFFF;}
	.st3{fill:#000000;}
</style>
<g>
	<path class="st1" d="M257.28,249.74c-16.44,0-29.81-13.88-29.81-30.94c0-8.22,3.06-15.95,8.63-21.79
		c5.64-5.91,13.16-9.17,21.18-9.17c0,0,0.01,0,0.01,0c8.01,0,15.53,3.25,21.17,9.16c5.57,5.83,8.64,13.57,8.64,21.79
		c0,8.21-3.06,15.95-8.63,21.79C272.82,246.48,265.3,249.74,257.28,249.74C257.28,249.74,257.28,249.74,257.28,249.74z
		 M239.46,218.79c0,10.45,7.99,18.95,17.81,18.95c0,0,0,0,0,0c4.71,0,9.14-1.94,12.5-5.46c3.43-3.59,5.31-8.39,5.31-13.5
		c0-5.12-1.89-9.91-5.32-13.5c-3.35-3.51-7.79-5.45-12.5-5.45c0,0,0,0,0,0c-4.71,0-9.14,1.94-12.5,5.46
		C241.35,208.88,239.46,213.68,239.46,218.79z"/>
	<path class="st1" d="M200.68,249.76c-8.26,0-16.03-3.22-21.88-9.06c-5.85-5.84-9.07-13.62-9.07-21.88s3.21-16.04,9.06-21.89
		s13.62-9.07,21.88-9.07c0,0,0.01,0,0.01,0c7.38,0,14.52,2.64,20.12,7.43c2.52,2.15,2.81,5.94,0.66,8.46
		c-2.15,2.52-5.94,2.81-8.46,0.66c-3.42-2.93-7.8-4.55-12.31-4.55c0,0,0,0-0.01,0c-5.06,0-9.82,1.97-13.4,5.56
		c-3.58,3.58-5.55,8.34-5.55,13.4s1.98,9.82,5.56,13.4c3.58,3.58,8.34,5.55,13.4,5.55c0,0,0,0,0.01,0c4.52,0,8.89-1.62,12.32-4.55
		c2.52-2.16,6.3-1.86,8.46,0.65c2.16,2.52,1.86,6.3-0.65,8.46c-5.6,4.8-12.74,7.44-20.12,7.44
		C200.69,249.76,200.69,249.76,200.68,249.76z"/>
	<path class="st1" d="M298.26,269.34c-2.33,0-4.44-1.34-5.43-3.45c-0.99-2.11-0.67-4.59,0.82-6.38l19.81-23.85
		c0.36-0.5,0.76-1.28,0.76-2.34c0-2.19-1.78-3.97-3.97-3.97c0,0,0,0,0,0c-1.06,0-2.05,0.41-2.8,1.16c-0.75,0.75-1.16,1.75-1.16,2.81
		c0,3.31-2.68,6-6,6c0,0,0,0,0,0c-3.31,0-6-2.68-6-6c0-4.27,1.66-8.28,4.67-11.29c3.01-3.02,7.02-4.68,11.29-4.68c0,0,0,0,0,0
		c8.8,0,15.97,7.16,15.97,15.96c0,3.54-1.13,6.89-3.29,9.71c-0.05,0.06-0.1,0.13-0.15,0.19l-11.74,14.13l11.22,0c0,0,0,0,0,0
		c3.31,0,6,2.69,6,6c0,3.31-2.68,6-6,6L298.26,269.34C298.27,269.34,298.27,269.34,298.26,269.34z"/>
</g>
<path class="st0" d="M250,416.12c-1.16,0-2.32-0.34-3.33-1.01L86.55,308.37c-2.2-1.47-3.18-4.2-2.41-6.73
	c0.77-2.53,3.1-4.26,5.74-4.26h47.37V89.88c0-3.31,2.69-6,6-6l213.49,0c1.59,0,3.12,0.63,4.24,1.76c1.13,1.12,1.76,2.65,1.76,4.24
	v207.49h47.37c2.64,0,4.98,1.73,5.74,4.26c0.77,2.53-0.21,5.26-2.41,6.73L253.33,415.11C252.32,415.78,251.16,416.12,250,416.12z
	 M109.7,309.37L250,402.91l140.3-93.54h-33.56c-3.31,0-6-2.69-6-6V95.88l-201.49,0v207.49c0,3.31-2.69,6-6,6H109.7z"/>
</svg>
