<?xml version="1.0" encoding="utf-8"?>
<!-- Generator: Adobe Illustrator 24.1.2, SVG Export Plug-In . SVG Version: 6.00 Build 0)  -->
<svg version="1.1" id="Warstwa_3" xmlns="http://www.w3.org/2000/svg" xmlns:xlink="http://www.w3.org/1999/xlink" x="0px" y="0px"
	 viewBox="0 0 430 430" style="enable-background:new 0 0 430 430;" xml:space="preserve">
<style type="text/css">
	.st0{fill:#000000;}
	.st1{fill:#000000;}
	.st2{fill:#000000;fill-opacity:0;}
	.st3{fill:none;}
</style>
<g>
	<path class="st1" d="M150.42,397.46H82.16c-7.16,0-12.98-5.82-12.98-12.98v-37c0-7.16,5.82-12.98,12.98-12.98h1.07v-14.13
		l-46.87-52.89c-5.37-6.06-8.33-13.85-8.33-21.95v-89.99c0-13.17,10.71-23.88,23.88-23.88c6.39,0,12.39,2.49,16.9,7.01
		s6.99,10.53,6.98,16.92l-0.14,65.61c0.99-0.4,2.03-0.75,3.12-1.05c11.87-3.26,24.59,0.46,33.22,9.72l48.28,51.81
		c1.09,1.17,1.69,2.7,1.69,4.29v48.76c3.04,0.58,5.78,2.24,7.73,4.73c2.48,3.16,3.35,7.2,2.4,11.1l-9.06,37
		C161.6,393.39,156.41,397.46,150.42,397.46z M82.16,347.09c-0.21,0-0.38,0.17-0.38,0.38v37c0,0.21,0.17,0.38,0.38,0.38h68.25
		c0.18,0,0.33-0.12,0.37-0.29l9.06-37c0.01-0.06,0.04-0.18-0.07-0.32c-0.11-0.15-0.24-0.15-0.3-0.15H82.16z M95.83,334.49h53.53
		v-46.04l-46.59-50c-5.42-5.82-13.34-8.18-20.65-6.16c-4.67,1.28-6.21,3.35-6.5,6.05v0L110,276.99c2.31,2.6,2.08,6.58-0.52,8.89
		c-2.6,2.31-6.58,2.08-8.89-0.52v0l-35.98-40.43c-0.05-0.05-0.09-0.1-0.13-0.16c0,0,0,0,0,0c0,0,0,0,0-0.01l0,0c0,0,0,0,0-0.01l0,0
		c0,0,0,0,0-0.01c0,0,0,0,0,0c0,0,0,0,0-0.01v0c0,0-0.01-0.01-0.01-0.01c0,0,0,0,0,0c0,0,0,0,0-0.01c0,0,0,0,0,0c0,0,0,0,0,0
		c0,0,0,0-0.01-0.01c0,0,0,0,0-0.01s0,0,0-0.01c0,0,0,0,0,0c0,0,0,0,0,0c0,0,0,0,0,0c0,0,0,0,0,0c0,0,0,0,0,0l0,0
		c-0.01-0.01-0.02-0.03-0.04-0.04l0,0c-0.79-1-1.25-2.22-1.33-3.49c-0.07-1.08-0.07-2.14-0.01-3.16l0.17-82.43
		c0.01-3.02-1.17-5.86-3.3-7.99c-2.13-2.14-4.97-3.31-7.98-3.31c-6.22,0-11.28,5.06-11.28,11.28v89.99c0,5.01,1.83,9.84,5.16,13.59
		l48.46,54.68c1.02,1.15,1.58,2.64,1.58,4.18V334.49z"/>
	<path class="st1" d="M347.84,397.46h-68.25c-6,0-11.18-4.07-12.61-9.89l-9.06-37c-0.96-3.9-0.08-7.94,2.4-11.1
		c1.96-2.5,4.69-4.15,7.73-4.73v-48.76c0-1.59,0.6-3.13,1.69-4.29l48.28-51.81c8.63-9.26,21.35-12.98,33.22-9.72
		c1.09,0.3,2.13,0.65,3.12,1.05l-0.14-65.61c-0.01-6.39,2.46-12.4,6.98-16.92s10.51-7.01,16.9-7.01c13.17,0,23.88,10.71,23.88,23.88
		v89.99c0,8.1-2.96,15.89-8.33,21.95l-46.87,52.89v14.13h1.07c7.16,0,12.98,5.82,12.98,12.98v37
		C360.82,391.63,354.99,397.46,347.84,397.46z M270.52,347.09c-0.06,0-0.19,0-0.3,0.15c-0.11,0.15-0.08,0.27-0.07,0.32l9.06,37
		c0.04,0.17,0.19,0.29,0.37,0.29h68.25c0.21,0,0.38-0.17,0.38-0.38v-37c0-0.21-0.17-0.38-0.38-0.38H270.52z M280.64,334.49h53.53
		v-16.52c0-1.54,0.56-3.03,1.58-4.18l48.46-54.68c3.33-3.75,5.16-8.58,5.16-13.59v-89.99c0-6.22-5.06-11.28-11.28-11.28
		c-3.02,0-5.85,1.18-7.98,3.31c-2.13,2.14-3.3,4.97-3.3,7.99l0.17,82.43c0.07,1.02,0.06,2.07-0.01,3.16
		c-0.08,1.27-0.55,2.49-1.33,3.49l0,0c-0.01,0.01-0.02,0.03-0.04,0.04l0,0c0,0,0,0,0,0c0,0,0,0,0,0c0,0,0,0,0,0c0,0,0,0,0,0
		c0,0,0,0-0.01,0.01s0,0-0.01,0.01c0,0,0,0,0,0c0,0,0,0-0.01,0.01c0,0,0,0,0,0c0,0,0,0,0,0c0,0,0,0,0,0.01c0,0,0,0,0,0
		c0,0-0.01,0.01-0.01,0.01v0c0,0,0,0,0,0.01c0,0,0,0,0,0c0,0,0,0,0,0.01l0,0c0,0,0,0,0,0.01l0,0c0,0,0,0,0,0.01c0,0,0,0,0,0
		c-0.04,0.05-0.09,0.11-0.13,0.16l-35.98,40.43c-2.31,2.6-6.3,2.83-8.89,0.52c-2.6-2.31-2.83-6.29-0.52-8.89l34.38-38.64
		c-0.29-2.7-1.83-4.77-6.5-6.05c-7.32-2.02-15.24,0.34-20.65,6.16l-46.59,50V334.49z"/>
	<path class="st0" d="M215.43,295.99c-3.48,0-6.3-2.82-6.3-6.3l-0.07-165.61c0-3.48,2.82-6.3,6.3-6.3c0,0,0,0,0,0
		c3.48,0,6.3,2.82,6.3,6.3l0.07,165.61C221.73,293.16,218.91,295.98,215.43,295.99C215.43,295.99,215.43,295.99,215.43,295.99z"/>
	<path class="st0" d="M253.93,141.56c-12.51,0-25.47-4.49-38.73-13.45c-0.62-0.4-1.18-0.92-1.65-1.54c0,0,0,0,0-0.01c0,0,0,0,0,0
		c-0.01-0.02-0.03-0.04-0.04-0.06c0,0,0,0,0-0.01c-0.46-0.63-0.78-1.33-0.97-2.04c-6.79-23.1-4.15-42.5,7.85-57.66
		c30.31-38.27,109.84-34.26,113.21-34.07c1.88,0.11,3.62,1.05,4.73,2.57s1.49,3.46,1.01,5.29c-0.84,3.27-21.15,80.27-66.81,97.54
		C266.46,140.42,260.25,141.56,253.93,141.56z M229.95,122.33c13.58,7.24,26.11,8.54,38.1,4.01c31.85-12.03,50.6-61.85,56.79-81.19
		c-20.3,0.03-73.46,2.77-94.59,29.48c-7.96,10.05-10.51,22.39-7.74,37.53l21.22-15.51c0.04-0.03,0.08-0.06,0.13-0.09l14.52-10.61
		l3.39-21.85c0.53-3.44,3.75-5.79,7.19-5.26c3.44,0.53,5.79,3.75,5.26,7.19l-1.46,9.4l14.31-10.46c2.81-2.05,6.75-1.44,8.8,1.37
		c2.05,2.81,1.44,6.75-1.37,8.8l-25.22,18.44c-0.8,1.14-1.96,1.99-3.28,2.4l-2.5,1.82l9.86,1.53c3.44,0.53,5.79,3.75,5.26,7.19
		s-3.76,5.79-7.19,5.26l-22.32-3.47L229.95,122.33z"/>
	<path class="st0" d="M177.37,223.73c-7.27,0-14.33-1.49-21.12-4.47c-44.7-19.61-60.99-97.56-61.66-100.87
		c-0.38-1.85,0.1-3.77,1.29-5.23c1.19-1.46,2.97-2.32,4.86-2.32c3.37,0.01,83.01,0.11,111.29,39.9
		c11.2,15.76,12.83,35.27,4.85,57.99c-0.23,0.72-0.6,1.4-1.11,2.02c-0.5,0.62-1.1,1.12-1.75,1.49
		C201.3,219.89,189.04,223.73,177.37,223.73z M108.83,123.7c5.18,19.63,21.31,70.36,52.5,84.03c11.74,5.15,24.33,4.49,38.26-2.03
		l-20.38-16.59c-0.04-0.03-0.08-0.07-0.12-0.1l-13.95-11.35l-21.99,2.26c-3.46,0.34-6.55-2.16-6.91-5.63
		c-0.35-3.46,2.16-6.55,5.63-6.91l9.46-0.97l-13.75-11.19c-2.7-2.2-3.11-6.16-0.91-8.86s6.17-3.11,8.86-0.91l24.23,19.72
		c1.3,0.48,2.42,1.39,3.15,2.57l2.4,1.95l-1.02-9.93c-0.35-3.46,2.16-6.55,5.63-6.91c3.45-0.35,6.55,2.16,6.91,5.63l2.3,22.46
		l18.42,14.99c3.56-14.97,1.64-27.42-5.78-37.88C182.04,130.29,129.1,124.79,108.83,123.7z"/>
</g>
</svg>
