<?xml version="1.0" encoding="utf-8"?>
<!-- Generator: Adobe Illustrator 25.4.1, SVG Export Plug-In . SVG Version: 6.00 Build 0)  -->
<svg version="1.1" id="outline" xmlns="http://www.w3.org/2000/svg" xmlns:xlink="http://www.w3.org/1999/xlink" x="0px" y="0px"
	 viewBox="0 0 500 500" style="enable-background:new 0 0 500 500;" xml:space="preserve">
<style type="text/css">
	.st0{fill:#000000;}
	.st1{fill:#000000;}
	.st2{fill:#FFFFFF;}
	.st3{fill:#000000;}
</style>
<g>
	<path class="st1" d="M396.14,309.72c-2.8,0-5.31-1.98-5.88-4.83L342.49,64.92c-0.65-3.25,1.46-6.41,4.71-7.06
		c3.25-0.65,6.41,1.46,7.06,4.71l47.77,239.97c0.65,3.25-1.46,6.41-4.71,7.06C396.92,309.68,396.53,309.72,396.14,309.72z"/>
	<path class="st1" d="M233.12,190.29c-2.67,0-5.08-1.79-5.79-4.46c-0.24-0.9-0.27-1.85-0.08-2.76l7.92-38.54l-21.35-31.5
		c-0.08-0.08-0.16-0.16-0.23-0.24c-1.42-1.55-1.92-3.73-1.33-5.75l0.04-0.15c0.66-2.22,2.54-3.87,4.83-4.23
		c0.34-0.05,0.67-0.08,1-0.07c31.79-6.51,46.63-13.89,62.33-21.71c15.91-7.92,32.37-16.11,66.62-23c3.25-0.65,6.41,1.45,7.06,4.7
		c0.65,3.25-1.45,6.41-4.7,7.06c-32.69,6.57-47.72,14.05-63.64,21.98c-14.47,7.2-29.38,14.63-57.71,21.09l18.42,27.17
		c0.91,1.34,1.24,2.99,0.91,4.57l-6.58,32.03c26.67-6.1,40.34-12.9,54.73-20.07c15.91-7.92,32.37-16.11,66.62-23
		c3.25-0.65,6.41,1.45,7.07,4.7c0.65,3.25-1.45,6.41-4.7,7.06c-32.69,6.57-47.72,14.05-63.64,21.98s-32.37,16.11-66.62,23
		C233.91,190.25,233.51,190.29,233.12,190.29z"/>
</g>
<g>
	<path class="st0" d="M321.33,296.01c-1.26,0-2.5-0.4-3.55-1.16l-46.12-33.78c-2.67-1.96-3.25-5.71-1.29-8.39
		c1.96-2.67,5.71-3.25,8.39-1.29l43.72,32.02l55.93-16.65c6.73-2,11.44-8.31,11.44-15.34v-3.57l-62.68,17.83
		c-1.82,0.52-3.77,0.15-5.28-1l-56.46-43L207,285.64c-2.23,2.45-6.03,2.62-8.48,0.38c-2.45-2.23-2.62-6.03-0.38-8.48l62.12-68.01
		c2.09-2.29,5.59-2.61,8.07-0.73l58.44,44.51l67.43-19.18c1.81-0.52,3.75-0.15,5.26,0.98c1.5,1.13,2.38,2.91,2.38,4.79v11.51
		c0,12.29-8.23,23.33-20.01,26.84l-58.78,17.5C322.48,295.93,321.9,296.01,321.33,296.01z"/>
	<path class="st0" d="M244.74,315.34c-1.33,0-2.67-0.44-3.78-1.34c-2.57-2.09-2.96-5.87-0.87-8.44l38.11-46.89
		c2.09-2.57,5.87-2.96,8.44-0.87c2.57,2.09,2.96,5.87,0.87,8.44l-38.11,46.89C248.21,314.59,246.48,315.34,244.74,315.34z"/>
	<path class="st0" d="M155.67,291.05c-6.63,0-13.28-2.25-18.66-6.83l-2.71-2.31c-1.21-1.03-1.96-2.51-2.09-4.1
		c-0.12-1.59,0.39-3.16,1.43-4.37l54.7-63.76c1.14-1.33,2.8-2.09,4.55-2.09h71.91c3.31,0,6,2.69,6,6s-2.69,6-6,6h-69.15
		l-48.87,56.96c6.83,4.26,16.04,3.08,21.51-3.11l27.74-31.33c1.14-1.29,2.77-2.02,4.49-2.02h34.47c3.31,0,6,2.69,6,6s-2.69,6-6,6
		h-31.77l-25.95,29.31C171.64,287.78,163.67,291.05,155.67,291.05z"/>
	<path class="st0" d="M311.3,442.12h-51.11c-3.31,0-6-2.69-6-6v-67.37l-43.29-24.7c-1.65-0.94-2.75-2.6-2.98-4.48
		c-0.23-1.88,0.44-3.76,1.81-5.07l30.75-29.4c2.15-2.06,5.48-2.23,7.83-0.4l35.46,27.53c9.76,7.59,15.36,19.02,15.36,31.36v44.81
		l17.08,24.25c1.29,1.83,1.45,4.23,0.42,6.22C315.59,440.87,313.54,442.12,311.3,442.12z M266.19,430.12h33.54l-11.52-16.35
		c-0.71-1.01-1.09-2.22-1.09-3.46V363.6c0-8.61-3.91-16.59-10.72-21.89l-31.37-24.36l-21.19,20.26l39.32,22.44
		c1.87,1.07,3.03,3.06,3.03,5.21V430.12z"/>
	<path class="st0" d="M151.85,391.2h-88.3c-3.31,0-6-2.69-6-6c0-11.44,4.45-22.19,12.54-30.26c8.07-8.08,18.81-12.53,30.25-12.53
		h50.74l46.64-64.33c1.88-2.6,5.47-3.25,8.15-1.49l40.57,26.69c0.1,0.07,0.2,0.14,0.3,0.21c0.03,0.02,0.1,0.08,0.13,0.1l1.44,1.12
		c1.38,1.07,2.22,2.69,2.31,4.43c0.09,1.74-0.58,3.44-1.85,4.64L179.3,380.2C171.85,387.29,162.11,391.2,151.85,391.2z M70.12,379.2
		h81.72c7.16,0,13.97-2.73,19.16-7.68l64.13-61.31l-31.08-20.44L159,351.92c-1.13,1.56-2.93,2.48-4.86,2.48h-53.8
		c-8.23,0-15.96,3.2-21.77,9.02C74.19,367.8,71.29,373.26,70.12,379.2z"/>
	<path class="st0" d="M244.63,315.44c-1.3,0-2.6-0.42-3.68-1.26l-1.44-1.12c-2.54-1.98-3.07-5.61-1.2-8.23
		c1.88-2.62,5.49-3.29,8.18-1.52l1.55,1.02c1.56,1.03,2.55,2.72,2.68,4.58c0.13,1.86-0.6,3.68-2,4.92l-0.11,0.1
		C247.48,314.93,246.06,315.44,244.63,315.44z"/>
	<path class="st0" d="M304.14,221.71c-1.19,0-2.39-0.35-3.43-1.08l-14.21-9.94c-10.55-7.38-13.13-21.96-5.75-32.5l12.11-17.31
		c3.57-5.11,8.92-8.52,15.06-9.61c6.14-1.09,12.33,0.28,17.44,3.85c10.55,7.37,13.13,21.96,5.75,32.5l-22.04,31.52
		C307.89,220.82,306.03,221.71,304.14,221.71z M312,162.91c-0.66,0-1.33,0.06-2,0.18c-2.98,0.53-5.58,2.19-7.32,4.67l-12.11,17.31
		c-3.58,5.12-2.33,12.21,2.8,15.79l9.29,6.5l18.6-26.61c3.58-5.12,2.33-12.21-2.8-15.79C316.55,163.61,314.3,162.91,312,162.91z"/>
</g>
</svg>
