<?xml version="1.0" encoding="utf-8"?>
<!-- Generator: Adobe Illustrator 24.1.2, SVG Export Plug-In . SVG Version: 6.00 Build 0)  -->
<svg version="1.1" id="Warstwa_3" xmlns="http://www.w3.org/2000/svg" xmlns:xlink="http://www.w3.org/1999/xlink" x="0px" y="0px"
	 viewBox="0 0 430 430" style="enable-background:new 0 0 430 430;" xml:space="preserve">
<style type="text/css">
	.st0{fill:#000000;}
	.st1{fill:#000000;}
	.st2{fill:#000000;fill-opacity:0;}
	.st3{fill:none;}
</style>
<g>
	<path class="st0" d="M177.7,388.51c-27.69,0-57.38-10.98-85.02-31.69c-29.41-22.04-51.48-51.72-59.03-79.38
		c-8.78-32.19,3.23-57.76,32.96-70.14c31.34-13.05,54.69-14.78,71.41-5.3c25.51,14.47,31,52.34,36.81,92.44
		c4.29,29.6,8.73,60.21,20.94,85.11c0.79,1.61,0.76,3.51-0.08,5.1c-0.84,1.59-2.4,2.68-4.18,2.92
		C186.98,388.2,182.36,388.51,177.7,388.51z M113.12,207.16c-11.41,0-25.39,3.48-42.19,10.48c-31.14,12.97-31.58,38.07-26.45,56.83
		c6.81,24.96,27.86,53.07,54.93,73.36c26.86,20.13,56.65,30.58,82.97,29.32c-10.48-24.87-14.62-53.42-18.64-81.12
		c-5.41-37.3-10.52-72.53-31.25-84.3C127.11,208.69,120.67,207.16,113.12,207.16z"/>
	<path class="st1" d="M94.07,261.93c-1.57,0-3.14-0.66-4.24-1.95c-1.24-1.45-30.22-36.15-7.98-94.51c1.1-2.89,4.34-4.34,7.24-3.24
		c2.89,1.1,4.34,4.34,3.24,7.24c-19.76,51.84,4.96,81.96,6.02,83.22c1.99,2.36,1.71,5.89-0.64,7.9
		C96.65,261.49,95.36,261.93,94.07,261.93z"/>
	<path class="st0" d="M318.16,390.71c-11.58,0-23.35-4.15-34.71-12.52c-27.32-20.14-40.84-39.27-41.32-58.48
		c-0.73-29.32,28.9-53.53,60.28-79.17c23.16-18.93,47.11-38.5,62.17-61.79c0.98-1.51,2.62-2.46,4.41-2.55
		c1.8-0.09,3.53,0.68,4.66,2.08c19.94,24.7,28.66,60.41,24.54,100.55c-3.75,36.57-17.82,70.76-37.64,91.48
		C347.59,383.87,333.03,390.71,318.16,390.71z M369.44,191.47c-15.92,21.79-38.26,40.05-59.93,57.76
		c-29.19,23.85-56.76,46.38-56.16,70.2c0.39,15.52,12.41,31.78,36.76,49.73c10.15,7.48,19.55,10.41,28.04,10.42
		c14.21,0,25.88-8.21,34.3-17.01c17.89-18.69,31.14-51.22,34.59-84.87C390.46,244.3,384.07,213.39,369.44,191.47z"/>
	<path class="st1" d="M238.77,386.75c-2.67,0-5.03-1.91-5.51-4.62c-0.54-3.05,1.48-5.96,4.53-6.51
		c54.62-9.76,67.7-46.46,68.23-48.02c1-2.92,4.17-4.5,7.1-3.52s4.51,4.14,3.54,7.07c-0.6,1.81-15.42,44.53-76.9,55.51
		C239.43,386.73,239.1,386.75,238.77,386.75z"/>
	<path class="st0" d="M267.44,176.83c-21.25,0-46.3-9.49-72.35-19.36c-27.97-10.6-56.9-21.55-84.6-22.95
		c-1.8-0.09-3.44-1.04-4.42-2.54c-0.98-1.51-1.18-3.39-0.53-5.07c11.42-29.62,37.99-55.02,74.81-71.53
		c33.54-15.04,70.19-19.95,98.05-13.14c32.42,7.92,48.95,30.83,45.37,62.83c-3.78,33.73-13.59,55-29.98,65.02
		C285.97,174.87,277.1,176.83,267.44,176.83z M119.08,123.96c26.83,2.89,53.82,13.11,79.99,23.02
		c35.25,13.35,68.54,25.96,88.88,13.54c13.24-8.09,21.32-26.64,24.69-56.7c3.75-33.53-17.98-46.07-36.88-50.69
		c-25.13-6.14-59.93-1.36-90.8,12.48C154.32,79.34,130.74,100.33,119.08,123.96z"/>
	<path class="st1" d="M348.68,147.89c-1.6,0-3.18-0.68-4.29-1.99c-35.76-42.42-74.09-35.4-75.7-35.08c-3.03,0.6-5.98-1.36-6.6-4.39
		c-0.61-3.03,1.33-5.98,4.35-6.6c1.87-0.39,46.27-8.91,86.52,38.84c2,2.37,1.69,5.9-0.67,7.9
		C351.24,147.45,349.95,147.89,348.68,147.89z"/>
</g>
</svg>
