<?xml version="1.0" encoding="utf-8"?>
<!-- Generator: Adobe Illustrator 24.1.2, SVG Export Plug-In . SVG Version: 6.00 Build 0)  -->
<svg version="1.1" id="Warstwa_3" xmlns="http://www.w3.org/2000/svg" xmlns:xlink="http://www.w3.org/1999/xlink" x="0px" y="0px"
	 viewBox="0 0 430 430" style="enable-background:new 0 0 430 430;" xml:space="preserve">
<style type="text/css">
	.st0{fill:#000000;}
	.st1{fill:#000000;}
	.st2{fill:#000000;fill-opacity:0;}
	.st3{fill:none;}
</style>
<g>
	<path class="st1" d="M150.42,403.53H82.16c-7.16,0-12.98-5.82-12.98-12.98v-37c0-7.16,5.82-12.98,12.98-12.98h1.07v-14.13
		l-46.87-52.89c-5.37-6.06-8.33-13.85-8.33-21.95v-89.99c0-13.17,10.71-23.88,23.88-23.88c6.39,0,12.39,2.49,16.9,7.01
		c4.51,4.52,6.99,10.53,6.98,16.92l-0.14,65.61c0.99-0.4,2.03-0.75,3.12-1.05c11.86-3.27,24.59,0.46,33.22,9.72l48.28,51.81
		c1.09,1.17,1.69,2.7,1.69,4.29v48.76c3.04,0.58,5.78,2.24,7.73,4.73c2.48,3.16,3.35,7.2,2.4,11.1l-9.06,37
		C161.6,399.46,156.41,403.53,150.42,403.53z M82.16,353.17c-0.21,0-0.38,0.17-0.38,0.38v37c0,0.21,0.17,0.38,0.38,0.38h68.25
		c0.18,0,0.33-0.12,0.37-0.29l9.06-37.01c0.01-0.06,0.04-0.18-0.07-0.33c-0.12-0.15-0.24-0.15-0.3-0.15H82.16z M95.83,340.57h53.53
		v-46.04l-46.59-50c-5.42-5.82-13.33-8.18-20.65-6.16c-4.67,1.28-6.21,3.35-6.5,6.05v0L110,283.06c2.31,2.6,2.08,6.58-0.52,8.89
		c-2.6,2.31-6.58,2.08-8.89-0.52L64.61,251c-0.94-1.05-1.49-2.39-1.58-3.79c-0.07-1.08-0.07-2.13-0.01-3.15l0.17-82.43
		c0.01-3.02-1.16-5.85-3.3-7.99c-2.13-2.14-4.97-3.31-7.98-3.31c-6.22,0-11.28,5.06-11.28,11.28v89.99c0,5.01,1.83,9.84,5.16,13.59
		l48.46,54.68c1.02,1.15,1.58,2.64,1.58,4.18V340.57z"/>
	<path class="st1" d="M347.84,403.53h-68.25c-6,0-11.18-4.07-12.61-9.89l-9.06-37c-0.95-3.9-0.08-7.94,2.4-11.1
		c1.96-2.5,4.69-4.15,7.73-4.73v-48.76c0-1.59,0.6-3.13,1.69-4.29l48.28-51.81c8.63-9.26,21.36-12.98,33.22-9.72
		c1.09,0.3,2.13,0.65,3.12,1.05l-0.14-65.61c-0.01-6.39,2.46-12.4,6.98-16.92c4.51-4.52,10.52-7.01,16.9-7.01
		c13.17,0,23.88,10.71,23.88,23.88v89.99c0,8.1-2.96,15.89-8.33,21.95l-46.87,52.89v14.13h1.07c7.16,0,12.98,5.82,12.98,12.98v37
		C360.82,397.71,354.99,403.53,347.84,403.53z M270.52,353.17c-0.06,0-0.19,0-0.3,0.15c-0.11,0.15-0.08,0.27-0.07,0.33l9.06,37
		c0.04,0.17,0.19,0.29,0.37,0.29h68.25c0.21,0,0.38-0.17,0.38-0.38v-37c0-0.21-0.17-0.38-0.38-0.38H270.52z M280.64,340.57h53.53
		v-16.52c0-1.54,0.56-3.03,1.58-4.18l48.46-54.68c3.33-3.75,5.16-8.58,5.16-13.59v-89.99c0-6.22-5.06-11.28-11.28-11.28
		c-3.02,0-5.85,1.18-7.98,3.31c-2.13,2.14-3.3,4.97-3.3,7.99l0.17,82.43c0.07,1.02,0.06,2.07-0.01,3.15
		c-0.09,1.4-0.64,2.73-1.58,3.79l-35.98,40.43c-2.31,2.6-6.3,2.83-8.89,0.52c-2.6-2.31-2.83-6.29-0.52-8.89l34.38-38.64
		c-0.29-2.7-1.83-4.77-6.5-6.05c-7.32-2.02-15.23,0.34-20.65,6.16l-46.59,50V340.57z"/>
	<path class="st0" d="M212.83,237.67c-18.24,0-35.2-11.23-47.78-31.62c-12.12-19.65-18.79-45.68-18.79-73.28s6.67-53.63,18.79-73.28
		c12.57-20.39,29.54-31.62,47.78-31.62c2.71,0,4.9,2.19,4.9,4.9s-2.19,4.9-4.9,4.9c-14.71,0-28.71,9.57-39.44,26.96
		c-11.18,18.13-17.33,42.32-17.33,68.14c0,25.81,6.16,50.01,17.33,68.14c10.72,17.39,24.73,26.96,39.44,26.96
		c2.71,0,4.9,2.19,4.9,4.9S215.54,237.67,212.83,237.67z"/>
	<path class="st0" d="M212.83,237.67c-0.02,0-0.03,0-0.05,0c-2.71-0.03-4.88-2.24-4.85-4.95c0.14-15.01,0.33-41.71,0.33-99.95
		c0-43.76-0.11-61.57-0.23-82.19c-0.03-5.5-0.07-11.25-0.1-17.79c-0.01-2.71,2.17-4.91,4.87-4.93c2.68,0.01,4.91,2.17,4.93,4.88
		c0.03,6.53,0.07,12.28,0.1,17.78c0.12,20.64,0.23,38.46,0.23,82.25c0,58.28-0.19,85.01-0.33,100.05
		C217.71,235.5,215.52,237.67,212.83,237.67z"/>
	<path class="st0" d="M212.83,237.67c-2.71,0-4.9-2.19-4.9-4.9s2.19-4.9,4.9-4.9c32.4,0,58.77-42.66,58.77-95.1
		s-26.36-95.1-58.77-95.1c-2.71,0-4.9-2.19-4.9-4.9s2.19-4.9,4.9-4.9c18.74,0,36.2,11.21,49.15,31.56
		c12.52,19.66,19.41,45.71,19.41,73.34c0,27.63-6.89,53.68-19.41,73.34C249.03,226.46,231.57,237.67,212.83,237.67z"/>
	<path class="st0" d="M312.83,137.67h-200c-2.71,0-4.9-2.19-4.9-4.9s2.19-4.9,4.9-4.9h200c2.71,0,4.9,2.19,4.9,4.9
		S315.54,137.67,312.83,137.67z"/>
	<path class="st0" d="M212.85,76.01c-24.44,0-48.21-5.39-66.93-15.18c-2.4-1.25-3.33-4.21-2.07-6.61c1.25-2.4,4.22-3.33,6.61-2.07
		c17.34,9.07,39.5,14.06,62.39,14.06c22.9,0,45.05-4.99,62.37-14.06c2.4-1.26,5.36-0.33,6.61,2.07c1.26,2.4,0.33,5.36-2.07,6.61
		C261.06,70.62,237.3,76.01,212.85,76.01z"/>
	<path class="st0" d="M277.48,213.95c-0.77,0-1.54-0.18-2.27-0.56c-17.34-9.07-39.5-14.06-62.39-14.06
		c-22.9,0-45.05,4.99-62.37,14.06c-2.4,1.26-5.36,0.33-6.61-2.07c-1.26-2.4-0.33-5.36,2.07-6.61c18.7-9.79,42.46-15.18,66.91-15.18
		c24.44,0,48.21,5.39,66.93,15.18c2.4,1.25,3.33,4.21,2.07,6.61C280.95,212.99,279.25,213.95,277.48,213.95z"/>
	<path class="st0" d="M212.92,237.67c-57.84,0-104.9-47.06-104.9-104.9s47.06-104.9,104.9-104.9s104.9,47.06,104.9,104.9
		S270.76,237.67,212.92,237.67z M212.92,37.67c-52.44,0-95.1,42.66-95.1,95.1s42.66,95.1,95.1,95.1s95.1-42.66,95.1-95.1
		S265.36,37.67,212.92,37.67z"/>
</g>
</svg>
