<?xml version="1.0" standalone="no"?>
<!DOCTYPE svg PUBLIC "-//W3C//DTD SVG 20010904//EN"
 "http://www.w3.org/TR/2001/REC-SVG-20010904/DTD/svg10.dtd">
<svg version="1.0" xmlns="http://www.w3.org/2000/svg"
 width="512.000000pt" height="512.000000pt" viewBox="0 0 512.000000 512.000000"
 preserveAspectRatio="xMidYMid meet">

<g transform="translate(0.000000,512.000000) scale(0.100000,-0.100000)"
fill="#000000" stroke="none">
<path d="M1989 4036 c-73 -50 -120 -149 -134 -280 -6 -57 -10 -66 -24 -60
-101 45 -159 57 -276 58 -71 1 -143 -5 -175 -13 -388 -96 -564 -551 -532
-1373 l7 -187 -52 -46 c-75 -65 -137 -158 -170 -250 -26 -76 -28 -91 -31 -280
-3 -217 0 -231 51 -269 24 -18 48 -22 165 -27 149 -7 214 -21 344 -73 90 -36
175 -56 242 -56 35 0 44 -5 58 -30 32 -57 64 -67 226 -73 175 -6 257 -22 406
-81 180 -71 175 -70 456 -71 287 0 304 2 474 70 151 60 232 76 408 82 162 6
194 16 226 72 15 27 20 29 101 34 48 2 110 13 141 25 30 10 93 33 140 50 105
38 187 52 311 52 83 0 101 3 130 23 57 38 60 51 57 272 -3 188 -5 205 -30 277
-36 101 -81 170 -162 245 l-65 62 1 303 c1 312 -7 427 -43 606 -60 298 -191
513 -364 597 -193 95 -462 81 -624 -31 l-50 -34 -5 33 c-3 17 -7 50 -9 72 -11
97 -89 201 -188 247 -142 67 -308 60 -514 -22 -90 -36 -163 -47 -196 -30 -13
7 -47 35 -76 61 -29 27 -64 54 -78 59 -47 18 -108 12 -146 -14z m157 -22 c21
-15 61 -47 89 -72 l50 -44 70 5 c45 3 102 18 160 40 292 111 537 56 629 -142
20 -43 21 -62 21 -296 0 -210 -3 -255 -16 -279 l-16 -29 -7 58 c-8 69 -52 187
-96 254 -39 62 -142 159 -205 194 -26 15 -50 27 -54 27 -3 0 -21 -32 -40 -71
-62 -128 -220 -274 -386 -357 -92 -46 -228 -96 -300 -112 -27 -6 -57 -13 -66
-16 -12 -3 -21 12 -37 68 -46 159 -57 237 -57 413 0 150 3 177 22 228 53 139
149 192 239 131z m-488 -284 c35 -6 92 -22 128 -36 56 -23 64 -30 65 -53 0
-14 3 -56 8 -93 l7 -68 -20 19 c-29 25 -106 75 -110 70 -2 -2 -15 -29 -30 -59
-37 -75 -105 -152 -190 -215 -123 -91 -216 -135 -392 -183 l-71 -20 -7 76 c-9
111 -7 225 5 280 8 38 23 64 64 110 133 146 325 207 543 172z m2131 -23 c92
-32 159 -76 222 -145 81 -88 83 -96 74 -268 l-8 -149 -13 52 c-24 94 -78 185
-163 276 -37 39 -113 97 -128 97 -4 0 -20 -26 -35 -58 -51 -107 -192 -238
-334 -310 -61 -31 -234 -92 -260 -92 -20 0 -17 38 6 67 32 41 40 88 47 265 l6
167 44 31 c54 39 146 77 216 90 89 16 246 5 326 -23z m-858 -121 c52 -52 80
-89 110 -151 54 -112 67 -185 68 -378 2 -267 -20 -368 -108 -488 -57 -77 -162
-160 -241 -189 -125 -46 -285 -46 -410 0 -80 30 -178 107 -238 186 -87 117
-111 215 -112 452 0 98 3 134 13 136 315 93 471 175 620 329 37 39 86 103 109
143 l41 73 39 -22 c22 -12 71 -53 109 -91z m-1084 -117 c14 -16 29 -56 42
-114 32 -147 55 -210 74 -209 15 2 17 -14 17 -158 0 -89 5 -188 11 -222 11
-59 11 -64 -19 -121 -139 -276 -527 -340 -745 -122 -111 111 -136 181 -144
399 l-6 156 44 12 c78 19 192 61 259 95 142 71 285 201 336 304 l29 58 40 -28
c22 -15 50 -37 62 -50z m2003 24 c101 -91 179 -222 201 -338 18 -95 6 -376
-19 -448 -73 -215 -297 -347 -525 -309 -175 30 -324 160 -370 326 -8 27 -10
95 -7 201 l5 160 60 16 c247 68 478 232 558 396 12 23 26 43 33 43 6 0 35 -21
64 -47z m-2807 -418 c10 -7 16 -50 20 -160 8 -213 40 -297 149 -404 l63 -62
-3 -73 -3 -73 -90 -6 c-96 -7 -222 -43 -270 -78 -27 -19 -28 -19 -34 1 -12 38
-9 553 4 670 22 195 62 361 117 485 l18 40 8 -165 c5 -122 11 -167 21 -175z
m3115 240 c58 -156 89 -323 102 -555 8 -147 5 -505 -6 -538 -3 -9 -16 -6 -51
12 -72 36 -149 56 -245 63 l-87 6 -3 73 -3 73 61 60 c116 114 144 191 155 436
10 226 31 467 40 458 3 -5 20 -44 37 -88z m-996 -701 c16 -30 59 -80 94 -113
l64 -58 0 -70 0 -70 -89 -6 c-51 -4 -124 -18 -170 -32 -55 -18 -92 -24 -115
-20 l-34 7 -5 86 -4 87 64 65 c46 47 75 89 106 152 41 84 42 86 50 56 5 -17
22 -55 39 -84z m-1006 -137 l70 -72 -4 -76 -3 -77 -34 -5 c-21 -3 -61 4 -110
19 -43 14 -116 27 -166 31 l-89 6 0 69 0 69 63 58 c34 33 78 86 97 119 l35 59
36 -64 c19 -36 67 -97 105 -136z m-758 -82 c82 -25 172 -29 262 -11 45 10 93
24 106 33 l24 15 0 -75 0 -75 90 -7 c87 -7 90 -8 84 -29 -8 -28 -10 -29 -74
-56 -77 -32 -178 -101 -244 -167 l-57 -56 -90 5 c-78 5 -100 10 -166 43 -111
55 -179 132 -196 221 l-6 32 84 7 85 7 0 80 0 80 26 -17 c14 -9 46 -23 72 -30z
m2528 -120 l85 -7 -7 -32 c-19 -93 -99 -177 -219 -233 -49 -22 -78 -28 -158
-31 l-98 -4 -56 57 c-62 63 -160 130 -240 165 -45 19 -53 26 -53 50 0 26 2 27
83 36 l82 9 3 73 3 74 23 -16 c40 -26 181 -49 255 -42 78 8 152 28 184 51 l22
15 3 -79 3 -79 85 -7z m-1042 119 c3 -9 6 -45 6 -80 0 -50 -3 -64 -15 -64 -12
0 -15 16 -15 80 0 75 10 101 24 64z m-563 -28 c138 -61 322 -62 463 -2 21 9
40 16 42 16 2 0 4 -48 4 -107 0 -125 -14 -167 -75 -228 -70 -69 -182 -100
-282 -76 -66 16 -139 74 -176 139 -27 48 -30 64 -35 168 -3 63 -2 114 0 114 3
0 30 -11 59 -24z m-1211 -128 c1 -37 36 -104 81 -152 72 -79 187 -133 311
-144 l67 -7 -28 -45 c-15 -25 -37 -70 -49 -100 -45 -115 -52 -168 -52 -380 l0
-203 -77 5 c-59 4 -104 15 -188 47 -153 58 -210 71 -362 78 -129 6 -133 7
-160 35 l-28 29 0 182 c1 107 6 204 13 236 36 158 169 322 320 396 104 51 152
58 152 23z m931 15 c28 -5 30 -7 14 -14 -34 -13 -65 -10 -65 6 0 17 4 18 51 8z
m1109 -14 c0 -18 -4 -20 -32 -14 -48 11 -56 18 -28 26 46 13 60 10 60 -12z
m1024 -20 c159 -79 277 -218 322 -379 17 -62 30 -332 20 -402 -4 -29 -16 -55
-31 -71 -23 -22 -34 -24 -157 -30 -146 -6 -215 -22 -373 -82 -80 -31 -118 -39
-187 -43 l-88 -4 0 202 c0 212 -7 265 -52 380 -12 30 -34 75 -49 100 l-28 45
77 6 c88 8 154 28 229 70 86 49 172 162 173 228 0 22 3 23 41 17 23 -4 69 -20
103 -37z m-1053 -19 c229 -58 426 -240 499 -459 28 -84 40 -194 40 -371 0
-171 -9 -211 -53 -242 -29 -21 -47 -23 -192 -30 -184 -7 -258 -22 -405 -82
-149 -62 -180 -66 -450 -66 -268 0 -303 5 -440 62 -149 62 -225 78 -395 84
-175 7 -207 14 -237 57 -22 31 -23 39 -22 252 0 176 4 233 18 285 66 246 263
443 511 510 22 6 85 13 141 17 l101 6 7 -43 c9 -59 31 -97 84 -153 59 -60 127
-87 221 -87 37 0 88 7 114 16 91 31 177 133 192 229 l7 40 108 -7 c59 -3 127
-12 151 -18z"/>
<path d="M2871 1640 c-16 -9 -33 -151 -24 -203 8 -51 41 -98 83 -120 50 -26
163 -20 206 10 54 38 67 81 62 200 -4 119 -14 135 -60 101 -27 -18 -30 -19
-53 -4 -31 21 -94 20 -124 0 -21 -15 -25 -15 -50 4 -16 12 -33 17 -40 12z"/>
</g>
</svg>
