<?xml version="1.0" encoding="utf-8"?>
<!-- Generator: Adobe Illustrator 24.1.2, SVG Export Plug-In . SVG Version: 6.00 Build 0)  -->
<svg version="1.1" id="Warstwa_3" xmlns="http://www.w3.org/2000/svg" xmlns:xlink="http://www.w3.org/1999/xlink" x="0px" y="0px"
	 viewBox="0 0 430 430" style="enable-background:new 0 0 430 430;" xml:space="preserve">
<style type="text/css">
	.st0{fill:#000000;}
	.st1{fill:#000000;}
	.st2{fill:#000000;}
	.st3{fill:none;stroke:#000000;stroke-width:12;stroke-linecap:round;stroke-linejoin:round;stroke-miterlimit:10;}
</style>
<g>
	<g>
		<path class="st0" d="M214.21,134.81c-6.12,0-12.23-1.18-17.93-3.55c-1.57-0.65-3.17-1.07-4.8-1.26l-7.28-0.84
			c-5.03-0.58-8.82-4.84-8.82-9.9v-7.34c0-15.41,12.54-27.94,27.94-27.94h21.94c15.41,0,27.94,12.54,27.94,27.94v7.34
			c0,5.06-3.79,9.32-8.82,9.9l-7.68,0.89c-1.54,0.18-3.04,0.57-4.48,1.17C226.5,133.61,220.36,134.81,214.21,134.81z M187.37,117.45
			l5.48,0.63c2.75,0.32,5.43,1.01,7.98,2.07c8.55,3.55,18.29,3.54,26.77-0.01c2.47-1.03,5.07-1.71,7.73-2.02l5.88-0.68v-5.53
			c0-8.79-7.15-15.94-15.94-15.94h-21.94c-8.79,0-15.94,7.15-15.94,15.94V117.45z"/>
		<path class="st0" d="M214.29,79.1c-11.79,0-21.34-9.23-21.75-21l-0.51-14.75c-0.21-5.95,1.96-11.59,6.1-15.87
			c4.14-4.28,9.7-6.64,15.65-6.64h1.03c5.96,0,11.51,2.36,15.65,6.64c4.14,4.28,6.3,9.92,6.1,15.87l-0.51,14.75
			C235.63,69.88,226.07,79.1,214.29,79.1z M213.78,32.84c-2.67,0-5.16,1.06-7.02,2.98s-2.83,4.45-2.73,7.12l0.51,14.75
			c0.18,5.28,4.47,9.42,9.75,9.42c5.29,0,9.57-4.14,9.75-9.42l0.51-14.75c0.09-2.67-0.88-5.2-2.73-7.12s-4.35-2.98-7.02-2.98H213.78
			z"/>
	</g>
	<g>
		<path class="st0" d="M214.21,409.14c-6.12,0-12.23-1.18-17.93-3.55c-1.57-0.65-3.17-1.07-4.8-1.26l-7.28-0.84
			c-5.03-0.58-8.82-4.84-8.82-9.9v-7.34c0-15.41,12.54-27.94,27.94-27.94h21.94c15.41,0,27.94,12.54,27.94,27.94v7.34
			c0,5.06-3.79,9.32-8.82,9.9l-7.68,0.89c-1.54,0.18-3.04,0.57-4.48,1.17C226.5,407.94,220.36,409.14,214.21,409.14z M187.37,391.78
			l5.48,0.63c2.75,0.32,5.43,1.01,7.98,2.07c8.55,3.55,18.29,3.54,26.77-0.01c2.47-1.03,5.07-1.71,7.73-2.02l5.88-0.68v-5.53
			c0-8.79-7.15-15.94-15.94-15.94h-21.94c-8.79,0-15.94,7.15-15.94,15.94V391.78z"/>
		<path class="st0" d="M214.29,353.43c-11.79,0-21.34-9.23-21.75-21l-0.51-14.75c-0.21-5.95,1.96-11.59,6.1-15.87
			c4.14-4.28,9.7-6.64,15.65-6.64h1.03c5.96,0,11.51,2.36,15.65,6.64c4.14,4.28,6.3,9.92,6.1,15.87l-0.51,14.75
			C235.63,344.2,226.07,353.43,214.29,353.43z M213.78,307.16c-2.67,0-5.16,1.06-7.02,2.98s-2.83,4.45-2.73,7.12l0.51,14.75
			c0.18,5.28,4.47,9.42,9.75,9.42c5.29,0,9.57-4.14,9.75-9.42l0.51-14.75c0.09-2.67-0.88-5.2-2.73-7.12s-4.35-2.98-7.02-2.98H213.78
			z"/>
	</g>
	<g>
		<path class="st0" d="M369.41,271.95c-6.12,0-12.23-1.18-17.93-3.55c-1.57-0.65-3.17-1.07-4.8-1.26l-7.28-0.84
			c-5.03-0.58-8.82-4.84-8.82-9.9v-7.34c0-15.41,12.54-27.94,27.94-27.94h21.94c15.41,0,27.94,12.54,27.94,27.94v7.34
			c0,5.06-3.79,9.32-8.82,9.9l-7.68,0.89c-1.54,0.18-3.05,0.57-4.48,1.17C381.7,270.76,375.56,271.95,369.41,271.95z M342.57,254.59
			l5.48,0.63c2.75,0.32,5.43,1.01,7.98,2.07c8.55,3.55,18.29,3.54,26.77-0.01c2.47-1.03,5.07-1.71,7.73-2.02l5.88-0.68v-5.53
			c0-8.79-7.15-15.94-15.94-15.94h-21.94c-8.79,0-15.94,7.15-15.94,15.94V254.59z"/>
		<path class="st0" d="M369.49,216.25c-11.79,0-21.34-9.23-21.75-21l-0.51-14.75c-0.21-5.95,1.96-11.59,6.1-15.87
			c4.14-4.28,9.7-6.64,15.65-6.64H370c5.96,0,11.51,2.36,15.65,6.64c4.14,4.28,6.3,9.92,6.1,15.87l-0.51,14.75
			C390.82,207.02,381.27,216.25,369.49,216.25z M368.97,169.98c-2.67,0-5.16,1.06-7.02,2.98s-2.83,4.45-2.73,7.12l0.51,14.75
			c0.18,5.28,4.47,9.42,9.75,9.42c5.29,0,9.57-4.14,9.75-9.42l0.51-14.75c0.09-2.67-0.88-5.2-2.73-7.12s-4.35-2.98-7.02-2.98H368.97
			z"/>
	</g>
	<g>
		<path class="st0" d="M60.43,271.95c-6.12,0-12.23-1.18-17.93-3.55c-1.57-0.65-3.17-1.07-4.8-1.26l-7.28-0.84
			c-5.03-0.58-8.83-4.84-8.83-9.9v-7.34c0-15.41,12.54-27.94,27.94-27.94h21.94c15.41,0,27.94,12.54,27.94,27.94v7.34
			c0,5.06-3.79,9.32-8.82,9.9l-7.68,0.89c-1.54,0.18-3.04,0.57-4.47,1.17C72.73,270.76,66.58,271.95,60.43,271.95z M33.6,254.59
			l5.48,0.63c2.75,0.32,5.43,1.01,7.98,2.07c8.55,3.55,18.29,3.54,26.77-0.01c2.47-1.03,5.07-1.71,7.72-2.02l5.88-0.68v-5.53
			c0-8.79-7.15-15.94-15.94-15.94H49.54c-8.79,0-15.94,7.15-15.94,15.94V254.59z"/>
		<path class="st0" d="M60.51,216.25c-11.78,0-21.34-9.23-21.75-21l-0.51-14.75c-0.21-5.95,1.96-11.59,6.1-15.87
			c4.14-4.28,9.7-6.64,15.65-6.64h1.03c5.96,0,11.51,2.36,15.65,6.64c4.14,4.28,6.3,9.92,6.1,15.87l-0.51,14.75
			C81.85,207.02,72.3,216.25,60.51,216.25z M60,169.98c-2.67,0-5.16,1.06-7.02,2.98s-2.83,4.45-2.73,7.12l0.51,14.75
			c0.18,5.28,4.47,9.42,9.75,9.42c5.29,0,9.57-4.14,9.75-9.42l0.51-14.75c0.09-2.67-0.88-5.2-2.73-7.12s-4.35-2.98-7.02-2.98H60z"/>
	</g>
	<path class="st1" d="M237.92,235.13c7.86-7.96,17.99-22.3,17.99-34.36c0-29.27-14-44.12-41.62-44.12
		c-27.62,0-41.62,14.84-41.62,44.12c0,12.06,10.13,26.4,17.99,34.36v13.19c0,0.08-0.01,0.17-0.01,0.25v8.67
		c0,9.97,8.11,18.08,18.08,18.08h11.12c9.97,0,18.08-8.11,18.08-18.08v-8.67c0-0.08-0.01-0.15-0.01-0.23V235.13z M184.67,200.76
		c0-22.81,8.58-32.12,29.62-32.12c20.76,0,29.62,9.6,29.62,32.12c0,8.21-9.33,21.2-16.06,27.42c-1.23,1.14-1.93,2.73-1.93,4.41v9.97
		h-23.26v-9.97c0-1.67-0.7-3.27-1.93-4.41C194,221.96,184.67,208.97,184.67,200.76z M225.93,257.23c0,3.35-2.73,6.08-6.08,6.08
		h-11.12c-3.35,0-6.08-2.73-6.08-6.08v-2.67h23.28V257.23z"/>
	<g>
		<path class="st1" d="M355.8,139.24c-2.01,0-3.97-1.01-5.1-2.84c-18.64-30.05-47.2-53.03-80.43-64.7c-3.13-1.1-4.77-4.52-3.67-7.65
			c1.1-3.13,4.53-4.77,7.65-3.67c35.8,12.58,66.58,37.33,86.65,69.7c1.75,2.82,0.88,6.51-1.94,8.26
			C357.97,138.95,356.88,139.24,355.8,139.24z"/>
		<path class="st1" d="M72.78,139.24c-1.08,0-2.17-0.29-3.16-0.9c-2.82-1.75-3.68-5.45-1.94-8.26
			c20.08-32.37,50.85-57.12,86.65-69.7c3.13-1.1,6.55,0.55,7.65,3.67c1.1,3.13-0.55,6.55-3.67,7.65
			c-33.23,11.67-61.8,34.65-80.43,64.7C76.75,138.23,74.79,139.24,72.78,139.24z"/>
	</g>
	<g>
		<path class="st1" d="M272.25,371.9c-2.48,0-4.79-1.54-5.66-4.01c-1.1-3.13,0.55-6.55,3.67-7.65
			c33.23-11.67,61.79-34.65,80.43-64.7c1.75-2.81,5.44-3.68,8.26-1.94c2.82,1.75,3.68,5.45,1.94,8.26
			c-20.08,32.37-50.85,57.12-86.65,69.7C273.58,371.79,272.91,371.9,272.25,371.9z"/>
		<path class="st1" d="M156.33,371.9c-0.66,0-1.33-0.11-1.99-0.34c-35.8-12.58-66.58-37.33-86.65-69.7
			c-1.75-2.82-0.88-6.51,1.94-8.26c2.81-1.75,6.51-0.88,8.26,1.94c18.64,30.05,47.2,53.03,80.43,64.7c3.13,1.1,4.77,4.52,3.67,7.65
			C161.13,370.35,158.81,371.9,156.33,371.9z"/>
	</g>
</g>
</svg>
