<?xml version="1.0" standalone="no"?>
<!DOCTYPE svg PUBLIC "-//W3C//DTD SVG 20010904//EN"
 "http://www.w3.org/TR/2001/REC-SVG-20010904/DTD/svg10.dtd">
<svg version="1.0" xmlns="http://www.w3.org/2000/svg"
 width="2182.000000pt" height="1509.000000pt" viewBox="0 0 2182.000000 1509.000000"
 preserveAspectRatio="xMidYMid meet">

<g transform="translate(0.000000,1509.000000) scale(0.100000,-0.100000)"
fill="#000000" stroke="none">
<path d="M9409 13632 c-30 -26 -70 -58 -88 -72 -19 -14 -80 -61 -136 -105 -56
-44 -115 -90 -131 -102 -16 -12 -78 -61 -139 -108 -60 -48 -126 -99 -145 -113
-19 -15 -118 -92 -220 -171 -102 -80 -223 -174 -270 -210 -74 -57 -452 -352
-535 -417 -16 -13 -109 -84 -205 -159 -96 -74 -182 -141 -190 -148 -8 -6 -82
-64 -164 -127 -81 -63 -206 -160 -276 -215 -71 -55 -192 -149 -270 -210 -78
-60 -199 -155 -269 -210 -70 -55 -141 -110 -157 -122 -16 -12 -78 -61 -139
-108 -60 -48 -137 -107 -170 -132 -33 -26 -85 -66 -115 -90 -87 -68 -306 -238
-457 -355 -203 -159 -394 -307 -428 -334 -16 -13 -77 -60 -135 -104 -58 -45
-114 -89 -125 -98 -11 -9 -47 -37 -80 -62 -33 -25 -62 -48 -65 -51 -3 -3 -53
-42 -113 -87 l-108 -82 -713 0 c-601 0 -715 -2 -725 -14 -9 -11 -10 -153 -4
-578 l8 -563 664 -3 c525 -2 666 0 673 10 4 7 8 163 8 346 l0 332 758 -2 757
-3 3 -3820 c1 -2101 0 -3830 -3 -3842 -5 -22 -7 -23 -218 -25 l-212 -3 -5
-240 -5 -240 -1413 -3 c-1271 -2 -1413 -4 -1419 -18 -3 -8 -2 -19 3 -24 11
-11 15158 -23 17577 -14 l1807 7 0 24 0 23 -1067 2 -1068 3 -5 970 -5 970
-1725 0 -1725 0 -5 -970 -5 -970 -152 -3 -153 -3 0 964 c0 736 -3 966 -12 975
-9 9 -407 12 -1729 12 l-1717 0 -6 -23 c-3 -12 -6 -447 -6 -966 0 -520 -3
-948 -8 -953 -4 -4 -503 -7 -1108 -6 l-1099 3 -3 243 -2 242 -210 0 c-209 0
-210 0 -215 22 -3 13 -4 1742 -3 3843 l3 3820 3143 3 3142 2 0 -254 c0 -140 3
-261 6 -270 5 -14 36 -16 240 -16 l234 0 0 -1450 0 -1450 -274 0 c-240 0 -275
-2 -280 -16 -3 -9 -6 -69 -6 -134 0 -98 -3 -119 -16 -124 -9 -3 -168 -6 -354
-6 -186 0 -345 -3 -354 -6 -14 -5 -16 -59 -16 -503 0 -373 3 -500 12 -509 19
-19 3421 -17 3437 2 8 9 10 152 9 512 l-3 499 -395 5 -395 5 -3 124 c-1 71 -7
130 -14 138 -8 10 -67 13 -264 13 l-254 0 0 1450 0 1450 238 2 237 3 3 268 2
267 273 0 c199 0 276 3 285 12 18 18 17 431 -1 447 -10 8 -490 12 -1743 13
l-1729 3 -305 237 c-168 131 -367 286 -443 345 -76 60 -196 153 -266 208 -70
55 -143 111 -161 125 -18 14 -92 71 -164 128 -72 56 -173 135 -224 175 -160
123 -175 135 -264 204 -47 38 -150 118 -228 178 -78 61 -199 155 -269 210 -71
55 -143 111 -161 125 -42 32 -225 174 -265 206 -16 13 -109 85 -205 159 -96
75 -188 146 -205 159 -16 13 -77 61 -135 105 -58 45 -118 92 -135 105 -47 37
-277 216 -428 334 -77 59 -173 134 -215 167 -43 33 -93 72 -112 87 -19 15 -84
65 -145 113 -60 47 -123 96 -139 108 -16 12 -75 58 -131 102 -56 44 -117 91
-135 105 -18 14 -92 71 -164 128 -72 56 -165 129 -207 161 l-75 59 -155 1
-154 0 -56 -47z m237 -12 l94 0 -2 -1987 -3 -1988 -112 -3 -113 -3 0 1989 c0
1094 3 1992 7 1996 4 3 13 4 21 1 7 -3 56 -5 108 -5z m-196 -2015 l0 -1965
-1750 0 c-1228 0 -1750 3 -1750 11 0 9 162 194 415 474 39 44 168 188 286 320
117 132 216 242 219 245 3 3 41 46 85 95 44 50 82 92 85 95 3 3 77 86 165 185
87 99 162 182 165 185 5 5 125 140 200 225 19 21 56 62 81 90 25 27 63 70 85
95 21 24 62 69 89 100 28 30 86 95 130 145 44 49 94 106 112 125 17 19 40 44
50 56 16 19 144 161 168 188 6 6 46 52 90 101 44 50 102 115 130 145 47 52
167 187 208 234 10 12 33 37 50 56 18 19 68 76 112 125 44 49 98 110 121 135
23 25 85 95 139 155 148 167 155 174 234 263 41 45 75 82 77 82 2 0 4 -884 4
-1965z m454 1852 c49 -56 124 -140 165 -186 42 -47 100 -112 130 -145 30 -34
68 -77 85 -96 18 -19 130 -145 250 -280 120 -135 251 -281 291 -325 39 -44
168 -188 285 -320 118 -132 216 -242 220 -245 4 -4 60 -67 196 -220 151 -170
233 -262 268 -300 41 -45 171 -190 236 -265 19 -21 56 -62 81 -90 25 -27 63
-70 85 -95 21 -24 62 -69 89 -100 28 -30 86 -95 130 -145 44 -49 85 -95 90
-101 24 -27 152 -169 168 -188 10 -12 33 -37 50 -56 18 -19 68 -76 112 -125
44 -50 102 -115 130 -145 64 -71 190 -212 241 -270 21 -25 51 -58 66 -75 16
-16 28 -33 28 -37 0 -5 -787 -8 -1749 -8 -1586 0 -1749 1 -1755 16 -8 22 -8
3889 1 3897 11 12 16 8 107 -96z m-695 -64 c-8 -10 -30 -36 -48 -58 -19 -22
-54 -63 -80 -90 -25 -28 -64 -70 -85 -95 -22 -25 -72 -81 -112 -125 -39 -44
-134 -150 -210 -236 -262 -292 -869 -973 -879 -983 -5 -6 -46 -52 -90 -101
-44 -50 -82 -92 -85 -95 -3 -3 -41 -45 -85 -95 -44 -49 -82 -92 -85 -95 -3 -3
-39 -43 -80 -90 -41 -47 -77 -87 -80 -90 -5 -5 -135 -151 -200 -225 -19 -21
-56 -62 -81 -90 -25 -27 -63 -70 -85 -95 -21 -24 -62 -69 -89 -100 -45 -49
-146 -162 -245 -275 -19 -21 -56 -62 -81 -90 -25 -27 -61 -68 -81 -90 -19 -22
-100 -112 -179 -201 -248 -277 -283 -316 -302 -338 -10 -12 -34 -38 -53 -58
l-35 -38 -734 0 c-404 0 -735 4 -735 9 0 4 14 19 31 32 18 13 89 69 159 124
70 55 183 143 250 195 68 52 149 115 181 140 31 25 92 72 135 105 42 33 103
80 135 105 31 25 90 70 131 101 40 31 132 103 205 160 72 57 194 152 270 212
427 332 764 594 808 627 28 21 100 77 160 125 61 47 123 96 139 108 16 12 75
58 131 102 56 44 117 91 135 105 18 14 79 61 135 105 56 44 115 90 131 102 16
12 79 61 139 108 61 48 143 112 183 143 41 31 100 77 131 102 32 25 87 67 122
94 35 27 89 69 119 93 123 96 319 250 350 273 42 32 225 174 265 206 183 144
378 294 384 294 2 0 -2 -8 -10 -17z m991 -114 c85 -67 178 -138 205 -159 46
-35 230 -179 300 -234 40 -32 223 -174 265 -206 31 -23 227 -177 350 -273 30
-24 84 -66 119 -93 35 -27 90 -69 122 -94 31 -25 90 -71 131 -102 40 -31 123
-95 183 -143 61 -47 123 -96 139 -108 16 -12 75 -58 131 -102 56 -44 117 -91
135 -105 43 -33 227 -175 265 -206 75 -59 255 -199 300 -234 28 -20 250 -193
495 -384 245 -190 487 -379 539 -418 51 -40 98 -78 105 -83 6 -6 40 -33 76
-60 36 -27 108 -83 161 -125 52 -41 151 -118 218 -170 190 -147 384 -299 406
-318 19 -16 -19 -17 -705 -20 -399 -1 -734 0 -745 2 -12 3 -63 53 -115 112
-52 59 -99 112 -105 118 -5 6 -46 52 -90 101 -44 50 -82 92 -85 95 -3 3 -102
113 -219 245 -118 132 -247 276 -286 320 -87 97 -489 546 -530 594 -17 19 -53
59 -81 90 -28 31 -131 146 -229 256 -97 110 -210 236 -249 280 -40 44 -90 100
-112 125 -21 25 -46 52 -54 60 -8 8 -87 96 -175 195 -87 99 -162 182 -165 185
-5 5 -125 140 -200 225 -19 21 -56 62 -81 90 -25 27 -63 70 -85 95 -21 24 -62
69 -89 100 -45 49 -146 162 -245 275 -68 76 -135 150 -152 166 -19 17 -23 29
-10 29 4 0 77 -55 162 -121z m8188 -3871 l2 -178 -4314 0 c-3610 0 -4315 -2
-4325 -14 -8 -9 -12 -1039 -13 -3872 l-3 -3859 -255 0 -255 0 -3 2454 c-1
1797 -5 2458 -13 2468 -10 11 -253 13 -1468 11 l-1456 -3 -5 -2465 -5 -2465
-255 0 -255 0 -3 3859 c-1 2827 -5 3863 -13 3872 -9 12 -256 14 -1438 16
l-1426 3 -3 155 c-1 85 0 165 3 177 l5 23 7748 -3 7747 -2 3 -177z m-14258
-558 l0 -320 -615 0 c-338 0 -615 3 -615 8 0 19 -1 618 0 625 0 4 277 7 615 7
l615 0 0 -320z m13685 75 l0 -240 -837 -3 c-461 -1 -838 1 -838 5 0 20 -1 469
0 476 0 4 377 6 838 5 l837 -3 0 -240z m-485 -1745 l0 -1450 -355 0 -355 0 0
1450 0 1450 355 0 355 0 0 -1450z m-8166 -826 c3 -9 6 -1101 6 -2428 0 -1914
-3 -2416 -12 -2429 -11 -15 -40 -17 -218 -19 l-205 -3 -5 -240 -5 -240 -980 0
-980 0 -3 243 -2 242 -210 0 -210 0 0 2445 0 2445 1409 0 c1275 0 1409 -1
1415 -16z m8706 -788 c0 -85 -3 -105 -16 -110 -20 -8 -1768 -8 -1788 0 -13 5
-16 25 -16 110 l0 104 910 0 910 0 0 -104z m800 -626 l0 -460 -1680 0 -1680 0
0 453 c0 250 3 457 7 460 3 4 759 7 1680 7 l1673 0 0 -460z m-2820 -2515 l0
-465 -1668 0 c-1284 0 -1671 3 -1680 12 -18 18 -17 904 1 911 6 3 762 6 1680
6 l1667 1 0 -465z m3775 5 l0 -455 -1675 0 -1675 0 -3 445 c-1 245 0 451 3
458 3 10 344 12 1677 10 l1673 -3 0 -455z m-3777 -978 l2 -452 -1677 2 -1678
3 -3 439 c-1 316 1 443 9 452 10 12 278 14 1678 12 l1666 -3 3 -453z m3780 1
l2 -453 -22 -5 c-13 -3 -768 -4 -1678 -3 l-1655 3 -3 445 c-1 245 0 451 3 458
3 10 344 12 1677 10 l1673 -3 3 -452z m-12920 -240 l2 -213 -695 0 -695 0 0
208 c0 115 3 212 7 215 3 4 315 6 692 5 l686 -3 3 -212z m3460 0 l2 -213 -695
0 -695 0 0 208 c0 115 3 212 7 215 3 4 315 6 692 5 l686 -3 3 -212z"/>
<path d="M6407 9223 c-15 -14 -5 -43 22 -65 16 -13 98 -86 182 -163 85 -77
224 -202 309 -279 199 -180 328 -296 410 -371 36 -33 84 -76 106 -95 52 -46
233 -210 309 -280 33 -30 78 -71 100 -90 43 -37 237 -212 245 -220 3 -3 50
-46 105 -95 55 -50 102 -92 105 -95 3 -3 50 -45 105 -95 55 -49 102 -92 105
-95 3 -3 95 -86 205 -185 110 -99 202 -182 205 -185 4 -4 72 -65 230 -207 28
-26 41 -28 58 -11 17 17 17 2509 0 2526 -9 9 -335 12 -1403 12 -766 0 -1395
-3 -1398 -7z m2761 -1241 c1 -651 -1 -1190 -6 -1198 -5 -10 -56 30 -192 153
-292 262 -469 422 -480 433 -3 3 -50 46 -105 95 -55 50 -116 104 -135 122 -19
17 -44 40 -56 50 -28 24 -193 174 -269 243 -33 31 -105 96 -160 145 -55 50
-105 95 -111 100 -6 6 -29 26 -50 45 -96 86 -239 215 -244 220 -3 3 -50 46
-105 95 -55 50 -102 92 -105 95 -3 3 -95 86 -205 185 -110 99 -202 182 -205
185 -3 3 -50 46 -105 95 -127 114 -125 112 -125 119 0 3 597 5 1328 4 l1327
-3 3 -1183z"/>
<path d="M6285 9068 c-3 -7 -4 -562 -3 -1233 l3 -1220 1363 -3 1363 -2 -3 24
c-2 17 -69 84 -228 227 -124 111 -250 225 -280 253 -30 28 -75 69 -100 90 -25
21 -72 64 -105 95 -33 31 -81 74 -106 96 -25 22 -155 139 -290 261 -134 121
-293 265 -354 320 -179 161 -187 168 -209 189 -12 11 -62 56 -111 100 -50 44
-97 87 -105 95 -8 8 -55 51 -105 95 -49 44 -92 82 -95 85 -3 3 -95 86 -205
185 -110 99 -202 182 -205 185 -3 3 -47 43 -97 88 -90 80 -119 95 -128 70z
m251 -253 c98 -88 182 -164 188 -170 6 -5 56 -50 111 -100 55 -49 116 -104
135 -122 19 -17 45 -40 57 -50 12 -11 48 -43 81 -73 32 -30 76 -71 98 -90 98
-88 244 -219 299 -270 33 -30 81 -73 105 -95 75 -66 245 -220 250 -225 3 -3
50 -46 105 -95 55 -50 102 -92 105 -95 3 -3 50 -46 105 -95 55 -50 102 -92
105 -95 3 -3 95 -86 205 -185 110 -99 211 -189 223 -201 13 -12 61 -54 107
-95 46 -41 84 -80 84 -86 1 -10 -261 -13 -1279 -13 l-1280 0 0 1161 c0 712 4
1159 9 1157 5 -1 89 -75 187 -163z"/>
<path d="M15647 5213 c-8 -8 -9 -547 -1 -555 3 -3 14 -4 25 -1 18 5 19 17 19
284 0 264 -1 279 -18 279 -10 0 -22 -3 -25 -7z"/>
<path d="M15887 5213 c-4 -3 -7 -129 -7 -280 l0 -273 25 0 25 0 0 280 c0 265
-1 280 -18 280 -10 0 -22 -3 -25 -7z"/>
<path d="M16127 5214 c-9 -10 -9 -552 1 -557 4 -3 17 -1 30 4 l22 8 -2 273
c-3 266 -4 273 -23 276 -12 2 -24 0 -28 -4z"/>
<path d="M16365 5207 c-3 -7 -4 -131 -3 -277 l3 -265 23 -3 22 -3 0 280 c0
276 0 281 -20 281 -11 0 -23 -6 -25 -13z"/>
<path d="M16605 5208 c-3 -7 -4 -135 -3 -283 l3 -269 25 0 25 0 0 279 0 280
-23 3 c-12 2 -24 -3 -27 -10z"/>
<path d="M16850 4940 l0 -281 23 3 22 3 0 275 0 275 -22 3 -23 3 0 -281z"/>
<path d="M17086 5205 c-3 -9 -6 -133 -6 -276 l0 -260 23 -8 c12 -5 25 -6 30
-2 4 4 6 131 5 282 -3 271 -3 274 -24 277 -13 2 -24 -4 -28 -13z"/>
<path d="M17337 5214 c-4 -4 -7 -130 -7 -281 l0 -273 25 0 25 0 -2 277 c-3
241 -5 278 -18 281 -9 1 -19 0 -23 -4z"/>
<path d="M17570 4942 c0 -274 0 -280 21 -285 11 -3 22 0 25 6 2 7 3 134 2 282
l-3 270 -22 3 -23 3 0 -279z"/>
<path d="M17817 5213 c-4 -3 -7 -129 -7 -280 l0 -273 25 0 25 0 0 280 c0 265
-1 280 -18 280 -10 0 -22 -3 -25 -7z"/>
<path d="M18057 5213 c-4 -3 -7 -129 -7 -279 0 -261 1 -272 19 -277 11 -3 22
-2 25 1 3 3 6 131 6 284 0 263 -1 278 -18 278 -10 0 -22 -3 -25 -7z"/>
<path d="M18297 5214 c-4 -4 -7 -131 -7 -281 l0 -274 28 3 27 3 0 275 c0 269
0 275 -20 278 -12 2 -24 0 -28 -4z"/>
<path d="M12820 2430 l0 -280 25 0 25 0 0 280 0 280 -25 0 -25 0 0 -280z"/>
<path d="M13070 2706 c0 -3 -1 -129 -1 -278 l0 -273 23 0 23 0 0 275 0 275
-22 3 c-13 2 -23 1 -23 -2z"/>
<path d="M13305 2698 c-3 -7 -4 -132 -3 -278 l3 -265 25 0 25 0 0 275 0 275
-23 3 c-12 2 -24 -3 -27 -10z"/>
<path d="M13550 2430 l0 -280 25 0 25 0 0 280 0 280 -25 0 -25 0 0 -280z"/>
<path d="M13790 2706 c-3 -2 -4 -129 -2 -281 l3 -276 22 3 22 3 0 275 c0 269
0 275 -20 278 -12 2 -23 1 -25 -2z"/>
<path d="M14030 2430 l0 -280 25 0 25 0 0 280 0 280 -25 0 -25 0 0 -280z"/>
<path d="M14277 2703 c-4 -3 -7 -129 -7 -280 l0 -273 25 0 25 0 0 280 c0 265
-1 280 -18 280 -10 0 -22 -3 -25 -7z"/>
<path d="M14510 2430 l0 -280 25 0 25 0 0 280 0 280 -25 0 -25 0 0 -280z"/>
<path d="M14755 2698 c-3 -7 -4 -132 -3 -278 l3 -265 23 -3 22 -3 0 270 c0
149 1 274 3 279 4 13 -43 14 -48 0z"/>
<path d="M14990 2431 l0 -281 25 0 25 0 0 270 c0 149 0 273 0 278 0 4 -11 8
-25 10 l-25 3 0 -280z"/>
<path d="M15240 2706 c-3 -2 -4 -129 -2 -281 l3 -276 22 3 22 3 0 275 c0 269
0 275 -20 278 -12 2 -23 1 -25 -2z"/>
<path d="M15475 2698 c-3 -7 -4 -132 -3 -278 l3 -265 25 0 25 0 0 275 0 275
-23 3 c-12 2 -24 -3 -27 -10z"/>
<path d="M16600 2451 c0 -157 4 -282 9 -285 5 -4 16 -3 25 0 15 6 16 37 14
283 l-3 276 -22 3 -23 3 0 -280z"/>
<path d="M16840 2451 c0 -246 2 -280 16 -285 9 -3 20 -4 25 0 5 3 9 128 9 285
l0 279 -25 0 -25 0 0 -279z"/>
<path d="M17087 2723 c-11 -10 -8 -551 2 -557 5 -4 16 -3 25 0 14 5 16 39 16
285 0 264 -1 279 -18 279 -10 0 -22 -3 -25 -7z"/>
<path d="M17327 2723 c-4 -3 -7 -129 -7 -279 0 -239 2 -273 16 -278 9 -3 20
-4 25 0 5 3 9 128 9 285 0 264 -1 279 -18 279 -10 0 -22 -3 -25 -7z"/>
<path d="M17567 2724 c-11 -12 -8 -552 3 -559 6 -3 19 -3 30 0 20 6 20 14 18
283 -3 270 -3 277 -23 280 -12 2 -24 0 -28 -4z"/>
<path d="M17807 2723 c-4 -3 -7 -129 -7 -279 0 -239 2 -273 16 -278 9 -3 20
-4 25 0 5 3 9 128 9 285 0 264 -1 279 -18 279 -10 0 -22 -3 -25 -7z"/>
<path d="M18045 2718 c-3 -7 -4 -135 -3 -283 l3 -270 25 0 25 0 0 280 0 280
-23 3 c-12 2 -24 -3 -27 -10z"/>
<path d="M18288 2455 c-3 -288 0 -315 37 -285 13 11 15 52 13 284 l-3 271 -22
3 -22 3 -3 -276z"/>
<path d="M18527 2723 c-10 -10 -8 -536 2 -551 5 -8 17 -12 27 -10 18 3 19 18
22 286 l2 282 -23 0 c-13 0 -27 -3 -30 -7z"/>
<path d="M18777 2724 c-11 -11 -8 -552 2 -558 5 -4 16 -3 25 0 15 6 16 37 14
282 -3 241 -5 277 -18 280 -9 1 -19 0 -23 -4z"/>
<path d="M19012 2448 c3 -275 4 -283 23 -283 19 0 20 8 23 283 l2 282 -25 0
-25 0 2 -282z"/>
<path d="M19257 2723 c-11 -10 -8 -551 2 -557 5 -4 16 -3 25 0 14 5 16 39 16
285 0 264 -1 279 -18 279 -10 0 -22 -3 -25 -7z"/>
<path d="M12822 1433 l3 -278 23 -3 22 -3 0 280 0 281 -25 0 -25 0 2 -277z"/>
<path d="M13065 1697 c-3 -7 -4 -131 -3 -277 l3 -265 25 0 25 0 3 278 2 277
-25 0 c-14 0 -28 -6 -30 -13z"/>
<path d="M13302 1433 l3 -278 25 0 25 0 0 275 0 275 -28 3 -27 3 2 -278z"/>
<path d="M13550 1430 l0 -280 25 0 25 0 0 280 0 280 -25 0 -25 0 0 -280z"/>
<path d="M13790 1708 c0 -2 0 -127 -1 -278 l0 -275 23 0 23 0 3 278 2 277 -25
0 c-14 0 -25 -1 -25 -2z"/>
<path d="M14030 1430 l0 -280 25 0 25 0 0 280 0 280 -25 0 -25 0 0 -280z"/>
<path d="M14272 1433 c3 -270 4 -278 23 -278 19 0 20 8 23 278 l2 277 -25 0
-25 0 2 -277z"/>
<path d="M14510 1430 l0 -280 25 0 25 0 0 280 0 280 -25 0 -25 0 0 -280z"/>
<path d="M14752 1433 l3 -278 23 0 23 0 0 275 0 275 -26 3 -25 3 2 -278z"/>
<path d="M14992 1433 l3 -278 23 0 23 0 0 275 0 275 -26 3 -25 3 2 -278z"/>
<path d="M15235 1697 c-3 -7 -4 -131 -3 -277 l3 -265 25 0 25 0 3 278 2 277
-25 0 c-14 0 -28 -6 -30 -13z"/>
<path d="M15472 1433 l3 -278 25 0 25 0 0 275 0 275 -28 3 -27 3 2 -278z"/>
<path d="M16600 1449 l0 -280 23 3 22 3 3 278 2 277 -25 0 -25 0 0 -281z"/>
<path d="M16840 1450 l0 -280 25 0 25 0 0 280 0 280 -25 0 -25 0 0 -280z"/>
<path d="M17082 1453 l3 -278 23 -3 22 -3 0 280 0 281 -25 0 -25 0 2 -277z"/>
<path d="M17322 1453 l3 -278 23 -3 22 -3 0 280 0 281 -25 0 -25 0 2 -277z"/>
<path d="M17562 1453 l3 -278 25 0 25 0 0 275 0 275 -28 3 -27 3 2 -278z"/>
<path d="M17805 1717 c-3 -7 -4 -131 -3 -277 l3 -265 23 -3 22 -3 0 280 c0
276 0 281 -20 281 -11 0 -23 -6 -25 -13z"/>
<path d="M18045 1717 c-3 -7 -4 -131 -3 -277 l3 -265 25 0 25 0 3 278 2 277
-25 0 c-14 0 -28 -6 -30 -13z"/>
<path d="M18290 1450 l0 -281 23 3 22 3 0 275 0 275 -22 3 -23 3 0 -281z"/>
<path d="M18530 1725 c0 -3 -1 -128 -1 -277 l0 -273 25 -3 26 -3 0 280 0 281
-25 0 c-14 0 -25 -2 -25 -5z"/>
<path d="M18770 1449 l0 -280 23 3 22 3 3 278 2 277 -25 0 -25 0 0 -281z"/>
<path d="M19010 1450 l0 -280 25 0 25 0 0 280 0 280 -25 0 -25 0 0 -280z"/>
<path d="M19252 1453 l3 -278 23 -3 22 -3 0 280 0 281 -25 0 -25 0 2 -277z"/>
</g>
</svg>
