<?xml version="1.0" encoding="utf-8"?>
<!-- Generator: Adobe Illustrator 24.1.2, SVG Export Plug-In . SVG Version: 6.00 Build 0)  -->
<svg version="1.1" id="Warstwa_3" xmlns="http://www.w3.org/2000/svg" xmlns:xlink="http://www.w3.org/1999/xlink" x="0px" y="0px"
	 viewBox="0 0 430 430" style="enable-background:new 0 0 430 430;" xml:space="preserve">
<style type="text/css">
	.st0{fill:#000000;}
	.st1{fill:#000000;}
	.st2{fill:none;}
	.st3{fill-opacity:0;}
</style>
<g>
	<g>
		<path class="st1" d="M187.44,394.37h-152c-3.48,0-6.3-2.82-6.3-6.3v-31c0-3.48,2.82-6.3,6.3-6.3h13.45v-24.7
			c0-3.48,2.82-6.3,6.3-6.3h112.5c3.48,0,6.3,2.82,6.3,6.3v24.7h13.45c3.48,0,6.3,2.82,6.3,6.3v31
			C193.74,391.55,190.92,394.37,187.44,394.37z M41.74,381.77h139.4v-18.4H41.74V381.77z M61.49,350.77h99.9v-18.4h-99.9V350.77z"/>
		<path class="st1" d="M374.07,338.87c-14,0-31.45-10.78-53.36-32.69c-23.98-23.98-50.69-58.75-67.68-83.3l10.36-7.17
			c14.25,20.58,35.42,48.46,55.87,70.73l29.15-29.15c-18.22-16.73-42.26-35.89-66.85-53.17l7.25-10.31
			c30.4,21.37,60.06,45.64,79.35,64.93c32.93,32.93,40.72,55.8,24.54,71.99C387.28,336.14,381.11,338.87,374.07,338.87z
			 M347.52,313.35c11.34,8.85,18.99,11.9,23.85,12.7c6.49,1.06,9.7-1.51,12.42-4.23c2.72-2.72,5.29-5.92,4.23-12.42
			c-0.8-4.86-3.84-12.52-12.7-23.85L347.52,313.35z M327.94,295.58c0.56,0.57,1.12,1.14,1.68,1.7c2.91,2.9,5.66,5.53,8.25,7.89
			l29.27-29.27c-2.37-2.6-4.99-5.35-7.89-8.25c-0.56-0.56-1.12-1.12-1.7-1.68L327.94,295.58z"/>
		<path class="st0" d="M194.07,275.36c-5.45,0-10.91-2.08-15.06-6.23l-71.63-71.63c-4.02-4.02-6.24-9.37-6.24-15.06
			c0-5.69,2.21-11.04,6.24-15.06l5.73-5.73c4.02-4.02,9.37-6.24,15.06-6.24c4.7,0,9.17,1.51,12.85,4.3l84.22-84.22
			c-2.79-3.68-4.3-8.15-4.3-12.85c0-5.69,2.21-11.04,6.24-15.06l5.73-5.73c8.3-8.3,21.82-8.31,30.12,0l71.63,71.63
			c8.3,8.31,8.3,21.82,0,30.12l-5.73,5.73c-4.02,4.02-9.37,6.24-15.06,6.24c-4.7,0-9.17-1.51-12.85-4.3l-18.74,18.74l4.71,4.71
			c3.68,3.68,5.54,8.95,5.09,14.45c-0.42,5.2-2.79,10.2-6.68,14.09v0l-20.58,20.58c-4.28,4.28-10,6.73-15.69,6.73c0,0-0.01,0-0.01,0
			c-4.96,0-9.53-1.85-12.87-5.2c-1.77-1.77-3.34-3.35-4.66-4.67l-14.79,14.79c2.79,3.68,4.3,8.15,4.3,12.85
			c0,5.69-2.21,11.04-6.24,15.06l-5.73,5.73C204.98,273.29,199.53,275.36,194.07,275.36z M128.17,168.02
			c-2.23,0-4.46,0.85-6.15,2.54l-5.73,5.73c-1.64,1.64-2.54,3.83-2.54,6.15c0,2.33,0.9,4.51,2.54,6.15l71.63,71.63
			c1.64,1.64,3.83,2.54,6.15,2.54s4.51-0.9,6.15-2.54l5.73-5.73c3.39-3.39,3.39-8.91,0-12.3l-69.25-69.25
			c-0.02-0.02-0.03-0.03-0.05-0.05l-2.34-2.34C132.62,168.87,130.39,168.02,128.17,168.02z M150.06,168.49l57.96,57.96l83.94-83.94
			L234,84.55L150.06,168.49z M240.65,211.95l4.52,4.52c1.23,1.24,2.83,1.5,3.96,1.5c0,0,0,0,0,0c2.38,0,4.85-1.11,6.78-3.04
			l20.58-20.58v0c1.75-1.75,2.85-4.01,3.03-6.19c0.09-1.06,0.01-3.06-1.44-4.52l-4.56-4.56L240.65,211.95z M247.95,48.23
			c-2.23,0-4.46,0.85-6.15,2.54l-5.73,5.73c-1.64,1.64-2.54,3.83-2.54,6.15s0.9,4.51,2.54,6.15l71.63,71.63
			c3.39,3.39,8.91,3.39,12.3,0l5.73-5.73c3.39-3.39,3.39-8.91,0-12.3L254.1,50.78l0,0C252.41,49.08,250.18,48.23,247.95,48.23z"/>
	</g>
</g>
</svg>
