<?xml version="1.0" encoding="utf-8"?>
<!-- Generator: Adobe Illustrator 24.1.2, SVG Export Plug-In . SVG Version: 6.00 Build 0)  -->
<svg version="1.1" id="Warstwa_3" xmlns="http://www.w3.org/2000/svg" xmlns:xlink="http://www.w3.org/1999/xlink" x="0px" y="0px"
	 viewBox="0 0 430 430" style="enable-background:new 0 0 430 430;" xml:space="preserve">
<style type="text/css">
	.st0{fill:#000000;}
	.st1{fill:#000000;}
	.st2{fill:#000000;fill-opacity:0;}
	.st3{fill:none;}
</style>
<g>
	<path class="st1" d="M214.83,387.05c-31.3,0-58.83-4.8-81.84-14.26c-22.47-9.24-39.68-22.84-49.79-39.33
		c-14.39-23.5-14.21-51.18,0.52-80.07l62.07-121.69l-37.17-79.78c-1.19-2.55-0.54-5.58,1.59-7.42s5.22-2.05,7.57-0.51
		c8.28,5.42,32.71,19.47,46.1,19.47c7.01,0,13.03-4.05,20-8.74c8.03-5.4,17.12-11.51,29.16-11.51c11.7,0,20.01,5.82,27.34,10.96
		c7.11,4.98,13.25,9.29,22.21,9.29c19.01,0,46.93-18.73,47.21-18.92c2.33-1.58,5.43-1.41,7.59,0.4c2.16,1.81,2.84,4.84,1.69,7.41
		l-35.03,77.74l62.41,123.33c14.6,28.85,14.69,56.5,0.25,79.98c-10.15,16.51-27.41,30.13-49.92,39.38
		C273.72,382.24,246.15,387.05,214.83,387.05z M157.88,127.98c1.39,1.86,1.69,4.43,0.57,6.64l-63.5,124.5
		c-12.63,24.77-12.98,48.2-1,67.76c18.25,29.79,63.44,47.58,120.89,47.58c57.51,0,102.79-17.82,121.14-47.66
		c12.02-19.55,11.75-42.96-0.76-67.69l-62.56-123.63c-2.01-1.78-2.72-4.73-1.56-7.3l28.48-63.19c-10.8,5.45-24.9,11.08-36.97,11.08
		c-12.93,0-21.7-6.15-29.44-11.57c-6.65-4.66-12.39-8.68-20.11-8.68c-8.2,0-14.96,4.55-22.13,9.37
		c-7.95,5.35-16.18,10.88-27.03,10.88c-10.68,0-24.52-5.77-35.41-11.37l29.07,62.41C157.68,127.38,157.79,127.68,157.88,127.98z"/>
	<path class="st0" d="M288.83,223.05c-1.61,0-3.22-0.61-4.46-1.85c-25.69-25.69-18.3-64.86-13.28-82.15H150.33
		c-3.48,0-6.3-2.82-6.3-6.3s2.82-6.3,6.3-6.3h129.43c0.86-0.01,1.75,0.16,2.6,0.53c0,0,0,0,0.01,0c0.04,0.02,0.08,0.04,0.12,0.05
		c12.89,5.95,35.09,25.68,26.95,57.76c-0.85,3.37-4.28,5.41-7.65,4.56c-3.37-0.85-5.41-4.28-4.56-7.66
		c5.32-21-6.21-33.59-13.91-39.39c-4.26,14.82-10.96,49.06,9.97,69.99c2.46,2.46,2.46,6.45,0,8.91
		C292.05,222.44,290.44,223.05,288.83,223.05z"/>
</g>
</svg>
