<?xml version="1.0" encoding="utf-8"?>
<!-- Generator: Adobe Illustrator 24.1.2, SVG Export Plug-In . SVG Version: 6.00 Build 0)  -->
<svg version="1.1" id="Warstwa_1" xmlns="http://www.w3.org/2000/svg" xmlns:xlink="http://www.w3.org/1999/xlink" x="0px" y="0px"
	 viewBox="0 0 430 430" style="enable-background:new 0 0 430 430;" xml:space="preserve">
<style type="text/css">
	.st0{fill:#000000;}
	.st1{fill:#000000;}
	.st2{fill:#000000;}
	.st3{fill:#08A385;}
	.st4{fill:none;}
	.st5{fill:#08A284;}
	.st6{fill:#08A688;}
</style>
<g>
	<path class="st0" d="M60.32,229.16H49.45c-3.31,0-6-2.69-6-6s2.69-6,6-6h10.87c3.31,0,6,2.69,6,6S63.63,229.16,60.32,229.16z"/>
	<path class="st0" d="M268.37,62.22H215c-3.31,0-6,2.69-6,6v0.28v26.4v26.12c0,3.31,2.69,6,6,6s6-2.69,6-6v-20.12h47.37
		c3.31,0,6-2.69,6-6V68.22C274.37,64.91,271.69,62.22,268.37,62.22z M262.37,88.91H221V74.22h41.37V88.91z"/>
	<path class="st0" d="M60.32,263.75H49.45c-3.31,0-6-2.69-6-6s2.69-6,6-6h10.87c3.31,0,6,2.69,6,6S63.63,263.75,60.32,263.75z"/>
	<path class="st0" d="M60.32,298.34H49.45c-3.31,0-6-2.69-6-6s2.69-6,6-6h10.87c3.31,0,6,2.69,6,6S63.63,298.34,60.32,298.34z"/>
	<path class="st0" d="M380.55,229.16h-10.87c-3.31,0-6-2.69-6-6s2.69-6,6-6h10.87c3.31,0,6,2.69,6,6S383.87,229.16,380.55,229.16z"
		/>
	<path class="st0" d="M380.55,263.75h-10.87c-3.31,0-6-2.69-6-6s2.69-6,6-6h10.87c3.31,0,6,2.69,6,6S383.87,263.75,380.55,263.75z"
		/>
	<path class="st0" d="M380.55,298.34h-10.87c-3.31,0-6-2.69-6-6s2.69-6,6-6h10.87c3.31,0,6,2.69,6,6S383.87,298.34,380.55,298.34z"
		/>
	<path class="st1" d="M401.81,182.31h-53.37c-3.31,0-6,2.69-6,6v34.03h-47.37v-27.91c0-0.02,0-0.04,0-0.06
		c0-43.75-35.6-79.34-79.35-79.34h-1.43c-21.19,0-41.12,8.25-56.11,23.24c-14.98,14.99-23.24,34.91-23.24,56.1c0,0.01,0,0.03,0,0.04
		v27.93H87.57v-34.03c0-3.31-2.69-6-6-6H28.19c-3.31,0-6,2.69-6,6v173.46c0,3.31,2.69,6,6,6h53.37h266.87h53.37c3.31,0,6-2.69,6-6
		V188.31C407.81,185,405.12,182.31,401.81,182.31z M342.43,355.78h-47.37v-22.93V252.5c0-0.09-0.01-0.18-0.01-0.26
		c0-0.07-0.01-0.14-0.01-0.21c-0.02-0.26-0.05-0.52-0.11-0.78c0-0.02-0.01-0.03-0.01-0.05c-0.05-0.25-0.13-0.49-0.21-0.72
		c-0.02-0.05-0.04-0.1-0.05-0.15c-0.1-0.25-0.21-0.49-0.33-0.72c-0.01-0.02-0.02-0.04-0.03-0.06c-0.12-0.21-0.26-0.42-0.4-0.62
		c-0.04-0.05-0.07-0.1-0.11-0.14c-0.16-0.21-0.34-0.4-0.52-0.59c-0.01-0.01-0.02-0.02-0.03-0.03l-14.4-13.83h10.22
		c0.01,0,0.01,0,0.02,0s0.01,0,0.02,0h53.35V355.78z M215,189.66l9.29,8.93c0.03,0.03,0.06,0.06,0.09,0.08l35.29,33.9
		c0.01,0.01,0.02,0.02,0.04,0.03l14.46,13.89H155.84L215,189.66z M283.06,326.84h-25.03V258.5h25.03V326.84z M221,326.84V258.5
		h25.03v68.34H221z M183.97,326.84V258.5H209v68.34H183.97z M171.97,258.5v68.34h-25.03V258.5H171.97z M146.94,338.84h136.13v16.93
		H146.94V338.84z M266.33,222.34l-22.87-21.97h39.6v21.97H266.33z M166.66,146.76c12.73-12.72,29.64-19.72,47.63-19.72h1.43
		c35.12,0,64.04,27.01,67.09,61.34h-51.82l-11.82-11.36c-2.32-2.23-5.99-2.23-8.31,0l-11.82,11.36H147.2
		C148.58,172.65,155.36,158.05,166.66,146.76z M146.94,200.37h39.6l-22.87,21.97h-16.73V200.37z M140.92,234.34
		c0.01,0,0.01,0,0.02,0s0.01,0,0.02,0h10.22l-14.4,13.83c-0.01,0.01-0.02,0.02-0.03,0.03c-0.19,0.18-0.36,0.38-0.52,0.59
		c-0.04,0.05-0.07,0.1-0.11,0.14c-0.15,0.2-0.28,0.4-0.4,0.62c-0.01,0.02-0.02,0.04-0.03,0.05c-0.13,0.23-0.24,0.47-0.33,0.72
		c-0.02,0.05-0.04,0.1-0.05,0.15c-0.08,0.24-0.16,0.48-0.21,0.72c0,0.02-0.01,0.03-0.01,0.05c-0.05,0.25-0.09,0.51-0.11,0.78
		c-0.01,0.07-0.01,0.14-0.01,0.21c0,0.09-0.01,0.17-0.01,0.26v80.34v22.93H87.57V234.34H140.92z M34.19,194.31h41.37v33.99
		c0,0.01,0,0.03,0,0.04s0,0.03,0,0.04v127.4H34.19V194.31z M395.81,355.78h-41.37V228.4c0-0.02,0-0.04,0-0.06s0-0.04,0-0.06v-33.97
		h41.37V355.78z"/>
	<path class="st0" d="M116.69,263.75h-10.87c-3.31,0-6-2.69-6-6s2.69-6,6-6h10.87c3.31,0,6,2.69,6,6S120,263.75,116.69,263.75z"/>
	<path class="st0" d="M116.69,298.34h-10.87c-3.31,0-6-2.69-6-6s2.69-6,6-6h10.87c3.31,0,6,2.69,6,6S120,298.34,116.69,298.34z"/>
	<path class="st0" d="M324.18,263.75h-10.87c-3.31,0-6-2.69-6-6s2.69-6,6-6h10.87c3.31,0,6,2.69,6,6S327.5,263.75,324.18,263.75z"/>
	<path class="st0" d="M324.18,298.34h-10.87c-3.31,0-6-2.69-6-6s2.69-6,6-6h10.87c3.31,0,6,2.69,6,6S327.5,298.34,324.18,298.34z"/>
</g>
</svg>
