<?xml version="1.0" encoding="utf-8"?>
<!-- Generator: Adobe Illustrator 24.1.2, SVG Export Plug-In . SVG Version: 6.00 Build 0)  -->
<svg version="1.1" id="Warstwa_3" xmlns="http://www.w3.org/2000/svg" xmlns:xlink="http://www.w3.org/1999/xlink" x="0px" y="0px"
	 viewBox="0 0 430 430" style="enable-background:new 0 0 430 430;" xml:space="preserve">
<style type="text/css">
	.st0{fill:#000000;}
	.st1{fill:#000000;}
	.st2{fill:none;stroke:#000000;stroke-width:12;stroke-linecap:round;stroke-linejoin:round;stroke-miterlimit:10;}
	.st3{fill:none;stroke:#000000;stroke-width:12;stroke-linecap:round;stroke-linejoin:round;stroke-miterlimit:10;}
	.st4{fill:#000000;}
	.st5{fill:#FFFFFF;stroke:#000000;stroke-width:12;stroke-linecap:round;stroke-linejoin:round;stroke-miterlimit:10;}
</style>
<g>
	<path class="st1" d="M381.12,97.75c0-2.45-1.49-4.66-3.77-5.57l-42.78-17.13c-3.08-1.23-6.57,0.26-7.8,3.34
		c-1.23,3.08,0.26,6.57,3.34,7.8l39.01,15.62v75.26H60.88v-75.26l39.01-15.62c3.08-1.23,4.57-4.72,3.34-7.8s-4.72-4.57-7.8-3.34
		L52.65,92.18c-2.28,0.91-3.77,3.12-3.77,5.57v85.12c0,0.04,0,0.07,0.01,0.11c0,0.03,0,0.06,0,0.09v48.18c0,3.31,2.69,6,6,6h22.04
		l14.85,57.21c0.69,2.65,3.07,4.49,5.81,4.49h16.83v73.88c0,3.31,2.69,6,6,6s6-2.69,6-6v-73.88h177.18v73.88c0,3.31,2.69,6,6,6
		s6-2.69,6-6v-73.88h16.83c2.73,0,5.12-1.85,5.81-4.49l14.85-57.21h22.04c3.31,0,6-2.69,6-6v-48.18c0-0.03,0-0.06,0-0.09
		c0-0.04,0.01-0.07,0.01-0.11V97.75z M327.78,286.95H102.22l-12.9-49.71h251.35L327.78,286.95z M369.12,225.25H60.88v-36.18h308.24
		V225.25z"/>
	<path class="st0" d="M257.03,381.52c-3.31,0-6-2.69-6-6v-23.37h-72.06v23.37c0,3.31-2.69,6-6,6s-6-2.69-6-6v-29.37
		c0-3.31,2.69-6,6-6h84.06c3.31,0,6,2.69,6,6v29.37C263.03,378.84,260.34,381.52,257.03,381.52z"/>
	<path class="st0" d="M319.7,95.03c-2.33,0-4.66-0.42-6.9-1.26l-19.08-7.17c-4.91-1.85-8.81-5.5-10.99-10.3s-2.36-10.15-0.52-15.06
		c1.84-4.91,5.5-8.81,10.3-10.99c4.8-2.18,10.15-2.36,15.06-0.52l19.08,7.17c4.91,1.84,8.81,5.5,10.99,10.3s2.36,10.15,0.52,15.06
		c-1.84,4.91-5.5,8.81-10.3,10.99C325.25,94.44,322.48,95.03,319.7,95.03z M300.68,60.48c-1.09,0-2.17,0.23-3.2,0.7
		c-1.88,0.85-3.31,2.37-4.03,4.28c-0.72,1.91-0.64,4,0.21,5.88c0.85,1.88,2.38,3.31,4.28,4.03l0,0l19.08,7.17
		c1.91,0.72,4,0.64,5.88-0.21c1.88-0.85,3.31-2.37,4.03-4.28c0.72-1.91,0.64-4-0.21-5.88c-0.85-1.88-2.38-3.31-4.28-4.03
		l-19.08-7.17C302.49,60.64,301.58,60.48,300.68,60.48z"/>
	<path class="st0" d="M110.3,95.03c-2.77,0-5.54-0.59-8.15-1.78c-4.8-2.18-8.46-6.08-10.3-10.99C90,77.35,90.18,72,92.36,67.2
		s6.08-8.46,10.99-10.3l19.08-7.17c4.91-1.84,10.26-1.66,15.06,0.52c4.8,2.18,8.46,6.08,10.3,10.99c1.84,4.91,1.66,10.26-0.52,15.06
		s-6.08,8.46-10.99,10.3l-19.08,7.17C114.96,94.61,112.63,95.03,110.3,95.03z M129.32,60.48c-0.91,0-1.81,0.16-2.68,0.49
		l-19.08,7.17c-1.91,0.72-3.43,2.15-4.28,4.03c-0.85,1.88-0.93,3.97-0.21,5.88c0.72,1.91,2.15,3.43,4.03,4.28
		c1.88,0.85,3.97,0.93,5.88,0.21l19.08-7.17l0,0c1.91-0.72,3.43-2.15,4.28-4.03c0.85-1.88,0.93-3.97,0.21-5.88
		c-0.72-1.91-2.15-3.43-4.03-4.28C131.5,60.71,130.41,60.48,129.32,60.48z"/>
</g>
</svg>
